G04 #@! TF.GenerationSoftware,KiCad,Pcbnew,(5.1.5)-3*
G04 #@! TF.CreationDate,2021-10-17T17:05:07-07:00*
G04 #@! TF.ProjectId,D24V22Fx_breakout,44323456-3232-4467-985f-627265616b6f,rev?*
G04 #@! TF.SameCoordinates,Original*
G04 #@! TF.FileFunction,Copper,L2,Bot*
G04 #@! TF.FilePolarity,Positive*
%FSLAX46Y46*%
G04 Gerber Fmt 4.6, Leading zero omitted, Abs format (unit mm)*
G04 Created by KiCad (PCBNEW (5.1.5)-3) date 2021-10-17 17:05:07*
%MOMM*%
%LPD*%
G04 APERTURE LIST*
%ADD10O,1.700000X1.700000*%
%ADD11R,1.700000X1.700000*%
%ADD12C,1.524000*%
%ADD13C,3.500000*%
%ADD14R,3.500000X3.500000*%
%ADD15C,1.400000*%
%ADD16C,0.800000*%
%ADD17C,0.254000*%
G04 APERTURE END LIST*
D10*
X163830000Y-83820000D03*
X163830000Y-81280000D03*
X163830000Y-78740000D03*
D11*
X163830000Y-76200000D03*
D10*
X161290000Y-83820000D03*
X161290000Y-81280000D03*
X161290000Y-78740000D03*
D11*
X161290000Y-76200000D03*
D10*
X158750000Y-83820000D03*
X158750000Y-81280000D03*
X158750000Y-78740000D03*
D11*
X158750000Y-76200000D03*
D10*
X128300000Y-70300000D03*
D11*
X125760000Y-70300000D03*
D12*
X155422600Y-86898480D03*
X155422600Y-84358480D03*
X155422600Y-81818480D03*
X155422600Y-79278480D03*
X155422600Y-76738480D03*
X144732600Y-86898480D03*
D13*
X130937000Y-82470000D03*
D14*
X130937000Y-77470000D03*
D15*
X120937000Y-85470000D03*
X120937000Y-74470000D03*
D10*
X136200000Y-73920000D03*
X136200000Y-76460000D03*
D11*
X136200000Y-79000000D03*
D16*
X164000000Y-70000000D03*
X157000000Y-70000000D03*
X149000000Y-70000000D03*
X149000000Y-80000000D03*
X142000000Y-80000000D03*
X142000000Y-74000000D03*
X154000000Y-91000000D03*
X149000000Y-85000000D03*
X126000000Y-85000000D03*
X126000000Y-80000000D03*
X126108500Y-74891500D03*
X121000000Y-80000000D03*
X169250000Y-76250000D03*
X169250000Y-80000000D03*
X169250000Y-83750000D03*
X164500000Y-87500000D03*
D17*
G36*
X172447063Y-67742168D02*
G01*
X172877097Y-67872003D01*
X173273724Y-68082892D01*
X173621831Y-68366801D01*
X173908169Y-68712923D01*
X174121822Y-69108068D01*
X174254656Y-69537184D01*
X174305001Y-70016186D01*
X174305000Y-89966009D01*
X174257832Y-90447063D01*
X174127997Y-90877097D01*
X173917108Y-91273723D01*
X173633197Y-91621832D01*
X173287074Y-91908170D01*
X172891931Y-92121823D01*
X172462817Y-92254656D01*
X171983824Y-92305000D01*
X120033991Y-92305000D01*
X119552937Y-92257832D01*
X119122903Y-92127997D01*
X118726277Y-91917108D01*
X118378168Y-91633197D01*
X118091830Y-91287074D01*
X117878177Y-90891931D01*
X117745344Y-90462817D01*
X117695000Y-89983824D01*
X117695000Y-89829117D01*
X118265000Y-89829117D01*
X118265000Y-90170883D01*
X118331675Y-90506081D01*
X118462463Y-90821831D01*
X118652337Y-91105998D01*
X118894002Y-91347663D01*
X119178169Y-91537537D01*
X119493919Y-91668325D01*
X119829117Y-91735000D01*
X120170883Y-91735000D01*
X120506081Y-91668325D01*
X120821831Y-91537537D01*
X121105998Y-91347663D01*
X121347663Y-91105998D01*
X121537537Y-90821831D01*
X121668325Y-90506081D01*
X121735000Y-90170883D01*
X121735000Y-89829117D01*
X170265000Y-89829117D01*
X170265000Y-90170883D01*
X170331675Y-90506081D01*
X170462463Y-90821831D01*
X170652337Y-91105998D01*
X170894002Y-91347663D01*
X171178169Y-91537537D01*
X171493919Y-91668325D01*
X171829117Y-91735000D01*
X172170883Y-91735000D01*
X172506081Y-91668325D01*
X172821831Y-91537537D01*
X173105998Y-91347663D01*
X173347663Y-91105998D01*
X173537537Y-90821831D01*
X173668325Y-90506081D01*
X173735000Y-90170883D01*
X173735000Y-89829117D01*
X173668325Y-89493919D01*
X173537537Y-89178169D01*
X173347663Y-88894002D01*
X173105998Y-88652337D01*
X172821831Y-88462463D01*
X172506081Y-88331675D01*
X172170883Y-88265000D01*
X171829117Y-88265000D01*
X171493919Y-88331675D01*
X171178169Y-88462463D01*
X170894002Y-88652337D01*
X170652337Y-88894002D01*
X170462463Y-89178169D01*
X170331675Y-89493919D01*
X170265000Y-89829117D01*
X121735000Y-89829117D01*
X121668325Y-89493919D01*
X121537537Y-89178169D01*
X121347663Y-88894002D01*
X121105998Y-88652337D01*
X120821831Y-88462463D01*
X120506081Y-88331675D01*
X120170883Y-88265000D01*
X119829117Y-88265000D01*
X119493919Y-88331675D01*
X119178169Y-88462463D01*
X118894002Y-88652337D01*
X118652337Y-88894002D01*
X118462463Y-89178169D01*
X118331675Y-89493919D01*
X118265000Y-89829117D01*
X117695000Y-89829117D01*
X117695000Y-87864045D01*
X143946640Y-87864045D01*
X144013620Y-88104136D01*
X144262648Y-88221236D01*
X144529735Y-88287503D01*
X144804617Y-88300390D01*
X145076733Y-88259402D01*
X145335623Y-88166116D01*
X145451580Y-88104136D01*
X145518560Y-87864045D01*
X144732600Y-87078085D01*
X143946640Y-87864045D01*
X117695000Y-87864045D01*
X117695000Y-85338514D01*
X119602000Y-85338514D01*
X119602000Y-85601486D01*
X119653304Y-85859405D01*
X119753939Y-86102359D01*
X119900038Y-86321013D01*
X120085987Y-86506962D01*
X120304641Y-86653061D01*
X120547595Y-86753696D01*
X120805514Y-86805000D01*
X121068486Y-86805000D01*
X121326405Y-86753696D01*
X121569359Y-86653061D01*
X121788013Y-86506962D01*
X121973962Y-86321013D01*
X122120061Y-86102359D01*
X122220696Y-85859405D01*
X122250922Y-85707447D01*
X139557600Y-85707447D01*
X139557600Y-86029513D01*
X139620432Y-86345392D01*
X139743682Y-86642943D01*
X139922613Y-86910732D01*
X140150348Y-87138467D01*
X140418137Y-87317398D01*
X140715688Y-87440648D01*
X141031567Y-87503480D01*
X141353633Y-87503480D01*
X141669512Y-87440648D01*
X141967063Y-87317398D01*
X142234852Y-87138467D01*
X142402822Y-86970497D01*
X143330690Y-86970497D01*
X143371678Y-87242613D01*
X143464964Y-87501503D01*
X143526944Y-87617460D01*
X143767035Y-87684440D01*
X144552995Y-86898480D01*
X144912205Y-86898480D01*
X145698165Y-87684440D01*
X145938256Y-87617460D01*
X146055356Y-87368432D01*
X146121623Y-87101345D01*
X146134510Y-86826463D01*
X146093522Y-86554347D01*
X146000236Y-86295457D01*
X145938256Y-86179500D01*
X145698165Y-86112520D01*
X144912205Y-86898480D01*
X144552995Y-86898480D01*
X143767035Y-86112520D01*
X143526944Y-86179500D01*
X143409844Y-86428528D01*
X143343577Y-86695615D01*
X143330690Y-86970497D01*
X142402822Y-86970497D01*
X142462587Y-86910732D01*
X142641518Y-86642943D01*
X142764768Y-86345392D01*
X142827600Y-86029513D01*
X142827600Y-85932915D01*
X143946640Y-85932915D01*
X144732600Y-86718875D01*
X145518560Y-85932915D01*
X145451580Y-85692824D01*
X145202552Y-85575724D01*
X144935465Y-85509457D01*
X144660583Y-85496570D01*
X144388467Y-85537558D01*
X144129577Y-85630844D01*
X144013620Y-85692824D01*
X143946640Y-85932915D01*
X142827600Y-85932915D01*
X142827600Y-85707447D01*
X142764768Y-85391568D01*
X142641518Y-85094017D01*
X142462587Y-84826228D01*
X142234852Y-84598493D01*
X141967063Y-84419562D01*
X141669512Y-84296312D01*
X141353633Y-84233480D01*
X141031567Y-84233480D01*
X140715688Y-84296312D01*
X140418137Y-84419562D01*
X140150348Y-84598493D01*
X139922613Y-84826228D01*
X139743682Y-85094017D01*
X139620432Y-85391568D01*
X139557600Y-85707447D01*
X122250922Y-85707447D01*
X122272000Y-85601486D01*
X122272000Y-85338514D01*
X122220696Y-85080595D01*
X122120061Y-84837641D01*
X121973962Y-84618987D01*
X121788013Y-84433038D01*
X121569359Y-84286939D01*
X121326405Y-84186304D01*
X121068486Y-84135000D01*
X120805514Y-84135000D01*
X120547595Y-84186304D01*
X120304641Y-84286939D01*
X120085987Y-84433038D01*
X119900038Y-84618987D01*
X119753939Y-84837641D01*
X119653304Y-85080595D01*
X119602000Y-85338514D01*
X117695000Y-85338514D01*
X117695000Y-82235098D01*
X128552000Y-82235098D01*
X128552000Y-82704902D01*
X128643654Y-83165679D01*
X128823440Y-83599721D01*
X129084450Y-83990349D01*
X129416651Y-84322550D01*
X129807279Y-84583560D01*
X130241321Y-84763346D01*
X130702098Y-84855000D01*
X131171902Y-84855000D01*
X131632679Y-84763346D01*
X132066721Y-84583560D01*
X132457349Y-84322550D01*
X132789550Y-83990349D01*
X133050560Y-83599721D01*
X133230346Y-83165679D01*
X133322000Y-82704902D01*
X133322000Y-82235098D01*
X133230346Y-81774321D01*
X133191645Y-81680888D01*
X154025600Y-81680888D01*
X154025600Y-81956072D01*
X154079286Y-82225970D01*
X154184595Y-82480207D01*
X154337480Y-82709015D01*
X154532065Y-82903600D01*
X154760873Y-83056485D01*
X154838115Y-83088480D01*
X154760873Y-83120475D01*
X154532065Y-83273360D01*
X154337480Y-83467945D01*
X154184595Y-83696753D01*
X154079286Y-83950990D01*
X154025600Y-84220888D01*
X154025600Y-84496072D01*
X154079286Y-84765970D01*
X154184595Y-85020207D01*
X154337480Y-85249015D01*
X154532065Y-85443600D01*
X154760873Y-85596485D01*
X154838115Y-85628480D01*
X154760873Y-85660475D01*
X154532065Y-85813360D01*
X154337480Y-86007945D01*
X154184595Y-86236753D01*
X154079286Y-86490990D01*
X154025600Y-86760888D01*
X154025600Y-87036072D01*
X154079286Y-87305970D01*
X154184595Y-87560207D01*
X154337480Y-87789015D01*
X154532065Y-87983600D01*
X154760873Y-88136485D01*
X155015110Y-88241794D01*
X155285008Y-88295480D01*
X155560192Y-88295480D01*
X155830090Y-88241794D01*
X156084327Y-88136485D01*
X156313135Y-87983600D01*
X156507720Y-87789015D01*
X156660605Y-87560207D01*
X156765914Y-87305970D01*
X156819600Y-87036072D01*
X156819600Y-86760888D01*
X156765914Y-86490990D01*
X156660605Y-86236753D01*
X156507720Y-86007945D01*
X156313135Y-85813360D01*
X156084327Y-85660475D01*
X156007085Y-85628480D01*
X156084327Y-85596485D01*
X156313135Y-85443600D01*
X156507720Y-85249015D01*
X156660605Y-85020207D01*
X156765914Y-84765970D01*
X156819600Y-84496072D01*
X156819600Y-84220888D01*
X156810849Y-84176890D01*
X157308524Y-84176890D01*
X157353175Y-84324099D01*
X157478359Y-84586920D01*
X157652412Y-84820269D01*
X157868645Y-85015178D01*
X158118748Y-85164157D01*
X158393109Y-85261481D01*
X158623000Y-85140814D01*
X158623000Y-83947000D01*
X157429845Y-83947000D01*
X157308524Y-84176890D01*
X156810849Y-84176890D01*
X156765914Y-83950990D01*
X156660605Y-83696753D01*
X156507720Y-83467945D01*
X156313135Y-83273360D01*
X156084327Y-83120475D01*
X156007085Y-83088480D01*
X156084327Y-83056485D01*
X156313135Y-82903600D01*
X156507720Y-82709015D01*
X156660605Y-82480207D01*
X156765914Y-82225970D01*
X156819600Y-81956072D01*
X156819600Y-81680888D01*
X156810849Y-81636890D01*
X157308524Y-81636890D01*
X157353175Y-81784099D01*
X157478359Y-82046920D01*
X157652412Y-82280269D01*
X157868645Y-82475178D01*
X157994255Y-82550000D01*
X157868645Y-82624822D01*
X157652412Y-82819731D01*
X157478359Y-83053080D01*
X157353175Y-83315901D01*
X157308524Y-83463110D01*
X157429845Y-83693000D01*
X158623000Y-83693000D01*
X158623000Y-81407000D01*
X157429845Y-81407000D01*
X157308524Y-81636890D01*
X156810849Y-81636890D01*
X156765914Y-81410990D01*
X156660605Y-81156753D01*
X156507720Y-80927945D01*
X156313135Y-80733360D01*
X156084327Y-80580475D01*
X156012657Y-80550788D01*
X156025623Y-80546116D01*
X156141580Y-80484136D01*
X156208560Y-80244045D01*
X155422600Y-79458085D01*
X154636640Y-80244045D01*
X154703620Y-80484136D01*
X154839360Y-80547965D01*
X154760873Y-80580475D01*
X154532065Y-80733360D01*
X154337480Y-80927945D01*
X154184595Y-81156753D01*
X154079286Y-81410990D01*
X154025600Y-81680888D01*
X133191645Y-81680888D01*
X133050560Y-81340279D01*
X132789550Y-80949651D01*
X132457349Y-80617450D01*
X132066721Y-80356440D01*
X131632679Y-80176654D01*
X131171902Y-80085000D01*
X130702098Y-80085000D01*
X130241321Y-80176654D01*
X129807279Y-80356440D01*
X129416651Y-80617450D01*
X129084450Y-80949651D01*
X128823440Y-81340279D01*
X128643654Y-81774321D01*
X128552000Y-82235098D01*
X117695000Y-82235098D01*
X117695000Y-79220000D01*
X128548928Y-79220000D01*
X128561188Y-79344482D01*
X128597498Y-79464180D01*
X128656463Y-79574494D01*
X128735815Y-79671185D01*
X128832506Y-79750537D01*
X128942820Y-79809502D01*
X129062518Y-79845812D01*
X129187000Y-79858072D01*
X130651250Y-79855000D01*
X130810000Y-79696250D01*
X130810000Y-77597000D01*
X131064000Y-77597000D01*
X131064000Y-79696250D01*
X131222750Y-79855000D01*
X132687000Y-79858072D01*
X132768959Y-79850000D01*
X134711928Y-79850000D01*
X134724188Y-79974482D01*
X134760498Y-80094180D01*
X134819463Y-80204494D01*
X134898815Y-80301185D01*
X134995506Y-80380537D01*
X135105820Y-80439502D01*
X135225518Y-80475812D01*
X135350000Y-80488072D01*
X135914250Y-80485000D01*
X136073000Y-80326250D01*
X136073000Y-79127000D01*
X136327000Y-79127000D01*
X136327000Y-80326250D01*
X136485750Y-80485000D01*
X137050000Y-80488072D01*
X137174482Y-80475812D01*
X137294180Y-80439502D01*
X137404494Y-80380537D01*
X137501185Y-80301185D01*
X137580537Y-80204494D01*
X137639502Y-80094180D01*
X137675812Y-79974482D01*
X137688072Y-79850000D01*
X137685353Y-79350497D01*
X154020690Y-79350497D01*
X154061678Y-79622613D01*
X154154964Y-79881503D01*
X154216944Y-79997460D01*
X154457035Y-80064440D01*
X155242995Y-79278480D01*
X155602205Y-79278480D01*
X156388165Y-80064440D01*
X156628256Y-79997460D01*
X156745356Y-79748432D01*
X156811623Y-79481345D01*
X156824510Y-79206463D01*
X156808006Y-79096890D01*
X157308524Y-79096890D01*
X157353175Y-79244099D01*
X157478359Y-79506920D01*
X157652412Y-79740269D01*
X157868645Y-79935178D01*
X157994255Y-80010000D01*
X157868645Y-80084822D01*
X157652412Y-80279731D01*
X157478359Y-80513080D01*
X157353175Y-80775901D01*
X157308524Y-80923110D01*
X157429845Y-81153000D01*
X158623000Y-81153000D01*
X158623000Y-78867000D01*
X157429845Y-78867000D01*
X157308524Y-79096890D01*
X156808006Y-79096890D01*
X156783522Y-78934347D01*
X156690236Y-78675457D01*
X156628256Y-78559500D01*
X156388165Y-78492520D01*
X155602205Y-79278480D01*
X155242995Y-79278480D01*
X154457035Y-78492520D01*
X154216944Y-78559500D01*
X154099844Y-78808528D01*
X154033577Y-79075615D01*
X154020690Y-79350497D01*
X137685353Y-79350497D01*
X137685000Y-79285750D01*
X137526250Y-79127000D01*
X136327000Y-79127000D01*
X136073000Y-79127000D01*
X134873750Y-79127000D01*
X134715000Y-79285750D01*
X134711928Y-79850000D01*
X132768959Y-79850000D01*
X132811482Y-79845812D01*
X132931180Y-79809502D01*
X133041494Y-79750537D01*
X133138185Y-79671185D01*
X133217537Y-79574494D01*
X133276502Y-79464180D01*
X133312812Y-79344482D01*
X133325072Y-79220000D01*
X133322828Y-78150000D01*
X134711928Y-78150000D01*
X134715000Y-78714250D01*
X134873750Y-78873000D01*
X136073000Y-78873000D01*
X136073000Y-78853000D01*
X136327000Y-78853000D01*
X136327000Y-78873000D01*
X137526250Y-78873000D01*
X137685000Y-78714250D01*
X137688072Y-78150000D01*
X137675812Y-78025518D01*
X137639502Y-77905820D01*
X137580537Y-77795506D01*
X137501185Y-77698815D01*
X137404494Y-77619463D01*
X137294180Y-77560498D01*
X137221620Y-77538487D01*
X137353475Y-77406632D01*
X137515990Y-77163411D01*
X137627932Y-76893158D01*
X137685000Y-76606260D01*
X137685000Y-76600888D01*
X154025600Y-76600888D01*
X154025600Y-76876072D01*
X154079286Y-77145970D01*
X154184595Y-77400207D01*
X154337480Y-77629015D01*
X154532065Y-77823600D01*
X154760873Y-77976485D01*
X154832543Y-78006172D01*
X154819577Y-78010844D01*
X154703620Y-78072824D01*
X154636640Y-78312915D01*
X155422600Y-79098875D01*
X156208560Y-78312915D01*
X156141580Y-78072824D01*
X156005840Y-78008995D01*
X156084327Y-77976485D01*
X156313135Y-77823600D01*
X156507720Y-77629015D01*
X156660605Y-77400207D01*
X156765914Y-77145970D01*
X156785003Y-77050000D01*
X157261928Y-77050000D01*
X157274188Y-77174482D01*
X157310498Y-77294180D01*
X157369463Y-77404494D01*
X157448815Y-77501185D01*
X157545506Y-77580537D01*
X157655820Y-77639502D01*
X157736466Y-77663966D01*
X157652412Y-77739731D01*
X157478359Y-77973080D01*
X157353175Y-78235901D01*
X157308524Y-78383110D01*
X157429845Y-78613000D01*
X158623000Y-78613000D01*
X158623000Y-76327000D01*
X157423750Y-76327000D01*
X157265000Y-76485750D01*
X157261928Y-77050000D01*
X156785003Y-77050000D01*
X156819600Y-76876072D01*
X156819600Y-76600888D01*
X156765914Y-76330990D01*
X156660605Y-76076753D01*
X156507720Y-75847945D01*
X156313135Y-75653360D01*
X156084327Y-75500475D01*
X155830090Y-75395166D01*
X155603025Y-75350000D01*
X157261928Y-75350000D01*
X157265000Y-75914250D01*
X157423750Y-76073000D01*
X158623000Y-76073000D01*
X158623000Y-74873750D01*
X158877000Y-74873750D01*
X158877000Y-76073000D01*
X158897000Y-76073000D01*
X158897000Y-76327000D01*
X158877000Y-76327000D01*
X158877000Y-78613000D01*
X158897000Y-78613000D01*
X158897000Y-78867000D01*
X158877000Y-78867000D01*
X158877000Y-81153000D01*
X158897000Y-81153000D01*
X158897000Y-81407000D01*
X158877000Y-81407000D01*
X158877000Y-83693000D01*
X158897000Y-83693000D01*
X158897000Y-83947000D01*
X158877000Y-83947000D01*
X158877000Y-85140814D01*
X159106891Y-85261481D01*
X159381252Y-85164157D01*
X159631355Y-85015178D01*
X159847588Y-84820269D01*
X160018900Y-84590594D01*
X160136525Y-84766632D01*
X160343368Y-84973475D01*
X160586589Y-85135990D01*
X160856842Y-85247932D01*
X161143740Y-85305000D01*
X161436260Y-85305000D01*
X161723158Y-85247932D01*
X161993411Y-85135990D01*
X162236632Y-84973475D01*
X162443475Y-84766632D01*
X162561100Y-84590594D01*
X162732412Y-84820269D01*
X162948645Y-85015178D01*
X163198748Y-85164157D01*
X163473109Y-85261481D01*
X163703000Y-85140814D01*
X163703000Y-83947000D01*
X163957000Y-83947000D01*
X163957000Y-85140814D01*
X164186891Y-85261481D01*
X164461252Y-85164157D01*
X164711355Y-85015178D01*
X164927588Y-84820269D01*
X165101641Y-84586920D01*
X165226825Y-84324099D01*
X165271476Y-84176890D01*
X165150155Y-83947000D01*
X163957000Y-83947000D01*
X163703000Y-83947000D01*
X163683000Y-83947000D01*
X163683000Y-83693000D01*
X163703000Y-83693000D01*
X163703000Y-81407000D01*
X163957000Y-81407000D01*
X163957000Y-83693000D01*
X165150155Y-83693000D01*
X165271476Y-83463110D01*
X165226825Y-83315901D01*
X165101641Y-83053080D01*
X164927588Y-82819731D01*
X164711355Y-82624822D01*
X164585745Y-82550000D01*
X164711355Y-82475178D01*
X164927588Y-82280269D01*
X165101641Y-82046920D01*
X165226825Y-81784099D01*
X165271476Y-81636890D01*
X165150155Y-81407000D01*
X163957000Y-81407000D01*
X163703000Y-81407000D01*
X163683000Y-81407000D01*
X163683000Y-81153000D01*
X163703000Y-81153000D01*
X163703000Y-78867000D01*
X163957000Y-78867000D01*
X163957000Y-81153000D01*
X165150155Y-81153000D01*
X165271476Y-80923110D01*
X165226825Y-80775901D01*
X165101641Y-80513080D01*
X164927588Y-80279731D01*
X164711355Y-80084822D01*
X164585745Y-80010000D01*
X164711355Y-79935178D01*
X164927588Y-79740269D01*
X165101641Y-79506920D01*
X165226825Y-79244099D01*
X165271476Y-79096890D01*
X165150155Y-78867000D01*
X163957000Y-78867000D01*
X163703000Y-78867000D01*
X163683000Y-78867000D01*
X163683000Y-78613000D01*
X163703000Y-78613000D01*
X163703000Y-76327000D01*
X163957000Y-76327000D01*
X163957000Y-78613000D01*
X165150155Y-78613000D01*
X165271476Y-78383110D01*
X165226825Y-78235901D01*
X165101641Y-77973080D01*
X164927588Y-77739731D01*
X164843534Y-77663966D01*
X164924180Y-77639502D01*
X165034494Y-77580537D01*
X165131185Y-77501185D01*
X165210537Y-77404494D01*
X165269502Y-77294180D01*
X165305812Y-77174482D01*
X165318072Y-77050000D01*
X165315000Y-76485750D01*
X165156250Y-76327000D01*
X163957000Y-76327000D01*
X163703000Y-76327000D01*
X163683000Y-76327000D01*
X163683000Y-76073000D01*
X163703000Y-76073000D01*
X163703000Y-74873750D01*
X163957000Y-74873750D01*
X163957000Y-76073000D01*
X165156250Y-76073000D01*
X165315000Y-75914250D01*
X165318072Y-75350000D01*
X165305812Y-75225518D01*
X165269502Y-75105820D01*
X165210537Y-74995506D01*
X165131185Y-74898815D01*
X165034494Y-74819463D01*
X164924180Y-74760498D01*
X164804482Y-74724188D01*
X164680000Y-74711928D01*
X164115750Y-74715000D01*
X163957000Y-74873750D01*
X163703000Y-74873750D01*
X163544250Y-74715000D01*
X162980000Y-74711928D01*
X162855518Y-74724188D01*
X162735820Y-74760498D01*
X162625506Y-74819463D01*
X162560000Y-74873222D01*
X162494494Y-74819463D01*
X162384180Y-74760498D01*
X162264482Y-74724188D01*
X162140000Y-74711928D01*
X160440000Y-74711928D01*
X160315518Y-74724188D01*
X160195820Y-74760498D01*
X160085506Y-74819463D01*
X160020000Y-74873222D01*
X159954494Y-74819463D01*
X159844180Y-74760498D01*
X159724482Y-74724188D01*
X159600000Y-74711928D01*
X159035750Y-74715000D01*
X158877000Y-74873750D01*
X158623000Y-74873750D01*
X158464250Y-74715000D01*
X157900000Y-74711928D01*
X157775518Y-74724188D01*
X157655820Y-74760498D01*
X157545506Y-74819463D01*
X157448815Y-74898815D01*
X157369463Y-74995506D01*
X157310498Y-75105820D01*
X157274188Y-75225518D01*
X157261928Y-75350000D01*
X155603025Y-75350000D01*
X155560192Y-75341480D01*
X155285008Y-75341480D01*
X155015110Y-75395166D01*
X154760873Y-75500475D01*
X154532065Y-75653360D01*
X154337480Y-75847945D01*
X154184595Y-76076753D01*
X154079286Y-76330990D01*
X154025600Y-76600888D01*
X137685000Y-76600888D01*
X137685000Y-76313740D01*
X137627932Y-76026842D01*
X137515990Y-75756589D01*
X137353475Y-75513368D01*
X137146632Y-75306525D01*
X136964466Y-75184805D01*
X137081355Y-75115178D01*
X137297588Y-74920269D01*
X137471641Y-74686920D01*
X137596825Y-74424099D01*
X137641476Y-74276890D01*
X137520155Y-74047000D01*
X136327000Y-74047000D01*
X136327000Y-74067000D01*
X136073000Y-74067000D01*
X136073000Y-74047000D01*
X134879845Y-74047000D01*
X134758524Y-74276890D01*
X134803175Y-74424099D01*
X134928359Y-74686920D01*
X135102412Y-74920269D01*
X135318645Y-75115178D01*
X135435534Y-75184805D01*
X135253368Y-75306525D01*
X135046525Y-75513368D01*
X134884010Y-75756589D01*
X134772068Y-76026842D01*
X134715000Y-76313740D01*
X134715000Y-76606260D01*
X134772068Y-76893158D01*
X134884010Y-77163411D01*
X135046525Y-77406632D01*
X135178380Y-77538487D01*
X135105820Y-77560498D01*
X134995506Y-77619463D01*
X134898815Y-77698815D01*
X134819463Y-77795506D01*
X134760498Y-77905820D01*
X134724188Y-78025518D01*
X134711928Y-78150000D01*
X133322828Y-78150000D01*
X133322000Y-77755750D01*
X133163250Y-77597000D01*
X131064000Y-77597000D01*
X130810000Y-77597000D01*
X128710750Y-77597000D01*
X128552000Y-77755750D01*
X128548928Y-79220000D01*
X117695000Y-79220000D01*
X117695000Y-74338514D01*
X119602000Y-74338514D01*
X119602000Y-74601486D01*
X119653304Y-74859405D01*
X119753939Y-75102359D01*
X119900038Y-75321013D01*
X120085987Y-75506962D01*
X120304641Y-75653061D01*
X120547595Y-75753696D01*
X120805514Y-75805000D01*
X121068486Y-75805000D01*
X121326405Y-75753696D01*
X121407754Y-75720000D01*
X128548928Y-75720000D01*
X128552000Y-77184250D01*
X128710750Y-77343000D01*
X130810000Y-77343000D01*
X130810000Y-75243750D01*
X131064000Y-75243750D01*
X131064000Y-77343000D01*
X133163250Y-77343000D01*
X133322000Y-77184250D01*
X133325072Y-75720000D01*
X133312812Y-75595518D01*
X133276502Y-75475820D01*
X133217537Y-75365506D01*
X133138185Y-75268815D01*
X133041494Y-75189463D01*
X132931180Y-75130498D01*
X132811482Y-75094188D01*
X132687000Y-75081928D01*
X131222750Y-75085000D01*
X131064000Y-75243750D01*
X130810000Y-75243750D01*
X130651250Y-75085000D01*
X129187000Y-75081928D01*
X129062518Y-75094188D01*
X128942820Y-75130498D01*
X128832506Y-75189463D01*
X128735815Y-75268815D01*
X128656463Y-75365506D01*
X128597498Y-75475820D01*
X128561188Y-75595518D01*
X128548928Y-75720000D01*
X121407754Y-75720000D01*
X121569359Y-75653061D01*
X121788013Y-75506962D01*
X121973962Y-75321013D01*
X122120061Y-75102359D01*
X122220696Y-74859405D01*
X122272000Y-74601486D01*
X122272000Y-74338514D01*
X122220696Y-74080595D01*
X122120061Y-73837641D01*
X121973962Y-73618987D01*
X121918085Y-73563110D01*
X134758524Y-73563110D01*
X134879845Y-73793000D01*
X136073000Y-73793000D01*
X136073000Y-72599186D01*
X136327000Y-72599186D01*
X136327000Y-73793000D01*
X137520155Y-73793000D01*
X137641476Y-73563110D01*
X137596825Y-73415901D01*
X137471641Y-73153080D01*
X137297588Y-72919731D01*
X137128644Y-72767447D01*
X152517600Y-72767447D01*
X152517600Y-73089513D01*
X152580432Y-73405392D01*
X152703682Y-73702943D01*
X152882613Y-73970732D01*
X153110348Y-74198467D01*
X153378137Y-74377398D01*
X153675688Y-74500648D01*
X153991567Y-74563480D01*
X154313633Y-74563480D01*
X154629512Y-74500648D01*
X154927063Y-74377398D01*
X155194852Y-74198467D01*
X155422587Y-73970732D01*
X155601518Y-73702943D01*
X155724768Y-73405392D01*
X155787600Y-73089513D01*
X155787600Y-72767447D01*
X155724768Y-72451568D01*
X155601518Y-72154017D01*
X155422587Y-71886228D01*
X155194852Y-71658493D01*
X154927063Y-71479562D01*
X154629512Y-71356312D01*
X154313633Y-71293480D01*
X153991567Y-71293480D01*
X153675688Y-71356312D01*
X153378137Y-71479562D01*
X153110348Y-71658493D01*
X152882613Y-71886228D01*
X152703682Y-72154017D01*
X152580432Y-72451568D01*
X152517600Y-72767447D01*
X137128644Y-72767447D01*
X137081355Y-72724822D01*
X136831252Y-72575843D01*
X136556891Y-72478519D01*
X136327000Y-72599186D01*
X136073000Y-72599186D01*
X135843109Y-72478519D01*
X135568748Y-72575843D01*
X135318645Y-72724822D01*
X135102412Y-72919731D01*
X134928359Y-73153080D01*
X134803175Y-73415901D01*
X134758524Y-73563110D01*
X121918085Y-73563110D01*
X121788013Y-73433038D01*
X121569359Y-73286939D01*
X121326405Y-73186304D01*
X121068486Y-73135000D01*
X120805514Y-73135000D01*
X120547595Y-73186304D01*
X120304641Y-73286939D01*
X120085987Y-73433038D01*
X119900038Y-73618987D01*
X119753939Y-73837641D01*
X119653304Y-74080595D01*
X119602000Y-74338514D01*
X117695000Y-74338514D01*
X117695000Y-70033992D01*
X117715088Y-69829117D01*
X118265000Y-69829117D01*
X118265000Y-70170883D01*
X118331675Y-70506081D01*
X118462463Y-70821831D01*
X118652337Y-71105998D01*
X118894002Y-71347663D01*
X119178169Y-71537537D01*
X119493919Y-71668325D01*
X119829117Y-71735000D01*
X120170883Y-71735000D01*
X120506081Y-71668325D01*
X120821831Y-71537537D01*
X121105998Y-71347663D01*
X121303661Y-71150000D01*
X124271928Y-71150000D01*
X124284188Y-71274482D01*
X124320498Y-71394180D01*
X124379463Y-71504494D01*
X124458815Y-71601185D01*
X124555506Y-71680537D01*
X124665820Y-71739502D01*
X124785518Y-71775812D01*
X124910000Y-71788072D01*
X125474250Y-71785000D01*
X125633000Y-71626250D01*
X125633000Y-70427000D01*
X124433750Y-70427000D01*
X124275000Y-70585750D01*
X124271928Y-71150000D01*
X121303661Y-71150000D01*
X121347663Y-71105998D01*
X121537537Y-70821831D01*
X121668325Y-70506081D01*
X121735000Y-70170883D01*
X121735000Y-69829117D01*
X121668325Y-69493919D01*
X121650134Y-69450000D01*
X124271928Y-69450000D01*
X124275000Y-70014250D01*
X124433750Y-70173000D01*
X125633000Y-70173000D01*
X125633000Y-68973750D01*
X125887000Y-68973750D01*
X125887000Y-70173000D01*
X125907000Y-70173000D01*
X125907000Y-70427000D01*
X125887000Y-70427000D01*
X125887000Y-71626250D01*
X126045750Y-71785000D01*
X126610000Y-71788072D01*
X126734482Y-71775812D01*
X126854180Y-71739502D01*
X126964494Y-71680537D01*
X127061185Y-71601185D01*
X127140537Y-71504494D01*
X127199502Y-71394180D01*
X127221513Y-71321620D01*
X127353368Y-71453475D01*
X127596589Y-71615990D01*
X127866842Y-71727932D01*
X128153740Y-71785000D01*
X128446260Y-71785000D01*
X128733158Y-71727932D01*
X129003411Y-71615990D01*
X129246632Y-71453475D01*
X129453475Y-71246632D01*
X129615990Y-71003411D01*
X129727932Y-70733158D01*
X129785000Y-70446260D01*
X129785000Y-70153740D01*
X129727932Y-69866842D01*
X129712306Y-69829117D01*
X170265000Y-69829117D01*
X170265000Y-70170883D01*
X170331675Y-70506081D01*
X170462463Y-70821831D01*
X170652337Y-71105998D01*
X170894002Y-71347663D01*
X171178169Y-71537537D01*
X171493919Y-71668325D01*
X171829117Y-71735000D01*
X172170883Y-71735000D01*
X172506081Y-71668325D01*
X172821831Y-71537537D01*
X173105998Y-71347663D01*
X173347663Y-71105998D01*
X173537537Y-70821831D01*
X173668325Y-70506081D01*
X173735000Y-70170883D01*
X173735000Y-69829117D01*
X173668325Y-69493919D01*
X173537537Y-69178169D01*
X173347663Y-68894002D01*
X173105998Y-68652337D01*
X172821831Y-68462463D01*
X172506081Y-68331675D01*
X172170883Y-68265000D01*
X171829117Y-68265000D01*
X171493919Y-68331675D01*
X171178169Y-68462463D01*
X170894002Y-68652337D01*
X170652337Y-68894002D01*
X170462463Y-69178169D01*
X170331675Y-69493919D01*
X170265000Y-69829117D01*
X129712306Y-69829117D01*
X129615990Y-69596589D01*
X129453475Y-69353368D01*
X129246632Y-69146525D01*
X129003411Y-68984010D01*
X128733158Y-68872068D01*
X128446260Y-68815000D01*
X128153740Y-68815000D01*
X127866842Y-68872068D01*
X127596589Y-68984010D01*
X127353368Y-69146525D01*
X127221513Y-69278380D01*
X127199502Y-69205820D01*
X127140537Y-69095506D01*
X127061185Y-68998815D01*
X126964494Y-68919463D01*
X126854180Y-68860498D01*
X126734482Y-68824188D01*
X126610000Y-68811928D01*
X126045750Y-68815000D01*
X125887000Y-68973750D01*
X125633000Y-68973750D01*
X125474250Y-68815000D01*
X124910000Y-68811928D01*
X124785518Y-68824188D01*
X124665820Y-68860498D01*
X124555506Y-68919463D01*
X124458815Y-68998815D01*
X124379463Y-69095506D01*
X124320498Y-69205820D01*
X124284188Y-69325518D01*
X124271928Y-69450000D01*
X121650134Y-69450000D01*
X121537537Y-69178169D01*
X121347663Y-68894002D01*
X121105998Y-68652337D01*
X120821831Y-68462463D01*
X120506081Y-68331675D01*
X120170883Y-68265000D01*
X119829117Y-68265000D01*
X119493919Y-68331675D01*
X119178169Y-68462463D01*
X118894002Y-68652337D01*
X118652337Y-68894002D01*
X118462463Y-69178169D01*
X118331675Y-69493919D01*
X118265000Y-69829117D01*
X117715088Y-69829117D01*
X117742168Y-69552937D01*
X117872003Y-69122903D01*
X118082892Y-68726276D01*
X118366801Y-68378169D01*
X118712923Y-68091831D01*
X119108068Y-67878178D01*
X119537184Y-67745344D01*
X120016176Y-67695000D01*
X171966008Y-67695000D01*
X172447063Y-67742168D01*
G37*
X172447063Y-67742168D02*
X172877097Y-67872003D01*
X173273724Y-68082892D01*
X173621831Y-68366801D01*
X173908169Y-68712923D01*
X174121822Y-69108068D01*
X174254656Y-69537184D01*
X174305001Y-70016186D01*
X174305000Y-89966009D01*
X174257832Y-90447063D01*
X174127997Y-90877097D01*
X173917108Y-91273723D01*
X173633197Y-91621832D01*
X173287074Y-91908170D01*
X172891931Y-92121823D01*
X172462817Y-92254656D01*
X171983824Y-92305000D01*
X120033991Y-92305000D01*
X119552937Y-92257832D01*
X119122903Y-92127997D01*
X118726277Y-91917108D01*
X118378168Y-91633197D01*
X118091830Y-91287074D01*
X117878177Y-90891931D01*
X117745344Y-90462817D01*
X117695000Y-89983824D01*
X117695000Y-89829117D01*
X118265000Y-89829117D01*
X118265000Y-90170883D01*
X118331675Y-90506081D01*
X118462463Y-90821831D01*
X118652337Y-91105998D01*
X118894002Y-91347663D01*
X119178169Y-91537537D01*
X119493919Y-91668325D01*
X119829117Y-91735000D01*
X120170883Y-91735000D01*
X120506081Y-91668325D01*
X120821831Y-91537537D01*
X121105998Y-91347663D01*
X121347663Y-91105998D01*
X121537537Y-90821831D01*
X121668325Y-90506081D01*
X121735000Y-90170883D01*
X121735000Y-89829117D01*
X170265000Y-89829117D01*
X170265000Y-90170883D01*
X170331675Y-90506081D01*
X170462463Y-90821831D01*
X170652337Y-91105998D01*
X170894002Y-91347663D01*
X171178169Y-91537537D01*
X171493919Y-91668325D01*
X171829117Y-91735000D01*
X172170883Y-91735000D01*
X172506081Y-91668325D01*
X172821831Y-91537537D01*
X173105998Y-91347663D01*
X173347663Y-91105998D01*
X173537537Y-90821831D01*
X173668325Y-90506081D01*
X173735000Y-90170883D01*
X173735000Y-89829117D01*
X173668325Y-89493919D01*
X173537537Y-89178169D01*
X173347663Y-88894002D01*
X173105998Y-88652337D01*
X172821831Y-88462463D01*
X172506081Y-88331675D01*
X172170883Y-88265000D01*
X171829117Y-88265000D01*
X171493919Y-88331675D01*
X171178169Y-88462463D01*
X170894002Y-88652337D01*
X170652337Y-88894002D01*
X170462463Y-89178169D01*
X170331675Y-89493919D01*
X170265000Y-89829117D01*
X121735000Y-89829117D01*
X121668325Y-89493919D01*
X121537537Y-89178169D01*
X121347663Y-88894002D01*
X121105998Y-88652337D01*
X120821831Y-88462463D01*
X120506081Y-88331675D01*
X120170883Y-88265000D01*
X119829117Y-88265000D01*
X119493919Y-88331675D01*
X119178169Y-88462463D01*
X118894002Y-88652337D01*
X118652337Y-88894002D01*
X118462463Y-89178169D01*
X118331675Y-89493919D01*
X118265000Y-89829117D01*
X117695000Y-89829117D01*
X117695000Y-87864045D01*
X143946640Y-87864045D01*
X144013620Y-88104136D01*
X144262648Y-88221236D01*
X144529735Y-88287503D01*
X144804617Y-88300390D01*
X145076733Y-88259402D01*
X145335623Y-88166116D01*
X145451580Y-88104136D01*
X145518560Y-87864045D01*
X144732600Y-87078085D01*
X143946640Y-87864045D01*
X117695000Y-87864045D01*
X117695000Y-85338514D01*
X119602000Y-85338514D01*
X119602000Y-85601486D01*
X119653304Y-85859405D01*
X119753939Y-86102359D01*
X119900038Y-86321013D01*
X120085987Y-86506962D01*
X120304641Y-86653061D01*
X120547595Y-86753696D01*
X120805514Y-86805000D01*
X121068486Y-86805000D01*
X121326405Y-86753696D01*
X121569359Y-86653061D01*
X121788013Y-86506962D01*
X121973962Y-86321013D01*
X122120061Y-86102359D01*
X122220696Y-85859405D01*
X122250922Y-85707447D01*
X139557600Y-85707447D01*
X139557600Y-86029513D01*
X139620432Y-86345392D01*
X139743682Y-86642943D01*
X139922613Y-86910732D01*
X140150348Y-87138467D01*
X140418137Y-87317398D01*
X140715688Y-87440648D01*
X141031567Y-87503480D01*
X141353633Y-87503480D01*
X141669512Y-87440648D01*
X141967063Y-87317398D01*
X142234852Y-87138467D01*
X142402822Y-86970497D01*
X143330690Y-86970497D01*
X143371678Y-87242613D01*
X143464964Y-87501503D01*
X143526944Y-87617460D01*
X143767035Y-87684440D01*
X144552995Y-86898480D01*
X144912205Y-86898480D01*
X145698165Y-87684440D01*
X145938256Y-87617460D01*
X146055356Y-87368432D01*
X146121623Y-87101345D01*
X146134510Y-86826463D01*
X146093522Y-86554347D01*
X146000236Y-86295457D01*
X145938256Y-86179500D01*
X145698165Y-86112520D01*
X144912205Y-86898480D01*
X144552995Y-86898480D01*
X143767035Y-86112520D01*
X143526944Y-86179500D01*
X143409844Y-86428528D01*
X143343577Y-86695615D01*
X143330690Y-86970497D01*
X142402822Y-86970497D01*
X142462587Y-86910732D01*
X142641518Y-86642943D01*
X142764768Y-86345392D01*
X142827600Y-86029513D01*
X142827600Y-85932915D01*
X143946640Y-85932915D01*
X144732600Y-86718875D01*
X145518560Y-85932915D01*
X145451580Y-85692824D01*
X145202552Y-85575724D01*
X144935465Y-85509457D01*
X144660583Y-85496570D01*
X144388467Y-85537558D01*
X144129577Y-85630844D01*
X144013620Y-85692824D01*
X143946640Y-85932915D01*
X142827600Y-85932915D01*
X142827600Y-85707447D01*
X142764768Y-85391568D01*
X142641518Y-85094017D01*
X142462587Y-84826228D01*
X142234852Y-84598493D01*
X141967063Y-84419562D01*
X141669512Y-84296312D01*
X141353633Y-84233480D01*
X141031567Y-84233480D01*
X140715688Y-84296312D01*
X140418137Y-84419562D01*
X140150348Y-84598493D01*
X139922613Y-84826228D01*
X139743682Y-85094017D01*
X139620432Y-85391568D01*
X139557600Y-85707447D01*
X122250922Y-85707447D01*
X122272000Y-85601486D01*
X122272000Y-85338514D01*
X122220696Y-85080595D01*
X122120061Y-84837641D01*
X121973962Y-84618987D01*
X121788013Y-84433038D01*
X121569359Y-84286939D01*
X121326405Y-84186304D01*
X121068486Y-84135000D01*
X120805514Y-84135000D01*
X120547595Y-84186304D01*
X120304641Y-84286939D01*
X120085987Y-84433038D01*
X119900038Y-84618987D01*
X119753939Y-84837641D01*
X119653304Y-85080595D01*
X119602000Y-85338514D01*
X117695000Y-85338514D01*
X117695000Y-82235098D01*
X128552000Y-82235098D01*
X128552000Y-82704902D01*
X128643654Y-83165679D01*
X128823440Y-83599721D01*
X129084450Y-83990349D01*
X129416651Y-84322550D01*
X129807279Y-84583560D01*
X130241321Y-84763346D01*
X130702098Y-84855000D01*
X131171902Y-84855000D01*
X131632679Y-84763346D01*
X132066721Y-84583560D01*
X132457349Y-84322550D01*
X132789550Y-83990349D01*
X133050560Y-83599721D01*
X133230346Y-83165679D01*
X133322000Y-82704902D01*
X133322000Y-82235098D01*
X133230346Y-81774321D01*
X133191645Y-81680888D01*
X154025600Y-81680888D01*
X154025600Y-81956072D01*
X154079286Y-82225970D01*
X154184595Y-82480207D01*
X154337480Y-82709015D01*
X154532065Y-82903600D01*
X154760873Y-83056485D01*
X154838115Y-83088480D01*
X154760873Y-83120475D01*
X154532065Y-83273360D01*
X154337480Y-83467945D01*
X154184595Y-83696753D01*
X154079286Y-83950990D01*
X154025600Y-84220888D01*
X154025600Y-84496072D01*
X154079286Y-84765970D01*
X154184595Y-85020207D01*
X154337480Y-85249015D01*
X154532065Y-85443600D01*
X154760873Y-85596485D01*
X154838115Y-85628480D01*
X154760873Y-85660475D01*
X154532065Y-85813360D01*
X154337480Y-86007945D01*
X154184595Y-86236753D01*
X154079286Y-86490990D01*
X154025600Y-86760888D01*
X154025600Y-87036072D01*
X154079286Y-87305970D01*
X154184595Y-87560207D01*
X154337480Y-87789015D01*
X154532065Y-87983600D01*
X154760873Y-88136485D01*
X155015110Y-88241794D01*
X155285008Y-88295480D01*
X155560192Y-88295480D01*
X155830090Y-88241794D01*
X156084327Y-88136485D01*
X156313135Y-87983600D01*
X156507720Y-87789015D01*
X156660605Y-87560207D01*
X156765914Y-87305970D01*
X156819600Y-87036072D01*
X156819600Y-86760888D01*
X156765914Y-86490990D01*
X156660605Y-86236753D01*
X156507720Y-86007945D01*
X156313135Y-85813360D01*
X156084327Y-85660475D01*
X156007085Y-85628480D01*
X156084327Y-85596485D01*
X156313135Y-85443600D01*
X156507720Y-85249015D01*
X156660605Y-85020207D01*
X156765914Y-84765970D01*
X156819600Y-84496072D01*
X156819600Y-84220888D01*
X156810849Y-84176890D01*
X157308524Y-84176890D01*
X157353175Y-84324099D01*
X157478359Y-84586920D01*
X157652412Y-84820269D01*
X157868645Y-85015178D01*
X158118748Y-85164157D01*
X158393109Y-85261481D01*
X158623000Y-85140814D01*
X158623000Y-83947000D01*
X157429845Y-83947000D01*
X157308524Y-84176890D01*
X156810849Y-84176890D01*
X156765914Y-83950990D01*
X156660605Y-83696753D01*
X156507720Y-83467945D01*
X156313135Y-83273360D01*
X156084327Y-83120475D01*
X156007085Y-83088480D01*
X156084327Y-83056485D01*
X156313135Y-82903600D01*
X156507720Y-82709015D01*
X156660605Y-82480207D01*
X156765914Y-82225970D01*
X156819600Y-81956072D01*
X156819600Y-81680888D01*
X156810849Y-81636890D01*
X157308524Y-81636890D01*
X157353175Y-81784099D01*
X157478359Y-82046920D01*
X157652412Y-82280269D01*
X157868645Y-82475178D01*
X157994255Y-82550000D01*
X157868645Y-82624822D01*
X157652412Y-82819731D01*
X157478359Y-83053080D01*
X157353175Y-83315901D01*
X157308524Y-83463110D01*
X157429845Y-83693000D01*
X158623000Y-83693000D01*
X158623000Y-81407000D01*
X157429845Y-81407000D01*
X157308524Y-81636890D01*
X156810849Y-81636890D01*
X156765914Y-81410990D01*
X156660605Y-81156753D01*
X156507720Y-80927945D01*
X156313135Y-80733360D01*
X156084327Y-80580475D01*
X156012657Y-80550788D01*
X156025623Y-80546116D01*
X156141580Y-80484136D01*
X156208560Y-80244045D01*
X155422600Y-79458085D01*
X154636640Y-80244045D01*
X154703620Y-80484136D01*
X154839360Y-80547965D01*
X154760873Y-80580475D01*
X154532065Y-80733360D01*
X154337480Y-80927945D01*
X154184595Y-81156753D01*
X154079286Y-81410990D01*
X154025600Y-81680888D01*
X133191645Y-81680888D01*
X133050560Y-81340279D01*
X132789550Y-80949651D01*
X132457349Y-80617450D01*
X132066721Y-80356440D01*
X131632679Y-80176654D01*
X131171902Y-80085000D01*
X130702098Y-80085000D01*
X130241321Y-80176654D01*
X129807279Y-80356440D01*
X129416651Y-80617450D01*
X129084450Y-80949651D01*
X128823440Y-81340279D01*
X128643654Y-81774321D01*
X128552000Y-82235098D01*
X117695000Y-82235098D01*
X117695000Y-79220000D01*
X128548928Y-79220000D01*
X128561188Y-79344482D01*
X128597498Y-79464180D01*
X128656463Y-79574494D01*
X128735815Y-79671185D01*
X128832506Y-79750537D01*
X128942820Y-79809502D01*
X129062518Y-79845812D01*
X129187000Y-79858072D01*
X130651250Y-79855000D01*
X130810000Y-79696250D01*
X130810000Y-77597000D01*
X131064000Y-77597000D01*
X131064000Y-79696250D01*
X131222750Y-79855000D01*
X132687000Y-79858072D01*
X132768959Y-79850000D01*
X134711928Y-79850000D01*
X134724188Y-79974482D01*
X134760498Y-80094180D01*
X134819463Y-80204494D01*
X134898815Y-80301185D01*
X134995506Y-80380537D01*
X135105820Y-80439502D01*
X135225518Y-80475812D01*
X135350000Y-80488072D01*
X135914250Y-80485000D01*
X136073000Y-80326250D01*
X136073000Y-79127000D01*
X136327000Y-79127000D01*
X136327000Y-80326250D01*
X136485750Y-80485000D01*
X137050000Y-80488072D01*
X137174482Y-80475812D01*
X137294180Y-80439502D01*
X137404494Y-80380537D01*
X137501185Y-80301185D01*
X137580537Y-80204494D01*
X137639502Y-80094180D01*
X137675812Y-79974482D01*
X137688072Y-79850000D01*
X137685353Y-79350497D01*
X154020690Y-79350497D01*
X154061678Y-79622613D01*
X154154964Y-79881503D01*
X154216944Y-79997460D01*
X154457035Y-80064440D01*
X155242995Y-79278480D01*
X155602205Y-79278480D01*
X156388165Y-80064440D01*
X156628256Y-79997460D01*
X156745356Y-79748432D01*
X156811623Y-79481345D01*
X156824510Y-79206463D01*
X156808006Y-79096890D01*
X157308524Y-79096890D01*
X157353175Y-79244099D01*
X157478359Y-79506920D01*
X157652412Y-79740269D01*
X157868645Y-79935178D01*
X157994255Y-80010000D01*
X157868645Y-80084822D01*
X157652412Y-80279731D01*
X157478359Y-80513080D01*
X157353175Y-80775901D01*
X157308524Y-80923110D01*
X157429845Y-81153000D01*
X158623000Y-81153000D01*
X158623000Y-78867000D01*
X157429845Y-78867000D01*
X157308524Y-79096890D01*
X156808006Y-79096890D01*
X156783522Y-78934347D01*
X156690236Y-78675457D01*
X156628256Y-78559500D01*
X156388165Y-78492520D01*
X155602205Y-79278480D01*
X155242995Y-79278480D01*
X154457035Y-78492520D01*
X154216944Y-78559500D01*
X154099844Y-78808528D01*
X154033577Y-79075615D01*
X154020690Y-79350497D01*
X137685353Y-79350497D01*
X137685000Y-79285750D01*
X137526250Y-79127000D01*
X136327000Y-79127000D01*
X136073000Y-79127000D01*
X134873750Y-79127000D01*
X134715000Y-79285750D01*
X134711928Y-79850000D01*
X132768959Y-79850000D01*
X132811482Y-79845812D01*
X132931180Y-79809502D01*
X133041494Y-79750537D01*
X133138185Y-79671185D01*
X133217537Y-79574494D01*
X133276502Y-79464180D01*
X133312812Y-79344482D01*
X133325072Y-79220000D01*
X133322828Y-78150000D01*
X134711928Y-78150000D01*
X134715000Y-78714250D01*
X134873750Y-78873000D01*
X136073000Y-78873000D01*
X136073000Y-78853000D01*
X136327000Y-78853000D01*
X136327000Y-78873000D01*
X137526250Y-78873000D01*
X137685000Y-78714250D01*
X137688072Y-78150000D01*
X137675812Y-78025518D01*
X137639502Y-77905820D01*
X137580537Y-77795506D01*
X137501185Y-77698815D01*
X137404494Y-77619463D01*
X137294180Y-77560498D01*
X137221620Y-77538487D01*
X137353475Y-77406632D01*
X137515990Y-77163411D01*
X137627932Y-76893158D01*
X137685000Y-76606260D01*
X137685000Y-76600888D01*
X154025600Y-76600888D01*
X154025600Y-76876072D01*
X154079286Y-77145970D01*
X154184595Y-77400207D01*
X154337480Y-77629015D01*
X154532065Y-77823600D01*
X154760873Y-77976485D01*
X154832543Y-78006172D01*
X154819577Y-78010844D01*
X154703620Y-78072824D01*
X154636640Y-78312915D01*
X155422600Y-79098875D01*
X156208560Y-78312915D01*
X156141580Y-78072824D01*
X156005840Y-78008995D01*
X156084327Y-77976485D01*
X156313135Y-77823600D01*
X156507720Y-77629015D01*
X156660605Y-77400207D01*
X156765914Y-77145970D01*
X156785003Y-77050000D01*
X157261928Y-77050000D01*
X157274188Y-77174482D01*
X157310498Y-77294180D01*
X157369463Y-77404494D01*
X157448815Y-77501185D01*
X157545506Y-77580537D01*
X157655820Y-77639502D01*
X157736466Y-77663966D01*
X157652412Y-77739731D01*
X157478359Y-77973080D01*
X157353175Y-78235901D01*
X157308524Y-78383110D01*
X157429845Y-78613000D01*
X158623000Y-78613000D01*
X158623000Y-76327000D01*
X157423750Y-76327000D01*
X157265000Y-76485750D01*
X157261928Y-77050000D01*
X156785003Y-77050000D01*
X156819600Y-76876072D01*
X156819600Y-76600888D01*
X156765914Y-76330990D01*
X156660605Y-76076753D01*
X156507720Y-75847945D01*
X156313135Y-75653360D01*
X156084327Y-75500475D01*
X155830090Y-75395166D01*
X155603025Y-75350000D01*
X157261928Y-75350000D01*
X157265000Y-75914250D01*
X157423750Y-76073000D01*
X158623000Y-76073000D01*
X158623000Y-74873750D01*
X158877000Y-74873750D01*
X158877000Y-76073000D01*
X158897000Y-76073000D01*
X158897000Y-76327000D01*
X158877000Y-76327000D01*
X158877000Y-78613000D01*
X158897000Y-78613000D01*
X158897000Y-78867000D01*
X158877000Y-78867000D01*
X158877000Y-81153000D01*
X158897000Y-81153000D01*
X158897000Y-81407000D01*
X158877000Y-81407000D01*
X158877000Y-83693000D01*
X158897000Y-83693000D01*
X158897000Y-83947000D01*
X158877000Y-83947000D01*
X158877000Y-85140814D01*
X159106891Y-85261481D01*
X159381252Y-85164157D01*
X159631355Y-85015178D01*
X159847588Y-84820269D01*
X160018900Y-84590594D01*
X160136525Y-84766632D01*
X160343368Y-84973475D01*
X160586589Y-85135990D01*
X160856842Y-85247932D01*
X161143740Y-85305000D01*
X161436260Y-85305000D01*
X161723158Y-85247932D01*
X161993411Y-85135990D01*
X162236632Y-84973475D01*
X162443475Y-84766632D01*
X162561100Y-84590594D01*
X162732412Y-84820269D01*
X162948645Y-85015178D01*
X163198748Y-85164157D01*
X163473109Y-85261481D01*
X163703000Y-85140814D01*
X163703000Y-83947000D01*
X163957000Y-83947000D01*
X163957000Y-85140814D01*
X164186891Y-85261481D01*
X164461252Y-85164157D01*
X164711355Y-85015178D01*
X164927588Y-84820269D01*
X165101641Y-84586920D01*
X165226825Y-84324099D01*
X165271476Y-84176890D01*
X165150155Y-83947000D01*
X163957000Y-83947000D01*
X163703000Y-83947000D01*
X163683000Y-83947000D01*
X163683000Y-83693000D01*
X163703000Y-83693000D01*
X163703000Y-81407000D01*
X163957000Y-81407000D01*
X163957000Y-83693000D01*
X165150155Y-83693000D01*
X165271476Y-83463110D01*
X165226825Y-83315901D01*
X165101641Y-83053080D01*
X164927588Y-82819731D01*
X164711355Y-82624822D01*
X164585745Y-82550000D01*
X164711355Y-82475178D01*
X164927588Y-82280269D01*
X165101641Y-82046920D01*
X165226825Y-81784099D01*
X165271476Y-81636890D01*
X165150155Y-81407000D01*
X163957000Y-81407000D01*
X163703000Y-81407000D01*
X163683000Y-81407000D01*
X163683000Y-81153000D01*
X163703000Y-81153000D01*
X163703000Y-78867000D01*
X163957000Y-78867000D01*
X163957000Y-81153000D01*
X165150155Y-81153000D01*
X165271476Y-80923110D01*
X165226825Y-80775901D01*
X165101641Y-80513080D01*
X164927588Y-80279731D01*
X164711355Y-80084822D01*
X164585745Y-80010000D01*
X164711355Y-79935178D01*
X164927588Y-79740269D01*
X165101641Y-79506920D01*
X165226825Y-79244099D01*
X165271476Y-79096890D01*
X165150155Y-78867000D01*
X163957000Y-78867000D01*
X163703000Y-78867000D01*
X163683000Y-78867000D01*
X163683000Y-78613000D01*
X163703000Y-78613000D01*
X163703000Y-76327000D01*
X163957000Y-76327000D01*
X163957000Y-78613000D01*
X165150155Y-78613000D01*
X165271476Y-78383110D01*
X165226825Y-78235901D01*
X165101641Y-77973080D01*
X164927588Y-77739731D01*
X164843534Y-77663966D01*
X164924180Y-77639502D01*
X165034494Y-77580537D01*
X165131185Y-77501185D01*
X165210537Y-77404494D01*
X165269502Y-77294180D01*
X165305812Y-77174482D01*
X165318072Y-77050000D01*
X165315000Y-76485750D01*
X165156250Y-76327000D01*
X163957000Y-76327000D01*
X163703000Y-76327000D01*
X163683000Y-76327000D01*
X163683000Y-76073000D01*
X163703000Y-76073000D01*
X163703000Y-74873750D01*
X163957000Y-74873750D01*
X163957000Y-76073000D01*
X165156250Y-76073000D01*
X165315000Y-75914250D01*
X165318072Y-75350000D01*
X165305812Y-75225518D01*
X165269502Y-75105820D01*
X165210537Y-74995506D01*
X165131185Y-74898815D01*
X165034494Y-74819463D01*
X164924180Y-74760498D01*
X164804482Y-74724188D01*
X164680000Y-74711928D01*
X164115750Y-74715000D01*
X163957000Y-74873750D01*
X163703000Y-74873750D01*
X163544250Y-74715000D01*
X162980000Y-74711928D01*
X162855518Y-74724188D01*
X162735820Y-74760498D01*
X162625506Y-74819463D01*
X162560000Y-74873222D01*
X162494494Y-74819463D01*
X162384180Y-74760498D01*
X162264482Y-74724188D01*
X162140000Y-74711928D01*
X160440000Y-74711928D01*
X160315518Y-74724188D01*
X160195820Y-74760498D01*
X160085506Y-74819463D01*
X160020000Y-74873222D01*
X159954494Y-74819463D01*
X159844180Y-74760498D01*
X159724482Y-74724188D01*
X159600000Y-74711928D01*
X159035750Y-74715000D01*
X158877000Y-74873750D01*
X158623000Y-74873750D01*
X158464250Y-74715000D01*
X157900000Y-74711928D01*
X157775518Y-74724188D01*
X157655820Y-74760498D01*
X157545506Y-74819463D01*
X157448815Y-74898815D01*
X157369463Y-74995506D01*
X157310498Y-75105820D01*
X157274188Y-75225518D01*
X157261928Y-75350000D01*
X155603025Y-75350000D01*
X155560192Y-75341480D01*
X155285008Y-75341480D01*
X155015110Y-75395166D01*
X154760873Y-75500475D01*
X154532065Y-75653360D01*
X154337480Y-75847945D01*
X154184595Y-76076753D01*
X154079286Y-76330990D01*
X154025600Y-76600888D01*
X137685000Y-76600888D01*
X137685000Y-76313740D01*
X137627932Y-76026842D01*
X137515990Y-75756589D01*
X137353475Y-75513368D01*
X137146632Y-75306525D01*
X136964466Y-75184805D01*
X137081355Y-75115178D01*
X137297588Y-74920269D01*
X137471641Y-74686920D01*
X137596825Y-74424099D01*
X137641476Y-74276890D01*
X137520155Y-74047000D01*
X136327000Y-74047000D01*
X136327000Y-74067000D01*
X136073000Y-74067000D01*
X136073000Y-74047000D01*
X134879845Y-74047000D01*
X134758524Y-74276890D01*
X134803175Y-74424099D01*
X134928359Y-74686920D01*
X135102412Y-74920269D01*
X135318645Y-75115178D01*
X135435534Y-75184805D01*
X135253368Y-75306525D01*
X135046525Y-75513368D01*
X134884010Y-75756589D01*
X134772068Y-76026842D01*
X134715000Y-76313740D01*
X134715000Y-76606260D01*
X134772068Y-76893158D01*
X134884010Y-77163411D01*
X135046525Y-77406632D01*
X135178380Y-77538487D01*
X135105820Y-77560498D01*
X134995506Y-77619463D01*
X134898815Y-77698815D01*
X134819463Y-77795506D01*
X134760498Y-77905820D01*
X134724188Y-78025518D01*
X134711928Y-78150000D01*
X133322828Y-78150000D01*
X133322000Y-77755750D01*
X133163250Y-77597000D01*
X131064000Y-77597000D01*
X130810000Y-77597000D01*
X128710750Y-77597000D01*
X128552000Y-77755750D01*
X128548928Y-79220000D01*
X117695000Y-79220000D01*
X117695000Y-74338514D01*
X119602000Y-74338514D01*
X119602000Y-74601486D01*
X119653304Y-74859405D01*
X119753939Y-75102359D01*
X119900038Y-75321013D01*
X120085987Y-75506962D01*
X120304641Y-75653061D01*
X120547595Y-75753696D01*
X120805514Y-75805000D01*
X121068486Y-75805000D01*
X121326405Y-75753696D01*
X121407754Y-75720000D01*
X128548928Y-75720000D01*
X128552000Y-77184250D01*
X128710750Y-77343000D01*
X130810000Y-77343000D01*
X130810000Y-75243750D01*
X131064000Y-75243750D01*
X131064000Y-77343000D01*
X133163250Y-77343000D01*
X133322000Y-77184250D01*
X133325072Y-75720000D01*
X133312812Y-75595518D01*
X133276502Y-75475820D01*
X133217537Y-75365506D01*
X133138185Y-75268815D01*
X133041494Y-75189463D01*
X132931180Y-75130498D01*
X132811482Y-75094188D01*
X132687000Y-75081928D01*
X131222750Y-75085000D01*
X131064000Y-75243750D01*
X130810000Y-75243750D01*
X130651250Y-75085000D01*
X129187000Y-75081928D01*
X129062518Y-75094188D01*
X128942820Y-75130498D01*
X128832506Y-75189463D01*
X128735815Y-75268815D01*
X128656463Y-75365506D01*
X128597498Y-75475820D01*
X128561188Y-75595518D01*
X128548928Y-75720000D01*
X121407754Y-75720000D01*
X121569359Y-75653061D01*
X121788013Y-75506962D01*
X121973962Y-75321013D01*
X122120061Y-75102359D01*
X122220696Y-74859405D01*
X122272000Y-74601486D01*
X122272000Y-74338514D01*
X122220696Y-74080595D01*
X122120061Y-73837641D01*
X121973962Y-73618987D01*
X121918085Y-73563110D01*
X134758524Y-73563110D01*
X134879845Y-73793000D01*
X136073000Y-73793000D01*
X136073000Y-72599186D01*
X136327000Y-72599186D01*
X136327000Y-73793000D01*
X137520155Y-73793000D01*
X137641476Y-73563110D01*
X137596825Y-73415901D01*
X137471641Y-73153080D01*
X137297588Y-72919731D01*
X137128644Y-72767447D01*
X152517600Y-72767447D01*
X152517600Y-73089513D01*
X152580432Y-73405392D01*
X152703682Y-73702943D01*
X152882613Y-73970732D01*
X153110348Y-74198467D01*
X153378137Y-74377398D01*
X153675688Y-74500648D01*
X153991567Y-74563480D01*
X154313633Y-74563480D01*
X154629512Y-74500648D01*
X154927063Y-74377398D01*
X155194852Y-74198467D01*
X155422587Y-73970732D01*
X155601518Y-73702943D01*
X155724768Y-73405392D01*
X155787600Y-73089513D01*
X155787600Y-72767447D01*
X155724768Y-72451568D01*
X155601518Y-72154017D01*
X155422587Y-71886228D01*
X155194852Y-71658493D01*
X154927063Y-71479562D01*
X154629512Y-71356312D01*
X154313633Y-71293480D01*
X153991567Y-71293480D01*
X153675688Y-71356312D01*
X153378137Y-71479562D01*
X153110348Y-71658493D01*
X152882613Y-71886228D01*
X152703682Y-72154017D01*
X152580432Y-72451568D01*
X152517600Y-72767447D01*
X137128644Y-72767447D01*
X137081355Y-72724822D01*
X136831252Y-72575843D01*
X136556891Y-72478519D01*
X136327000Y-72599186D01*
X136073000Y-72599186D01*
X135843109Y-72478519D01*
X135568748Y-72575843D01*
X135318645Y-72724822D01*
X135102412Y-72919731D01*
X134928359Y-73153080D01*
X134803175Y-73415901D01*
X134758524Y-73563110D01*
X121918085Y-73563110D01*
X121788013Y-73433038D01*
X121569359Y-73286939D01*
X121326405Y-73186304D01*
X121068486Y-73135000D01*
X120805514Y-73135000D01*
X120547595Y-73186304D01*
X120304641Y-73286939D01*
X120085987Y-73433038D01*
X119900038Y-73618987D01*
X119753939Y-73837641D01*
X119653304Y-74080595D01*
X119602000Y-74338514D01*
X117695000Y-74338514D01*
X117695000Y-70033992D01*
X117715088Y-69829117D01*
X118265000Y-69829117D01*
X118265000Y-70170883D01*
X118331675Y-70506081D01*
X118462463Y-70821831D01*
X118652337Y-71105998D01*
X118894002Y-71347663D01*
X119178169Y-71537537D01*
X119493919Y-71668325D01*
X119829117Y-71735000D01*
X120170883Y-71735000D01*
X120506081Y-71668325D01*
X120821831Y-71537537D01*
X121105998Y-71347663D01*
X121303661Y-71150000D01*
X124271928Y-71150000D01*
X124284188Y-71274482D01*
X124320498Y-71394180D01*
X124379463Y-71504494D01*
X124458815Y-71601185D01*
X124555506Y-71680537D01*
X124665820Y-71739502D01*
X124785518Y-71775812D01*
X124910000Y-71788072D01*
X125474250Y-71785000D01*
X125633000Y-71626250D01*
X125633000Y-70427000D01*
X124433750Y-70427000D01*
X124275000Y-70585750D01*
X124271928Y-71150000D01*
X121303661Y-71150000D01*
X121347663Y-71105998D01*
X121537537Y-70821831D01*
X121668325Y-70506081D01*
X121735000Y-70170883D01*
X121735000Y-69829117D01*
X121668325Y-69493919D01*
X121650134Y-69450000D01*
X124271928Y-69450000D01*
X124275000Y-70014250D01*
X124433750Y-70173000D01*
X125633000Y-70173000D01*
X125633000Y-68973750D01*
X125887000Y-68973750D01*
X125887000Y-70173000D01*
X125907000Y-70173000D01*
X125907000Y-70427000D01*
X125887000Y-70427000D01*
X125887000Y-71626250D01*
X126045750Y-71785000D01*
X126610000Y-71788072D01*
X126734482Y-71775812D01*
X126854180Y-71739502D01*
X126964494Y-71680537D01*
X127061185Y-71601185D01*
X127140537Y-71504494D01*
X127199502Y-71394180D01*
X127221513Y-71321620D01*
X127353368Y-71453475D01*
X127596589Y-71615990D01*
X127866842Y-71727932D01*
X128153740Y-71785000D01*
X128446260Y-71785000D01*
X128733158Y-71727932D01*
X129003411Y-71615990D01*
X129246632Y-71453475D01*
X129453475Y-71246632D01*
X129615990Y-71003411D01*
X129727932Y-70733158D01*
X129785000Y-70446260D01*
X129785000Y-70153740D01*
X129727932Y-69866842D01*
X129712306Y-69829117D01*
X170265000Y-69829117D01*
X170265000Y-70170883D01*
X170331675Y-70506081D01*
X170462463Y-70821831D01*
X170652337Y-71105998D01*
X170894002Y-71347663D01*
X171178169Y-71537537D01*
X171493919Y-71668325D01*
X171829117Y-71735000D01*
X172170883Y-71735000D01*
X172506081Y-71668325D01*
X172821831Y-71537537D01*
X173105998Y-71347663D01*
X173347663Y-71105998D01*
X173537537Y-70821831D01*
X173668325Y-70506081D01*
X173735000Y-70170883D01*
X173735000Y-69829117D01*
X173668325Y-69493919D01*
X173537537Y-69178169D01*
X173347663Y-68894002D01*
X173105998Y-68652337D01*
X172821831Y-68462463D01*
X172506081Y-68331675D01*
X172170883Y-68265000D01*
X171829117Y-68265000D01*
X171493919Y-68331675D01*
X171178169Y-68462463D01*
X170894002Y-68652337D01*
X170652337Y-68894002D01*
X170462463Y-69178169D01*
X170331675Y-69493919D01*
X170265000Y-69829117D01*
X129712306Y-69829117D01*
X129615990Y-69596589D01*
X129453475Y-69353368D01*
X129246632Y-69146525D01*
X129003411Y-68984010D01*
X128733158Y-68872068D01*
X128446260Y-68815000D01*
X128153740Y-68815000D01*
X127866842Y-68872068D01*
X127596589Y-68984010D01*
X127353368Y-69146525D01*
X127221513Y-69278380D01*
X127199502Y-69205820D01*
X127140537Y-69095506D01*
X127061185Y-68998815D01*
X126964494Y-68919463D01*
X126854180Y-68860498D01*
X126734482Y-68824188D01*
X126610000Y-68811928D01*
X126045750Y-68815000D01*
X125887000Y-68973750D01*
X125633000Y-68973750D01*
X125474250Y-68815000D01*
X124910000Y-68811928D01*
X124785518Y-68824188D01*
X124665820Y-68860498D01*
X124555506Y-68919463D01*
X124458815Y-68998815D01*
X124379463Y-69095506D01*
X124320498Y-69205820D01*
X124284188Y-69325518D01*
X124271928Y-69450000D01*
X121650134Y-69450000D01*
X121537537Y-69178169D01*
X121347663Y-68894002D01*
X121105998Y-68652337D01*
X120821831Y-68462463D01*
X120506081Y-68331675D01*
X120170883Y-68265000D01*
X119829117Y-68265000D01*
X119493919Y-68331675D01*
X119178169Y-68462463D01*
X118894002Y-68652337D01*
X118652337Y-68894002D01*
X118462463Y-69178169D01*
X118331675Y-69493919D01*
X118265000Y-69829117D01*
X117715088Y-69829117D01*
X117742168Y-69552937D01*
X117872003Y-69122903D01*
X118082892Y-68726276D01*
X118366801Y-68378169D01*
X118712923Y-68091831D01*
X119108068Y-67878178D01*
X119537184Y-67745344D01*
X120016176Y-67695000D01*
X171966008Y-67695000D01*
X172447063Y-67742168D01*
M02*
