%FSLAX45Y45*%
G04 Gerber Fmt 4.5, Leading zero omitted, Abs format (unit mm)*
G04 Created by KiCad (PCBNEW (5.1.5)-3) date 2021-10-17 17:05:09*
%MOMM*%
%LPD*%
G04 APERTURE LIST*
%TA.AperFunction,Profile*%
%ADD10C,0.120000*%
%TD*%
%ADD11C,0.200000*%
%ADD12C,0.300000*%
G04 APERTURE END LIST*
D10*
X11700000Y-7000000D02*
G75*
G02X12000000Y-6700000I300000J0D01*
G01*
X12000000Y-9300000D02*
G75*
G02X11700000Y-9000000I0J300000D01*
G01*
X17500000Y-9000000D02*
G75*
G02X17200000Y-9300000I-300000J0D01*
G01*
X17200000Y-6700000D02*
G75*
G02X17500000Y-7000000I0J-300000D01*
G01*
X17500000Y-9000000D02*
X17500000Y-7000000D01*
X12000000Y-9300000D02*
X17200000Y-9300000D01*
X11700000Y-7000000D02*
X11700000Y-9000000D01*
X17200000Y-6700000D02*
X12000000Y-6700000D01*
D11*
X12080000Y-7980000D02*
X12120000Y-8020000D01*
X12120000Y-7980000D02*
X12080000Y-8020000D01*
X12580000Y-7980000D02*
X12620000Y-8020000D01*
X12620000Y-7980000D02*
X12580000Y-8020000D01*
X12580000Y-8480000D02*
X12620000Y-8520000D01*
X12620000Y-8480000D02*
X12580000Y-8520000D01*
X12590850Y-7469150D02*
X12630850Y-7509150D01*
X12630850Y-7469150D02*
X12590850Y-7509150D01*
X14180000Y-7380000D02*
X14220000Y-7420000D01*
X14220000Y-7380000D02*
X14180000Y-7420000D01*
X14180000Y-7980000D02*
X14220000Y-8020000D01*
X14220000Y-7980000D02*
X14180000Y-8020000D01*
X14880000Y-6980000D02*
X14920000Y-7020000D01*
X14920000Y-6980000D02*
X14880000Y-7020000D01*
X14880000Y-7980000D02*
X14920000Y-8020000D01*
X14920000Y-7980000D02*
X14880000Y-8020000D01*
X14880000Y-8480000D02*
X14920000Y-8520000D01*
X14920000Y-8480000D02*
X14880000Y-8520000D01*
X15380000Y-9080000D02*
X15420000Y-9120000D01*
X15420000Y-9080000D02*
X15380000Y-9120000D01*
X15680000Y-6980000D02*
X15720000Y-7020000D01*
X15720000Y-6980000D02*
X15680000Y-7020000D01*
X16380000Y-6980000D02*
X16420000Y-7020000D01*
X16420000Y-6980000D02*
X16380000Y-7020000D01*
X16430000Y-8730000D02*
X16470000Y-8770000D01*
X16470000Y-8730000D02*
X16430000Y-8770000D01*
X16905000Y-7605000D02*
X16945000Y-7645000D01*
X16945000Y-7605000D02*
X16905000Y-7645000D01*
X16905000Y-7980000D02*
X16945000Y-8020000D01*
X16945000Y-7980000D02*
X16905000Y-8020000D01*
X16905000Y-8355000D02*
X16945000Y-8395000D01*
X16945000Y-8355000D02*
X16905000Y-8395000D01*
X12143700Y-7447000D02*
G75*
G03X12143700Y-7447000I-50000J0D01*
G01*
X12143700Y-8547000D02*
G75*
G03X12143700Y-8547000I-50000J0D01*
G01*
X16433000Y-7620000D02*
G75*
G03X16433000Y-7620000I-50000J0D01*
G01*
X16433000Y-7874000D02*
G75*
G03X16433000Y-7874000I-50000J0D01*
G01*
X16433000Y-8128000D02*
G75*
G03X16433000Y-8128000I-50000J0D01*
G01*
X16433000Y-8382000D02*
G75*
G03X16433000Y-8382000I-50000J0D01*
G01*
X16179000Y-7620000D02*
G75*
G03X16179000Y-7620000I-50000J0D01*
G01*
X16179000Y-7874000D02*
G75*
G03X16179000Y-7874000I-50000J0D01*
G01*
X16179000Y-8128000D02*
G75*
G03X16179000Y-8128000I-50000J0D01*
G01*
X16179000Y-8382000D02*
G75*
G03X16179000Y-8382000I-50000J0D01*
G01*
X13670000Y-7392000D02*
G75*
G03X13670000Y-7392000I-50000J0D01*
G01*
X13670000Y-7646000D02*
G75*
G03X13670000Y-7646000I-50000J0D01*
G01*
X13670000Y-7900000D02*
G75*
G03X13670000Y-7900000I-50000J0D01*
G01*
X15925000Y-7620000D02*
G75*
G03X15925000Y-7620000I-50000J0D01*
G01*
X15925000Y-7874000D02*
G75*
G03X15925000Y-7874000I-50000J0D01*
G01*
X15925000Y-8128000D02*
G75*
G03X15925000Y-8128000I-50000J0D01*
G01*
X15925000Y-8382000D02*
G75*
G03X15925000Y-8382000I-50000J0D01*
G01*
X12626000Y-7030000D02*
G75*
G03X12626000Y-7030000I-50000J0D01*
G01*
X12880000Y-7030000D02*
G75*
G03X12880000Y-7030000I-50000J0D01*
G01*
X14473260Y-8638848D02*
X14473260Y-8740848D01*
X14422260Y-8689848D02*
X14524260Y-8689848D01*
X15542260Y-7622848D02*
X15542260Y-7724848D01*
X15491260Y-7673848D02*
X15593260Y-7673848D01*
X15542260Y-7876848D02*
X15542260Y-7978848D01*
X15491260Y-7927848D02*
X15593260Y-7927848D01*
X15542260Y-8130848D02*
X15542260Y-8232848D01*
X15491260Y-8181848D02*
X15593260Y-8181848D01*
X15542260Y-8384848D02*
X15542260Y-8486848D01*
X15491260Y-8435848D02*
X15593260Y-8435848D01*
X15542260Y-8638848D02*
X15542260Y-8740848D01*
X15491260Y-8689848D02*
X15593260Y-8689848D01*
X13160876Y-7814176D02*
X13160876Y-7679824D01*
X13026524Y-7679824D01*
X13026524Y-7814176D01*
X13160876Y-7814176D01*
X13160876Y-8314176D02*
X13160876Y-8179824D01*
X13026524Y-8179824D01*
X13026524Y-8314176D01*
X13160876Y-8314176D01*
D12*
X11980428Y-9771714D02*
X11980428Y-9471714D01*
X12051857Y-9471714D01*
X12094714Y-9486000D01*
X12123286Y-9514572D01*
X12137571Y-9543143D01*
X12151857Y-9600286D01*
X12151857Y-9643143D01*
X12137571Y-9700286D01*
X12123286Y-9728857D01*
X12094714Y-9757429D01*
X12051857Y-9771714D01*
X11980428Y-9771714D01*
X12280428Y-9771714D02*
X12280428Y-9571714D01*
X12280428Y-9628857D02*
X12294714Y-9600286D01*
X12309000Y-9586000D01*
X12337571Y-9571714D01*
X12366143Y-9571714D01*
X12466143Y-9771714D02*
X12466143Y-9571714D01*
X12466143Y-9471714D02*
X12451857Y-9486000D01*
X12466143Y-9500286D01*
X12480428Y-9486000D01*
X12466143Y-9471714D01*
X12466143Y-9500286D01*
X12651857Y-9771714D02*
X12623286Y-9757429D01*
X12609000Y-9728857D01*
X12609000Y-9471714D01*
X12809000Y-9771714D02*
X12780428Y-9757429D01*
X12766143Y-9728857D01*
X12766143Y-9471714D01*
X13151857Y-9771714D02*
X13151857Y-9471714D01*
X13251857Y-9686000D01*
X13351857Y-9471714D01*
X13351857Y-9771714D01*
X13623286Y-9771714D02*
X13623286Y-9614572D01*
X13609000Y-9586000D01*
X13580428Y-9571714D01*
X13523286Y-9571714D01*
X13494714Y-9586000D01*
X13623286Y-9757429D02*
X13594714Y-9771714D01*
X13523286Y-9771714D01*
X13494714Y-9757429D01*
X13480428Y-9728857D01*
X13480428Y-9700286D01*
X13494714Y-9671714D01*
X13523286Y-9657429D01*
X13594714Y-9657429D01*
X13623286Y-9643143D01*
X13766143Y-9571714D02*
X13766143Y-9871714D01*
X13766143Y-9586000D02*
X13794714Y-9571714D01*
X13851857Y-9571714D01*
X13880428Y-9586000D01*
X13894714Y-9600286D01*
X13909000Y-9628857D01*
X13909000Y-9714572D01*
X13894714Y-9743143D01*
X13880428Y-9757429D01*
X13851857Y-9771714D01*
X13794714Y-9771714D01*
X13766143Y-9757429D01*
X14037571Y-9743143D02*
X14051857Y-9757429D01*
X14037571Y-9771714D01*
X14023286Y-9757429D01*
X14037571Y-9743143D01*
X14037571Y-9771714D01*
X14037571Y-9586000D02*
X14051857Y-9600286D01*
X14037571Y-9614572D01*
X14023286Y-9600286D01*
X14037571Y-9586000D01*
X14037571Y-9614572D01*
X11654000Y-10246000D02*
X11694000Y-10286000D01*
X11694000Y-10246000D02*
X11654000Y-10286000D01*
X12037571Y-10101714D02*
X12066143Y-10101714D01*
X12094714Y-10116000D01*
X12109000Y-10130286D01*
X12123286Y-10158857D01*
X12137571Y-10216000D01*
X12137571Y-10287429D01*
X12123286Y-10344572D01*
X12109000Y-10373143D01*
X12094714Y-10387429D01*
X12066143Y-10401714D01*
X12037571Y-10401714D01*
X12009000Y-10387429D01*
X11994714Y-10373143D01*
X11980428Y-10344572D01*
X11966143Y-10287429D01*
X11966143Y-10216000D01*
X11980428Y-10158857D01*
X11994714Y-10130286D01*
X12009000Y-10116000D01*
X12037571Y-10101714D01*
X12266143Y-10373143D02*
X12280428Y-10387429D01*
X12266143Y-10401714D01*
X12251857Y-10387429D01*
X12266143Y-10373143D01*
X12266143Y-10401714D01*
X12537571Y-10201714D02*
X12537571Y-10401714D01*
X12466143Y-10087429D02*
X12394714Y-10301714D01*
X12580428Y-10301714D01*
X12751857Y-10101714D02*
X12780428Y-10101714D01*
X12809000Y-10116000D01*
X12823286Y-10130286D01*
X12837571Y-10158857D01*
X12851857Y-10216000D01*
X12851857Y-10287429D01*
X12837571Y-10344572D01*
X12823286Y-10373143D01*
X12809000Y-10387429D01*
X12780428Y-10401714D01*
X12751857Y-10401714D01*
X12723286Y-10387429D01*
X12709000Y-10373143D01*
X12694714Y-10344572D01*
X12680428Y-10287429D01*
X12680428Y-10216000D01*
X12694714Y-10158857D01*
X12709000Y-10130286D01*
X12723286Y-10116000D01*
X12751857Y-10101714D01*
X12980428Y-10401714D02*
X12980428Y-10201714D01*
X12980428Y-10230286D02*
X12994714Y-10216000D01*
X13023286Y-10201714D01*
X13066143Y-10201714D01*
X13094714Y-10216000D01*
X13109000Y-10244572D01*
X13109000Y-10401714D01*
X13109000Y-10244572D02*
X13123286Y-10216000D01*
X13151857Y-10201714D01*
X13194714Y-10201714D01*
X13223286Y-10216000D01*
X13237571Y-10244572D01*
X13237571Y-10401714D01*
X13380428Y-10401714D02*
X13380428Y-10201714D01*
X13380428Y-10230286D02*
X13394714Y-10216000D01*
X13423286Y-10201714D01*
X13466143Y-10201714D01*
X13494714Y-10216000D01*
X13509000Y-10244572D01*
X13509000Y-10401714D01*
X13509000Y-10244572D02*
X13523286Y-10216000D01*
X13551857Y-10201714D01*
X13594714Y-10201714D01*
X13623286Y-10216000D01*
X13637571Y-10244572D01*
X13637571Y-10401714D01*
X14223286Y-10087429D02*
X13966143Y-10473143D01*
X14609000Y-10101714D02*
X14637571Y-10101714D01*
X14666143Y-10116000D01*
X14680428Y-10130286D01*
X14694714Y-10158857D01*
X14709000Y-10216000D01*
X14709000Y-10287429D01*
X14694714Y-10344572D01*
X14680428Y-10373143D01*
X14666143Y-10387429D01*
X14637571Y-10401714D01*
X14609000Y-10401714D01*
X14580428Y-10387429D01*
X14566143Y-10373143D01*
X14551857Y-10344572D01*
X14537571Y-10287429D01*
X14537571Y-10216000D01*
X14551857Y-10158857D01*
X14566143Y-10130286D01*
X14580428Y-10116000D01*
X14609000Y-10101714D01*
X14837571Y-10373143D02*
X14851857Y-10387429D01*
X14837571Y-10401714D01*
X14823286Y-10387429D01*
X14837571Y-10373143D01*
X14837571Y-10401714D01*
X15037571Y-10101714D02*
X15066143Y-10101714D01*
X15094714Y-10116000D01*
X15109000Y-10130286D01*
X15123286Y-10158857D01*
X15137571Y-10216000D01*
X15137571Y-10287429D01*
X15123286Y-10344572D01*
X15109000Y-10373143D01*
X15094714Y-10387429D01*
X15066143Y-10401714D01*
X15037571Y-10401714D01*
X15009000Y-10387429D01*
X14994714Y-10373143D01*
X14980428Y-10344572D01*
X14966143Y-10287429D01*
X14966143Y-10216000D01*
X14980428Y-10158857D01*
X14994714Y-10130286D01*
X15009000Y-10116000D01*
X15037571Y-10101714D01*
X15423286Y-10401714D02*
X15251857Y-10401714D01*
X15337571Y-10401714D02*
X15337571Y-10101714D01*
X15309000Y-10144572D01*
X15280428Y-10173143D01*
X15251857Y-10187429D01*
X15680428Y-10101714D02*
X15623286Y-10101714D01*
X15594714Y-10116000D01*
X15580428Y-10130286D01*
X15551857Y-10173143D01*
X15537571Y-10230286D01*
X15537571Y-10344572D01*
X15551857Y-10373143D01*
X15566143Y-10387429D01*
X15594714Y-10401714D01*
X15651857Y-10401714D01*
X15680428Y-10387429D01*
X15694714Y-10373143D01*
X15709000Y-10344572D01*
X15709000Y-10273143D01*
X15694714Y-10244572D01*
X15680428Y-10230286D01*
X15651857Y-10216000D01*
X15594714Y-10216000D01*
X15566143Y-10230286D01*
X15551857Y-10244572D01*
X15537571Y-10273143D01*
X15823286Y-10101714D02*
X15823286Y-10158857D01*
X15937571Y-10101714D02*
X15937571Y-10158857D01*
X16380428Y-10516000D02*
X16366143Y-10501714D01*
X16337571Y-10458857D01*
X16323286Y-10430286D01*
X16309000Y-10387429D01*
X16294714Y-10316000D01*
X16294714Y-10258857D01*
X16309000Y-10187429D01*
X16323286Y-10144572D01*
X16337571Y-10116000D01*
X16366143Y-10073143D01*
X16380428Y-10058857D01*
X16651857Y-10401714D02*
X16480428Y-10401714D01*
X16566143Y-10401714D02*
X16566143Y-10101714D01*
X16537571Y-10144572D01*
X16509000Y-10173143D01*
X16480428Y-10187429D01*
X16909000Y-10101714D02*
X16851857Y-10101714D01*
X16823286Y-10116000D01*
X16809000Y-10130286D01*
X16780428Y-10173143D01*
X16766143Y-10230286D01*
X16766143Y-10344572D01*
X16780428Y-10373143D01*
X16794714Y-10387429D01*
X16823286Y-10401714D01*
X16880428Y-10401714D01*
X16909000Y-10387429D01*
X16923286Y-10373143D01*
X16937571Y-10344572D01*
X16937571Y-10273143D01*
X16923286Y-10244572D01*
X16909000Y-10230286D01*
X16880428Y-10216000D01*
X16823286Y-10216000D01*
X16794714Y-10230286D01*
X16780428Y-10244572D01*
X16766143Y-10273143D01*
X17294714Y-10401714D02*
X17294714Y-10101714D01*
X17423286Y-10401714D02*
X17423286Y-10244572D01*
X17409000Y-10216000D01*
X17380428Y-10201714D01*
X17337571Y-10201714D01*
X17309000Y-10216000D01*
X17294714Y-10230286D01*
X17609000Y-10401714D02*
X17580428Y-10387429D01*
X17566143Y-10373143D01*
X17551857Y-10344572D01*
X17551857Y-10258857D01*
X17566143Y-10230286D01*
X17580428Y-10216000D01*
X17609000Y-10201714D01*
X17651857Y-10201714D01*
X17680428Y-10216000D01*
X17694714Y-10230286D01*
X17709000Y-10258857D01*
X17709000Y-10344572D01*
X17694714Y-10373143D01*
X17680428Y-10387429D01*
X17651857Y-10401714D01*
X17609000Y-10401714D01*
X17880428Y-10401714D02*
X17851857Y-10387429D01*
X17837571Y-10358857D01*
X17837571Y-10101714D01*
X18109000Y-10387429D02*
X18080428Y-10401714D01*
X18023286Y-10401714D01*
X17994714Y-10387429D01*
X17980428Y-10358857D01*
X17980428Y-10244572D01*
X17994714Y-10216000D01*
X18023286Y-10201714D01*
X18080428Y-10201714D01*
X18109000Y-10216000D01*
X18123286Y-10244572D01*
X18123286Y-10273143D01*
X17980428Y-10301714D01*
X18237571Y-10387429D02*
X18266143Y-10401714D01*
X18323286Y-10401714D01*
X18351857Y-10387429D01*
X18366143Y-10358857D01*
X18366143Y-10344572D01*
X18351857Y-10316000D01*
X18323286Y-10301714D01*
X18280428Y-10301714D01*
X18251857Y-10287429D01*
X18237571Y-10258857D01*
X18237571Y-10244572D01*
X18251857Y-10216000D01*
X18280428Y-10201714D01*
X18323286Y-10201714D01*
X18351857Y-10216000D01*
X18466143Y-10516000D02*
X18480428Y-10501714D01*
X18509000Y-10458857D01*
X18523286Y-10430286D01*
X18537571Y-10387429D01*
X18551857Y-10316000D01*
X18551857Y-10258857D01*
X18537571Y-10187429D01*
X18523286Y-10144572D01*
X18509000Y-10116000D01*
X18480428Y-10073143D01*
X18466143Y-10058857D01*
X11694000Y-10662000D02*
G75*
G03X11694000Y-10662000I-50000J0D01*
G01*
X12137571Y-10797714D02*
X11966143Y-10797714D01*
X12051857Y-10797714D02*
X12051857Y-10497714D01*
X12023286Y-10540572D01*
X11994714Y-10569143D01*
X11966143Y-10583429D01*
X12266143Y-10769143D02*
X12280428Y-10783429D01*
X12266143Y-10797714D01*
X12251857Y-10783429D01*
X12266143Y-10769143D01*
X12266143Y-10797714D01*
X12466143Y-10497714D02*
X12494714Y-10497714D01*
X12523286Y-10512000D01*
X12537571Y-10526286D01*
X12551857Y-10554857D01*
X12566143Y-10612000D01*
X12566143Y-10683429D01*
X12551857Y-10740572D01*
X12537571Y-10769143D01*
X12523286Y-10783429D01*
X12494714Y-10797714D01*
X12466143Y-10797714D01*
X12437571Y-10783429D01*
X12423286Y-10769143D01*
X12409000Y-10740572D01*
X12394714Y-10683429D01*
X12394714Y-10612000D01*
X12409000Y-10554857D01*
X12423286Y-10526286D01*
X12437571Y-10512000D01*
X12466143Y-10497714D01*
X12751857Y-10497714D02*
X12780428Y-10497714D01*
X12809000Y-10512000D01*
X12823286Y-10526286D01*
X12837571Y-10554857D01*
X12851857Y-10612000D01*
X12851857Y-10683429D01*
X12837571Y-10740572D01*
X12823286Y-10769143D01*
X12809000Y-10783429D01*
X12780428Y-10797714D01*
X12751857Y-10797714D01*
X12723286Y-10783429D01*
X12709000Y-10769143D01*
X12694714Y-10740572D01*
X12680428Y-10683429D01*
X12680428Y-10612000D01*
X12694714Y-10554857D01*
X12709000Y-10526286D01*
X12723286Y-10512000D01*
X12751857Y-10497714D01*
X12980428Y-10797714D02*
X12980428Y-10597714D01*
X12980428Y-10626286D02*
X12994714Y-10612000D01*
X13023286Y-10597714D01*
X13066143Y-10597714D01*
X13094714Y-10612000D01*
X13109000Y-10640572D01*
X13109000Y-10797714D01*
X13109000Y-10640572D02*
X13123286Y-10612000D01*
X13151857Y-10597714D01*
X13194714Y-10597714D01*
X13223286Y-10612000D01*
X13237571Y-10640572D01*
X13237571Y-10797714D01*
X13380428Y-10797714D02*
X13380428Y-10597714D01*
X13380428Y-10626286D02*
X13394714Y-10612000D01*
X13423286Y-10597714D01*
X13466143Y-10597714D01*
X13494714Y-10612000D01*
X13509000Y-10640572D01*
X13509000Y-10797714D01*
X13509000Y-10640572D02*
X13523286Y-10612000D01*
X13551857Y-10597714D01*
X13594714Y-10597714D01*
X13623286Y-10612000D01*
X13637571Y-10640572D01*
X13637571Y-10797714D01*
X14223286Y-10483429D02*
X13966143Y-10869143D01*
X14609000Y-10497714D02*
X14637571Y-10497714D01*
X14666143Y-10512000D01*
X14680428Y-10526286D01*
X14694714Y-10554857D01*
X14709000Y-10612000D01*
X14709000Y-10683429D01*
X14694714Y-10740572D01*
X14680428Y-10769143D01*
X14666143Y-10783429D01*
X14637571Y-10797714D01*
X14609000Y-10797714D01*
X14580428Y-10783429D01*
X14566143Y-10769143D01*
X14551857Y-10740572D01*
X14537571Y-10683429D01*
X14537571Y-10612000D01*
X14551857Y-10554857D01*
X14566143Y-10526286D01*
X14580428Y-10512000D01*
X14609000Y-10497714D01*
X14837571Y-10769143D02*
X14851857Y-10783429D01*
X14837571Y-10797714D01*
X14823286Y-10783429D01*
X14837571Y-10769143D01*
X14837571Y-10797714D01*
X15037571Y-10497714D02*
X15066143Y-10497714D01*
X15094714Y-10512000D01*
X15109000Y-10526286D01*
X15123286Y-10554857D01*
X15137571Y-10612000D01*
X15137571Y-10683429D01*
X15123286Y-10740572D01*
X15109000Y-10769143D01*
X15094714Y-10783429D01*
X15066143Y-10797714D01*
X15037571Y-10797714D01*
X15009000Y-10783429D01*
X14994714Y-10769143D01*
X14980428Y-10740572D01*
X14966143Y-10683429D01*
X14966143Y-10612000D01*
X14980428Y-10554857D01*
X14994714Y-10526286D01*
X15009000Y-10512000D01*
X15037571Y-10497714D01*
X15237571Y-10497714D02*
X15423286Y-10497714D01*
X15323286Y-10612000D01*
X15366143Y-10612000D01*
X15394714Y-10626286D01*
X15409000Y-10640572D01*
X15423286Y-10669143D01*
X15423286Y-10740572D01*
X15409000Y-10769143D01*
X15394714Y-10783429D01*
X15366143Y-10797714D01*
X15280428Y-10797714D01*
X15251857Y-10783429D01*
X15237571Y-10769143D01*
X15566143Y-10797714D02*
X15623286Y-10797714D01*
X15651857Y-10783429D01*
X15666143Y-10769143D01*
X15694714Y-10726286D01*
X15709000Y-10669143D01*
X15709000Y-10554857D01*
X15694714Y-10526286D01*
X15680428Y-10512000D01*
X15651857Y-10497714D01*
X15594714Y-10497714D01*
X15566143Y-10512000D01*
X15551857Y-10526286D01*
X15537571Y-10554857D01*
X15537571Y-10626286D01*
X15551857Y-10654857D01*
X15566143Y-10669143D01*
X15594714Y-10683429D01*
X15651857Y-10683429D01*
X15680428Y-10669143D01*
X15694714Y-10654857D01*
X15709000Y-10626286D01*
X15823286Y-10497714D02*
X15823286Y-10554857D01*
X15937571Y-10497714D02*
X15937571Y-10554857D01*
X16380428Y-10912000D02*
X16366143Y-10897714D01*
X16337571Y-10854857D01*
X16323286Y-10826286D01*
X16309000Y-10783429D01*
X16294714Y-10712000D01*
X16294714Y-10654857D01*
X16309000Y-10583429D01*
X16323286Y-10540572D01*
X16337571Y-10512000D01*
X16366143Y-10469143D01*
X16380428Y-10454857D01*
X16651857Y-10797714D02*
X16480428Y-10797714D01*
X16566143Y-10797714D02*
X16566143Y-10497714D01*
X16537571Y-10540572D01*
X16509000Y-10569143D01*
X16480428Y-10583429D01*
X16794714Y-10797714D02*
X16851857Y-10797714D01*
X16880428Y-10783429D01*
X16894714Y-10769143D01*
X16923286Y-10726286D01*
X16937571Y-10669143D01*
X16937571Y-10554857D01*
X16923286Y-10526286D01*
X16909000Y-10512000D01*
X16880428Y-10497714D01*
X16823286Y-10497714D01*
X16794714Y-10512000D01*
X16780428Y-10526286D01*
X16766143Y-10554857D01*
X16766143Y-10626286D01*
X16780428Y-10654857D01*
X16794714Y-10669143D01*
X16823286Y-10683429D01*
X16880428Y-10683429D01*
X16909000Y-10669143D01*
X16923286Y-10654857D01*
X16937571Y-10626286D01*
X17294714Y-10797714D02*
X17294714Y-10497714D01*
X17423286Y-10797714D02*
X17423286Y-10640572D01*
X17409000Y-10612000D01*
X17380428Y-10597714D01*
X17337571Y-10597714D01*
X17309000Y-10612000D01*
X17294714Y-10626286D01*
X17609000Y-10797714D02*
X17580428Y-10783429D01*
X17566143Y-10769143D01*
X17551857Y-10740572D01*
X17551857Y-10654857D01*
X17566143Y-10626286D01*
X17580428Y-10612000D01*
X17609000Y-10597714D01*
X17651857Y-10597714D01*
X17680428Y-10612000D01*
X17694714Y-10626286D01*
X17709000Y-10654857D01*
X17709000Y-10740572D01*
X17694714Y-10769143D01*
X17680428Y-10783429D01*
X17651857Y-10797714D01*
X17609000Y-10797714D01*
X17880428Y-10797714D02*
X17851857Y-10783429D01*
X17837571Y-10754857D01*
X17837571Y-10497714D01*
X18109000Y-10783429D02*
X18080428Y-10797714D01*
X18023286Y-10797714D01*
X17994714Y-10783429D01*
X17980428Y-10754857D01*
X17980428Y-10640572D01*
X17994714Y-10612000D01*
X18023286Y-10597714D01*
X18080428Y-10597714D01*
X18109000Y-10612000D01*
X18123286Y-10640572D01*
X18123286Y-10669143D01*
X17980428Y-10697714D01*
X18237571Y-10783429D02*
X18266143Y-10797714D01*
X18323286Y-10797714D01*
X18351857Y-10783429D01*
X18366143Y-10754857D01*
X18366143Y-10740572D01*
X18351857Y-10712000D01*
X18323286Y-10697714D01*
X18280428Y-10697714D01*
X18251857Y-10683429D01*
X18237571Y-10654857D01*
X18237571Y-10640572D01*
X18251857Y-10612000D01*
X18280428Y-10597714D01*
X18323286Y-10597714D01*
X18351857Y-10612000D01*
X18466143Y-10912000D02*
X18480428Y-10897714D01*
X18509000Y-10854857D01*
X18523286Y-10826286D01*
X18537571Y-10783429D01*
X18551857Y-10712000D01*
X18551857Y-10654857D01*
X18537571Y-10583429D01*
X18523286Y-10540572D01*
X18509000Y-10512000D01*
X18480428Y-10469143D01*
X18466143Y-10454857D01*
X11643000Y-11007000D02*
X11643000Y-11109000D01*
X11592000Y-11058000D02*
X11694000Y-11058000D01*
X12137571Y-11193714D02*
X11966143Y-11193714D01*
X12051857Y-11193714D02*
X12051857Y-10893714D01*
X12023286Y-10936572D01*
X11994714Y-10965143D01*
X11966143Y-10979429D01*
X12266143Y-11165143D02*
X12280428Y-11179429D01*
X12266143Y-11193714D01*
X12251857Y-11179429D01*
X12266143Y-11165143D01*
X12266143Y-11193714D01*
X12466143Y-10893714D02*
X12494714Y-10893714D01*
X12523286Y-10908000D01*
X12537571Y-10922286D01*
X12551857Y-10950857D01*
X12566143Y-11008000D01*
X12566143Y-11079429D01*
X12551857Y-11136572D01*
X12537571Y-11165143D01*
X12523286Y-11179429D01*
X12494714Y-11193714D01*
X12466143Y-11193714D01*
X12437571Y-11179429D01*
X12423286Y-11165143D01*
X12409000Y-11136572D01*
X12394714Y-11079429D01*
X12394714Y-11008000D01*
X12409000Y-10950857D01*
X12423286Y-10922286D01*
X12437571Y-10908000D01*
X12466143Y-10893714D01*
X12680428Y-10922286D02*
X12694714Y-10908000D01*
X12723286Y-10893714D01*
X12794714Y-10893714D01*
X12823286Y-10908000D01*
X12837571Y-10922286D01*
X12851857Y-10950857D01*
X12851857Y-10979429D01*
X12837571Y-11022286D01*
X12666143Y-11193714D01*
X12851857Y-11193714D01*
X12980428Y-11193714D02*
X12980428Y-10993714D01*
X12980428Y-11022286D02*
X12994714Y-11008000D01*
X13023286Y-10993714D01*
X13066143Y-10993714D01*
X13094714Y-11008000D01*
X13109000Y-11036572D01*
X13109000Y-11193714D01*
X13109000Y-11036572D02*
X13123286Y-11008000D01*
X13151857Y-10993714D01*
X13194714Y-10993714D01*
X13223286Y-11008000D01*
X13237571Y-11036572D01*
X13237571Y-11193714D01*
X13380428Y-11193714D02*
X13380428Y-10993714D01*
X13380428Y-11022286D02*
X13394714Y-11008000D01*
X13423286Y-10993714D01*
X13466143Y-10993714D01*
X13494714Y-11008000D01*
X13509000Y-11036572D01*
X13509000Y-11193714D01*
X13509000Y-11036572D02*
X13523286Y-11008000D01*
X13551857Y-10993714D01*
X13594714Y-10993714D01*
X13623286Y-11008000D01*
X13637571Y-11036572D01*
X13637571Y-11193714D01*
X14223286Y-10879429D02*
X13966143Y-11265143D01*
X14609000Y-10893714D02*
X14637571Y-10893714D01*
X14666143Y-10908000D01*
X14680428Y-10922286D01*
X14694714Y-10950857D01*
X14709000Y-11008000D01*
X14709000Y-11079429D01*
X14694714Y-11136572D01*
X14680428Y-11165143D01*
X14666143Y-11179429D01*
X14637571Y-11193714D01*
X14609000Y-11193714D01*
X14580428Y-11179429D01*
X14566143Y-11165143D01*
X14551857Y-11136572D01*
X14537571Y-11079429D01*
X14537571Y-11008000D01*
X14551857Y-10950857D01*
X14566143Y-10922286D01*
X14580428Y-10908000D01*
X14609000Y-10893714D01*
X14837571Y-11165143D02*
X14851857Y-11179429D01*
X14837571Y-11193714D01*
X14823286Y-11179429D01*
X14837571Y-11165143D01*
X14837571Y-11193714D01*
X15037571Y-10893714D02*
X15066143Y-10893714D01*
X15094714Y-10908000D01*
X15109000Y-10922286D01*
X15123286Y-10950857D01*
X15137571Y-11008000D01*
X15137571Y-11079429D01*
X15123286Y-11136572D01*
X15109000Y-11165143D01*
X15094714Y-11179429D01*
X15066143Y-11193714D01*
X15037571Y-11193714D01*
X15009000Y-11179429D01*
X14994714Y-11165143D01*
X14980428Y-11136572D01*
X14966143Y-11079429D01*
X14966143Y-11008000D01*
X14980428Y-10950857D01*
X14994714Y-10922286D01*
X15009000Y-10908000D01*
X15037571Y-10893714D01*
X15394714Y-10993714D02*
X15394714Y-11193714D01*
X15323286Y-10879429D02*
X15251857Y-11093714D01*
X15437571Y-11093714D01*
X15609000Y-10893714D02*
X15637571Y-10893714D01*
X15666143Y-10908000D01*
X15680428Y-10922286D01*
X15694714Y-10950857D01*
X15709000Y-11008000D01*
X15709000Y-11079429D01*
X15694714Y-11136572D01*
X15680428Y-11165143D01*
X15666143Y-11179429D01*
X15637571Y-11193714D01*
X15609000Y-11193714D01*
X15580428Y-11179429D01*
X15566143Y-11165143D01*
X15551857Y-11136572D01*
X15537571Y-11079429D01*
X15537571Y-11008000D01*
X15551857Y-10950857D01*
X15566143Y-10922286D01*
X15580428Y-10908000D01*
X15609000Y-10893714D01*
X15823286Y-10893714D02*
X15823286Y-10950857D01*
X15937571Y-10893714D02*
X15937571Y-10950857D01*
X16380428Y-11308000D02*
X16366143Y-11293714D01*
X16337571Y-11250857D01*
X16323286Y-11222286D01*
X16309000Y-11179429D01*
X16294714Y-11108000D01*
X16294714Y-11050857D01*
X16309000Y-10979429D01*
X16323286Y-10936572D01*
X16337571Y-10908000D01*
X16366143Y-10865143D01*
X16380428Y-10850857D01*
X16623286Y-10893714D02*
X16566143Y-10893714D01*
X16537571Y-10908000D01*
X16523286Y-10922286D01*
X16494714Y-10965143D01*
X16480428Y-11022286D01*
X16480428Y-11136572D01*
X16494714Y-11165143D01*
X16509000Y-11179429D01*
X16537571Y-11193714D01*
X16594714Y-11193714D01*
X16623286Y-11179429D01*
X16637571Y-11165143D01*
X16651857Y-11136572D01*
X16651857Y-11065143D01*
X16637571Y-11036572D01*
X16623286Y-11022286D01*
X16594714Y-11008000D01*
X16537571Y-11008000D01*
X16509000Y-11022286D01*
X16494714Y-11036572D01*
X16480428Y-11065143D01*
X17009000Y-11193714D02*
X17009000Y-10893714D01*
X17137571Y-11193714D02*
X17137571Y-11036572D01*
X17123286Y-11008000D01*
X17094714Y-10993714D01*
X17051857Y-10993714D01*
X17023286Y-11008000D01*
X17009000Y-11022286D01*
X17323286Y-11193714D02*
X17294714Y-11179429D01*
X17280428Y-11165143D01*
X17266143Y-11136572D01*
X17266143Y-11050857D01*
X17280428Y-11022286D01*
X17294714Y-11008000D01*
X17323286Y-10993714D01*
X17366143Y-10993714D01*
X17394714Y-11008000D01*
X17409000Y-11022286D01*
X17423286Y-11050857D01*
X17423286Y-11136572D01*
X17409000Y-11165143D01*
X17394714Y-11179429D01*
X17366143Y-11193714D01*
X17323286Y-11193714D01*
X17594714Y-11193714D02*
X17566143Y-11179429D01*
X17551857Y-11150857D01*
X17551857Y-10893714D01*
X17823286Y-11179429D02*
X17794714Y-11193714D01*
X17737571Y-11193714D01*
X17709000Y-11179429D01*
X17694714Y-11150857D01*
X17694714Y-11036572D01*
X17709000Y-11008000D01*
X17737571Y-10993714D01*
X17794714Y-10993714D01*
X17823286Y-11008000D01*
X17837571Y-11036572D01*
X17837571Y-11065143D01*
X17694714Y-11093714D01*
X17951857Y-11179429D02*
X17980428Y-11193714D01*
X18037571Y-11193714D01*
X18066143Y-11179429D01*
X18080428Y-11150857D01*
X18080428Y-11136572D01*
X18066143Y-11108000D01*
X18037571Y-11093714D01*
X17994714Y-11093714D01*
X17966143Y-11079429D01*
X17951857Y-11050857D01*
X17951857Y-11036572D01*
X17966143Y-11008000D01*
X17994714Y-10993714D01*
X18037571Y-10993714D01*
X18066143Y-11008000D01*
X18180428Y-11308000D02*
X18194714Y-11293714D01*
X18223286Y-11250857D01*
X18237571Y-11222286D01*
X18251857Y-11179429D01*
X18266143Y-11108000D01*
X18266143Y-11050857D01*
X18251857Y-10979429D01*
X18237571Y-10936572D01*
X18223286Y-10908000D01*
X18194714Y-10865143D01*
X18180428Y-10850857D01*
X11666176Y-11521176D02*
X11666176Y-11386824D01*
X11531824Y-11386824D01*
X11531824Y-11521176D01*
X11666176Y-11521176D01*
X12137571Y-11589714D02*
X11966143Y-11589714D01*
X12051857Y-11589714D02*
X12051857Y-11289714D01*
X12023286Y-11332571D01*
X11994714Y-11361143D01*
X11966143Y-11375429D01*
X12266143Y-11561143D02*
X12280428Y-11575429D01*
X12266143Y-11589714D01*
X12251857Y-11575429D01*
X12266143Y-11561143D01*
X12266143Y-11589714D01*
X12423286Y-11589714D02*
X12480428Y-11589714D01*
X12509000Y-11575429D01*
X12523286Y-11561143D01*
X12551857Y-11518286D01*
X12566143Y-11461143D01*
X12566143Y-11346857D01*
X12551857Y-11318286D01*
X12537571Y-11304000D01*
X12509000Y-11289714D01*
X12451857Y-11289714D01*
X12423286Y-11304000D01*
X12409000Y-11318286D01*
X12394714Y-11346857D01*
X12394714Y-11418286D01*
X12409000Y-11446857D01*
X12423286Y-11461143D01*
X12451857Y-11475429D01*
X12509000Y-11475429D01*
X12537571Y-11461143D01*
X12551857Y-11446857D01*
X12566143Y-11418286D01*
X12751857Y-11289714D02*
X12780428Y-11289714D01*
X12809000Y-11304000D01*
X12823286Y-11318286D01*
X12837571Y-11346857D01*
X12851857Y-11404000D01*
X12851857Y-11475429D01*
X12837571Y-11532571D01*
X12823286Y-11561143D01*
X12809000Y-11575429D01*
X12780428Y-11589714D01*
X12751857Y-11589714D01*
X12723286Y-11575429D01*
X12709000Y-11561143D01*
X12694714Y-11532571D01*
X12680428Y-11475429D01*
X12680428Y-11404000D01*
X12694714Y-11346857D01*
X12709000Y-11318286D01*
X12723286Y-11304000D01*
X12751857Y-11289714D01*
X12980428Y-11589714D02*
X12980428Y-11389714D01*
X12980428Y-11418286D02*
X12994714Y-11404000D01*
X13023286Y-11389714D01*
X13066143Y-11389714D01*
X13094714Y-11404000D01*
X13109000Y-11432571D01*
X13109000Y-11589714D01*
X13109000Y-11432571D02*
X13123286Y-11404000D01*
X13151857Y-11389714D01*
X13194714Y-11389714D01*
X13223286Y-11404000D01*
X13237571Y-11432571D01*
X13237571Y-11589714D01*
X13380428Y-11589714D02*
X13380428Y-11389714D01*
X13380428Y-11418286D02*
X13394714Y-11404000D01*
X13423286Y-11389714D01*
X13466143Y-11389714D01*
X13494714Y-11404000D01*
X13509000Y-11432571D01*
X13509000Y-11589714D01*
X13509000Y-11432571D02*
X13523286Y-11404000D01*
X13551857Y-11389714D01*
X13594714Y-11389714D01*
X13623286Y-11404000D01*
X13637571Y-11432571D01*
X13637571Y-11589714D01*
X14223286Y-11275429D02*
X13966143Y-11661143D01*
X14609000Y-11289714D02*
X14637571Y-11289714D01*
X14666143Y-11304000D01*
X14680428Y-11318286D01*
X14694714Y-11346857D01*
X14709000Y-11404000D01*
X14709000Y-11475429D01*
X14694714Y-11532571D01*
X14680428Y-11561143D01*
X14666143Y-11575429D01*
X14637571Y-11589714D01*
X14609000Y-11589714D01*
X14580428Y-11575429D01*
X14566143Y-11561143D01*
X14551857Y-11532571D01*
X14537571Y-11475429D01*
X14537571Y-11404000D01*
X14551857Y-11346857D01*
X14566143Y-11318286D01*
X14580428Y-11304000D01*
X14609000Y-11289714D01*
X14837571Y-11561143D02*
X14851857Y-11575429D01*
X14837571Y-11589714D01*
X14823286Y-11575429D01*
X14837571Y-11561143D01*
X14837571Y-11589714D01*
X15037571Y-11289714D02*
X15066143Y-11289714D01*
X15094714Y-11304000D01*
X15109000Y-11318286D01*
X15123286Y-11346857D01*
X15137571Y-11404000D01*
X15137571Y-11475429D01*
X15123286Y-11532571D01*
X15109000Y-11561143D01*
X15094714Y-11575429D01*
X15066143Y-11589714D01*
X15037571Y-11589714D01*
X15009000Y-11575429D01*
X14994714Y-11561143D01*
X14980428Y-11532571D01*
X14966143Y-11475429D01*
X14966143Y-11404000D01*
X14980428Y-11346857D01*
X14994714Y-11318286D01*
X15009000Y-11304000D01*
X15037571Y-11289714D01*
X15237571Y-11289714D02*
X15437571Y-11289714D01*
X15309000Y-11589714D01*
X15694714Y-11289714D02*
X15551857Y-11289714D01*
X15537571Y-11432571D01*
X15551857Y-11418286D01*
X15580428Y-11404000D01*
X15651857Y-11404000D01*
X15680428Y-11418286D01*
X15694714Y-11432571D01*
X15709000Y-11461143D01*
X15709000Y-11532571D01*
X15694714Y-11561143D01*
X15680428Y-11575429D01*
X15651857Y-11589714D01*
X15580428Y-11589714D01*
X15551857Y-11575429D01*
X15537571Y-11561143D01*
X15823286Y-11289714D02*
X15823286Y-11346857D01*
X15937571Y-11289714D02*
X15937571Y-11346857D01*
X16380428Y-11704000D02*
X16366143Y-11689714D01*
X16337571Y-11646857D01*
X16323286Y-11618286D01*
X16309000Y-11575429D01*
X16294714Y-11504000D01*
X16294714Y-11446857D01*
X16309000Y-11375429D01*
X16323286Y-11332571D01*
X16337571Y-11304000D01*
X16366143Y-11261143D01*
X16380428Y-11246857D01*
X16480428Y-11318286D02*
X16494714Y-11304000D01*
X16523286Y-11289714D01*
X16594714Y-11289714D01*
X16623286Y-11304000D01*
X16637571Y-11318286D01*
X16651857Y-11346857D01*
X16651857Y-11375429D01*
X16637571Y-11418286D01*
X16466143Y-11589714D01*
X16651857Y-11589714D01*
X17009000Y-11589714D02*
X17009000Y-11289714D01*
X17137571Y-11589714D02*
X17137571Y-11432571D01*
X17123286Y-11404000D01*
X17094714Y-11389714D01*
X17051857Y-11389714D01*
X17023286Y-11404000D01*
X17009000Y-11418286D01*
X17323286Y-11589714D02*
X17294714Y-11575429D01*
X17280428Y-11561143D01*
X17266143Y-11532571D01*
X17266143Y-11446857D01*
X17280428Y-11418286D01*
X17294714Y-11404000D01*
X17323286Y-11389714D01*
X17366143Y-11389714D01*
X17394714Y-11404000D01*
X17409000Y-11418286D01*
X17423286Y-11446857D01*
X17423286Y-11532571D01*
X17409000Y-11561143D01*
X17394714Y-11575429D01*
X17366143Y-11589714D01*
X17323286Y-11589714D01*
X17594714Y-11589714D02*
X17566143Y-11575429D01*
X17551857Y-11546857D01*
X17551857Y-11289714D01*
X17823286Y-11575429D02*
X17794714Y-11589714D01*
X17737571Y-11589714D01*
X17709000Y-11575429D01*
X17694714Y-11546857D01*
X17694714Y-11432571D01*
X17709000Y-11404000D01*
X17737571Y-11389714D01*
X17794714Y-11389714D01*
X17823286Y-11404000D01*
X17837571Y-11432571D01*
X17837571Y-11461143D01*
X17694714Y-11489714D01*
X17951857Y-11575429D02*
X17980428Y-11589714D01*
X18037571Y-11589714D01*
X18066143Y-11575429D01*
X18080428Y-11546857D01*
X18080428Y-11532571D01*
X18066143Y-11504000D01*
X18037571Y-11489714D01*
X17994714Y-11489714D01*
X17966143Y-11475429D01*
X17951857Y-11446857D01*
X17951857Y-11432571D01*
X17966143Y-11404000D01*
X17994714Y-11389714D01*
X18037571Y-11389714D01*
X18066143Y-11404000D01*
X18180428Y-11704000D02*
X18194714Y-11689714D01*
X18223286Y-11646857D01*
X18237571Y-11618286D01*
X18251857Y-11575429D01*
X18266143Y-11504000D01*
X18266143Y-11446857D01*
X18251857Y-11375429D01*
X18237571Y-11332571D01*
X18223286Y-11304000D01*
X18194714Y-11261143D01*
X18180428Y-11246857D01*
M02*
