G04 #@! TF.GenerationSoftware,KiCad,Pcbnew,(5.1.10)-1*
G04 #@! TF.CreationDate,2022-12-02T15:34:49-08:00*
G04 #@! TF.ProjectId,D24V22Fx_breakout,44323456-3232-4467-985f-627265616b6f,rev?*
G04 #@! TF.SameCoordinates,Original*
G04 #@! TF.FileFunction,Legend,Bot*
G04 #@! TF.FilePolarity,Positive*
%FSLAX46Y46*%
G04 Gerber Fmt 4.6, Leading zero omitted, Abs format (unit mm)*
G04 Created by KiCad (PCBNEW (5.1.10)-1) date 2022-12-02 15:34:49*
%MOMM*%
%LPD*%
G01*
G04 APERTURE LIST*
%ADD10C,0.150000*%
%ADD11C,1.626000*%
%ADD12C,2.102000*%
%ADD13O,1.802000X1.802000*%
%ADD14C,2.302000*%
%ADD15C,3.602000*%
%ADD16C,1.502000*%
G04 APERTURE END LIST*
D10*
X172164404Y-69946428D02*
X171402500Y-69946428D01*
X170926309Y-69946428D02*
X170164404Y-69946428D01*
X169688214Y-69946428D02*
X168926309Y-69946428D01*
X168450119Y-69946428D02*
X167688214Y-69946428D01*
X167212023Y-69946428D02*
X166450119Y-69946428D01*
X165973928Y-69946428D02*
X165212023Y-69946428D01*
X164735833Y-69660714D02*
X163973928Y-69946428D01*
X164735833Y-70232142D01*
X162259642Y-69327380D02*
X162735833Y-69327380D01*
X162783452Y-69803571D01*
X162735833Y-69755952D01*
X162640595Y-69708333D01*
X162402500Y-69708333D01*
X162307261Y-69755952D01*
X162259642Y-69803571D01*
X162212023Y-69898809D01*
X162212023Y-70136904D01*
X162259642Y-70232142D01*
X162307261Y-70279761D01*
X162402500Y-70327380D01*
X162640595Y-70327380D01*
X162735833Y-70279761D01*
X162783452Y-70232142D01*
X161831071Y-69422619D02*
X161783452Y-69375000D01*
X161688214Y-69327380D01*
X161450119Y-69327380D01*
X161354880Y-69375000D01*
X161307261Y-69422619D01*
X161259642Y-69517857D01*
X161259642Y-69613095D01*
X161307261Y-69755952D01*
X161878690Y-70327380D01*
X161259642Y-70327380D01*
X160069166Y-70327380D02*
X160069166Y-69660714D01*
X160069166Y-69755952D02*
X160021547Y-69708333D01*
X159926309Y-69660714D01*
X159783452Y-69660714D01*
X159688214Y-69708333D01*
X159640595Y-69803571D01*
X159640595Y-70327380D01*
X159640595Y-69803571D02*
X159592976Y-69708333D01*
X159497738Y-69660714D01*
X159354880Y-69660714D01*
X159259642Y-69708333D01*
X159212023Y-69803571D01*
X159212023Y-70327380D01*
X158735833Y-70327380D02*
X158735833Y-69660714D01*
X158735833Y-69755952D02*
X158688214Y-69708333D01*
X158592976Y-69660714D01*
X158450119Y-69660714D01*
X158354880Y-69708333D01*
X158307261Y-69803571D01*
X158307261Y-70327380D01*
X158307261Y-69803571D02*
X158259642Y-69708333D01*
X158164404Y-69660714D01*
X158021547Y-69660714D01*
X157926309Y-69708333D01*
X157878690Y-69803571D01*
X157878690Y-70327380D01*
X171926309Y-72310714D02*
X171926309Y-70882142D01*
X171926309Y-73960714D02*
X171926309Y-72532142D01*
X169402500Y-74008333D02*
X169450119Y-73960714D01*
X169545357Y-73817857D01*
X169592976Y-73722619D01*
X169640595Y-73579761D01*
X169688214Y-73341666D01*
X169688214Y-73151190D01*
X169640595Y-72913095D01*
X169592976Y-72770238D01*
X169545357Y-72675000D01*
X169450119Y-72532142D01*
X169402500Y-72484523D01*
X169021547Y-73627380D02*
X169021547Y-72627380D01*
X168688214Y-73341666D01*
X168354880Y-72627380D01*
X168354880Y-73627380D01*
X167926309Y-72722619D02*
X167878690Y-72675000D01*
X167783452Y-72627380D01*
X167545357Y-72627380D01*
X167450119Y-72675000D01*
X167402500Y-72722619D01*
X167354880Y-72817857D01*
X167354880Y-72913095D01*
X167402500Y-73055952D01*
X167973928Y-73627380D01*
X167354880Y-73627380D01*
X167021547Y-74008333D02*
X166973928Y-73960714D01*
X166878690Y-73817857D01*
X166831071Y-73722619D01*
X166783452Y-73579761D01*
X166735833Y-73341666D01*
X166735833Y-73151190D01*
X166783452Y-72913095D01*
X166831071Y-72770238D01*
X166878690Y-72675000D01*
X166973928Y-72532142D01*
X167021547Y-72484523D01*
X171926309Y-75610714D02*
X171926309Y-74182142D01*
X172259642Y-76260714D02*
X172021547Y-76927380D01*
X171783452Y-76260714D01*
X172212023Y-77672619D02*
X172164404Y-77625000D01*
X172069166Y-77577380D01*
X171831071Y-77577380D01*
X171735833Y-77625000D01*
X171688214Y-77672619D01*
X171640595Y-77767857D01*
X171640595Y-77863095D01*
X171688214Y-78005952D01*
X172259642Y-78577380D01*
X171640595Y-78577380D01*
X171021547Y-77577380D02*
X170926309Y-77577380D01*
X170831071Y-77625000D01*
X170783452Y-77672619D01*
X170735833Y-77767857D01*
X170688214Y-77958333D01*
X170688214Y-78196428D01*
X170735833Y-78386904D01*
X170783452Y-78482142D01*
X170831071Y-78529761D01*
X170926309Y-78577380D01*
X171021547Y-78577380D01*
X171116785Y-78529761D01*
X171164404Y-78482142D01*
X171212023Y-78386904D01*
X171259642Y-78196428D01*
X171259642Y-77958333D01*
X171212023Y-77767857D01*
X171164404Y-77672619D01*
X171116785Y-77625000D01*
X171021547Y-77577380D01*
X169497738Y-78577380D02*
X169497738Y-77910714D01*
X169497738Y-78005952D02*
X169450119Y-77958333D01*
X169354880Y-77910714D01*
X169212023Y-77910714D01*
X169116785Y-77958333D01*
X169069166Y-78053571D01*
X169069166Y-78577380D01*
X169069166Y-78053571D02*
X169021547Y-77958333D01*
X168926309Y-77910714D01*
X168783452Y-77910714D01*
X168688214Y-77958333D01*
X168640595Y-78053571D01*
X168640595Y-78577380D01*
X168164404Y-78577380D02*
X168164404Y-77910714D01*
X168164404Y-78005952D02*
X168116785Y-77958333D01*
X168021547Y-77910714D01*
X167878690Y-77910714D01*
X167783452Y-77958333D01*
X167735833Y-78053571D01*
X167735833Y-78577380D01*
X167735833Y-78053571D02*
X167688214Y-77958333D01*
X167592976Y-77910714D01*
X167450119Y-77910714D01*
X167354880Y-77958333D01*
X167307261Y-78053571D01*
X167307261Y-78577380D01*
%LPC*%
D11*
X155422600Y-86898480D03*
X155422600Y-84358480D03*
X155422600Y-81818480D03*
X155422600Y-79278480D03*
X155422600Y-76738480D03*
X144732600Y-86898480D03*
D12*
X154152600Y-72928480D03*
X141192600Y-85868480D03*
D13*
X163830000Y-83820000D03*
X163830000Y-81280000D03*
X163830000Y-78740000D03*
G36*
G01*
X162929000Y-77050000D02*
X162929000Y-75350000D01*
G75*
G02*
X162980000Y-75299000I51000J0D01*
G01*
X164680000Y-75299000D01*
G75*
G02*
X164731000Y-75350000I0J-51000D01*
G01*
X164731000Y-77050000D01*
G75*
G02*
X164680000Y-77101000I-51000J0D01*
G01*
X162980000Y-77101000D01*
G75*
G02*
X162929000Y-77050000I0J51000D01*
G01*
G37*
X161290000Y-83820000D03*
X161290000Y-81280000D03*
X161290000Y-78740000D03*
G36*
G01*
X160389000Y-77050000D02*
X160389000Y-75350000D01*
G75*
G02*
X160440000Y-75299000I51000J0D01*
G01*
X162140000Y-75299000D01*
G75*
G02*
X162191000Y-75350000I0J-51000D01*
G01*
X162191000Y-77050000D01*
G75*
G02*
X162140000Y-77101000I-51000J0D01*
G01*
X160440000Y-77101000D01*
G75*
G02*
X160389000Y-77050000I0J51000D01*
G01*
G37*
X158750000Y-83820000D03*
X158750000Y-81280000D03*
X158750000Y-78740000D03*
G36*
G01*
X157849000Y-77050000D02*
X157849000Y-75350000D01*
G75*
G02*
X157900000Y-75299000I51000J0D01*
G01*
X159600000Y-75299000D01*
G75*
G02*
X159651000Y-75350000I0J-51000D01*
G01*
X159651000Y-77050000D01*
G75*
G02*
X159600000Y-77101000I-51000J0D01*
G01*
X157900000Y-77101000D01*
G75*
G02*
X157849000Y-77050000I0J51000D01*
G01*
G37*
X128300000Y-70300000D03*
G36*
G01*
X126610000Y-71201000D02*
X124910000Y-71201000D01*
G75*
G02*
X124859000Y-71150000I0J51000D01*
G01*
X124859000Y-69450000D01*
G75*
G02*
X124910000Y-69399000I51000J0D01*
G01*
X126610000Y-69399000D01*
G75*
G02*
X126661000Y-69450000I0J-51000D01*
G01*
X126661000Y-71150000D01*
G75*
G02*
X126610000Y-71201000I-51000J0D01*
G01*
G37*
D14*
X120000000Y-90000000D03*
X172000000Y-90000000D03*
X120000000Y-70000000D03*
X172000000Y-70000000D03*
D15*
X130937000Y-82470000D03*
G36*
G01*
X132687000Y-79271000D02*
X129187000Y-79271000D01*
G75*
G02*
X129136000Y-79220000I0J51000D01*
G01*
X129136000Y-75720000D01*
G75*
G02*
X129187000Y-75669000I51000J0D01*
G01*
X132687000Y-75669000D01*
G75*
G02*
X132738000Y-75720000I0J-51000D01*
G01*
X132738000Y-79220000D01*
G75*
G02*
X132687000Y-79271000I-51000J0D01*
G01*
G37*
D16*
X120937000Y-85470000D03*
X120937000Y-74470000D03*
D13*
X136200000Y-73920000D03*
X136200000Y-76460000D03*
G36*
G01*
X137101000Y-78150000D02*
X137101000Y-79850000D01*
G75*
G02*
X137050000Y-79901000I-51000J0D01*
G01*
X135350000Y-79901000D01*
G75*
G02*
X135299000Y-79850000I0J51000D01*
G01*
X135299000Y-78150000D01*
G75*
G02*
X135350000Y-78099000I51000J0D01*
G01*
X137050000Y-78099000D01*
G75*
G02*
X137101000Y-78150000I0J-51000D01*
G01*
G37*
M02*
