G04 #@! TF.GenerationSoftware,KiCad,Pcbnew,(5.1.10)-1*
G04 #@! TF.CreationDate,2022-12-02T15:34:49-08:00*
G04 #@! TF.ProjectId,D24V22Fx_breakout,44323456-3232-4467-985f-627265616b6f,rev?*
G04 #@! TF.SameCoordinates,Original*
G04 #@! TF.FileFunction,Legend,Top*
G04 #@! TF.FilePolarity,Positive*
%FSLAX46Y46*%
G04 Gerber Fmt 4.6, Leading zero omitted, Abs format (unit mm)*
G04 Created by KiCad (PCBNEW (5.1.10)-1) date 2022-12-02 15:34:49*
%MOMM*%
%LPD*%
G01*
G04 APERTURE LIST*
%ADD10C,0.100000*%
%ADD11C,0.120000*%
%ADD12C,0.150000*%
%ADD13C,1.626000*%
%ADD14C,2.102000*%
%ADD15O,1.802000X1.802000*%
%ADD16C,2.302000*%
%ADD17C,3.602000*%
%ADD18C,1.502000*%
G04 APERTURE END LIST*
D10*
X134238095Y-71026190D02*
X134333333Y-71026190D01*
X134380952Y-71050000D01*
X134428571Y-71097619D01*
X134452380Y-71192857D01*
X134452380Y-71359523D01*
X134428571Y-71454761D01*
X134380952Y-71502380D01*
X134333333Y-71526190D01*
X134238095Y-71526190D01*
X134190476Y-71502380D01*
X134142857Y-71454761D01*
X134119047Y-71359523D01*
X134119047Y-71192857D01*
X134142857Y-71097619D01*
X134190476Y-71050000D01*
X134238095Y-71026190D01*
X134833333Y-71264285D02*
X134666666Y-71264285D01*
X134666666Y-71526190D02*
X134666666Y-71026190D01*
X134904761Y-71026190D01*
X135261904Y-71264285D02*
X135095238Y-71264285D01*
X135095238Y-71526190D02*
X135095238Y-71026190D01*
X135333333Y-71026190D01*
X137142857Y-71026190D02*
X137238095Y-71026190D01*
X137285714Y-71050000D01*
X137333333Y-71097619D01*
X137357142Y-71192857D01*
X137357142Y-71359523D01*
X137333333Y-71454761D01*
X137285714Y-71502380D01*
X137238095Y-71526190D01*
X137142857Y-71526190D01*
X137095238Y-71502380D01*
X137047619Y-71454761D01*
X137023809Y-71359523D01*
X137023809Y-71192857D01*
X137047619Y-71097619D01*
X137095238Y-71050000D01*
X137142857Y-71026190D01*
X137571428Y-71526190D02*
X137571428Y-71026190D01*
X137857142Y-71526190D01*
X137857142Y-71026190D01*
X125050000Y-67750000D02*
X125002380Y-67726190D01*
X124930952Y-67726190D01*
X124859523Y-67750000D01*
X124811904Y-67797619D01*
X124788095Y-67845238D01*
X124764285Y-67940476D01*
X124764285Y-68011904D01*
X124788095Y-68107142D01*
X124811904Y-68154761D01*
X124859523Y-68202380D01*
X124930952Y-68226190D01*
X124978571Y-68226190D01*
X125050000Y-68202380D01*
X125073809Y-68178571D01*
X125073809Y-68011904D01*
X124978571Y-68011904D01*
X125288095Y-68226190D02*
X125288095Y-67726190D01*
X125573809Y-68226190D01*
X125573809Y-67726190D01*
X125811904Y-68226190D02*
X125811904Y-67726190D01*
X125930952Y-67726190D01*
X126002380Y-67750000D01*
X126050000Y-67797619D01*
X126073809Y-67845238D01*
X126097619Y-67940476D01*
X126097619Y-68011904D01*
X126073809Y-68107142D01*
X126050000Y-68154761D01*
X126002380Y-68202380D01*
X125930952Y-68226190D01*
X125811904Y-68226190D01*
X127811904Y-68202380D02*
X127883333Y-68226190D01*
X128002380Y-68226190D01*
X128050000Y-68202380D01*
X128073809Y-68178571D01*
X128097619Y-68130952D01*
X128097619Y-68083333D01*
X128073809Y-68035714D01*
X128050000Y-68011904D01*
X128002380Y-67988095D01*
X127907142Y-67964285D01*
X127859523Y-67940476D01*
X127835714Y-67916666D01*
X127811904Y-67869047D01*
X127811904Y-67821428D01*
X127835714Y-67773809D01*
X127859523Y-67750000D01*
X127907142Y-67726190D01*
X128026190Y-67726190D01*
X128097619Y-67750000D01*
X128311904Y-68226190D02*
X128311904Y-67726190D01*
X128811904Y-67750000D02*
X128764285Y-67726190D01*
X128692857Y-67726190D01*
X128621428Y-67750000D01*
X128573809Y-67797619D01*
X128550000Y-67845238D01*
X128526190Y-67940476D01*
X128526190Y-68011904D01*
X128550000Y-68107142D01*
X128573809Y-68154761D01*
X128621428Y-68202380D01*
X128692857Y-68226190D01*
X128740476Y-68226190D01*
X128811904Y-68202380D01*
X128835714Y-68178571D01*
X128835714Y-68011904D01*
X128740476Y-68011904D01*
D11*
X156057142Y-90216785D02*
X156057142Y-89466785D01*
X156342857Y-89466785D01*
X156414285Y-89502500D01*
X156450000Y-89538214D01*
X156485714Y-89609642D01*
X156485714Y-89716785D01*
X156450000Y-89788214D01*
X156414285Y-89823928D01*
X156342857Y-89859642D01*
X156057142Y-89859642D01*
X156914285Y-90216785D02*
X156842857Y-90181071D01*
X156807142Y-90145357D01*
X156771428Y-90073928D01*
X156771428Y-89859642D01*
X156807142Y-89788214D01*
X156842857Y-89752500D01*
X156914285Y-89716785D01*
X157021428Y-89716785D01*
X157092857Y-89752500D01*
X157128571Y-89788214D01*
X157164285Y-89859642D01*
X157164285Y-90073928D01*
X157128571Y-90145357D01*
X157092857Y-90181071D01*
X157021428Y-90216785D01*
X156914285Y-90216785D01*
X157592857Y-90216785D02*
X157521428Y-90181071D01*
X157485714Y-90109642D01*
X157485714Y-89466785D01*
X157985714Y-90216785D02*
X157914285Y-90181071D01*
X157878571Y-90145357D01*
X157842857Y-90073928D01*
X157842857Y-89859642D01*
X157878571Y-89788214D01*
X157914285Y-89752500D01*
X157985714Y-89716785D01*
X158092857Y-89716785D01*
X158164285Y-89752500D01*
X158200000Y-89788214D01*
X158235714Y-89859642D01*
X158235714Y-90073928D01*
X158200000Y-90145357D01*
X158164285Y-90181071D01*
X158092857Y-90216785D01*
X157985714Y-90216785D01*
X158664285Y-90216785D02*
X158592857Y-90181071D01*
X158557142Y-90109642D01*
X158557142Y-89466785D01*
X159271428Y-89716785D02*
X159271428Y-90216785D01*
X158950000Y-89716785D02*
X158950000Y-90109642D01*
X158985714Y-90181071D01*
X159057142Y-90216785D01*
X159164285Y-90216785D01*
X159235714Y-90181071D01*
X159271428Y-90145357D01*
X160200000Y-90216785D02*
X160200000Y-89466785D01*
X160378571Y-89466785D01*
X160485714Y-89502500D01*
X160557142Y-89573928D01*
X160592857Y-89645357D01*
X160628571Y-89788214D01*
X160628571Y-89895357D01*
X160592857Y-90038214D01*
X160557142Y-90109642D01*
X160485714Y-90181071D01*
X160378571Y-90216785D01*
X160200000Y-90216785D01*
X160914285Y-89538214D02*
X160950000Y-89502500D01*
X161021428Y-89466785D01*
X161200000Y-89466785D01*
X161271428Y-89502500D01*
X161307142Y-89538214D01*
X161342857Y-89609642D01*
X161342857Y-89681071D01*
X161307142Y-89788214D01*
X160878571Y-90216785D01*
X161342857Y-90216785D01*
X161985714Y-89716785D02*
X161985714Y-90216785D01*
X161807142Y-89431071D02*
X161628571Y-89966785D01*
X162092857Y-89966785D01*
X162271428Y-89466785D02*
X162521428Y-90216785D01*
X162771428Y-89466785D01*
X162985714Y-89538214D02*
X163021428Y-89502500D01*
X163092857Y-89466785D01*
X163271428Y-89466785D01*
X163342857Y-89502500D01*
X163378571Y-89538214D01*
X163414285Y-89609642D01*
X163414285Y-89681071D01*
X163378571Y-89788214D01*
X162950000Y-90216785D01*
X163414285Y-90216785D01*
X163700000Y-89538214D02*
X163735714Y-89502500D01*
X163807142Y-89466785D01*
X163985714Y-89466785D01*
X164057142Y-89502500D01*
X164092857Y-89538214D01*
X164128571Y-89609642D01*
X164128571Y-89681071D01*
X164092857Y-89788214D01*
X163664285Y-90216785D01*
X164128571Y-90216785D01*
X164700000Y-89823928D02*
X164450000Y-89823928D01*
X164450000Y-90216785D02*
X164450000Y-89466785D01*
X164807142Y-89466785D01*
X165021428Y-90216785D02*
X165414285Y-89716785D01*
X165021428Y-89716785D02*
X165414285Y-90216785D01*
X155950000Y-91068928D02*
X156057142Y-91104642D01*
X156092857Y-91140357D01*
X156128571Y-91211785D01*
X156128571Y-91318928D01*
X156092857Y-91390357D01*
X156057142Y-91426071D01*
X155985714Y-91461785D01*
X155700000Y-91461785D01*
X155700000Y-90711785D01*
X155950000Y-90711785D01*
X156021428Y-90747500D01*
X156057142Y-90783214D01*
X156092857Y-90854642D01*
X156092857Y-90926071D01*
X156057142Y-90997500D01*
X156021428Y-91033214D01*
X155950000Y-91068928D01*
X155700000Y-91068928D01*
X156450000Y-91461785D02*
X156450000Y-90961785D01*
X156450000Y-91104642D02*
X156485714Y-91033214D01*
X156521428Y-90997500D01*
X156592857Y-90961785D01*
X156664285Y-90961785D01*
X157200000Y-91426071D02*
X157128571Y-91461785D01*
X156985714Y-91461785D01*
X156914285Y-91426071D01*
X156878571Y-91354642D01*
X156878571Y-91068928D01*
X156914285Y-90997500D01*
X156985714Y-90961785D01*
X157128571Y-90961785D01*
X157200000Y-90997500D01*
X157235714Y-91068928D01*
X157235714Y-91140357D01*
X156878571Y-91211785D01*
X157878571Y-91461785D02*
X157878571Y-91068928D01*
X157842857Y-90997500D01*
X157771428Y-90961785D01*
X157628571Y-90961785D01*
X157557142Y-90997500D01*
X157878571Y-91426071D02*
X157807142Y-91461785D01*
X157628571Y-91461785D01*
X157557142Y-91426071D01*
X157521428Y-91354642D01*
X157521428Y-91283214D01*
X157557142Y-91211785D01*
X157628571Y-91176071D01*
X157807142Y-91176071D01*
X157878571Y-91140357D01*
X158235714Y-91461785D02*
X158235714Y-90711785D01*
X158307142Y-91176071D02*
X158521428Y-91461785D01*
X158521428Y-90961785D02*
X158235714Y-91247500D01*
X158950000Y-91461785D02*
X158878571Y-91426071D01*
X158842857Y-91390357D01*
X158807142Y-91318928D01*
X158807142Y-91104642D01*
X158842857Y-91033214D01*
X158878571Y-90997500D01*
X158950000Y-90961785D01*
X159057142Y-90961785D01*
X159128571Y-90997500D01*
X159164285Y-91033214D01*
X159200000Y-91104642D01*
X159200000Y-91318928D01*
X159164285Y-91390357D01*
X159128571Y-91426071D01*
X159057142Y-91461785D01*
X158950000Y-91461785D01*
X159842857Y-90961785D02*
X159842857Y-91461785D01*
X159521428Y-90961785D02*
X159521428Y-91354642D01*
X159557142Y-91426071D01*
X159628571Y-91461785D01*
X159735714Y-91461785D01*
X159807142Y-91426071D01*
X159842857Y-91390357D01*
X160092857Y-90961785D02*
X160378571Y-90961785D01*
X160200000Y-90711785D02*
X160200000Y-91354642D01*
X160235714Y-91426071D01*
X160307142Y-91461785D01*
X160378571Y-91461785D01*
X161128571Y-90961785D02*
X161307142Y-91461785D01*
X161485714Y-90961785D01*
X162164285Y-91461785D02*
X161735714Y-91461785D01*
X161950000Y-91461785D02*
X161950000Y-90711785D01*
X161878571Y-90818928D01*
X161807142Y-90890357D01*
X161735714Y-90926071D01*
X163057142Y-91176071D02*
X163628571Y-91176071D01*
X164557142Y-91461785D02*
X164557142Y-90711785D01*
X164807142Y-91247500D01*
X165057142Y-90711785D01*
X165057142Y-91461785D01*
X165378571Y-91247500D02*
X165735714Y-91247500D01*
X165307142Y-91461785D02*
X165557142Y-90711785D01*
X165807142Y-91461785D01*
X157859523Y-73350000D02*
X157783333Y-73311904D01*
X157669047Y-73311904D01*
X157554761Y-73350000D01*
X157478571Y-73426190D01*
X157440476Y-73502380D01*
X157402380Y-73654761D01*
X157402380Y-73769047D01*
X157440476Y-73921428D01*
X157478571Y-73997619D01*
X157554761Y-74073809D01*
X157669047Y-74111904D01*
X157745238Y-74111904D01*
X157859523Y-74073809D01*
X157897619Y-74035714D01*
X157897619Y-73769047D01*
X157745238Y-73769047D01*
X158240476Y-74111904D02*
X158240476Y-73311904D01*
X158697619Y-74111904D01*
X158697619Y-73311904D01*
X159078571Y-74111904D02*
X159078571Y-73311904D01*
X159269047Y-73311904D01*
X159383333Y-73350000D01*
X159459523Y-73426190D01*
X159497619Y-73502380D01*
X159535714Y-73654761D01*
X159535714Y-73769047D01*
X159497619Y-73921428D01*
X159459523Y-73997619D01*
X159383333Y-74073809D01*
X159269047Y-74111904D01*
X159078571Y-74111904D01*
X160983333Y-73311904D02*
X161250000Y-74111904D01*
X161516666Y-73311904D01*
X163421428Y-73350000D02*
X163345238Y-73311904D01*
X163230952Y-73311904D01*
X163116666Y-73350000D01*
X163040476Y-73426190D01*
X163002380Y-73502380D01*
X162964285Y-73654761D01*
X162964285Y-73769047D01*
X163002380Y-73921428D01*
X163040476Y-73997619D01*
X163116666Y-74073809D01*
X163230952Y-74111904D01*
X163307142Y-74111904D01*
X163421428Y-74073809D01*
X163459523Y-74035714D01*
X163459523Y-73769047D01*
X163307142Y-73769047D01*
X163802380Y-74111904D02*
X163802380Y-73311904D01*
X164259523Y-74111904D01*
X164259523Y-73311904D01*
X164640476Y-74111904D02*
X164640476Y-73311904D01*
X164830952Y-73311904D01*
X164945238Y-73350000D01*
X165021428Y-73426190D01*
X165059523Y-73502380D01*
X165097619Y-73654761D01*
X165097619Y-73769047D01*
X165059523Y-73921428D01*
X165021428Y-73997619D01*
X164945238Y-74073809D01*
X164830952Y-74111904D01*
X164640476Y-74111904D01*
X156692600Y-88168480D02*
X138912600Y-88168480D01*
X138892600Y-88168480D02*
X138892600Y-70368480D01*
X138892600Y-70368480D02*
X156692600Y-70368480D01*
X156692600Y-70368480D02*
X156692600Y-88168480D01*
X162560000Y-74930000D02*
X163830000Y-74930000D01*
X162560000Y-76200000D02*
X162560000Y-74930000D01*
X164872929Y-84200000D02*
X165270000Y-84200000D01*
X164872929Y-83440000D02*
X165270000Y-83440000D01*
X173930000Y-84200000D02*
X167930000Y-84200000D01*
X173930000Y-83440000D02*
X173930000Y-84200000D01*
X167930000Y-83440000D02*
X173930000Y-83440000D01*
X165270000Y-82550000D02*
X167930000Y-82550000D01*
X164872929Y-81660000D02*
X165270000Y-81660000D01*
X164872929Y-80900000D02*
X165270000Y-80900000D01*
X173930000Y-81660000D02*
X167930000Y-81660000D01*
X173930000Y-80900000D02*
X173930000Y-81660000D01*
X167930000Y-80900000D02*
X173930000Y-80900000D01*
X165270000Y-80010000D02*
X167930000Y-80010000D01*
X164872929Y-79120000D02*
X165270000Y-79120000D01*
X164872929Y-78360000D02*
X165270000Y-78360000D01*
X173930000Y-79120000D02*
X167930000Y-79120000D01*
X173930000Y-78360000D02*
X173930000Y-79120000D01*
X167930000Y-78360000D02*
X173930000Y-78360000D01*
X165270000Y-77470000D02*
X167930000Y-77470000D01*
X164940000Y-76580000D02*
X165270000Y-76580000D01*
X164940000Y-75820000D02*
X165270000Y-75820000D01*
X167930000Y-76480000D02*
X173930000Y-76480000D01*
X167930000Y-76360000D02*
X173930000Y-76360000D01*
X167930000Y-76240000D02*
X173930000Y-76240000D01*
X167930000Y-76120000D02*
X173930000Y-76120000D01*
X167930000Y-76000000D02*
X173930000Y-76000000D01*
X167930000Y-75880000D02*
X173930000Y-75880000D01*
X173930000Y-76580000D02*
X167930000Y-76580000D01*
X173930000Y-75820000D02*
X173930000Y-76580000D01*
X167930000Y-75820000D02*
X173930000Y-75820000D01*
X167930000Y-74870000D02*
X165270000Y-74870000D01*
X167930000Y-85150000D02*
X167930000Y-74870000D01*
X165270000Y-85150000D02*
X167930000Y-85150000D01*
X165270000Y-74870000D02*
X165270000Y-85150000D01*
X159960000Y-74870000D02*
X161290000Y-74870000D01*
X159960000Y-76200000D02*
X159960000Y-74870000D01*
X159960000Y-77470000D02*
X162620000Y-77470000D01*
X162620000Y-77470000D02*
X162620000Y-85150000D01*
X159960000Y-77470000D02*
X159960000Y-85150000D01*
X159960000Y-85150000D02*
X162620000Y-85150000D01*
X157420000Y-74870000D02*
X158750000Y-74870000D01*
X157420000Y-76200000D02*
X157420000Y-74870000D01*
X157420000Y-77470000D02*
X160080000Y-77470000D01*
X160080000Y-77470000D02*
X160080000Y-85150000D01*
X157420000Y-77470000D02*
X157420000Y-85150000D01*
X157420000Y-85150000D02*
X160080000Y-85150000D01*
X124430000Y-71630000D02*
X124430000Y-70300000D01*
X125760000Y-71630000D02*
X124430000Y-71630000D01*
X127030000Y-71630000D02*
X127030000Y-68970000D01*
X127030000Y-68970000D02*
X129630000Y-68970000D01*
X127030000Y-71630000D02*
X129630000Y-71630000D01*
X129630000Y-71630000D02*
X129630000Y-68970000D01*
X132610000Y-70136252D02*
X132610000Y-69613748D01*
X131190000Y-70136252D02*
X131190000Y-69613748D01*
X137400000Y-70600000D02*
X134600000Y-70600000D01*
X133950000Y-69900000D02*
X133950000Y-69300000D01*
X134600000Y-68600000D02*
X137400000Y-68600000D01*
X138050000Y-69300000D02*
X138050000Y-69900000D01*
X137200000Y-68400000D02*
X137500000Y-68100000D01*
X137500000Y-68100000D02*
X136900000Y-68100000D01*
X137200000Y-68400000D02*
X136900000Y-68100000D01*
X138050000Y-69900000D02*
G75*
G02*
X137350000Y-70600000I-700000J0D01*
G01*
X137350000Y-68600000D02*
G75*
G02*
X138050000Y-69300000I0J-700000D01*
G01*
X133950000Y-69300000D02*
G75*
G02*
X134650000Y-68600000I700000J0D01*
G01*
X134650000Y-70600000D02*
G75*
G02*
X133950000Y-69900000I0J700000D01*
G01*
X135490000Y-84313748D02*
X135490000Y-84836252D01*
X136910000Y-84313748D02*
X136910000Y-84836252D01*
X126960000Y-91885000D02*
X126960000Y-89025000D01*
X125040000Y-91885000D02*
X126960000Y-91885000D01*
X125040000Y-89025000D02*
X125040000Y-91885000D01*
X134440000Y-88320000D02*
X135900000Y-88320000D01*
X134440000Y-91480000D02*
X137600000Y-91480000D01*
X134440000Y-91480000D02*
X134440000Y-90550000D01*
X134440000Y-88320000D02*
X134440000Y-89250000D01*
X143861252Y-89590000D02*
X143338748Y-89590000D01*
X143861252Y-91010000D02*
X143338748Y-91010000D01*
X149163748Y-91010000D02*
X149686252Y-91010000D01*
X149163748Y-89590000D02*
X149686252Y-89590000D01*
X127640000Y-88140000D02*
X127640000Y-91000000D01*
X129560000Y-88140000D02*
X127640000Y-88140000D01*
X129560000Y-91000000D02*
X129560000Y-88140000D01*
X117727000Y-74910000D02*
X119827000Y-74910000D01*
X122047000Y-85620000D02*
X122047000Y-85030000D01*
X119827000Y-85620000D02*
X119827000Y-85030000D01*
X119827000Y-74910000D02*
X119827000Y-74320000D01*
X122047000Y-74910000D02*
X122047000Y-74320000D01*
X122047000Y-74910000D02*
X126947000Y-74910000D01*
X117727000Y-85030000D02*
X119827000Y-85030000D01*
X122047000Y-85030000D02*
X126947000Y-85030000D01*
X126947000Y-85030000D02*
X126947000Y-74910000D01*
X117727000Y-85030000D02*
X117727000Y-74910000D01*
X119827000Y-74320000D02*
G75*
G02*
X122047000Y-74320000I1110000J0D01*
G01*
X122047000Y-85620000D02*
G75*
G02*
X119827000Y-85620000I-1110000J0D01*
G01*
X137530000Y-80330000D02*
X136200000Y-80330000D01*
X137530000Y-79000000D02*
X137530000Y-80330000D01*
X137530000Y-77730000D02*
X134870000Y-77730000D01*
X134870000Y-77730000D02*
X134870000Y-72590000D01*
X137530000Y-77730000D02*
X137530000Y-72590000D01*
X137530000Y-72590000D02*
X134870000Y-72590000D01*
D12*
X151064980Y-80040384D02*
X151874504Y-80040384D01*
X151969742Y-79992765D01*
X152017361Y-79945146D01*
X152064980Y-79849908D01*
X152064980Y-79659432D01*
X152017361Y-79564194D01*
X151969742Y-79516575D01*
X151874504Y-79468956D01*
X151064980Y-79468956D01*
X152064980Y-78468956D02*
X152064980Y-79040384D01*
X152064980Y-78754670D02*
X151064980Y-78754670D01*
X151207838Y-78849908D01*
X151303076Y-78945146D01*
X151350695Y-79040384D01*
D10*
X133785714Y-68326190D02*
X133785714Y-67826190D01*
X133904761Y-67826190D01*
X133976190Y-67850000D01*
X134023809Y-67897619D01*
X134047619Y-67945238D01*
X134071428Y-68040476D01*
X134071428Y-68111904D01*
X134047619Y-68207142D01*
X134023809Y-68254761D01*
X133976190Y-68302380D01*
X133904761Y-68326190D01*
X133785714Y-68326190D01*
X134476190Y-68302380D02*
X134428571Y-68326190D01*
X134333333Y-68326190D01*
X134285714Y-68302380D01*
X134261904Y-68254761D01*
X134261904Y-68064285D01*
X134285714Y-68016666D01*
X134333333Y-67992857D01*
X134428571Y-67992857D01*
X134476190Y-68016666D01*
X134500000Y-68064285D01*
X134500000Y-68111904D01*
X134261904Y-68159523D01*
X134642857Y-67992857D02*
X134833333Y-67992857D01*
X134714285Y-68326190D02*
X134714285Y-67897619D01*
X134738095Y-67850000D01*
X134785714Y-67826190D01*
X134833333Y-67826190D01*
X135214285Y-68326190D02*
X135214285Y-68064285D01*
X135190476Y-68016666D01*
X135142857Y-67992857D01*
X135047619Y-67992857D01*
X135000000Y-68016666D01*
X135214285Y-68302380D02*
X135166666Y-68326190D01*
X135047619Y-68326190D01*
X135000000Y-68302380D01*
X134976190Y-68254761D01*
X134976190Y-68207142D01*
X135000000Y-68159523D01*
X135047619Y-68135714D01*
X135166666Y-68135714D01*
X135214285Y-68111904D01*
X135666666Y-67992857D02*
X135666666Y-68326190D01*
X135452380Y-67992857D02*
X135452380Y-68254761D01*
X135476190Y-68302380D01*
X135523809Y-68326190D01*
X135595238Y-68326190D01*
X135642857Y-68302380D01*
X135666666Y-68278571D01*
X135976190Y-68326190D02*
X135928571Y-68302380D01*
X135904761Y-68254761D01*
X135904761Y-67826190D01*
X136095238Y-67992857D02*
X136285714Y-67992857D01*
X136166666Y-67826190D02*
X136166666Y-68254761D01*
X136190476Y-68302380D01*
X136238095Y-68326190D01*
X136285714Y-68326190D01*
X134776190Y-85289285D02*
X134538095Y-85455952D01*
X134776190Y-85575000D02*
X134276190Y-85575000D01*
X134276190Y-85384523D01*
X134300000Y-85336904D01*
X134323809Y-85313095D01*
X134371428Y-85289285D01*
X134442857Y-85289285D01*
X134490476Y-85313095D01*
X134514285Y-85336904D01*
X134538095Y-85384523D01*
X134538095Y-85575000D01*
X134823809Y-85194047D02*
X134823809Y-84813095D01*
X134776190Y-84455952D02*
X134776190Y-84694047D01*
X134276190Y-84694047D01*
X134514285Y-84289285D02*
X134514285Y-84122619D01*
X134776190Y-84051190D02*
X134776190Y-84289285D01*
X134276190Y-84289285D01*
X134276190Y-84051190D01*
X134776190Y-83836904D02*
X134276190Y-83836904D01*
X134276190Y-83717857D01*
X134300000Y-83646428D01*
X134347619Y-83598809D01*
X134395238Y-83575000D01*
X134490476Y-83551190D01*
X134561904Y-83551190D01*
X134657142Y-83575000D01*
X134704761Y-83598809D01*
X134752380Y-83646428D01*
X134776190Y-83717857D01*
X134776190Y-83836904D01*
D12*
X123452380Y-91476190D02*
X124452380Y-91142857D01*
X123452380Y-90809523D01*
X124547619Y-90714285D02*
X124547619Y-89952380D01*
X124452380Y-89714285D02*
X123452380Y-89714285D01*
X124452380Y-89238095D02*
X123452380Y-89238095D01*
X124452380Y-88666666D01*
X123452380Y-88666666D01*
D10*
X142826190Y-92026190D02*
X142659523Y-91788095D01*
X142540476Y-92026190D02*
X142540476Y-91526190D01*
X142730952Y-91526190D01*
X142778571Y-91550000D01*
X142802380Y-91573809D01*
X142826190Y-91621428D01*
X142826190Y-91692857D01*
X142802380Y-91740476D01*
X142778571Y-91764285D01*
X142730952Y-91788095D01*
X142540476Y-91788095D01*
X142921428Y-92073809D02*
X143302380Y-92073809D01*
X143421428Y-92026190D02*
X143421428Y-91526190D01*
X143611904Y-91526190D01*
X143659523Y-91550000D01*
X143683333Y-91573809D01*
X143707142Y-91621428D01*
X143707142Y-91692857D01*
X143683333Y-91740476D01*
X143659523Y-91764285D01*
X143611904Y-91788095D01*
X143421428Y-91788095D01*
X144135714Y-91692857D02*
X144135714Y-92026190D01*
X143921428Y-91692857D02*
X143921428Y-91954761D01*
X143945238Y-92002380D01*
X143992857Y-92026190D01*
X144064285Y-92026190D01*
X144111904Y-92002380D01*
X144135714Y-91978571D01*
X144445238Y-92026190D02*
X144397619Y-92002380D01*
X144373809Y-91954761D01*
X144373809Y-91526190D01*
X144707142Y-92026190D02*
X144659523Y-92002380D01*
X144635714Y-91954761D01*
X144635714Y-91526190D01*
X148710714Y-92026190D02*
X148544047Y-91788095D01*
X148425000Y-92026190D02*
X148425000Y-91526190D01*
X148615476Y-91526190D01*
X148663095Y-91550000D01*
X148686904Y-91573809D01*
X148710714Y-91621428D01*
X148710714Y-91692857D01*
X148686904Y-91740476D01*
X148663095Y-91764285D01*
X148615476Y-91788095D01*
X148425000Y-91788095D01*
X148805952Y-92073809D02*
X149186904Y-92073809D01*
X149544047Y-92026190D02*
X149305952Y-92026190D01*
X149305952Y-91526190D01*
X149710714Y-91764285D02*
X149877380Y-91764285D01*
X149948809Y-92026190D02*
X149710714Y-92026190D01*
X149710714Y-91526190D01*
X149948809Y-91526190D01*
X150163095Y-92026190D02*
X150163095Y-91526190D01*
X150282142Y-91526190D01*
X150353571Y-91550000D01*
X150401190Y-91597619D01*
X150425000Y-91645238D01*
X150448809Y-91740476D01*
X150448809Y-91811904D01*
X150425000Y-91907142D01*
X150401190Y-91954761D01*
X150353571Y-92002380D01*
X150282142Y-92026190D01*
X150163095Y-92026190D01*
D12*
X130052380Y-92142857D02*
X131052380Y-91809523D01*
X130052380Y-91476190D01*
X131147619Y-91380952D02*
X131147619Y-90619047D01*
X130052380Y-90190476D02*
X130052380Y-90000000D01*
X130100000Y-89904761D01*
X130195238Y-89809523D01*
X130385714Y-89761904D01*
X130719047Y-89761904D01*
X130909523Y-89809523D01*
X131004761Y-89904761D01*
X131052380Y-90000000D01*
X131052380Y-90190476D01*
X131004761Y-90285714D01*
X130909523Y-90380952D01*
X130719047Y-90428571D01*
X130385714Y-90428571D01*
X130195238Y-90380952D01*
X130100000Y-90285714D01*
X130052380Y-90190476D01*
X130052380Y-89333333D02*
X130861904Y-89333333D01*
X130957142Y-89285714D01*
X131004761Y-89238095D01*
X131052380Y-89142857D01*
X131052380Y-88952380D01*
X131004761Y-88857142D01*
X130957142Y-88809523D01*
X130861904Y-88761904D01*
X130052380Y-88761904D01*
X130052380Y-88428571D02*
X130052380Y-87857142D01*
X131052380Y-88142857D02*
X130052380Y-88142857D01*
X131044142Y-86041428D02*
X131044142Y-84898571D01*
X131615571Y-85470000D02*
X130472714Y-85470000D01*
X131044142Y-75041428D02*
X131044142Y-73898571D01*
%LPC*%
D13*
X155422600Y-86898480D03*
X155422600Y-84358480D03*
X155422600Y-81818480D03*
X155422600Y-79278480D03*
X155422600Y-76738480D03*
X144732600Y-86898480D03*
D14*
X154152600Y-72928480D03*
X141192600Y-85868480D03*
D15*
X163830000Y-83820000D03*
X163830000Y-81280000D03*
X163830000Y-78740000D03*
G36*
G01*
X162929000Y-77050000D02*
X162929000Y-75350000D01*
G75*
G02*
X162980000Y-75299000I51000J0D01*
G01*
X164680000Y-75299000D01*
G75*
G02*
X164731000Y-75350000I0J-51000D01*
G01*
X164731000Y-77050000D01*
G75*
G02*
X164680000Y-77101000I-51000J0D01*
G01*
X162980000Y-77101000D01*
G75*
G02*
X162929000Y-77050000I0J51000D01*
G01*
G37*
X161290000Y-83820000D03*
X161290000Y-81280000D03*
X161290000Y-78740000D03*
G36*
G01*
X160389000Y-77050000D02*
X160389000Y-75350000D01*
G75*
G02*
X160440000Y-75299000I51000J0D01*
G01*
X162140000Y-75299000D01*
G75*
G02*
X162191000Y-75350000I0J-51000D01*
G01*
X162191000Y-77050000D01*
G75*
G02*
X162140000Y-77101000I-51000J0D01*
G01*
X160440000Y-77101000D01*
G75*
G02*
X160389000Y-77050000I0J51000D01*
G01*
G37*
X158750000Y-83820000D03*
X158750000Y-81280000D03*
X158750000Y-78740000D03*
G36*
G01*
X157849000Y-77050000D02*
X157849000Y-75350000D01*
G75*
G02*
X157900000Y-75299000I51000J0D01*
G01*
X159600000Y-75299000D01*
G75*
G02*
X159651000Y-75350000I0J-51000D01*
G01*
X159651000Y-77050000D01*
G75*
G02*
X159600000Y-77101000I-51000J0D01*
G01*
X157900000Y-77101000D01*
G75*
G02*
X157849000Y-77050000I0J51000D01*
G01*
G37*
X128300000Y-70300000D03*
G36*
G01*
X126610000Y-71201000D02*
X124910000Y-71201000D01*
G75*
G02*
X124859000Y-71150000I0J51000D01*
G01*
X124859000Y-69450000D01*
G75*
G02*
X124910000Y-69399000I51000J0D01*
G01*
X126610000Y-69399000D01*
G75*
G02*
X126661000Y-69450000I0J-51000D01*
G01*
X126661000Y-71150000D01*
G75*
G02*
X126610000Y-71201000I-51000J0D01*
G01*
G37*
G36*
G01*
X132378828Y-69476000D02*
X131421172Y-69476000D01*
G75*
G02*
X131149000Y-69203828I0J272172D01*
G01*
X131149000Y-68496172D01*
G75*
G02*
X131421172Y-68224000I272172J0D01*
G01*
X132378828Y-68224000D01*
G75*
G02*
X132651000Y-68496172I0J-272172D01*
G01*
X132651000Y-69203828D01*
G75*
G02*
X132378828Y-69476000I-272172J0D01*
G01*
G37*
G36*
G01*
X132378828Y-71526000D02*
X131421172Y-71526000D01*
G75*
G02*
X131149000Y-71253828I0J272172D01*
G01*
X131149000Y-70546172D01*
G75*
G02*
X131421172Y-70274000I272172J0D01*
G01*
X132378828Y-70274000D01*
G75*
G02*
X132651000Y-70546172I0J-272172D01*
G01*
X132651000Y-71253828D01*
G75*
G02*
X132378828Y-71526000I-272172J0D01*
G01*
G37*
G36*
G01*
X136551000Y-68850000D02*
X136551000Y-70350000D01*
G75*
G02*
X136500000Y-70401000I-51000J0D01*
G01*
X135500000Y-70401000D01*
G75*
G02*
X135449000Y-70350000I0J51000D01*
G01*
X135449000Y-68850000D01*
G75*
G02*
X135500000Y-68799000I51000J0D01*
G01*
X136500000Y-68799000D01*
G75*
G02*
X136551000Y-68850000I0J-51000D01*
G01*
G37*
D10*
G36*
X134693888Y-70400398D02*
G01*
X134675466Y-70400398D01*
X134670467Y-70400152D01*
X134621636Y-70395342D01*
X134616686Y-70394608D01*
X134568561Y-70385036D01*
X134563705Y-70383820D01*
X134516750Y-70369576D01*
X134512039Y-70367890D01*
X134466706Y-70349113D01*
X134462180Y-70346973D01*
X134418907Y-70323842D01*
X134414616Y-70321269D01*
X134373817Y-70294009D01*
X134369796Y-70291027D01*
X134331867Y-70259899D01*
X134328159Y-70256538D01*
X134293462Y-70221841D01*
X134290101Y-70218133D01*
X134258973Y-70180204D01*
X134255991Y-70176183D01*
X134228731Y-70135384D01*
X134226158Y-70131093D01*
X134203027Y-70087820D01*
X134200887Y-70083294D01*
X134182110Y-70037961D01*
X134180424Y-70033250D01*
X134166180Y-69986295D01*
X134164964Y-69981439D01*
X134155392Y-69933314D01*
X134154658Y-69928364D01*
X134149848Y-69879533D01*
X134149602Y-69874534D01*
X134149602Y-69856112D01*
X134149000Y-69850000D01*
X134149000Y-69350000D01*
X134149602Y-69343888D01*
X134149602Y-69325466D01*
X134149848Y-69320467D01*
X134154658Y-69271636D01*
X134155392Y-69266686D01*
X134164964Y-69218561D01*
X134166180Y-69213705D01*
X134180424Y-69166750D01*
X134182110Y-69162039D01*
X134200887Y-69116706D01*
X134203027Y-69112180D01*
X134226158Y-69068907D01*
X134228731Y-69064616D01*
X134255991Y-69023817D01*
X134258973Y-69019796D01*
X134290101Y-68981867D01*
X134293462Y-68978159D01*
X134328159Y-68943462D01*
X134331867Y-68940101D01*
X134369796Y-68908973D01*
X134373817Y-68905991D01*
X134414616Y-68878731D01*
X134418907Y-68876158D01*
X134462180Y-68853027D01*
X134466706Y-68850887D01*
X134512039Y-68832110D01*
X134516750Y-68830424D01*
X134563705Y-68816180D01*
X134568561Y-68814964D01*
X134616686Y-68805392D01*
X134621636Y-68804658D01*
X134670467Y-68799848D01*
X134675466Y-68799602D01*
X134693888Y-68799602D01*
X134700000Y-68799000D01*
X135250000Y-68799000D01*
X135259950Y-68799980D01*
X135269517Y-68802882D01*
X135278334Y-68807595D01*
X135286062Y-68813938D01*
X135292405Y-68821666D01*
X135297118Y-68830483D01*
X135300020Y-68840050D01*
X135301000Y-68850000D01*
X135301000Y-70350000D01*
X135300020Y-70359950D01*
X135297118Y-70369517D01*
X135292405Y-70378334D01*
X135286062Y-70386062D01*
X135278334Y-70392405D01*
X135269517Y-70397118D01*
X135259950Y-70400020D01*
X135250000Y-70401000D01*
X134700000Y-70401000D01*
X134693888Y-70400398D01*
G37*
G36*
X136740050Y-70400020D02*
G01*
X136730483Y-70397118D01*
X136721666Y-70392405D01*
X136713938Y-70386062D01*
X136707595Y-70378334D01*
X136702882Y-70369517D01*
X136699980Y-70359950D01*
X136699000Y-70350000D01*
X136699000Y-68850000D01*
X136699980Y-68840050D01*
X136702882Y-68830483D01*
X136707595Y-68821666D01*
X136713938Y-68813938D01*
X136721666Y-68807595D01*
X136730483Y-68802882D01*
X136740050Y-68799980D01*
X136750000Y-68799000D01*
X137300000Y-68799000D01*
X137306112Y-68799602D01*
X137324534Y-68799602D01*
X137329533Y-68799848D01*
X137378364Y-68804658D01*
X137383314Y-68805392D01*
X137431439Y-68814964D01*
X137436295Y-68816180D01*
X137483250Y-68830424D01*
X137487961Y-68832110D01*
X137533294Y-68850887D01*
X137537820Y-68853027D01*
X137581093Y-68876158D01*
X137585384Y-68878731D01*
X137626183Y-68905991D01*
X137630204Y-68908973D01*
X137668133Y-68940101D01*
X137671841Y-68943462D01*
X137706538Y-68978159D01*
X137709899Y-68981867D01*
X137741027Y-69019796D01*
X137744009Y-69023817D01*
X137771269Y-69064616D01*
X137773842Y-69068907D01*
X137796973Y-69112180D01*
X137799113Y-69116706D01*
X137817890Y-69162039D01*
X137819576Y-69166750D01*
X137833820Y-69213705D01*
X137835036Y-69218561D01*
X137844608Y-69266686D01*
X137845342Y-69271636D01*
X137850152Y-69320467D01*
X137850398Y-69325466D01*
X137850398Y-69343888D01*
X137851000Y-69350000D01*
X137851000Y-69850000D01*
X137850398Y-69856112D01*
X137850398Y-69874534D01*
X137850152Y-69879533D01*
X137845342Y-69928364D01*
X137844608Y-69933314D01*
X137835036Y-69981439D01*
X137833820Y-69986295D01*
X137819576Y-70033250D01*
X137817890Y-70037961D01*
X137799113Y-70083294D01*
X137796973Y-70087820D01*
X137773842Y-70131093D01*
X137771269Y-70135384D01*
X137744009Y-70176183D01*
X137741027Y-70180204D01*
X137709899Y-70218133D01*
X137706538Y-70221841D01*
X137671841Y-70256538D01*
X137668133Y-70259899D01*
X137630204Y-70291027D01*
X137626183Y-70294009D01*
X137585384Y-70321269D01*
X137581093Y-70323842D01*
X137537820Y-70346973D01*
X137533294Y-70349113D01*
X137487961Y-70367890D01*
X137483250Y-70369576D01*
X137436295Y-70383820D01*
X137431439Y-70385036D01*
X137383314Y-70394608D01*
X137378364Y-70395342D01*
X137329533Y-70400152D01*
X137324534Y-70400398D01*
X137306112Y-70400398D01*
X137300000Y-70401000D01*
X136750000Y-70401000D01*
X136740050Y-70400020D01*
G37*
G36*
G01*
X135721172Y-84974000D02*
X136678828Y-84974000D01*
G75*
G02*
X136951000Y-85246172I0J-272172D01*
G01*
X136951000Y-85953828D01*
G75*
G02*
X136678828Y-86226000I-272172J0D01*
G01*
X135721172Y-86226000D01*
G75*
G02*
X135449000Y-85953828I0J272172D01*
G01*
X135449000Y-85246172D01*
G75*
G02*
X135721172Y-84974000I272172J0D01*
G01*
G37*
G36*
G01*
X135721172Y-82924000D02*
X136678828Y-82924000D01*
G75*
G02*
X136951000Y-83196172I0J-272172D01*
G01*
X136951000Y-83903828D01*
G75*
G02*
X136678828Y-84176000I-272172J0D01*
G01*
X135721172Y-84176000D01*
G75*
G02*
X135449000Y-83903828I0J272172D01*
G01*
X135449000Y-83196172D01*
G75*
G02*
X135721172Y-82924000I272172J0D01*
G01*
G37*
G36*
G01*
X126478828Y-89626000D02*
X125521172Y-89626000D01*
G75*
G02*
X125249000Y-89353828I0J272172D01*
G01*
X125249000Y-88646172D01*
G75*
G02*
X125521172Y-88374000I272172J0D01*
G01*
X126478828Y-88374000D01*
G75*
G02*
X126751000Y-88646172I0J-272172D01*
G01*
X126751000Y-89353828D01*
G75*
G02*
X126478828Y-89626000I-272172J0D01*
G01*
G37*
G36*
G01*
X126478828Y-91676000D02*
X125521172Y-91676000D01*
G75*
G02*
X125249000Y-91403828I0J272172D01*
G01*
X125249000Y-90696172D01*
G75*
G02*
X125521172Y-90424000I272172J0D01*
G01*
X126478828Y-90424000D01*
G75*
G02*
X126751000Y-90696172I0J-272172D01*
G01*
X126751000Y-91403828D01*
G75*
G02*
X126478828Y-91676000I-272172J0D01*
G01*
G37*
G36*
G01*
X134701000Y-89500000D02*
X134701000Y-90300000D01*
G75*
G02*
X134650000Y-90351000I-51000J0D01*
G01*
X132750000Y-90351000D01*
G75*
G02*
X132699000Y-90300000I0J51000D01*
G01*
X132699000Y-89500000D01*
G75*
G02*
X132750000Y-89449000I51000J0D01*
G01*
X134650000Y-89449000D01*
G75*
G02*
X134701000Y-89500000I0J-51000D01*
G01*
G37*
G36*
G01*
X137701000Y-88550000D02*
X137701000Y-89350000D01*
G75*
G02*
X137650000Y-89401000I-51000J0D01*
G01*
X135750000Y-89401000D01*
G75*
G02*
X135699000Y-89350000I0J51000D01*
G01*
X135699000Y-88550000D01*
G75*
G02*
X135750000Y-88499000I51000J0D01*
G01*
X137650000Y-88499000D01*
G75*
G02*
X137701000Y-88550000I0J-51000D01*
G01*
G37*
G36*
G01*
X137701000Y-90450000D02*
X137701000Y-91250000D01*
G75*
G02*
X137650000Y-91301000I-51000J0D01*
G01*
X135750000Y-91301000D01*
G75*
G02*
X135699000Y-91250000I0J51000D01*
G01*
X135699000Y-90450000D01*
G75*
G02*
X135750000Y-90399000I51000J0D01*
G01*
X137650000Y-90399000D01*
G75*
G02*
X137701000Y-90450000I0J-51000D01*
G01*
G37*
G36*
G01*
X143201000Y-89821172D02*
X143201000Y-90778828D01*
G75*
G02*
X142928828Y-91051000I-272172J0D01*
G01*
X142221172Y-91051000D01*
G75*
G02*
X141949000Y-90778828I0J272172D01*
G01*
X141949000Y-89821172D01*
G75*
G02*
X142221172Y-89549000I272172J0D01*
G01*
X142928828Y-89549000D01*
G75*
G02*
X143201000Y-89821172I0J-272172D01*
G01*
G37*
G36*
G01*
X145251000Y-89821172D02*
X145251000Y-90778828D01*
G75*
G02*
X144978828Y-91051000I-272172J0D01*
G01*
X144271172Y-91051000D01*
G75*
G02*
X143999000Y-90778828I0J272172D01*
G01*
X143999000Y-89821172D01*
G75*
G02*
X144271172Y-89549000I272172J0D01*
G01*
X144978828Y-89549000D01*
G75*
G02*
X145251000Y-89821172I0J-272172D01*
G01*
G37*
G36*
G01*
X149824000Y-90778828D02*
X149824000Y-89821172D01*
G75*
G02*
X150096172Y-89549000I272172J0D01*
G01*
X150803828Y-89549000D01*
G75*
G02*
X151076000Y-89821172I0J-272172D01*
G01*
X151076000Y-90778828D01*
G75*
G02*
X150803828Y-91051000I-272172J0D01*
G01*
X150096172Y-91051000D01*
G75*
G02*
X149824000Y-90778828I0J272172D01*
G01*
G37*
G36*
G01*
X147774000Y-90778828D02*
X147774000Y-89821172D01*
G75*
G02*
X148046172Y-89549000I272172J0D01*
G01*
X148753828Y-89549000D01*
G75*
G02*
X149026000Y-89821172I0J-272172D01*
G01*
X149026000Y-90778828D01*
G75*
G02*
X148753828Y-91051000I-272172J0D01*
G01*
X148046172Y-91051000D01*
G75*
G02*
X147774000Y-90778828I0J272172D01*
G01*
G37*
G36*
G01*
X128121172Y-90399000D02*
X129078828Y-90399000D01*
G75*
G02*
X129351000Y-90671172I0J-272172D01*
G01*
X129351000Y-91378828D01*
G75*
G02*
X129078828Y-91651000I-272172J0D01*
G01*
X128121172Y-91651000D01*
G75*
G02*
X127849000Y-91378828I0J272172D01*
G01*
X127849000Y-90671172D01*
G75*
G02*
X128121172Y-90399000I272172J0D01*
G01*
G37*
G36*
G01*
X128121172Y-88349000D02*
X129078828Y-88349000D01*
G75*
G02*
X129351000Y-88621172I0J-272172D01*
G01*
X129351000Y-89328828D01*
G75*
G02*
X129078828Y-89601000I-272172J0D01*
G01*
X128121172Y-89601000D01*
G75*
G02*
X127849000Y-89328828I0J272172D01*
G01*
X127849000Y-88621172D01*
G75*
G02*
X128121172Y-88349000I272172J0D01*
G01*
G37*
D16*
X120000000Y-90000000D03*
X172000000Y-90000000D03*
X120000000Y-70000000D03*
X172000000Y-70000000D03*
D17*
X130937000Y-82470000D03*
G36*
G01*
X132687000Y-79271000D02*
X129187000Y-79271000D01*
G75*
G02*
X129136000Y-79220000I0J51000D01*
G01*
X129136000Y-75720000D01*
G75*
G02*
X129187000Y-75669000I51000J0D01*
G01*
X132687000Y-75669000D01*
G75*
G02*
X132738000Y-75720000I0J-51000D01*
G01*
X132738000Y-79220000D01*
G75*
G02*
X132687000Y-79271000I-51000J0D01*
G01*
G37*
D18*
X120937000Y-85470000D03*
X120937000Y-74470000D03*
D15*
X136200000Y-73920000D03*
X136200000Y-76460000D03*
G36*
G01*
X137101000Y-78150000D02*
X137101000Y-79850000D01*
G75*
G02*
X137050000Y-79901000I-51000J0D01*
G01*
X135350000Y-79901000D01*
G75*
G02*
X135299000Y-79850000I0J51000D01*
G01*
X135299000Y-78150000D01*
G75*
G02*
X135350000Y-78099000I51000J0D01*
G01*
X137050000Y-78099000D01*
G75*
G02*
X137101000Y-78150000I0J-51000D01*
G01*
G37*
M02*
