G04 #@! TF.GenerationSoftware,KiCad,Pcbnew,(5.1.10)-1*
G04 #@! TF.CreationDate,2022-12-02T15:34:49-08:00*
G04 #@! TF.ProjectId,D24V22Fx_breakout,44323456-3232-4467-985f-627265616b6f,rev?*
G04 #@! TF.SameCoordinates,Original*
G04 #@! TF.FileFunction,Paste,Top*
G04 #@! TF.FilePolarity,Positive*
%FSLAX46Y46*%
G04 Gerber Fmt 4.6, Leading zero omitted, Abs format (unit mm)*
G04 Created by KiCad (PCBNEW (5.1.10)-1) date 2022-12-02 15:34:49*
%MOMM*%
%LPD*%
G01*
G04 APERTURE LIST*
%ADD10R,1.900000X0.800000*%
G04 APERTURE END LIST*
G36*
G01*
X132350001Y-69425000D02*
X131449999Y-69425000D01*
G75*
G02*
X131200000Y-69175001I0J249999D01*
G01*
X131200000Y-68524999D01*
G75*
G02*
X131449999Y-68275000I249999J0D01*
G01*
X132350001Y-68275000D01*
G75*
G02*
X132600000Y-68524999I0J-249999D01*
G01*
X132600000Y-69175001D01*
G75*
G02*
X132350001Y-69425000I-249999J0D01*
G01*
G37*
G36*
G01*
X132350001Y-71475000D02*
X131449999Y-71475000D01*
G75*
G02*
X131200000Y-71225001I0J249999D01*
G01*
X131200000Y-70574999D01*
G75*
G02*
X131449999Y-70325000I249999J0D01*
G01*
X132350001Y-70325000D01*
G75*
G02*
X132600000Y-70574999I0J-249999D01*
G01*
X132600000Y-71225001D01*
G75*
G02*
X132350001Y-71475000I-249999J0D01*
G01*
G37*
G36*
G01*
X135749999Y-85025000D02*
X136650001Y-85025000D01*
G75*
G02*
X136900000Y-85274999I0J-249999D01*
G01*
X136900000Y-85925001D01*
G75*
G02*
X136650001Y-86175000I-249999J0D01*
G01*
X135749999Y-86175000D01*
G75*
G02*
X135500000Y-85925001I0J249999D01*
G01*
X135500000Y-85274999D01*
G75*
G02*
X135749999Y-85025000I249999J0D01*
G01*
G37*
G36*
G01*
X135749999Y-82975000D02*
X136650001Y-82975000D01*
G75*
G02*
X136900000Y-83224999I0J-249999D01*
G01*
X136900000Y-83875001D01*
G75*
G02*
X136650001Y-84125000I-249999J0D01*
G01*
X135749999Y-84125000D01*
G75*
G02*
X135500000Y-83875001I0J249999D01*
G01*
X135500000Y-83224999D01*
G75*
G02*
X135749999Y-82975000I249999J0D01*
G01*
G37*
G36*
G01*
X126450001Y-89575000D02*
X125549999Y-89575000D01*
G75*
G02*
X125300000Y-89325001I0J249999D01*
G01*
X125300000Y-88674999D01*
G75*
G02*
X125549999Y-88425000I249999J0D01*
G01*
X126450001Y-88425000D01*
G75*
G02*
X126700000Y-88674999I0J-249999D01*
G01*
X126700000Y-89325001D01*
G75*
G02*
X126450001Y-89575000I-249999J0D01*
G01*
G37*
G36*
G01*
X126450001Y-91625000D02*
X125549999Y-91625000D01*
G75*
G02*
X125300000Y-91375001I0J249999D01*
G01*
X125300000Y-90724999D01*
G75*
G02*
X125549999Y-90475000I249999J0D01*
G01*
X126450001Y-90475000D01*
G75*
G02*
X126700000Y-90724999I0J-249999D01*
G01*
X126700000Y-91375001D01*
G75*
G02*
X126450001Y-91625000I-249999J0D01*
G01*
G37*
D10*
X133700000Y-89900000D03*
X136700000Y-88950000D03*
X136700000Y-90850000D03*
G36*
G01*
X143150000Y-89849999D02*
X143150000Y-90750001D01*
G75*
G02*
X142900001Y-91000000I-249999J0D01*
G01*
X142249999Y-91000000D01*
G75*
G02*
X142000000Y-90750001I0J249999D01*
G01*
X142000000Y-89849999D01*
G75*
G02*
X142249999Y-89600000I249999J0D01*
G01*
X142900001Y-89600000D01*
G75*
G02*
X143150000Y-89849999I0J-249999D01*
G01*
G37*
G36*
G01*
X145200000Y-89849999D02*
X145200000Y-90750001D01*
G75*
G02*
X144950001Y-91000000I-249999J0D01*
G01*
X144299999Y-91000000D01*
G75*
G02*
X144050000Y-90750001I0J249999D01*
G01*
X144050000Y-89849999D01*
G75*
G02*
X144299999Y-89600000I249999J0D01*
G01*
X144950001Y-89600000D01*
G75*
G02*
X145200000Y-89849999I0J-249999D01*
G01*
G37*
G36*
G01*
X149875000Y-90750001D02*
X149875000Y-89849999D01*
G75*
G02*
X150124999Y-89600000I249999J0D01*
G01*
X150775001Y-89600000D01*
G75*
G02*
X151025000Y-89849999I0J-249999D01*
G01*
X151025000Y-90750001D01*
G75*
G02*
X150775001Y-91000000I-249999J0D01*
G01*
X150124999Y-91000000D01*
G75*
G02*
X149875000Y-90750001I0J249999D01*
G01*
G37*
G36*
G01*
X147825000Y-90750001D02*
X147825000Y-89849999D01*
G75*
G02*
X148074999Y-89600000I249999J0D01*
G01*
X148725001Y-89600000D01*
G75*
G02*
X148975000Y-89849999I0J-249999D01*
G01*
X148975000Y-90750001D01*
G75*
G02*
X148725001Y-91000000I-249999J0D01*
G01*
X148074999Y-91000000D01*
G75*
G02*
X147825000Y-90750001I0J249999D01*
G01*
G37*
G36*
G01*
X128149999Y-90450000D02*
X129050001Y-90450000D01*
G75*
G02*
X129300000Y-90699999I0J-249999D01*
G01*
X129300000Y-91350001D01*
G75*
G02*
X129050001Y-91600000I-249999J0D01*
G01*
X128149999Y-91600000D01*
G75*
G02*
X127900000Y-91350001I0J249999D01*
G01*
X127900000Y-90699999D01*
G75*
G02*
X128149999Y-90450000I249999J0D01*
G01*
G37*
G36*
G01*
X128149999Y-88400000D02*
X129050001Y-88400000D01*
G75*
G02*
X129300000Y-88649999I0J-249999D01*
G01*
X129300000Y-89300001D01*
G75*
G02*
X129050001Y-89550000I-249999J0D01*
G01*
X128149999Y-89550000D01*
G75*
G02*
X127900000Y-89300001I0J249999D01*
G01*
X127900000Y-88649999D01*
G75*
G02*
X128149999Y-88400000I249999J0D01*
G01*
G37*
M02*
