G04 #@! TF.GenerationSoftware,KiCad,Pcbnew,(5.1.10)-1*
G04 #@! TF.CreationDate,2022-12-02T15:34:49-08:00*
G04 #@! TF.ProjectId,D24V22Fx_breakout,44323456-3232-4467-985f-627265616b6f,rev?*
G04 #@! TF.SameCoordinates,Original*
G04 #@! TF.FileFunction,Soldermask,Top*
G04 #@! TF.FilePolarity,Negative*
%FSLAX46Y46*%
G04 Gerber Fmt 4.6, Leading zero omitted, Abs format (unit mm)*
G04 Created by KiCad (PCBNEW (5.1.10)-1) date 2022-12-02 15:34:49*
%MOMM*%
%LPD*%
G01*
G04 APERTURE LIST*
%ADD10C,1.626000*%
%ADD11C,2.102000*%
%ADD12O,1.802000X1.802000*%
%ADD13C,0.100000*%
%ADD14C,2.302000*%
%ADD15C,3.602000*%
%ADD16C,1.502000*%
G04 APERTURE END LIST*
D10*
X155422600Y-86898480D03*
X155422600Y-84358480D03*
X155422600Y-81818480D03*
X155422600Y-79278480D03*
X155422600Y-76738480D03*
X144732600Y-86898480D03*
D11*
X154152600Y-72928480D03*
X141192600Y-85868480D03*
D12*
X163830000Y-83820000D03*
X163830000Y-81280000D03*
X163830000Y-78740000D03*
G36*
G01*
X162929000Y-77050000D02*
X162929000Y-75350000D01*
G75*
G02*
X162980000Y-75299000I51000J0D01*
G01*
X164680000Y-75299000D01*
G75*
G02*
X164731000Y-75350000I0J-51000D01*
G01*
X164731000Y-77050000D01*
G75*
G02*
X164680000Y-77101000I-51000J0D01*
G01*
X162980000Y-77101000D01*
G75*
G02*
X162929000Y-77050000I0J51000D01*
G01*
G37*
X161290000Y-83820000D03*
X161290000Y-81280000D03*
X161290000Y-78740000D03*
G36*
G01*
X160389000Y-77050000D02*
X160389000Y-75350000D01*
G75*
G02*
X160440000Y-75299000I51000J0D01*
G01*
X162140000Y-75299000D01*
G75*
G02*
X162191000Y-75350000I0J-51000D01*
G01*
X162191000Y-77050000D01*
G75*
G02*
X162140000Y-77101000I-51000J0D01*
G01*
X160440000Y-77101000D01*
G75*
G02*
X160389000Y-77050000I0J51000D01*
G01*
G37*
X158750000Y-83820000D03*
X158750000Y-81280000D03*
X158750000Y-78740000D03*
G36*
G01*
X157849000Y-77050000D02*
X157849000Y-75350000D01*
G75*
G02*
X157900000Y-75299000I51000J0D01*
G01*
X159600000Y-75299000D01*
G75*
G02*
X159651000Y-75350000I0J-51000D01*
G01*
X159651000Y-77050000D01*
G75*
G02*
X159600000Y-77101000I-51000J0D01*
G01*
X157900000Y-77101000D01*
G75*
G02*
X157849000Y-77050000I0J51000D01*
G01*
G37*
X128300000Y-70300000D03*
G36*
G01*
X126610000Y-71201000D02*
X124910000Y-71201000D01*
G75*
G02*
X124859000Y-71150000I0J51000D01*
G01*
X124859000Y-69450000D01*
G75*
G02*
X124910000Y-69399000I51000J0D01*
G01*
X126610000Y-69399000D01*
G75*
G02*
X126661000Y-69450000I0J-51000D01*
G01*
X126661000Y-71150000D01*
G75*
G02*
X126610000Y-71201000I-51000J0D01*
G01*
G37*
G36*
G01*
X132378828Y-69476000D02*
X131421172Y-69476000D01*
G75*
G02*
X131149000Y-69203828I0J272172D01*
G01*
X131149000Y-68496172D01*
G75*
G02*
X131421172Y-68224000I272172J0D01*
G01*
X132378828Y-68224000D01*
G75*
G02*
X132651000Y-68496172I0J-272172D01*
G01*
X132651000Y-69203828D01*
G75*
G02*
X132378828Y-69476000I-272172J0D01*
G01*
G37*
G36*
G01*
X132378828Y-71526000D02*
X131421172Y-71526000D01*
G75*
G02*
X131149000Y-71253828I0J272172D01*
G01*
X131149000Y-70546172D01*
G75*
G02*
X131421172Y-70274000I272172J0D01*
G01*
X132378828Y-70274000D01*
G75*
G02*
X132651000Y-70546172I0J-272172D01*
G01*
X132651000Y-71253828D01*
G75*
G02*
X132378828Y-71526000I-272172J0D01*
G01*
G37*
G36*
G01*
X136551000Y-68850000D02*
X136551000Y-70350000D01*
G75*
G02*
X136500000Y-70401000I-51000J0D01*
G01*
X135500000Y-70401000D01*
G75*
G02*
X135449000Y-70350000I0J51000D01*
G01*
X135449000Y-68850000D01*
G75*
G02*
X135500000Y-68799000I51000J0D01*
G01*
X136500000Y-68799000D01*
G75*
G02*
X136551000Y-68850000I0J-51000D01*
G01*
G37*
D13*
G36*
X134693888Y-70400398D02*
G01*
X134675466Y-70400398D01*
X134670467Y-70400152D01*
X134621636Y-70395342D01*
X134616686Y-70394608D01*
X134568561Y-70385036D01*
X134563705Y-70383820D01*
X134516750Y-70369576D01*
X134512039Y-70367890D01*
X134466706Y-70349113D01*
X134462180Y-70346973D01*
X134418907Y-70323842D01*
X134414616Y-70321269D01*
X134373817Y-70294009D01*
X134369796Y-70291027D01*
X134331867Y-70259899D01*
X134328159Y-70256538D01*
X134293462Y-70221841D01*
X134290101Y-70218133D01*
X134258973Y-70180204D01*
X134255991Y-70176183D01*
X134228731Y-70135384D01*
X134226158Y-70131093D01*
X134203027Y-70087820D01*
X134200887Y-70083294D01*
X134182110Y-70037961D01*
X134180424Y-70033250D01*
X134166180Y-69986295D01*
X134164964Y-69981439D01*
X134155392Y-69933314D01*
X134154658Y-69928364D01*
X134149848Y-69879533D01*
X134149602Y-69874534D01*
X134149602Y-69856112D01*
X134149000Y-69850000D01*
X134149000Y-69350000D01*
X134149602Y-69343888D01*
X134149602Y-69325466D01*
X134149848Y-69320467D01*
X134154658Y-69271636D01*
X134155392Y-69266686D01*
X134164964Y-69218561D01*
X134166180Y-69213705D01*
X134180424Y-69166750D01*
X134182110Y-69162039D01*
X134200887Y-69116706D01*
X134203027Y-69112180D01*
X134226158Y-69068907D01*
X134228731Y-69064616D01*
X134255991Y-69023817D01*
X134258973Y-69019796D01*
X134290101Y-68981867D01*
X134293462Y-68978159D01*
X134328159Y-68943462D01*
X134331867Y-68940101D01*
X134369796Y-68908973D01*
X134373817Y-68905991D01*
X134414616Y-68878731D01*
X134418907Y-68876158D01*
X134462180Y-68853027D01*
X134466706Y-68850887D01*
X134512039Y-68832110D01*
X134516750Y-68830424D01*
X134563705Y-68816180D01*
X134568561Y-68814964D01*
X134616686Y-68805392D01*
X134621636Y-68804658D01*
X134670467Y-68799848D01*
X134675466Y-68799602D01*
X134693888Y-68799602D01*
X134700000Y-68799000D01*
X135250000Y-68799000D01*
X135259950Y-68799980D01*
X135269517Y-68802882D01*
X135278334Y-68807595D01*
X135286062Y-68813938D01*
X135292405Y-68821666D01*
X135297118Y-68830483D01*
X135300020Y-68840050D01*
X135301000Y-68850000D01*
X135301000Y-70350000D01*
X135300020Y-70359950D01*
X135297118Y-70369517D01*
X135292405Y-70378334D01*
X135286062Y-70386062D01*
X135278334Y-70392405D01*
X135269517Y-70397118D01*
X135259950Y-70400020D01*
X135250000Y-70401000D01*
X134700000Y-70401000D01*
X134693888Y-70400398D01*
G37*
G36*
X136740050Y-70400020D02*
G01*
X136730483Y-70397118D01*
X136721666Y-70392405D01*
X136713938Y-70386062D01*
X136707595Y-70378334D01*
X136702882Y-70369517D01*
X136699980Y-70359950D01*
X136699000Y-70350000D01*
X136699000Y-68850000D01*
X136699980Y-68840050D01*
X136702882Y-68830483D01*
X136707595Y-68821666D01*
X136713938Y-68813938D01*
X136721666Y-68807595D01*
X136730483Y-68802882D01*
X136740050Y-68799980D01*
X136750000Y-68799000D01*
X137300000Y-68799000D01*
X137306112Y-68799602D01*
X137324534Y-68799602D01*
X137329533Y-68799848D01*
X137378364Y-68804658D01*
X137383314Y-68805392D01*
X137431439Y-68814964D01*
X137436295Y-68816180D01*
X137483250Y-68830424D01*
X137487961Y-68832110D01*
X137533294Y-68850887D01*
X137537820Y-68853027D01*
X137581093Y-68876158D01*
X137585384Y-68878731D01*
X137626183Y-68905991D01*
X137630204Y-68908973D01*
X137668133Y-68940101D01*
X137671841Y-68943462D01*
X137706538Y-68978159D01*
X137709899Y-68981867D01*
X137741027Y-69019796D01*
X137744009Y-69023817D01*
X137771269Y-69064616D01*
X137773842Y-69068907D01*
X137796973Y-69112180D01*
X137799113Y-69116706D01*
X137817890Y-69162039D01*
X137819576Y-69166750D01*
X137833820Y-69213705D01*
X137835036Y-69218561D01*
X137844608Y-69266686D01*
X137845342Y-69271636D01*
X137850152Y-69320467D01*
X137850398Y-69325466D01*
X137850398Y-69343888D01*
X137851000Y-69350000D01*
X137851000Y-69850000D01*
X137850398Y-69856112D01*
X137850398Y-69874534D01*
X137850152Y-69879533D01*
X137845342Y-69928364D01*
X137844608Y-69933314D01*
X137835036Y-69981439D01*
X137833820Y-69986295D01*
X137819576Y-70033250D01*
X137817890Y-70037961D01*
X137799113Y-70083294D01*
X137796973Y-70087820D01*
X137773842Y-70131093D01*
X137771269Y-70135384D01*
X137744009Y-70176183D01*
X137741027Y-70180204D01*
X137709899Y-70218133D01*
X137706538Y-70221841D01*
X137671841Y-70256538D01*
X137668133Y-70259899D01*
X137630204Y-70291027D01*
X137626183Y-70294009D01*
X137585384Y-70321269D01*
X137581093Y-70323842D01*
X137537820Y-70346973D01*
X137533294Y-70349113D01*
X137487961Y-70367890D01*
X137483250Y-70369576D01*
X137436295Y-70383820D01*
X137431439Y-70385036D01*
X137383314Y-70394608D01*
X137378364Y-70395342D01*
X137329533Y-70400152D01*
X137324534Y-70400398D01*
X137306112Y-70400398D01*
X137300000Y-70401000D01*
X136750000Y-70401000D01*
X136740050Y-70400020D01*
G37*
G36*
G01*
X135721172Y-84974000D02*
X136678828Y-84974000D01*
G75*
G02*
X136951000Y-85246172I0J-272172D01*
G01*
X136951000Y-85953828D01*
G75*
G02*
X136678828Y-86226000I-272172J0D01*
G01*
X135721172Y-86226000D01*
G75*
G02*
X135449000Y-85953828I0J272172D01*
G01*
X135449000Y-85246172D01*
G75*
G02*
X135721172Y-84974000I272172J0D01*
G01*
G37*
G36*
G01*
X135721172Y-82924000D02*
X136678828Y-82924000D01*
G75*
G02*
X136951000Y-83196172I0J-272172D01*
G01*
X136951000Y-83903828D01*
G75*
G02*
X136678828Y-84176000I-272172J0D01*
G01*
X135721172Y-84176000D01*
G75*
G02*
X135449000Y-83903828I0J272172D01*
G01*
X135449000Y-83196172D01*
G75*
G02*
X135721172Y-82924000I272172J0D01*
G01*
G37*
G36*
G01*
X126478828Y-89626000D02*
X125521172Y-89626000D01*
G75*
G02*
X125249000Y-89353828I0J272172D01*
G01*
X125249000Y-88646172D01*
G75*
G02*
X125521172Y-88374000I272172J0D01*
G01*
X126478828Y-88374000D01*
G75*
G02*
X126751000Y-88646172I0J-272172D01*
G01*
X126751000Y-89353828D01*
G75*
G02*
X126478828Y-89626000I-272172J0D01*
G01*
G37*
G36*
G01*
X126478828Y-91676000D02*
X125521172Y-91676000D01*
G75*
G02*
X125249000Y-91403828I0J272172D01*
G01*
X125249000Y-90696172D01*
G75*
G02*
X125521172Y-90424000I272172J0D01*
G01*
X126478828Y-90424000D01*
G75*
G02*
X126751000Y-90696172I0J-272172D01*
G01*
X126751000Y-91403828D01*
G75*
G02*
X126478828Y-91676000I-272172J0D01*
G01*
G37*
G36*
G01*
X134701000Y-89500000D02*
X134701000Y-90300000D01*
G75*
G02*
X134650000Y-90351000I-51000J0D01*
G01*
X132750000Y-90351000D01*
G75*
G02*
X132699000Y-90300000I0J51000D01*
G01*
X132699000Y-89500000D01*
G75*
G02*
X132750000Y-89449000I51000J0D01*
G01*
X134650000Y-89449000D01*
G75*
G02*
X134701000Y-89500000I0J-51000D01*
G01*
G37*
G36*
G01*
X137701000Y-88550000D02*
X137701000Y-89350000D01*
G75*
G02*
X137650000Y-89401000I-51000J0D01*
G01*
X135750000Y-89401000D01*
G75*
G02*
X135699000Y-89350000I0J51000D01*
G01*
X135699000Y-88550000D01*
G75*
G02*
X135750000Y-88499000I51000J0D01*
G01*
X137650000Y-88499000D01*
G75*
G02*
X137701000Y-88550000I0J-51000D01*
G01*
G37*
G36*
G01*
X137701000Y-90450000D02*
X137701000Y-91250000D01*
G75*
G02*
X137650000Y-91301000I-51000J0D01*
G01*
X135750000Y-91301000D01*
G75*
G02*
X135699000Y-91250000I0J51000D01*
G01*
X135699000Y-90450000D01*
G75*
G02*
X135750000Y-90399000I51000J0D01*
G01*
X137650000Y-90399000D01*
G75*
G02*
X137701000Y-90450000I0J-51000D01*
G01*
G37*
G36*
G01*
X143201000Y-89821172D02*
X143201000Y-90778828D01*
G75*
G02*
X142928828Y-91051000I-272172J0D01*
G01*
X142221172Y-91051000D01*
G75*
G02*
X141949000Y-90778828I0J272172D01*
G01*
X141949000Y-89821172D01*
G75*
G02*
X142221172Y-89549000I272172J0D01*
G01*
X142928828Y-89549000D01*
G75*
G02*
X143201000Y-89821172I0J-272172D01*
G01*
G37*
G36*
G01*
X145251000Y-89821172D02*
X145251000Y-90778828D01*
G75*
G02*
X144978828Y-91051000I-272172J0D01*
G01*
X144271172Y-91051000D01*
G75*
G02*
X143999000Y-90778828I0J272172D01*
G01*
X143999000Y-89821172D01*
G75*
G02*
X144271172Y-89549000I272172J0D01*
G01*
X144978828Y-89549000D01*
G75*
G02*
X145251000Y-89821172I0J-272172D01*
G01*
G37*
G36*
G01*
X149824000Y-90778828D02*
X149824000Y-89821172D01*
G75*
G02*
X150096172Y-89549000I272172J0D01*
G01*
X150803828Y-89549000D01*
G75*
G02*
X151076000Y-89821172I0J-272172D01*
G01*
X151076000Y-90778828D01*
G75*
G02*
X150803828Y-91051000I-272172J0D01*
G01*
X150096172Y-91051000D01*
G75*
G02*
X149824000Y-90778828I0J272172D01*
G01*
G37*
G36*
G01*
X147774000Y-90778828D02*
X147774000Y-89821172D01*
G75*
G02*
X148046172Y-89549000I272172J0D01*
G01*
X148753828Y-89549000D01*
G75*
G02*
X149026000Y-89821172I0J-272172D01*
G01*
X149026000Y-90778828D01*
G75*
G02*
X148753828Y-91051000I-272172J0D01*
G01*
X148046172Y-91051000D01*
G75*
G02*
X147774000Y-90778828I0J272172D01*
G01*
G37*
G36*
G01*
X128121172Y-90399000D02*
X129078828Y-90399000D01*
G75*
G02*
X129351000Y-90671172I0J-272172D01*
G01*
X129351000Y-91378828D01*
G75*
G02*
X129078828Y-91651000I-272172J0D01*
G01*
X128121172Y-91651000D01*
G75*
G02*
X127849000Y-91378828I0J272172D01*
G01*
X127849000Y-90671172D01*
G75*
G02*
X128121172Y-90399000I272172J0D01*
G01*
G37*
G36*
G01*
X128121172Y-88349000D02*
X129078828Y-88349000D01*
G75*
G02*
X129351000Y-88621172I0J-272172D01*
G01*
X129351000Y-89328828D01*
G75*
G02*
X129078828Y-89601000I-272172J0D01*
G01*
X128121172Y-89601000D01*
G75*
G02*
X127849000Y-89328828I0J272172D01*
G01*
X127849000Y-88621172D01*
G75*
G02*
X128121172Y-88349000I272172J0D01*
G01*
G37*
D14*
X120000000Y-90000000D03*
X172000000Y-90000000D03*
X120000000Y-70000000D03*
X172000000Y-70000000D03*
D15*
X130937000Y-82470000D03*
G36*
G01*
X132687000Y-79271000D02*
X129187000Y-79271000D01*
G75*
G02*
X129136000Y-79220000I0J51000D01*
G01*
X129136000Y-75720000D01*
G75*
G02*
X129187000Y-75669000I51000J0D01*
G01*
X132687000Y-75669000D01*
G75*
G02*
X132738000Y-75720000I0J-51000D01*
G01*
X132738000Y-79220000D01*
G75*
G02*
X132687000Y-79271000I-51000J0D01*
G01*
G37*
D16*
X120937000Y-85470000D03*
X120937000Y-74470000D03*
D12*
X136200000Y-73920000D03*
X136200000Y-76460000D03*
G36*
G01*
X137101000Y-78150000D02*
X137101000Y-79850000D01*
G75*
G02*
X137050000Y-79901000I-51000J0D01*
G01*
X135350000Y-79901000D01*
G75*
G02*
X135299000Y-79850000I0J51000D01*
G01*
X135299000Y-78150000D01*
G75*
G02*
X135350000Y-78099000I51000J0D01*
G01*
X137050000Y-78099000D01*
G75*
G02*
X137101000Y-78150000I0J-51000D01*
G01*
G37*
D13*
G36*
X136615195Y-68797236D02*
G01*
X136628933Y-68804579D01*
X136652008Y-68811579D01*
X136675999Y-68813942D01*
X136699990Y-68811579D01*
X136723253Y-68804522D01*
X136725201Y-68804976D01*
X136725782Y-68806890D01*
X136724777Y-68808200D01*
X136722782Y-68809266D01*
X136715359Y-68815359D01*
X136709266Y-68822782D01*
X136704739Y-68831252D01*
X136701950Y-68840445D01*
X136701000Y-68850094D01*
X136701000Y-70349906D01*
X136701950Y-70359555D01*
X136704739Y-70368748D01*
X136709266Y-70377218D01*
X136715359Y-70384641D01*
X136722782Y-70390734D01*
X136728707Y-70393900D01*
X136729763Y-70395598D01*
X136728820Y-70397362D01*
X136727184Y-70397578D01*
X136725567Y-70397088D01*
X136725382Y-70397022D01*
X136711703Y-70391356D01*
X136688053Y-70386651D01*
X136663946Y-70386651D01*
X136640296Y-70391355D01*
X136618022Y-70400581D01*
X136614906Y-70402663D01*
X136613795Y-70403000D01*
X136551000Y-70403000D01*
X136549268Y-70402000D01*
X136549000Y-70401000D01*
X136549000Y-68799000D01*
X136550000Y-68797268D01*
X136551000Y-68797000D01*
X136614252Y-68797000D01*
X136615195Y-68797236D01*
G37*
G36*
X135450732Y-68798000D02*
G01*
X135451000Y-68799000D01*
X135451000Y-70401000D01*
X135450000Y-70402732D01*
X135449000Y-70403000D01*
X135385748Y-70403000D01*
X135384805Y-70402764D01*
X135371067Y-70395421D01*
X135347992Y-70388421D01*
X135324001Y-70386058D01*
X135300010Y-70388421D01*
X135276746Y-70395478D01*
X135274798Y-70395024D01*
X135274217Y-70393110D01*
X135275222Y-70391800D01*
X135277218Y-70390733D01*
X135284641Y-70384641D01*
X135290734Y-70377218D01*
X135295261Y-70368748D01*
X135298050Y-70359555D01*
X135299000Y-70349906D01*
X135299000Y-68850094D01*
X135298050Y-68840445D01*
X135295261Y-68831252D01*
X135290734Y-68822782D01*
X135284641Y-68815359D01*
X135277218Y-68809266D01*
X135271293Y-68806100D01*
X135270237Y-68804402D01*
X135271180Y-68802638D01*
X135272816Y-68802422D01*
X135274433Y-68802912D01*
X135274618Y-68802978D01*
X135288297Y-68808644D01*
X135311947Y-68813349D01*
X135336054Y-68813349D01*
X135359704Y-68808645D01*
X135381978Y-68799419D01*
X135385094Y-68797337D01*
X135386205Y-68797000D01*
X135449000Y-68797000D01*
X135450732Y-68798000D01*
G37*
M02*
