M48
; DRILL file {KiCad (5.1.5)-3} date 17/10/2021 2:07:33 PM
; FORMAT={-:-/ absolute / metric / decimal}
; #@! TF.CreationDate,2021-10-17T14:07:33-07:00
; #@! TF.GenerationSoftware,Kicad,Pcbnew,(5.1.5)-3
; #@! TF.FileFunction,Plated,1,2,PTH
FMAT,2
METRIC
T1C0.400
T2C1.000
T3C1.020
T4C1.900
%
G90
G05
T1
X121.0Y-80.0
X126.0Y-80.0
X126.0Y-85.0
X126.108Y-74.891
X142.0Y-74.0
X142.0Y-80.0
X149.0Y-70.0
X149.0Y-80.0
X149.0Y-85.0
X154.0Y-91.0
X157.0Y-70.0
X164.0Y-70.0
X164.0Y-87.0
X170.0Y-77.0
X170.0Y-83.0
T2
X159.385Y-83.82
X161.925Y-83.82
X164.465Y-83.82
X159.385Y-81.28
X161.925Y-81.28
X164.465Y-81.28
X125.76Y-70.3
X128.3Y-70.3
X159.385Y-78.74
X161.925Y-78.74
X164.465Y-78.74
X136.2Y-73.92
X136.2Y-76.46
X136.2Y-79.0
X120.937Y-74.47
X120.937Y-85.47
X159.385Y-76.2
X161.925Y-76.2
X164.465Y-76.2
T3
X144.733Y-86.898
X155.423Y-76.738
X155.423Y-79.278
X155.423Y-81.818
X155.423Y-84.358
X155.423Y-86.898
T4
X130.937Y-77.47
X130.937Y-82.47
T0
M30
