G04 #@! TF.GenerationSoftware,KiCad,Pcbnew,(5.1.5)-3*
G04 #@! TF.CreationDate,2021-10-17T14:13:30-07:00*
G04 #@! TF.ProjectId,pololu_regulator_breakout,706f6c6f-6c75-45f7-9265-67756c61746f,rev?*
G04 #@! TF.SameCoordinates,Original*
G04 #@! TF.FileFunction,Copper,L1,Top*
G04 #@! TF.FilePolarity,Positive*
%FSLAX46Y46*%
G04 Gerber Fmt 4.6, Leading zero omitted, Abs format (unit mm)*
G04 Created by KiCad (PCBNEW (5.1.5)-3) date 2021-10-17 14:13:30*
%MOMM*%
%LPD*%
G04 APERTURE LIST*
%ADD10O,1.700000X1.700000*%
%ADD11R,1.700000X1.700000*%
%ADD12C,0.100000*%
%ADD13R,1.000000X1.500000*%
%ADD14R,1.900000X0.800000*%
%ADD15C,1.524000*%
%ADD16C,3.500000*%
%ADD17R,3.500000X3.500000*%
%ADD18C,1.400000*%
%ADD19C,0.800000*%
%ADD20C,0.250000*%
%ADD21C,0.500000*%
%ADD22C,0.254000*%
G04 APERTURE END LIST*
D10*
X128300000Y-70300000D03*
D11*
X125760000Y-70300000D03*
G04 #@! TA.AperFunction,SMDPad,CuDef*
D12*
G36*
X132374505Y-68276204D02*
G01*
X132398773Y-68279804D01*
X132422572Y-68285765D01*
X132445671Y-68294030D01*
X132467850Y-68304520D01*
X132488893Y-68317132D01*
X132508599Y-68331747D01*
X132526777Y-68348223D01*
X132543253Y-68366401D01*
X132557868Y-68386107D01*
X132570480Y-68407150D01*
X132580970Y-68429329D01*
X132589235Y-68452428D01*
X132595196Y-68476227D01*
X132598796Y-68500495D01*
X132600000Y-68524999D01*
X132600000Y-69175001D01*
X132598796Y-69199505D01*
X132595196Y-69223773D01*
X132589235Y-69247572D01*
X132580970Y-69270671D01*
X132570480Y-69292850D01*
X132557868Y-69313893D01*
X132543253Y-69333599D01*
X132526777Y-69351777D01*
X132508599Y-69368253D01*
X132488893Y-69382868D01*
X132467850Y-69395480D01*
X132445671Y-69405970D01*
X132422572Y-69414235D01*
X132398773Y-69420196D01*
X132374505Y-69423796D01*
X132350001Y-69425000D01*
X131449999Y-69425000D01*
X131425495Y-69423796D01*
X131401227Y-69420196D01*
X131377428Y-69414235D01*
X131354329Y-69405970D01*
X131332150Y-69395480D01*
X131311107Y-69382868D01*
X131291401Y-69368253D01*
X131273223Y-69351777D01*
X131256747Y-69333599D01*
X131242132Y-69313893D01*
X131229520Y-69292850D01*
X131219030Y-69270671D01*
X131210765Y-69247572D01*
X131204804Y-69223773D01*
X131201204Y-69199505D01*
X131200000Y-69175001D01*
X131200000Y-68524999D01*
X131201204Y-68500495D01*
X131204804Y-68476227D01*
X131210765Y-68452428D01*
X131219030Y-68429329D01*
X131229520Y-68407150D01*
X131242132Y-68386107D01*
X131256747Y-68366401D01*
X131273223Y-68348223D01*
X131291401Y-68331747D01*
X131311107Y-68317132D01*
X131332150Y-68304520D01*
X131354329Y-68294030D01*
X131377428Y-68285765D01*
X131401227Y-68279804D01*
X131425495Y-68276204D01*
X131449999Y-68275000D01*
X132350001Y-68275000D01*
X132374505Y-68276204D01*
G37*
G04 #@! TD.AperFunction*
G04 #@! TA.AperFunction,SMDPad,CuDef*
G36*
X132374505Y-70326204D02*
G01*
X132398773Y-70329804D01*
X132422572Y-70335765D01*
X132445671Y-70344030D01*
X132467850Y-70354520D01*
X132488893Y-70367132D01*
X132508599Y-70381747D01*
X132526777Y-70398223D01*
X132543253Y-70416401D01*
X132557868Y-70436107D01*
X132570480Y-70457150D01*
X132580970Y-70479329D01*
X132589235Y-70502428D01*
X132595196Y-70526227D01*
X132598796Y-70550495D01*
X132600000Y-70574999D01*
X132600000Y-71225001D01*
X132598796Y-71249505D01*
X132595196Y-71273773D01*
X132589235Y-71297572D01*
X132580970Y-71320671D01*
X132570480Y-71342850D01*
X132557868Y-71363893D01*
X132543253Y-71383599D01*
X132526777Y-71401777D01*
X132508599Y-71418253D01*
X132488893Y-71432868D01*
X132467850Y-71445480D01*
X132445671Y-71455970D01*
X132422572Y-71464235D01*
X132398773Y-71470196D01*
X132374505Y-71473796D01*
X132350001Y-71475000D01*
X131449999Y-71475000D01*
X131425495Y-71473796D01*
X131401227Y-71470196D01*
X131377428Y-71464235D01*
X131354329Y-71455970D01*
X131332150Y-71445480D01*
X131311107Y-71432868D01*
X131291401Y-71418253D01*
X131273223Y-71401777D01*
X131256747Y-71383599D01*
X131242132Y-71363893D01*
X131229520Y-71342850D01*
X131219030Y-71320671D01*
X131210765Y-71297572D01*
X131204804Y-71273773D01*
X131201204Y-71249505D01*
X131200000Y-71225001D01*
X131200000Y-70574999D01*
X131201204Y-70550495D01*
X131204804Y-70526227D01*
X131210765Y-70502428D01*
X131219030Y-70479329D01*
X131229520Y-70457150D01*
X131242132Y-70436107D01*
X131256747Y-70416401D01*
X131273223Y-70398223D01*
X131291401Y-70381747D01*
X131311107Y-70367132D01*
X131332150Y-70354520D01*
X131354329Y-70344030D01*
X131377428Y-70335765D01*
X131401227Y-70329804D01*
X131425495Y-70326204D01*
X131449999Y-70325000D01*
X132350001Y-70325000D01*
X132374505Y-70326204D01*
G37*
G04 #@! TD.AperFunction*
D13*
X136000000Y-69600000D03*
G04 #@! TA.AperFunction,SMDPad,CuDef*
D12*
G36*
X134700000Y-70349398D02*
G01*
X134675466Y-70349398D01*
X134626635Y-70344588D01*
X134578510Y-70335016D01*
X134531555Y-70320772D01*
X134486222Y-70301995D01*
X134442949Y-70278864D01*
X134402150Y-70251604D01*
X134364221Y-70220476D01*
X134329524Y-70185779D01*
X134298396Y-70147850D01*
X134271136Y-70107051D01*
X134248005Y-70063778D01*
X134229228Y-70018445D01*
X134214984Y-69971490D01*
X134205412Y-69923365D01*
X134200602Y-69874534D01*
X134200602Y-69850000D01*
X134200000Y-69850000D01*
X134200000Y-69350000D01*
X134200602Y-69350000D01*
X134200602Y-69325466D01*
X134205412Y-69276635D01*
X134214984Y-69228510D01*
X134229228Y-69181555D01*
X134248005Y-69136222D01*
X134271136Y-69092949D01*
X134298396Y-69052150D01*
X134329524Y-69014221D01*
X134364221Y-68979524D01*
X134402150Y-68948396D01*
X134442949Y-68921136D01*
X134486222Y-68898005D01*
X134531555Y-68879228D01*
X134578510Y-68864984D01*
X134626635Y-68855412D01*
X134675466Y-68850602D01*
X134700000Y-68850602D01*
X134700000Y-68850000D01*
X135250000Y-68850000D01*
X135250000Y-70350000D01*
X134700000Y-70350000D01*
X134700000Y-70349398D01*
G37*
G04 #@! TD.AperFunction*
G04 #@! TA.AperFunction,SMDPad,CuDef*
G36*
X136750000Y-68850000D02*
G01*
X137300000Y-68850000D01*
X137300000Y-68850602D01*
X137324534Y-68850602D01*
X137373365Y-68855412D01*
X137421490Y-68864984D01*
X137468445Y-68879228D01*
X137513778Y-68898005D01*
X137557051Y-68921136D01*
X137597850Y-68948396D01*
X137635779Y-68979524D01*
X137670476Y-69014221D01*
X137701604Y-69052150D01*
X137728864Y-69092949D01*
X137751995Y-69136222D01*
X137770772Y-69181555D01*
X137785016Y-69228510D01*
X137794588Y-69276635D01*
X137799398Y-69325466D01*
X137799398Y-69350000D01*
X137800000Y-69350000D01*
X137800000Y-69850000D01*
X137799398Y-69850000D01*
X137799398Y-69874534D01*
X137794588Y-69923365D01*
X137785016Y-69971490D01*
X137770772Y-70018445D01*
X137751995Y-70063778D01*
X137728864Y-70107051D01*
X137701604Y-70147850D01*
X137670476Y-70185779D01*
X137635779Y-70220476D01*
X137597850Y-70251604D01*
X137557051Y-70278864D01*
X137513778Y-70301995D01*
X137468445Y-70320772D01*
X137421490Y-70335016D01*
X137373365Y-70344588D01*
X137324534Y-70349398D01*
X137300000Y-70349398D01*
X137300000Y-70350000D01*
X136750000Y-70350000D01*
X136750000Y-68850000D01*
G37*
G04 #@! TD.AperFunction*
G04 #@! TA.AperFunction,SMDPad,CuDef*
G36*
X136674505Y-85026204D02*
G01*
X136698773Y-85029804D01*
X136722572Y-85035765D01*
X136745671Y-85044030D01*
X136767850Y-85054520D01*
X136788893Y-85067132D01*
X136808599Y-85081747D01*
X136826777Y-85098223D01*
X136843253Y-85116401D01*
X136857868Y-85136107D01*
X136870480Y-85157150D01*
X136880970Y-85179329D01*
X136889235Y-85202428D01*
X136895196Y-85226227D01*
X136898796Y-85250495D01*
X136900000Y-85274999D01*
X136900000Y-85925001D01*
X136898796Y-85949505D01*
X136895196Y-85973773D01*
X136889235Y-85997572D01*
X136880970Y-86020671D01*
X136870480Y-86042850D01*
X136857868Y-86063893D01*
X136843253Y-86083599D01*
X136826777Y-86101777D01*
X136808599Y-86118253D01*
X136788893Y-86132868D01*
X136767850Y-86145480D01*
X136745671Y-86155970D01*
X136722572Y-86164235D01*
X136698773Y-86170196D01*
X136674505Y-86173796D01*
X136650001Y-86175000D01*
X135749999Y-86175000D01*
X135725495Y-86173796D01*
X135701227Y-86170196D01*
X135677428Y-86164235D01*
X135654329Y-86155970D01*
X135632150Y-86145480D01*
X135611107Y-86132868D01*
X135591401Y-86118253D01*
X135573223Y-86101777D01*
X135556747Y-86083599D01*
X135542132Y-86063893D01*
X135529520Y-86042850D01*
X135519030Y-86020671D01*
X135510765Y-85997572D01*
X135504804Y-85973773D01*
X135501204Y-85949505D01*
X135500000Y-85925001D01*
X135500000Y-85274999D01*
X135501204Y-85250495D01*
X135504804Y-85226227D01*
X135510765Y-85202428D01*
X135519030Y-85179329D01*
X135529520Y-85157150D01*
X135542132Y-85136107D01*
X135556747Y-85116401D01*
X135573223Y-85098223D01*
X135591401Y-85081747D01*
X135611107Y-85067132D01*
X135632150Y-85054520D01*
X135654329Y-85044030D01*
X135677428Y-85035765D01*
X135701227Y-85029804D01*
X135725495Y-85026204D01*
X135749999Y-85025000D01*
X136650001Y-85025000D01*
X136674505Y-85026204D01*
G37*
G04 #@! TD.AperFunction*
G04 #@! TA.AperFunction,SMDPad,CuDef*
G36*
X136674505Y-82976204D02*
G01*
X136698773Y-82979804D01*
X136722572Y-82985765D01*
X136745671Y-82994030D01*
X136767850Y-83004520D01*
X136788893Y-83017132D01*
X136808599Y-83031747D01*
X136826777Y-83048223D01*
X136843253Y-83066401D01*
X136857868Y-83086107D01*
X136870480Y-83107150D01*
X136880970Y-83129329D01*
X136889235Y-83152428D01*
X136895196Y-83176227D01*
X136898796Y-83200495D01*
X136900000Y-83224999D01*
X136900000Y-83875001D01*
X136898796Y-83899505D01*
X136895196Y-83923773D01*
X136889235Y-83947572D01*
X136880970Y-83970671D01*
X136870480Y-83992850D01*
X136857868Y-84013893D01*
X136843253Y-84033599D01*
X136826777Y-84051777D01*
X136808599Y-84068253D01*
X136788893Y-84082868D01*
X136767850Y-84095480D01*
X136745671Y-84105970D01*
X136722572Y-84114235D01*
X136698773Y-84120196D01*
X136674505Y-84123796D01*
X136650001Y-84125000D01*
X135749999Y-84125000D01*
X135725495Y-84123796D01*
X135701227Y-84120196D01*
X135677428Y-84114235D01*
X135654329Y-84105970D01*
X135632150Y-84095480D01*
X135611107Y-84082868D01*
X135591401Y-84068253D01*
X135573223Y-84051777D01*
X135556747Y-84033599D01*
X135542132Y-84013893D01*
X135529520Y-83992850D01*
X135519030Y-83970671D01*
X135510765Y-83947572D01*
X135504804Y-83923773D01*
X135501204Y-83899505D01*
X135500000Y-83875001D01*
X135500000Y-83224999D01*
X135501204Y-83200495D01*
X135504804Y-83176227D01*
X135510765Y-83152428D01*
X135519030Y-83129329D01*
X135529520Y-83107150D01*
X135542132Y-83086107D01*
X135556747Y-83066401D01*
X135573223Y-83048223D01*
X135591401Y-83031747D01*
X135611107Y-83017132D01*
X135632150Y-83004520D01*
X135654329Y-82994030D01*
X135677428Y-82985765D01*
X135701227Y-82979804D01*
X135725495Y-82976204D01*
X135749999Y-82975000D01*
X136650001Y-82975000D01*
X136674505Y-82976204D01*
G37*
G04 #@! TD.AperFunction*
G04 #@! TA.AperFunction,SMDPad,CuDef*
G36*
X126474505Y-88426204D02*
G01*
X126498773Y-88429804D01*
X126522572Y-88435765D01*
X126545671Y-88444030D01*
X126567850Y-88454520D01*
X126588893Y-88467132D01*
X126608599Y-88481747D01*
X126626777Y-88498223D01*
X126643253Y-88516401D01*
X126657868Y-88536107D01*
X126670480Y-88557150D01*
X126680970Y-88579329D01*
X126689235Y-88602428D01*
X126695196Y-88626227D01*
X126698796Y-88650495D01*
X126700000Y-88674999D01*
X126700000Y-89325001D01*
X126698796Y-89349505D01*
X126695196Y-89373773D01*
X126689235Y-89397572D01*
X126680970Y-89420671D01*
X126670480Y-89442850D01*
X126657868Y-89463893D01*
X126643253Y-89483599D01*
X126626777Y-89501777D01*
X126608599Y-89518253D01*
X126588893Y-89532868D01*
X126567850Y-89545480D01*
X126545671Y-89555970D01*
X126522572Y-89564235D01*
X126498773Y-89570196D01*
X126474505Y-89573796D01*
X126450001Y-89575000D01*
X125549999Y-89575000D01*
X125525495Y-89573796D01*
X125501227Y-89570196D01*
X125477428Y-89564235D01*
X125454329Y-89555970D01*
X125432150Y-89545480D01*
X125411107Y-89532868D01*
X125391401Y-89518253D01*
X125373223Y-89501777D01*
X125356747Y-89483599D01*
X125342132Y-89463893D01*
X125329520Y-89442850D01*
X125319030Y-89420671D01*
X125310765Y-89397572D01*
X125304804Y-89373773D01*
X125301204Y-89349505D01*
X125300000Y-89325001D01*
X125300000Y-88674999D01*
X125301204Y-88650495D01*
X125304804Y-88626227D01*
X125310765Y-88602428D01*
X125319030Y-88579329D01*
X125329520Y-88557150D01*
X125342132Y-88536107D01*
X125356747Y-88516401D01*
X125373223Y-88498223D01*
X125391401Y-88481747D01*
X125411107Y-88467132D01*
X125432150Y-88454520D01*
X125454329Y-88444030D01*
X125477428Y-88435765D01*
X125501227Y-88429804D01*
X125525495Y-88426204D01*
X125549999Y-88425000D01*
X126450001Y-88425000D01*
X126474505Y-88426204D01*
G37*
G04 #@! TD.AperFunction*
G04 #@! TA.AperFunction,SMDPad,CuDef*
G36*
X126474505Y-90476204D02*
G01*
X126498773Y-90479804D01*
X126522572Y-90485765D01*
X126545671Y-90494030D01*
X126567850Y-90504520D01*
X126588893Y-90517132D01*
X126608599Y-90531747D01*
X126626777Y-90548223D01*
X126643253Y-90566401D01*
X126657868Y-90586107D01*
X126670480Y-90607150D01*
X126680970Y-90629329D01*
X126689235Y-90652428D01*
X126695196Y-90676227D01*
X126698796Y-90700495D01*
X126700000Y-90724999D01*
X126700000Y-91375001D01*
X126698796Y-91399505D01*
X126695196Y-91423773D01*
X126689235Y-91447572D01*
X126680970Y-91470671D01*
X126670480Y-91492850D01*
X126657868Y-91513893D01*
X126643253Y-91533599D01*
X126626777Y-91551777D01*
X126608599Y-91568253D01*
X126588893Y-91582868D01*
X126567850Y-91595480D01*
X126545671Y-91605970D01*
X126522572Y-91614235D01*
X126498773Y-91620196D01*
X126474505Y-91623796D01*
X126450001Y-91625000D01*
X125549999Y-91625000D01*
X125525495Y-91623796D01*
X125501227Y-91620196D01*
X125477428Y-91614235D01*
X125454329Y-91605970D01*
X125432150Y-91595480D01*
X125411107Y-91582868D01*
X125391401Y-91568253D01*
X125373223Y-91551777D01*
X125356747Y-91533599D01*
X125342132Y-91513893D01*
X125329520Y-91492850D01*
X125319030Y-91470671D01*
X125310765Y-91447572D01*
X125304804Y-91423773D01*
X125301204Y-91399505D01*
X125300000Y-91375001D01*
X125300000Y-90724999D01*
X125301204Y-90700495D01*
X125304804Y-90676227D01*
X125310765Y-90652428D01*
X125319030Y-90629329D01*
X125329520Y-90607150D01*
X125342132Y-90586107D01*
X125356747Y-90566401D01*
X125373223Y-90548223D01*
X125391401Y-90531747D01*
X125411107Y-90517132D01*
X125432150Y-90504520D01*
X125454329Y-90494030D01*
X125477428Y-90485765D01*
X125501227Y-90479804D01*
X125525495Y-90476204D01*
X125549999Y-90475000D01*
X126450001Y-90475000D01*
X126474505Y-90476204D01*
G37*
G04 #@! TD.AperFunction*
D14*
X133700000Y-89900000D03*
X136700000Y-88950000D03*
X136700000Y-90850000D03*
D15*
X155422600Y-86898480D03*
X155422600Y-84358480D03*
X155422600Y-81818480D03*
X155422600Y-79278480D03*
X155422600Y-76738480D03*
X144732600Y-86898480D03*
G04 #@! TA.AperFunction,SMDPad,CuDef*
D12*
G36*
X142924505Y-89601204D02*
G01*
X142948773Y-89604804D01*
X142972572Y-89610765D01*
X142995671Y-89619030D01*
X143017850Y-89629520D01*
X143038893Y-89642132D01*
X143058599Y-89656747D01*
X143076777Y-89673223D01*
X143093253Y-89691401D01*
X143107868Y-89711107D01*
X143120480Y-89732150D01*
X143130970Y-89754329D01*
X143139235Y-89777428D01*
X143145196Y-89801227D01*
X143148796Y-89825495D01*
X143150000Y-89849999D01*
X143150000Y-90750001D01*
X143148796Y-90774505D01*
X143145196Y-90798773D01*
X143139235Y-90822572D01*
X143130970Y-90845671D01*
X143120480Y-90867850D01*
X143107868Y-90888893D01*
X143093253Y-90908599D01*
X143076777Y-90926777D01*
X143058599Y-90943253D01*
X143038893Y-90957868D01*
X143017850Y-90970480D01*
X142995671Y-90980970D01*
X142972572Y-90989235D01*
X142948773Y-90995196D01*
X142924505Y-90998796D01*
X142900001Y-91000000D01*
X142249999Y-91000000D01*
X142225495Y-90998796D01*
X142201227Y-90995196D01*
X142177428Y-90989235D01*
X142154329Y-90980970D01*
X142132150Y-90970480D01*
X142111107Y-90957868D01*
X142091401Y-90943253D01*
X142073223Y-90926777D01*
X142056747Y-90908599D01*
X142042132Y-90888893D01*
X142029520Y-90867850D01*
X142019030Y-90845671D01*
X142010765Y-90822572D01*
X142004804Y-90798773D01*
X142001204Y-90774505D01*
X142000000Y-90750001D01*
X142000000Y-89849999D01*
X142001204Y-89825495D01*
X142004804Y-89801227D01*
X142010765Y-89777428D01*
X142019030Y-89754329D01*
X142029520Y-89732150D01*
X142042132Y-89711107D01*
X142056747Y-89691401D01*
X142073223Y-89673223D01*
X142091401Y-89656747D01*
X142111107Y-89642132D01*
X142132150Y-89629520D01*
X142154329Y-89619030D01*
X142177428Y-89610765D01*
X142201227Y-89604804D01*
X142225495Y-89601204D01*
X142249999Y-89600000D01*
X142900001Y-89600000D01*
X142924505Y-89601204D01*
G37*
G04 #@! TD.AperFunction*
G04 #@! TA.AperFunction,SMDPad,CuDef*
G36*
X144974505Y-89601204D02*
G01*
X144998773Y-89604804D01*
X145022572Y-89610765D01*
X145045671Y-89619030D01*
X145067850Y-89629520D01*
X145088893Y-89642132D01*
X145108599Y-89656747D01*
X145126777Y-89673223D01*
X145143253Y-89691401D01*
X145157868Y-89711107D01*
X145170480Y-89732150D01*
X145180970Y-89754329D01*
X145189235Y-89777428D01*
X145195196Y-89801227D01*
X145198796Y-89825495D01*
X145200000Y-89849999D01*
X145200000Y-90750001D01*
X145198796Y-90774505D01*
X145195196Y-90798773D01*
X145189235Y-90822572D01*
X145180970Y-90845671D01*
X145170480Y-90867850D01*
X145157868Y-90888893D01*
X145143253Y-90908599D01*
X145126777Y-90926777D01*
X145108599Y-90943253D01*
X145088893Y-90957868D01*
X145067850Y-90970480D01*
X145045671Y-90980970D01*
X145022572Y-90989235D01*
X144998773Y-90995196D01*
X144974505Y-90998796D01*
X144950001Y-91000000D01*
X144299999Y-91000000D01*
X144275495Y-90998796D01*
X144251227Y-90995196D01*
X144227428Y-90989235D01*
X144204329Y-90980970D01*
X144182150Y-90970480D01*
X144161107Y-90957868D01*
X144141401Y-90943253D01*
X144123223Y-90926777D01*
X144106747Y-90908599D01*
X144092132Y-90888893D01*
X144079520Y-90867850D01*
X144069030Y-90845671D01*
X144060765Y-90822572D01*
X144054804Y-90798773D01*
X144051204Y-90774505D01*
X144050000Y-90750001D01*
X144050000Y-89849999D01*
X144051204Y-89825495D01*
X144054804Y-89801227D01*
X144060765Y-89777428D01*
X144069030Y-89754329D01*
X144079520Y-89732150D01*
X144092132Y-89711107D01*
X144106747Y-89691401D01*
X144123223Y-89673223D01*
X144141401Y-89656747D01*
X144161107Y-89642132D01*
X144182150Y-89629520D01*
X144204329Y-89619030D01*
X144227428Y-89610765D01*
X144251227Y-89604804D01*
X144275495Y-89601204D01*
X144299999Y-89600000D01*
X144950001Y-89600000D01*
X144974505Y-89601204D01*
G37*
G04 #@! TD.AperFunction*
G04 #@! TA.AperFunction,SMDPad,CuDef*
G36*
X150799505Y-89601204D02*
G01*
X150823773Y-89604804D01*
X150847572Y-89610765D01*
X150870671Y-89619030D01*
X150892850Y-89629520D01*
X150913893Y-89642132D01*
X150933599Y-89656747D01*
X150951777Y-89673223D01*
X150968253Y-89691401D01*
X150982868Y-89711107D01*
X150995480Y-89732150D01*
X151005970Y-89754329D01*
X151014235Y-89777428D01*
X151020196Y-89801227D01*
X151023796Y-89825495D01*
X151025000Y-89849999D01*
X151025000Y-90750001D01*
X151023796Y-90774505D01*
X151020196Y-90798773D01*
X151014235Y-90822572D01*
X151005970Y-90845671D01*
X150995480Y-90867850D01*
X150982868Y-90888893D01*
X150968253Y-90908599D01*
X150951777Y-90926777D01*
X150933599Y-90943253D01*
X150913893Y-90957868D01*
X150892850Y-90970480D01*
X150870671Y-90980970D01*
X150847572Y-90989235D01*
X150823773Y-90995196D01*
X150799505Y-90998796D01*
X150775001Y-91000000D01*
X150124999Y-91000000D01*
X150100495Y-90998796D01*
X150076227Y-90995196D01*
X150052428Y-90989235D01*
X150029329Y-90980970D01*
X150007150Y-90970480D01*
X149986107Y-90957868D01*
X149966401Y-90943253D01*
X149948223Y-90926777D01*
X149931747Y-90908599D01*
X149917132Y-90888893D01*
X149904520Y-90867850D01*
X149894030Y-90845671D01*
X149885765Y-90822572D01*
X149879804Y-90798773D01*
X149876204Y-90774505D01*
X149875000Y-90750001D01*
X149875000Y-89849999D01*
X149876204Y-89825495D01*
X149879804Y-89801227D01*
X149885765Y-89777428D01*
X149894030Y-89754329D01*
X149904520Y-89732150D01*
X149917132Y-89711107D01*
X149931747Y-89691401D01*
X149948223Y-89673223D01*
X149966401Y-89656747D01*
X149986107Y-89642132D01*
X150007150Y-89629520D01*
X150029329Y-89619030D01*
X150052428Y-89610765D01*
X150076227Y-89604804D01*
X150100495Y-89601204D01*
X150124999Y-89600000D01*
X150775001Y-89600000D01*
X150799505Y-89601204D01*
G37*
G04 #@! TD.AperFunction*
G04 #@! TA.AperFunction,SMDPad,CuDef*
G36*
X148749505Y-89601204D02*
G01*
X148773773Y-89604804D01*
X148797572Y-89610765D01*
X148820671Y-89619030D01*
X148842850Y-89629520D01*
X148863893Y-89642132D01*
X148883599Y-89656747D01*
X148901777Y-89673223D01*
X148918253Y-89691401D01*
X148932868Y-89711107D01*
X148945480Y-89732150D01*
X148955970Y-89754329D01*
X148964235Y-89777428D01*
X148970196Y-89801227D01*
X148973796Y-89825495D01*
X148975000Y-89849999D01*
X148975000Y-90750001D01*
X148973796Y-90774505D01*
X148970196Y-90798773D01*
X148964235Y-90822572D01*
X148955970Y-90845671D01*
X148945480Y-90867850D01*
X148932868Y-90888893D01*
X148918253Y-90908599D01*
X148901777Y-90926777D01*
X148883599Y-90943253D01*
X148863893Y-90957868D01*
X148842850Y-90970480D01*
X148820671Y-90980970D01*
X148797572Y-90989235D01*
X148773773Y-90995196D01*
X148749505Y-90998796D01*
X148725001Y-91000000D01*
X148074999Y-91000000D01*
X148050495Y-90998796D01*
X148026227Y-90995196D01*
X148002428Y-90989235D01*
X147979329Y-90980970D01*
X147957150Y-90970480D01*
X147936107Y-90957868D01*
X147916401Y-90943253D01*
X147898223Y-90926777D01*
X147881747Y-90908599D01*
X147867132Y-90888893D01*
X147854520Y-90867850D01*
X147844030Y-90845671D01*
X147835765Y-90822572D01*
X147829804Y-90798773D01*
X147826204Y-90774505D01*
X147825000Y-90750001D01*
X147825000Y-89849999D01*
X147826204Y-89825495D01*
X147829804Y-89801227D01*
X147835765Y-89777428D01*
X147844030Y-89754329D01*
X147854520Y-89732150D01*
X147867132Y-89711107D01*
X147881747Y-89691401D01*
X147898223Y-89673223D01*
X147916401Y-89656747D01*
X147936107Y-89642132D01*
X147957150Y-89629520D01*
X147979329Y-89619030D01*
X148002428Y-89610765D01*
X148026227Y-89604804D01*
X148050495Y-89601204D01*
X148074999Y-89600000D01*
X148725001Y-89600000D01*
X148749505Y-89601204D01*
G37*
G04 #@! TD.AperFunction*
G04 #@! TA.AperFunction,SMDPad,CuDef*
G36*
X129074505Y-90451204D02*
G01*
X129098773Y-90454804D01*
X129122572Y-90460765D01*
X129145671Y-90469030D01*
X129167850Y-90479520D01*
X129188893Y-90492132D01*
X129208599Y-90506747D01*
X129226777Y-90523223D01*
X129243253Y-90541401D01*
X129257868Y-90561107D01*
X129270480Y-90582150D01*
X129280970Y-90604329D01*
X129289235Y-90627428D01*
X129295196Y-90651227D01*
X129298796Y-90675495D01*
X129300000Y-90699999D01*
X129300000Y-91350001D01*
X129298796Y-91374505D01*
X129295196Y-91398773D01*
X129289235Y-91422572D01*
X129280970Y-91445671D01*
X129270480Y-91467850D01*
X129257868Y-91488893D01*
X129243253Y-91508599D01*
X129226777Y-91526777D01*
X129208599Y-91543253D01*
X129188893Y-91557868D01*
X129167850Y-91570480D01*
X129145671Y-91580970D01*
X129122572Y-91589235D01*
X129098773Y-91595196D01*
X129074505Y-91598796D01*
X129050001Y-91600000D01*
X128149999Y-91600000D01*
X128125495Y-91598796D01*
X128101227Y-91595196D01*
X128077428Y-91589235D01*
X128054329Y-91580970D01*
X128032150Y-91570480D01*
X128011107Y-91557868D01*
X127991401Y-91543253D01*
X127973223Y-91526777D01*
X127956747Y-91508599D01*
X127942132Y-91488893D01*
X127929520Y-91467850D01*
X127919030Y-91445671D01*
X127910765Y-91422572D01*
X127904804Y-91398773D01*
X127901204Y-91374505D01*
X127900000Y-91350001D01*
X127900000Y-90699999D01*
X127901204Y-90675495D01*
X127904804Y-90651227D01*
X127910765Y-90627428D01*
X127919030Y-90604329D01*
X127929520Y-90582150D01*
X127942132Y-90561107D01*
X127956747Y-90541401D01*
X127973223Y-90523223D01*
X127991401Y-90506747D01*
X128011107Y-90492132D01*
X128032150Y-90479520D01*
X128054329Y-90469030D01*
X128077428Y-90460765D01*
X128101227Y-90454804D01*
X128125495Y-90451204D01*
X128149999Y-90450000D01*
X129050001Y-90450000D01*
X129074505Y-90451204D01*
G37*
G04 #@! TD.AperFunction*
G04 #@! TA.AperFunction,SMDPad,CuDef*
G36*
X129074505Y-88401204D02*
G01*
X129098773Y-88404804D01*
X129122572Y-88410765D01*
X129145671Y-88419030D01*
X129167850Y-88429520D01*
X129188893Y-88442132D01*
X129208599Y-88456747D01*
X129226777Y-88473223D01*
X129243253Y-88491401D01*
X129257868Y-88511107D01*
X129270480Y-88532150D01*
X129280970Y-88554329D01*
X129289235Y-88577428D01*
X129295196Y-88601227D01*
X129298796Y-88625495D01*
X129300000Y-88649999D01*
X129300000Y-89300001D01*
X129298796Y-89324505D01*
X129295196Y-89348773D01*
X129289235Y-89372572D01*
X129280970Y-89395671D01*
X129270480Y-89417850D01*
X129257868Y-89438893D01*
X129243253Y-89458599D01*
X129226777Y-89476777D01*
X129208599Y-89493253D01*
X129188893Y-89507868D01*
X129167850Y-89520480D01*
X129145671Y-89530970D01*
X129122572Y-89539235D01*
X129098773Y-89545196D01*
X129074505Y-89548796D01*
X129050001Y-89550000D01*
X128149999Y-89550000D01*
X128125495Y-89548796D01*
X128101227Y-89545196D01*
X128077428Y-89539235D01*
X128054329Y-89530970D01*
X128032150Y-89520480D01*
X128011107Y-89507868D01*
X127991401Y-89493253D01*
X127973223Y-89476777D01*
X127956747Y-89458599D01*
X127942132Y-89438893D01*
X127929520Y-89417850D01*
X127919030Y-89395671D01*
X127910765Y-89372572D01*
X127904804Y-89348773D01*
X127901204Y-89324505D01*
X127900000Y-89300001D01*
X127900000Y-88649999D01*
X127901204Y-88625495D01*
X127904804Y-88601227D01*
X127910765Y-88577428D01*
X127919030Y-88554329D01*
X127929520Y-88532150D01*
X127942132Y-88511107D01*
X127956747Y-88491401D01*
X127973223Y-88473223D01*
X127991401Y-88456747D01*
X128011107Y-88442132D01*
X128032150Y-88429520D01*
X128054329Y-88419030D01*
X128077428Y-88410765D01*
X128101227Y-88404804D01*
X128125495Y-88401204D01*
X128149999Y-88400000D01*
X129050001Y-88400000D01*
X129074505Y-88401204D01*
G37*
G04 #@! TD.AperFunction*
D10*
X164465000Y-76200000D03*
X161925000Y-76200000D03*
D11*
X159385000Y-76200000D03*
D10*
X164465000Y-78740000D03*
X161925000Y-78740000D03*
D11*
X159385000Y-78740000D03*
D10*
X164465000Y-81280000D03*
X161925000Y-81280000D03*
D11*
X159385000Y-81280000D03*
D10*
X164465000Y-83820000D03*
X161925000Y-83820000D03*
D11*
X159385000Y-83820000D03*
D16*
X130937000Y-82470000D03*
D17*
X130937000Y-77470000D03*
D18*
X120937000Y-85470000D03*
X120937000Y-74470000D03*
D10*
X136200000Y-73920000D03*
X136200000Y-76460000D03*
D11*
X136200000Y-79000000D03*
D19*
X164000000Y-87000000D03*
X170000000Y-83000000D03*
X170000000Y-77000000D03*
X164000000Y-70000000D03*
X157000000Y-70000000D03*
X149000000Y-70000000D03*
X149000000Y-80000000D03*
X142000000Y-80000000D03*
X142000000Y-74000000D03*
X154000000Y-91000000D03*
X149000000Y-85000000D03*
X126000000Y-85000000D03*
X126000000Y-80000000D03*
X126108500Y-74891500D03*
X121000000Y-80000000D03*
D20*
X149988190Y-90300000D02*
X148288190Y-92000000D01*
X150450000Y-90300000D02*
X149988190Y-90300000D01*
X128600000Y-91600000D02*
X128600000Y-91025000D01*
X129000000Y-92000000D02*
X128600000Y-91600000D01*
X148288190Y-92000000D02*
X129000000Y-92000000D01*
X128600000Y-88975000D02*
X130375000Y-88975000D01*
X131300000Y-89900000D02*
X133700000Y-89900000D01*
X130375000Y-88975000D02*
X131300000Y-89900000D01*
D21*
X155422600Y-76738480D02*
X158061080Y-74100000D01*
X158061080Y-74100000D02*
X159825000Y-74100000D01*
X159825000Y-74100000D02*
X161925000Y-76200000D01*
X161925000Y-76200000D02*
X161925000Y-83820000D01*
X148400000Y-90300000D02*
X144625000Y-90300000D01*
X148685034Y-90300000D02*
X150285034Y-88700000D01*
X148400000Y-90300000D02*
X148685034Y-90300000D01*
X157045000Y-88700000D02*
X161925000Y-83820000D01*
X150285034Y-88700000D02*
X157045000Y-88700000D01*
X154771080Y-82470000D02*
X155422600Y-81818480D01*
X136200000Y-82600000D02*
X136200000Y-83550000D01*
X136330000Y-82470000D02*
X136200000Y-82600000D01*
X130937000Y-82470000D02*
X136330000Y-82470000D01*
X139130000Y-82470000D02*
X139130000Y-79390000D01*
X139130000Y-79390000D02*
X136200000Y-76460000D01*
X139130000Y-82470000D02*
X154771080Y-82470000D01*
X136330000Y-82470000D02*
X139130000Y-82470000D01*
X137049999Y-75610001D02*
X136200000Y-76460000D01*
X137754064Y-74905936D02*
X137049999Y-75610001D01*
X137754064Y-70054064D02*
X137754064Y-74905936D01*
X137300000Y-69600000D02*
X137754064Y-70054064D01*
D20*
X142575000Y-89600000D02*
X143375000Y-88800000D01*
X142575000Y-90300000D02*
X142575000Y-89600000D01*
X151273368Y-86898480D02*
X154344970Y-86898480D01*
X154344970Y-86898480D02*
X155422600Y-86898480D01*
X149371848Y-88800000D02*
X151273368Y-86898480D01*
X143375000Y-88800000D02*
X149371848Y-88800000D01*
X136700000Y-90850000D02*
X139150000Y-90850000D01*
X139700000Y-90300000D02*
X142575000Y-90300000D01*
X139150000Y-90850000D02*
X139700000Y-90300000D01*
D21*
X127860044Y-87949990D02*
X136599990Y-87949990D01*
X136599990Y-87949990D02*
X136700000Y-88050000D01*
X127449990Y-88360044D02*
X127860044Y-87949990D01*
X127449990Y-90300010D02*
X127449990Y-88360044D01*
X126700000Y-91050000D02*
X127449990Y-90300010D01*
X126000000Y-91050000D02*
X126700000Y-91050000D01*
X134700000Y-72420000D02*
X136200000Y-73920000D01*
X134700000Y-69600000D02*
X134700000Y-72420000D01*
X158846520Y-79278480D02*
X159385000Y-78740000D01*
X155422600Y-79278480D02*
X158846520Y-79278480D01*
X159385000Y-76200000D02*
X159385000Y-83820000D01*
X164465000Y-76200000D02*
X164465000Y-83820000D01*
X164465000Y-76200000D02*
X161365000Y-73100000D01*
X161365000Y-73100000D02*
X157000000Y-73100000D01*
X154660601Y-78516481D02*
X155422600Y-79278480D01*
X154210599Y-78066479D02*
X154660601Y-78516481D01*
X154210599Y-75889401D02*
X154210599Y-78066479D01*
X157000000Y-73100000D02*
X154210599Y-75889401D01*
X136700000Y-88050000D02*
X136700000Y-88950000D01*
X143970601Y-87660479D02*
X137089521Y-87660479D01*
X137089521Y-87660479D02*
X136700000Y-88050000D01*
X144732600Y-86898480D02*
X143970601Y-87660479D01*
X132467000Y-79000000D02*
X130937000Y-77470000D01*
X136200000Y-79000000D02*
X132467000Y-79000000D01*
X125760000Y-71650000D02*
X125760000Y-70300000D01*
X125760000Y-74543000D02*
X125760000Y-71650000D01*
X128687000Y-77470000D02*
X126108500Y-74891500D01*
X130937000Y-77470000D02*
X128687000Y-77470000D01*
X126108500Y-74891500D02*
X125760000Y-74543000D01*
D20*
X136200000Y-86300000D02*
X136200000Y-85600000D01*
X135125020Y-87374980D02*
X136200000Y-86300000D01*
X127621868Y-87374980D02*
X135125020Y-87374980D01*
X126000000Y-89000000D02*
X126000000Y-88996848D01*
X126000000Y-88996848D02*
X127621868Y-87374980D01*
X132600000Y-68850000D02*
X131900000Y-68850000D01*
X132925010Y-68524990D02*
X132600000Y-68850000D01*
X135924990Y-68524990D02*
X132925010Y-68524990D01*
X136000000Y-68600000D02*
X135924990Y-68524990D01*
X136000000Y-69600000D02*
X136000000Y-68600000D01*
X131900000Y-70325000D02*
X131900000Y-70900000D01*
X131875000Y-70300000D02*
X131900000Y-70325000D01*
X128300000Y-70300000D02*
X131875000Y-70300000D01*
X155422600Y-84358480D02*
X157100000Y-82681080D01*
X157100000Y-82681080D02*
X157100000Y-81300000D01*
X156531479Y-80731479D02*
X151931479Y-80731479D01*
X157100000Y-81300000D02*
X156531479Y-80731479D01*
X129149999Y-69450001D02*
X128300000Y-70300000D01*
X130650010Y-67949990D02*
X129149999Y-69450001D01*
X139149990Y-67949990D02*
X130650010Y-67949990D01*
X151931479Y-80731479D02*
X139149990Y-67949990D01*
D22*
G36*
X128666408Y-68858791D02*
G01*
X128446260Y-68815000D01*
X128153740Y-68815000D01*
X127866842Y-68872068D01*
X127596589Y-68984010D01*
X127353368Y-69146525D01*
X127221513Y-69278380D01*
X127199502Y-69205820D01*
X127140537Y-69095506D01*
X127061185Y-68998815D01*
X126964494Y-68919463D01*
X126854180Y-68860498D01*
X126734482Y-68824188D01*
X126610000Y-68811928D01*
X126045750Y-68815000D01*
X125887000Y-68973750D01*
X125887000Y-70173000D01*
X125907000Y-70173000D01*
X125907000Y-70427000D01*
X125887000Y-70427000D01*
X125887000Y-71626250D01*
X126045750Y-71785000D01*
X126610000Y-71788072D01*
X126734482Y-71775812D01*
X126854180Y-71739502D01*
X126964494Y-71680537D01*
X127061185Y-71601185D01*
X127140537Y-71504494D01*
X127199502Y-71394180D01*
X127221513Y-71321620D01*
X127353368Y-71453475D01*
X127596589Y-71615990D01*
X127866842Y-71727932D01*
X128153740Y-71785000D01*
X128446260Y-71785000D01*
X128733158Y-71727932D01*
X129003411Y-71615990D01*
X129246632Y-71453475D01*
X129453475Y-71246632D01*
X129578178Y-71060000D01*
X130561928Y-71060000D01*
X130561928Y-71225001D01*
X130578992Y-71398255D01*
X130629528Y-71564851D01*
X130711595Y-71718387D01*
X130822038Y-71852962D01*
X130956613Y-71963405D01*
X131110149Y-72045472D01*
X131276745Y-72096008D01*
X131449999Y-72113072D01*
X132350001Y-72113072D01*
X132523255Y-72096008D01*
X132689851Y-72045472D01*
X132843387Y-71963405D01*
X132977962Y-71852962D01*
X133088405Y-71718387D01*
X133170472Y-71564851D01*
X133221008Y-71398255D01*
X133238072Y-71225001D01*
X133238072Y-70574999D01*
X133221008Y-70401745D01*
X133170472Y-70235149D01*
X133088405Y-70081613D01*
X132977962Y-69947038D01*
X132890184Y-69875000D01*
X132977962Y-69802962D01*
X133088405Y-69668387D01*
X133170472Y-69514851D01*
X133221008Y-69348255D01*
X133225866Y-69298935D01*
X133239811Y-69284990D01*
X134861928Y-69284990D01*
X134861928Y-70350000D01*
X134874188Y-70474482D01*
X134910498Y-70594180D01*
X134969463Y-70704494D01*
X135048815Y-70801185D01*
X135145506Y-70880537D01*
X135255820Y-70939502D01*
X135375518Y-70975812D01*
X135500000Y-70988072D01*
X136500000Y-70988072D01*
X136624482Y-70975812D01*
X136625000Y-70975655D01*
X136625518Y-70975812D01*
X136750000Y-70988072D01*
X136869064Y-70988072D01*
X136869065Y-72598367D01*
X136831252Y-72575843D01*
X136556891Y-72478519D01*
X136327000Y-72599186D01*
X136327000Y-73793000D01*
X136347000Y-73793000D01*
X136347000Y-74047000D01*
X136327000Y-74047000D01*
X136327000Y-74067000D01*
X136073000Y-74067000D01*
X136073000Y-74047000D01*
X134879845Y-74047000D01*
X134758524Y-74276890D01*
X134803175Y-74424099D01*
X134928359Y-74686920D01*
X135102412Y-74920269D01*
X135318645Y-75115178D01*
X135435534Y-75184805D01*
X135253368Y-75306525D01*
X135046525Y-75513368D01*
X134884010Y-75756589D01*
X134772068Y-76026842D01*
X134715000Y-76313740D01*
X134715000Y-76606260D01*
X134772068Y-76893158D01*
X134884010Y-77163411D01*
X135046525Y-77406632D01*
X135178380Y-77538487D01*
X135105820Y-77560498D01*
X134995506Y-77619463D01*
X134898815Y-77698815D01*
X134819463Y-77795506D01*
X134760498Y-77905820D01*
X134724188Y-78025518D01*
X134711928Y-78150000D01*
X134715000Y-78714250D01*
X134873750Y-78873000D01*
X136073000Y-78873000D01*
X136073000Y-78853000D01*
X136327000Y-78853000D01*
X136327000Y-78873000D01*
X136347000Y-78873000D01*
X136347000Y-79127000D01*
X136327000Y-79127000D01*
X136327000Y-80326250D01*
X136485750Y-80485000D01*
X137050000Y-80488072D01*
X137174482Y-80475812D01*
X137294180Y-80439502D01*
X137404494Y-80380537D01*
X137501185Y-80301185D01*
X137580537Y-80204494D01*
X137639502Y-80094180D01*
X137675812Y-79974482D01*
X137688072Y-79850000D01*
X137685000Y-79285750D01*
X137526252Y-79127002D01*
X137615423Y-79127002D01*
X138245001Y-79756580D01*
X138245000Y-81585000D01*
X136373469Y-81585000D01*
X136330000Y-81580719D01*
X136286531Y-81585000D01*
X133151927Y-81585000D01*
X133050560Y-81340279D01*
X132789550Y-80949651D01*
X132457349Y-80617450D01*
X132066721Y-80356440D01*
X131632679Y-80176654D01*
X131171902Y-80085000D01*
X130702098Y-80085000D01*
X130241321Y-80176654D01*
X129807279Y-80356440D01*
X129416651Y-80617450D01*
X129084450Y-80949651D01*
X128823440Y-81340279D01*
X128643654Y-81774321D01*
X128552000Y-82235098D01*
X128552000Y-82704902D01*
X128643654Y-83165679D01*
X128823440Y-83599721D01*
X129084450Y-83990349D01*
X129416651Y-84322550D01*
X129807279Y-84583560D01*
X130241321Y-84763346D01*
X130702098Y-84855000D01*
X131171902Y-84855000D01*
X131632679Y-84763346D01*
X132066721Y-84583560D01*
X132457349Y-84322550D01*
X132789550Y-83990349D01*
X133050560Y-83599721D01*
X133151927Y-83355000D01*
X134861928Y-83355000D01*
X134861928Y-83875001D01*
X134878992Y-84048255D01*
X134929528Y-84214851D01*
X135011595Y-84368387D01*
X135122038Y-84502962D01*
X135209816Y-84575000D01*
X135122038Y-84647038D01*
X135011595Y-84781613D01*
X134929528Y-84935149D01*
X134878992Y-85101745D01*
X134861928Y-85274999D01*
X134861928Y-85925001D01*
X134878992Y-86098255D01*
X134929528Y-86264851D01*
X135009929Y-86415270D01*
X134810219Y-86614980D01*
X127659193Y-86614980D01*
X127621868Y-86611304D01*
X127584543Y-86614980D01*
X127584535Y-86614980D01*
X127472882Y-86625977D01*
X127329621Y-86669434D01*
X127197592Y-86740006D01*
X127081867Y-86834979D01*
X127058069Y-86863977D01*
X126135119Y-87786928D01*
X125549999Y-87786928D01*
X125376745Y-87803992D01*
X125210149Y-87854528D01*
X125056613Y-87936595D01*
X124922038Y-88047038D01*
X124811595Y-88181613D01*
X124729528Y-88335149D01*
X124678992Y-88501745D01*
X124661928Y-88674999D01*
X124661928Y-89325001D01*
X124678992Y-89498255D01*
X124729528Y-89664851D01*
X124811595Y-89818387D01*
X124922038Y-89952962D01*
X124928594Y-89958342D01*
X124848815Y-90023815D01*
X124769463Y-90120506D01*
X124710498Y-90230820D01*
X124674188Y-90350518D01*
X124661928Y-90475000D01*
X124665000Y-90764250D01*
X124823750Y-90923000D01*
X125873000Y-90923000D01*
X125873000Y-90903000D01*
X126127000Y-90903000D01*
X126127000Y-90923000D01*
X126147000Y-90923000D01*
X126147000Y-91177000D01*
X126127000Y-91177000D01*
X126127000Y-92101250D01*
X126285750Y-92260000D01*
X126700000Y-92263072D01*
X126824482Y-92250812D01*
X126944180Y-92214502D01*
X127054494Y-92155537D01*
X127151185Y-92076185D01*
X127230537Y-91979494D01*
X127289502Y-91869180D01*
X127325812Y-91749482D01*
X127331349Y-91693258D01*
X127411595Y-91843387D01*
X127522038Y-91977962D01*
X127656613Y-92088405D01*
X127810149Y-92170472D01*
X127976745Y-92221008D01*
X128149999Y-92238072D01*
X128163271Y-92238072D01*
X128230199Y-92305000D01*
X120033991Y-92305000D01*
X119552937Y-92257832D01*
X119122903Y-92127997D01*
X118726277Y-91917108D01*
X118378168Y-91633197D01*
X118091830Y-91287074D01*
X117878177Y-90891931D01*
X117745344Y-90462817D01*
X117695000Y-89983824D01*
X117695000Y-89829117D01*
X118265000Y-89829117D01*
X118265000Y-90170883D01*
X118331675Y-90506081D01*
X118462463Y-90821831D01*
X118652337Y-91105998D01*
X118894002Y-91347663D01*
X119178169Y-91537537D01*
X119493919Y-91668325D01*
X119829117Y-91735000D01*
X120170883Y-91735000D01*
X120506081Y-91668325D01*
X120610676Y-91625000D01*
X124661928Y-91625000D01*
X124674188Y-91749482D01*
X124710498Y-91869180D01*
X124769463Y-91979494D01*
X124848815Y-92076185D01*
X124945506Y-92155537D01*
X125055820Y-92214502D01*
X125175518Y-92250812D01*
X125300000Y-92263072D01*
X125714250Y-92260000D01*
X125873000Y-92101250D01*
X125873000Y-91177000D01*
X124823750Y-91177000D01*
X124665000Y-91335750D01*
X124661928Y-91625000D01*
X120610676Y-91625000D01*
X120821831Y-91537537D01*
X121105998Y-91347663D01*
X121347663Y-91105998D01*
X121537537Y-90821831D01*
X121668325Y-90506081D01*
X121735000Y-90170883D01*
X121735000Y-89829117D01*
X121668325Y-89493919D01*
X121537537Y-89178169D01*
X121347663Y-88894002D01*
X121105998Y-88652337D01*
X120821831Y-88462463D01*
X120506081Y-88331675D01*
X120170883Y-88265000D01*
X119829117Y-88265000D01*
X119493919Y-88331675D01*
X119178169Y-88462463D01*
X118894002Y-88652337D01*
X118652337Y-88894002D01*
X118462463Y-89178169D01*
X118331675Y-89493919D01*
X118265000Y-89829117D01*
X117695000Y-89829117D01*
X117695000Y-85338514D01*
X119602000Y-85338514D01*
X119602000Y-85601486D01*
X119653304Y-85859405D01*
X119753939Y-86102359D01*
X119900038Y-86321013D01*
X120085987Y-86506962D01*
X120304641Y-86653061D01*
X120547595Y-86753696D01*
X120805514Y-86805000D01*
X121068486Y-86805000D01*
X121326405Y-86753696D01*
X121569359Y-86653061D01*
X121788013Y-86506962D01*
X121973962Y-86321013D01*
X122120061Y-86102359D01*
X122220696Y-85859405D01*
X122272000Y-85601486D01*
X122272000Y-85338514D01*
X122220696Y-85080595D01*
X122120061Y-84837641D01*
X121973962Y-84618987D01*
X121788013Y-84433038D01*
X121569359Y-84286939D01*
X121326405Y-84186304D01*
X121068486Y-84135000D01*
X120805514Y-84135000D01*
X120547595Y-84186304D01*
X120304641Y-84286939D01*
X120085987Y-84433038D01*
X119900038Y-84618987D01*
X119753939Y-84837641D01*
X119653304Y-85080595D01*
X119602000Y-85338514D01*
X117695000Y-85338514D01*
X117695000Y-79220000D01*
X128548928Y-79220000D01*
X128561188Y-79344482D01*
X128597498Y-79464180D01*
X128656463Y-79574494D01*
X128735815Y-79671185D01*
X128832506Y-79750537D01*
X128942820Y-79809502D01*
X129062518Y-79845812D01*
X129187000Y-79858072D01*
X130651250Y-79855000D01*
X130810000Y-79696250D01*
X130810000Y-77597000D01*
X131064000Y-77597000D01*
X131064000Y-79696250D01*
X131222750Y-79855000D01*
X132687000Y-79858072D01*
X132768959Y-79850000D01*
X134711928Y-79850000D01*
X134724188Y-79974482D01*
X134760498Y-80094180D01*
X134819463Y-80204494D01*
X134898815Y-80301185D01*
X134995506Y-80380537D01*
X135105820Y-80439502D01*
X135225518Y-80475812D01*
X135350000Y-80488072D01*
X135914250Y-80485000D01*
X136073000Y-80326250D01*
X136073000Y-79127000D01*
X134873750Y-79127000D01*
X134715000Y-79285750D01*
X134711928Y-79850000D01*
X132768959Y-79850000D01*
X132811482Y-79845812D01*
X132931180Y-79809502D01*
X133041494Y-79750537D01*
X133138185Y-79671185D01*
X133217537Y-79574494D01*
X133276502Y-79464180D01*
X133312812Y-79344482D01*
X133325072Y-79220000D01*
X133322000Y-77755750D01*
X133163250Y-77597000D01*
X131064000Y-77597000D01*
X130810000Y-77597000D01*
X128710750Y-77597000D01*
X128552000Y-77755750D01*
X128548928Y-79220000D01*
X117695000Y-79220000D01*
X117695000Y-74338514D01*
X119602000Y-74338514D01*
X119602000Y-74601486D01*
X119653304Y-74859405D01*
X119753939Y-75102359D01*
X119900038Y-75321013D01*
X120085987Y-75506962D01*
X120304641Y-75653061D01*
X120547595Y-75753696D01*
X120805514Y-75805000D01*
X121068486Y-75805000D01*
X121326405Y-75753696D01*
X121407754Y-75720000D01*
X128548928Y-75720000D01*
X128552000Y-77184250D01*
X128710750Y-77343000D01*
X130810000Y-77343000D01*
X130810000Y-75243750D01*
X131064000Y-75243750D01*
X131064000Y-77343000D01*
X133163250Y-77343000D01*
X133322000Y-77184250D01*
X133325072Y-75720000D01*
X133312812Y-75595518D01*
X133276502Y-75475820D01*
X133217537Y-75365506D01*
X133138185Y-75268815D01*
X133041494Y-75189463D01*
X132931180Y-75130498D01*
X132811482Y-75094188D01*
X132687000Y-75081928D01*
X131222750Y-75085000D01*
X131064000Y-75243750D01*
X130810000Y-75243750D01*
X130651250Y-75085000D01*
X129187000Y-75081928D01*
X129062518Y-75094188D01*
X128942820Y-75130498D01*
X128832506Y-75189463D01*
X128735815Y-75268815D01*
X128656463Y-75365506D01*
X128597498Y-75475820D01*
X128561188Y-75595518D01*
X128548928Y-75720000D01*
X121407754Y-75720000D01*
X121569359Y-75653061D01*
X121788013Y-75506962D01*
X121973962Y-75321013D01*
X122120061Y-75102359D01*
X122220696Y-74859405D01*
X122272000Y-74601486D01*
X122272000Y-74338514D01*
X122220696Y-74080595D01*
X122120061Y-73837641D01*
X121973962Y-73618987D01*
X121918085Y-73563110D01*
X134758524Y-73563110D01*
X134879845Y-73793000D01*
X136073000Y-73793000D01*
X136073000Y-72599186D01*
X135843109Y-72478519D01*
X135568748Y-72575843D01*
X135318645Y-72724822D01*
X135102412Y-72919731D01*
X134928359Y-73153080D01*
X134803175Y-73415901D01*
X134758524Y-73563110D01*
X121918085Y-73563110D01*
X121788013Y-73433038D01*
X121569359Y-73286939D01*
X121326405Y-73186304D01*
X121068486Y-73135000D01*
X120805514Y-73135000D01*
X120547595Y-73186304D01*
X120304641Y-73286939D01*
X120085987Y-73433038D01*
X119900038Y-73618987D01*
X119753939Y-73837641D01*
X119653304Y-74080595D01*
X119602000Y-74338514D01*
X117695000Y-74338514D01*
X117695000Y-70033992D01*
X117715088Y-69829117D01*
X118265000Y-69829117D01*
X118265000Y-70170883D01*
X118331675Y-70506081D01*
X118462463Y-70821831D01*
X118652337Y-71105998D01*
X118894002Y-71347663D01*
X119178169Y-71537537D01*
X119493919Y-71668325D01*
X119829117Y-71735000D01*
X120170883Y-71735000D01*
X120506081Y-71668325D01*
X120821831Y-71537537D01*
X121105998Y-71347663D01*
X121303661Y-71150000D01*
X124271928Y-71150000D01*
X124284188Y-71274482D01*
X124320498Y-71394180D01*
X124379463Y-71504494D01*
X124458815Y-71601185D01*
X124555506Y-71680537D01*
X124665820Y-71739502D01*
X124785518Y-71775812D01*
X124910000Y-71788072D01*
X125474250Y-71785000D01*
X125633000Y-71626250D01*
X125633000Y-70427000D01*
X124433750Y-70427000D01*
X124275000Y-70585750D01*
X124271928Y-71150000D01*
X121303661Y-71150000D01*
X121347663Y-71105998D01*
X121537537Y-70821831D01*
X121668325Y-70506081D01*
X121735000Y-70170883D01*
X121735000Y-69829117D01*
X121668325Y-69493919D01*
X121650134Y-69450000D01*
X124271928Y-69450000D01*
X124275000Y-70014250D01*
X124433750Y-70173000D01*
X125633000Y-70173000D01*
X125633000Y-68973750D01*
X125474250Y-68815000D01*
X124910000Y-68811928D01*
X124785518Y-68824188D01*
X124665820Y-68860498D01*
X124555506Y-68919463D01*
X124458815Y-68998815D01*
X124379463Y-69095506D01*
X124320498Y-69205820D01*
X124284188Y-69325518D01*
X124271928Y-69450000D01*
X121650134Y-69450000D01*
X121537537Y-69178169D01*
X121347663Y-68894002D01*
X121105998Y-68652337D01*
X120821831Y-68462463D01*
X120506081Y-68331675D01*
X120170883Y-68265000D01*
X119829117Y-68265000D01*
X119493919Y-68331675D01*
X119178169Y-68462463D01*
X118894002Y-68652337D01*
X118652337Y-68894002D01*
X118462463Y-69178169D01*
X118331675Y-69493919D01*
X118265000Y-69829117D01*
X117715088Y-69829117D01*
X117742168Y-69552937D01*
X117872003Y-69122903D01*
X118082892Y-68726276D01*
X118366801Y-68378169D01*
X118712923Y-68091831D01*
X119108068Y-67878178D01*
X119537184Y-67745344D01*
X120016176Y-67695000D01*
X129830198Y-67695000D01*
X128666408Y-68858791D01*
G37*
X128666408Y-68858791D02*
X128446260Y-68815000D01*
X128153740Y-68815000D01*
X127866842Y-68872068D01*
X127596589Y-68984010D01*
X127353368Y-69146525D01*
X127221513Y-69278380D01*
X127199502Y-69205820D01*
X127140537Y-69095506D01*
X127061185Y-68998815D01*
X126964494Y-68919463D01*
X126854180Y-68860498D01*
X126734482Y-68824188D01*
X126610000Y-68811928D01*
X126045750Y-68815000D01*
X125887000Y-68973750D01*
X125887000Y-70173000D01*
X125907000Y-70173000D01*
X125907000Y-70427000D01*
X125887000Y-70427000D01*
X125887000Y-71626250D01*
X126045750Y-71785000D01*
X126610000Y-71788072D01*
X126734482Y-71775812D01*
X126854180Y-71739502D01*
X126964494Y-71680537D01*
X127061185Y-71601185D01*
X127140537Y-71504494D01*
X127199502Y-71394180D01*
X127221513Y-71321620D01*
X127353368Y-71453475D01*
X127596589Y-71615990D01*
X127866842Y-71727932D01*
X128153740Y-71785000D01*
X128446260Y-71785000D01*
X128733158Y-71727932D01*
X129003411Y-71615990D01*
X129246632Y-71453475D01*
X129453475Y-71246632D01*
X129578178Y-71060000D01*
X130561928Y-71060000D01*
X130561928Y-71225001D01*
X130578992Y-71398255D01*
X130629528Y-71564851D01*
X130711595Y-71718387D01*
X130822038Y-71852962D01*
X130956613Y-71963405D01*
X131110149Y-72045472D01*
X131276745Y-72096008D01*
X131449999Y-72113072D01*
X132350001Y-72113072D01*
X132523255Y-72096008D01*
X132689851Y-72045472D01*
X132843387Y-71963405D01*
X132977962Y-71852962D01*
X133088405Y-71718387D01*
X133170472Y-71564851D01*
X133221008Y-71398255D01*
X133238072Y-71225001D01*
X133238072Y-70574999D01*
X133221008Y-70401745D01*
X133170472Y-70235149D01*
X133088405Y-70081613D01*
X132977962Y-69947038D01*
X132890184Y-69875000D01*
X132977962Y-69802962D01*
X133088405Y-69668387D01*
X133170472Y-69514851D01*
X133221008Y-69348255D01*
X133225866Y-69298935D01*
X133239811Y-69284990D01*
X134861928Y-69284990D01*
X134861928Y-70350000D01*
X134874188Y-70474482D01*
X134910498Y-70594180D01*
X134969463Y-70704494D01*
X135048815Y-70801185D01*
X135145506Y-70880537D01*
X135255820Y-70939502D01*
X135375518Y-70975812D01*
X135500000Y-70988072D01*
X136500000Y-70988072D01*
X136624482Y-70975812D01*
X136625000Y-70975655D01*
X136625518Y-70975812D01*
X136750000Y-70988072D01*
X136869064Y-70988072D01*
X136869065Y-72598367D01*
X136831252Y-72575843D01*
X136556891Y-72478519D01*
X136327000Y-72599186D01*
X136327000Y-73793000D01*
X136347000Y-73793000D01*
X136347000Y-74047000D01*
X136327000Y-74047000D01*
X136327000Y-74067000D01*
X136073000Y-74067000D01*
X136073000Y-74047000D01*
X134879845Y-74047000D01*
X134758524Y-74276890D01*
X134803175Y-74424099D01*
X134928359Y-74686920D01*
X135102412Y-74920269D01*
X135318645Y-75115178D01*
X135435534Y-75184805D01*
X135253368Y-75306525D01*
X135046525Y-75513368D01*
X134884010Y-75756589D01*
X134772068Y-76026842D01*
X134715000Y-76313740D01*
X134715000Y-76606260D01*
X134772068Y-76893158D01*
X134884010Y-77163411D01*
X135046525Y-77406632D01*
X135178380Y-77538487D01*
X135105820Y-77560498D01*
X134995506Y-77619463D01*
X134898815Y-77698815D01*
X134819463Y-77795506D01*
X134760498Y-77905820D01*
X134724188Y-78025518D01*
X134711928Y-78150000D01*
X134715000Y-78714250D01*
X134873750Y-78873000D01*
X136073000Y-78873000D01*
X136073000Y-78853000D01*
X136327000Y-78853000D01*
X136327000Y-78873000D01*
X136347000Y-78873000D01*
X136347000Y-79127000D01*
X136327000Y-79127000D01*
X136327000Y-80326250D01*
X136485750Y-80485000D01*
X137050000Y-80488072D01*
X137174482Y-80475812D01*
X137294180Y-80439502D01*
X137404494Y-80380537D01*
X137501185Y-80301185D01*
X137580537Y-80204494D01*
X137639502Y-80094180D01*
X137675812Y-79974482D01*
X137688072Y-79850000D01*
X137685000Y-79285750D01*
X137526252Y-79127002D01*
X137615423Y-79127002D01*
X138245001Y-79756580D01*
X138245000Y-81585000D01*
X136373469Y-81585000D01*
X136330000Y-81580719D01*
X136286531Y-81585000D01*
X133151927Y-81585000D01*
X133050560Y-81340279D01*
X132789550Y-80949651D01*
X132457349Y-80617450D01*
X132066721Y-80356440D01*
X131632679Y-80176654D01*
X131171902Y-80085000D01*
X130702098Y-80085000D01*
X130241321Y-80176654D01*
X129807279Y-80356440D01*
X129416651Y-80617450D01*
X129084450Y-80949651D01*
X128823440Y-81340279D01*
X128643654Y-81774321D01*
X128552000Y-82235098D01*
X128552000Y-82704902D01*
X128643654Y-83165679D01*
X128823440Y-83599721D01*
X129084450Y-83990349D01*
X129416651Y-84322550D01*
X129807279Y-84583560D01*
X130241321Y-84763346D01*
X130702098Y-84855000D01*
X131171902Y-84855000D01*
X131632679Y-84763346D01*
X132066721Y-84583560D01*
X132457349Y-84322550D01*
X132789550Y-83990349D01*
X133050560Y-83599721D01*
X133151927Y-83355000D01*
X134861928Y-83355000D01*
X134861928Y-83875001D01*
X134878992Y-84048255D01*
X134929528Y-84214851D01*
X135011595Y-84368387D01*
X135122038Y-84502962D01*
X135209816Y-84575000D01*
X135122038Y-84647038D01*
X135011595Y-84781613D01*
X134929528Y-84935149D01*
X134878992Y-85101745D01*
X134861928Y-85274999D01*
X134861928Y-85925001D01*
X134878992Y-86098255D01*
X134929528Y-86264851D01*
X135009929Y-86415270D01*
X134810219Y-86614980D01*
X127659193Y-86614980D01*
X127621868Y-86611304D01*
X127584543Y-86614980D01*
X127584535Y-86614980D01*
X127472882Y-86625977D01*
X127329621Y-86669434D01*
X127197592Y-86740006D01*
X127081867Y-86834979D01*
X127058069Y-86863977D01*
X126135119Y-87786928D01*
X125549999Y-87786928D01*
X125376745Y-87803992D01*
X125210149Y-87854528D01*
X125056613Y-87936595D01*
X124922038Y-88047038D01*
X124811595Y-88181613D01*
X124729528Y-88335149D01*
X124678992Y-88501745D01*
X124661928Y-88674999D01*
X124661928Y-89325001D01*
X124678992Y-89498255D01*
X124729528Y-89664851D01*
X124811595Y-89818387D01*
X124922038Y-89952962D01*
X124928594Y-89958342D01*
X124848815Y-90023815D01*
X124769463Y-90120506D01*
X124710498Y-90230820D01*
X124674188Y-90350518D01*
X124661928Y-90475000D01*
X124665000Y-90764250D01*
X124823750Y-90923000D01*
X125873000Y-90923000D01*
X125873000Y-90903000D01*
X126127000Y-90903000D01*
X126127000Y-90923000D01*
X126147000Y-90923000D01*
X126147000Y-91177000D01*
X126127000Y-91177000D01*
X126127000Y-92101250D01*
X126285750Y-92260000D01*
X126700000Y-92263072D01*
X126824482Y-92250812D01*
X126944180Y-92214502D01*
X127054494Y-92155537D01*
X127151185Y-92076185D01*
X127230537Y-91979494D01*
X127289502Y-91869180D01*
X127325812Y-91749482D01*
X127331349Y-91693258D01*
X127411595Y-91843387D01*
X127522038Y-91977962D01*
X127656613Y-92088405D01*
X127810149Y-92170472D01*
X127976745Y-92221008D01*
X128149999Y-92238072D01*
X128163271Y-92238072D01*
X128230199Y-92305000D01*
X120033991Y-92305000D01*
X119552937Y-92257832D01*
X119122903Y-92127997D01*
X118726277Y-91917108D01*
X118378168Y-91633197D01*
X118091830Y-91287074D01*
X117878177Y-90891931D01*
X117745344Y-90462817D01*
X117695000Y-89983824D01*
X117695000Y-89829117D01*
X118265000Y-89829117D01*
X118265000Y-90170883D01*
X118331675Y-90506081D01*
X118462463Y-90821831D01*
X118652337Y-91105998D01*
X118894002Y-91347663D01*
X119178169Y-91537537D01*
X119493919Y-91668325D01*
X119829117Y-91735000D01*
X120170883Y-91735000D01*
X120506081Y-91668325D01*
X120610676Y-91625000D01*
X124661928Y-91625000D01*
X124674188Y-91749482D01*
X124710498Y-91869180D01*
X124769463Y-91979494D01*
X124848815Y-92076185D01*
X124945506Y-92155537D01*
X125055820Y-92214502D01*
X125175518Y-92250812D01*
X125300000Y-92263072D01*
X125714250Y-92260000D01*
X125873000Y-92101250D01*
X125873000Y-91177000D01*
X124823750Y-91177000D01*
X124665000Y-91335750D01*
X124661928Y-91625000D01*
X120610676Y-91625000D01*
X120821831Y-91537537D01*
X121105998Y-91347663D01*
X121347663Y-91105998D01*
X121537537Y-90821831D01*
X121668325Y-90506081D01*
X121735000Y-90170883D01*
X121735000Y-89829117D01*
X121668325Y-89493919D01*
X121537537Y-89178169D01*
X121347663Y-88894002D01*
X121105998Y-88652337D01*
X120821831Y-88462463D01*
X120506081Y-88331675D01*
X120170883Y-88265000D01*
X119829117Y-88265000D01*
X119493919Y-88331675D01*
X119178169Y-88462463D01*
X118894002Y-88652337D01*
X118652337Y-88894002D01*
X118462463Y-89178169D01*
X118331675Y-89493919D01*
X118265000Y-89829117D01*
X117695000Y-89829117D01*
X117695000Y-85338514D01*
X119602000Y-85338514D01*
X119602000Y-85601486D01*
X119653304Y-85859405D01*
X119753939Y-86102359D01*
X119900038Y-86321013D01*
X120085987Y-86506962D01*
X120304641Y-86653061D01*
X120547595Y-86753696D01*
X120805514Y-86805000D01*
X121068486Y-86805000D01*
X121326405Y-86753696D01*
X121569359Y-86653061D01*
X121788013Y-86506962D01*
X121973962Y-86321013D01*
X122120061Y-86102359D01*
X122220696Y-85859405D01*
X122272000Y-85601486D01*
X122272000Y-85338514D01*
X122220696Y-85080595D01*
X122120061Y-84837641D01*
X121973962Y-84618987D01*
X121788013Y-84433038D01*
X121569359Y-84286939D01*
X121326405Y-84186304D01*
X121068486Y-84135000D01*
X120805514Y-84135000D01*
X120547595Y-84186304D01*
X120304641Y-84286939D01*
X120085987Y-84433038D01*
X119900038Y-84618987D01*
X119753939Y-84837641D01*
X119653304Y-85080595D01*
X119602000Y-85338514D01*
X117695000Y-85338514D01*
X117695000Y-79220000D01*
X128548928Y-79220000D01*
X128561188Y-79344482D01*
X128597498Y-79464180D01*
X128656463Y-79574494D01*
X128735815Y-79671185D01*
X128832506Y-79750537D01*
X128942820Y-79809502D01*
X129062518Y-79845812D01*
X129187000Y-79858072D01*
X130651250Y-79855000D01*
X130810000Y-79696250D01*
X130810000Y-77597000D01*
X131064000Y-77597000D01*
X131064000Y-79696250D01*
X131222750Y-79855000D01*
X132687000Y-79858072D01*
X132768959Y-79850000D01*
X134711928Y-79850000D01*
X134724188Y-79974482D01*
X134760498Y-80094180D01*
X134819463Y-80204494D01*
X134898815Y-80301185D01*
X134995506Y-80380537D01*
X135105820Y-80439502D01*
X135225518Y-80475812D01*
X135350000Y-80488072D01*
X135914250Y-80485000D01*
X136073000Y-80326250D01*
X136073000Y-79127000D01*
X134873750Y-79127000D01*
X134715000Y-79285750D01*
X134711928Y-79850000D01*
X132768959Y-79850000D01*
X132811482Y-79845812D01*
X132931180Y-79809502D01*
X133041494Y-79750537D01*
X133138185Y-79671185D01*
X133217537Y-79574494D01*
X133276502Y-79464180D01*
X133312812Y-79344482D01*
X133325072Y-79220000D01*
X133322000Y-77755750D01*
X133163250Y-77597000D01*
X131064000Y-77597000D01*
X130810000Y-77597000D01*
X128710750Y-77597000D01*
X128552000Y-77755750D01*
X128548928Y-79220000D01*
X117695000Y-79220000D01*
X117695000Y-74338514D01*
X119602000Y-74338514D01*
X119602000Y-74601486D01*
X119653304Y-74859405D01*
X119753939Y-75102359D01*
X119900038Y-75321013D01*
X120085987Y-75506962D01*
X120304641Y-75653061D01*
X120547595Y-75753696D01*
X120805514Y-75805000D01*
X121068486Y-75805000D01*
X121326405Y-75753696D01*
X121407754Y-75720000D01*
X128548928Y-75720000D01*
X128552000Y-77184250D01*
X128710750Y-77343000D01*
X130810000Y-77343000D01*
X130810000Y-75243750D01*
X131064000Y-75243750D01*
X131064000Y-77343000D01*
X133163250Y-77343000D01*
X133322000Y-77184250D01*
X133325072Y-75720000D01*
X133312812Y-75595518D01*
X133276502Y-75475820D01*
X133217537Y-75365506D01*
X133138185Y-75268815D01*
X133041494Y-75189463D01*
X132931180Y-75130498D01*
X132811482Y-75094188D01*
X132687000Y-75081928D01*
X131222750Y-75085000D01*
X131064000Y-75243750D01*
X130810000Y-75243750D01*
X130651250Y-75085000D01*
X129187000Y-75081928D01*
X129062518Y-75094188D01*
X128942820Y-75130498D01*
X128832506Y-75189463D01*
X128735815Y-75268815D01*
X128656463Y-75365506D01*
X128597498Y-75475820D01*
X128561188Y-75595518D01*
X128548928Y-75720000D01*
X121407754Y-75720000D01*
X121569359Y-75653061D01*
X121788013Y-75506962D01*
X121973962Y-75321013D01*
X122120061Y-75102359D01*
X122220696Y-74859405D01*
X122272000Y-74601486D01*
X122272000Y-74338514D01*
X122220696Y-74080595D01*
X122120061Y-73837641D01*
X121973962Y-73618987D01*
X121918085Y-73563110D01*
X134758524Y-73563110D01*
X134879845Y-73793000D01*
X136073000Y-73793000D01*
X136073000Y-72599186D01*
X135843109Y-72478519D01*
X135568748Y-72575843D01*
X135318645Y-72724822D01*
X135102412Y-72919731D01*
X134928359Y-73153080D01*
X134803175Y-73415901D01*
X134758524Y-73563110D01*
X121918085Y-73563110D01*
X121788013Y-73433038D01*
X121569359Y-73286939D01*
X121326405Y-73186304D01*
X121068486Y-73135000D01*
X120805514Y-73135000D01*
X120547595Y-73186304D01*
X120304641Y-73286939D01*
X120085987Y-73433038D01*
X119900038Y-73618987D01*
X119753939Y-73837641D01*
X119653304Y-74080595D01*
X119602000Y-74338514D01*
X117695000Y-74338514D01*
X117695000Y-70033992D01*
X117715088Y-69829117D01*
X118265000Y-69829117D01*
X118265000Y-70170883D01*
X118331675Y-70506081D01*
X118462463Y-70821831D01*
X118652337Y-71105998D01*
X118894002Y-71347663D01*
X119178169Y-71537537D01*
X119493919Y-71668325D01*
X119829117Y-71735000D01*
X120170883Y-71735000D01*
X120506081Y-71668325D01*
X120821831Y-71537537D01*
X121105998Y-71347663D01*
X121303661Y-71150000D01*
X124271928Y-71150000D01*
X124284188Y-71274482D01*
X124320498Y-71394180D01*
X124379463Y-71504494D01*
X124458815Y-71601185D01*
X124555506Y-71680537D01*
X124665820Y-71739502D01*
X124785518Y-71775812D01*
X124910000Y-71788072D01*
X125474250Y-71785000D01*
X125633000Y-71626250D01*
X125633000Y-70427000D01*
X124433750Y-70427000D01*
X124275000Y-70585750D01*
X124271928Y-71150000D01*
X121303661Y-71150000D01*
X121347663Y-71105998D01*
X121537537Y-70821831D01*
X121668325Y-70506081D01*
X121735000Y-70170883D01*
X121735000Y-69829117D01*
X121668325Y-69493919D01*
X121650134Y-69450000D01*
X124271928Y-69450000D01*
X124275000Y-70014250D01*
X124433750Y-70173000D01*
X125633000Y-70173000D01*
X125633000Y-68973750D01*
X125474250Y-68815000D01*
X124910000Y-68811928D01*
X124785518Y-68824188D01*
X124665820Y-68860498D01*
X124555506Y-68919463D01*
X124458815Y-68998815D01*
X124379463Y-69095506D01*
X124320498Y-69205820D01*
X124284188Y-69325518D01*
X124271928Y-69450000D01*
X121650134Y-69450000D01*
X121537537Y-69178169D01*
X121347663Y-68894002D01*
X121105998Y-68652337D01*
X120821831Y-68462463D01*
X120506081Y-68331675D01*
X120170883Y-68265000D01*
X119829117Y-68265000D01*
X119493919Y-68331675D01*
X119178169Y-68462463D01*
X118894002Y-68652337D01*
X118652337Y-68894002D01*
X118462463Y-69178169D01*
X118331675Y-69493919D01*
X118265000Y-69829117D01*
X117715088Y-69829117D01*
X117742168Y-69552937D01*
X117872003Y-69122903D01*
X118082892Y-68726276D01*
X118366801Y-68378169D01*
X118712923Y-68091831D01*
X119108068Y-67878178D01*
X119537184Y-67745344D01*
X120016176Y-67695000D01*
X129830198Y-67695000D01*
X128666408Y-68858791D01*
G36*
X170447063Y-67742168D02*
G01*
X170877097Y-67872003D01*
X171273724Y-68082892D01*
X171621831Y-68366801D01*
X171908169Y-68712923D01*
X172121822Y-69108068D01*
X172254656Y-69537184D01*
X172305001Y-70016186D01*
X172305000Y-89966009D01*
X172257832Y-90447063D01*
X172127997Y-90877097D01*
X171917108Y-91273723D01*
X171633197Y-91621832D01*
X171287074Y-91908170D01*
X170891931Y-92121823D01*
X170462817Y-92254656D01*
X169983824Y-92305000D01*
X149057991Y-92305000D01*
X149790804Y-91572187D01*
X149951745Y-91621008D01*
X150124999Y-91638072D01*
X150775001Y-91638072D01*
X150948255Y-91621008D01*
X151114851Y-91570472D01*
X151268387Y-91488405D01*
X151402962Y-91377962D01*
X151513405Y-91243387D01*
X151595472Y-91089851D01*
X151646008Y-90923255D01*
X151663072Y-90750001D01*
X151663072Y-89849999D01*
X151661016Y-89829117D01*
X168265000Y-89829117D01*
X168265000Y-90170883D01*
X168331675Y-90506081D01*
X168462463Y-90821831D01*
X168652337Y-91105998D01*
X168894002Y-91347663D01*
X169178169Y-91537537D01*
X169493919Y-91668325D01*
X169829117Y-91735000D01*
X170170883Y-91735000D01*
X170506081Y-91668325D01*
X170821831Y-91537537D01*
X171105998Y-91347663D01*
X171347663Y-91105998D01*
X171537537Y-90821831D01*
X171668325Y-90506081D01*
X171735000Y-90170883D01*
X171735000Y-89829117D01*
X171668325Y-89493919D01*
X171537537Y-89178169D01*
X171347663Y-88894002D01*
X171105998Y-88652337D01*
X170821831Y-88462463D01*
X170506081Y-88331675D01*
X170170883Y-88265000D01*
X169829117Y-88265000D01*
X169493919Y-88331675D01*
X169178169Y-88462463D01*
X168894002Y-88652337D01*
X168652337Y-88894002D01*
X168462463Y-89178169D01*
X168331675Y-89493919D01*
X168265000Y-89829117D01*
X151661016Y-89829117D01*
X151646008Y-89676745D01*
X151618178Y-89585000D01*
X157001531Y-89585000D01*
X157045000Y-89589281D01*
X157088469Y-89585000D01*
X157088477Y-89585000D01*
X157218490Y-89572195D01*
X157385313Y-89521589D01*
X157539059Y-89439411D01*
X157673817Y-89328817D01*
X157701534Y-89295044D01*
X161706040Y-85290539D01*
X161778740Y-85305000D01*
X162071260Y-85305000D01*
X162358158Y-85247932D01*
X162628411Y-85135990D01*
X162871632Y-84973475D01*
X163078475Y-84766632D01*
X163200195Y-84584466D01*
X163269822Y-84701355D01*
X163464731Y-84917588D01*
X163698080Y-85091641D01*
X163960901Y-85216825D01*
X164108110Y-85261476D01*
X164338000Y-85140155D01*
X164338000Y-83947000D01*
X164592000Y-83947000D01*
X164592000Y-85140155D01*
X164821890Y-85261476D01*
X164969099Y-85216825D01*
X165231920Y-85091641D01*
X165465269Y-84917588D01*
X165660178Y-84701355D01*
X165809157Y-84451252D01*
X165906481Y-84176891D01*
X165785814Y-83947000D01*
X164592000Y-83947000D01*
X164338000Y-83947000D01*
X164318000Y-83947000D01*
X164318000Y-83693000D01*
X164338000Y-83693000D01*
X164338000Y-81407000D01*
X164592000Y-81407000D01*
X164592000Y-83693000D01*
X165785814Y-83693000D01*
X165906481Y-83463109D01*
X165809157Y-83188748D01*
X165660178Y-82938645D01*
X165465269Y-82722412D01*
X165234120Y-82550000D01*
X165465269Y-82377588D01*
X165660178Y-82161355D01*
X165809157Y-81911252D01*
X165906481Y-81636891D01*
X165785814Y-81407000D01*
X164592000Y-81407000D01*
X164338000Y-81407000D01*
X164318000Y-81407000D01*
X164318000Y-81153000D01*
X164338000Y-81153000D01*
X164338000Y-78867000D01*
X164592000Y-78867000D01*
X164592000Y-81153000D01*
X165785814Y-81153000D01*
X165906481Y-80923109D01*
X165809157Y-80648748D01*
X165660178Y-80398645D01*
X165465269Y-80182412D01*
X165234120Y-80010000D01*
X165465269Y-79837588D01*
X165660178Y-79621355D01*
X165809157Y-79371252D01*
X165906481Y-79096891D01*
X165785814Y-78867000D01*
X164592000Y-78867000D01*
X164338000Y-78867000D01*
X164318000Y-78867000D01*
X164318000Y-78613000D01*
X164338000Y-78613000D01*
X164338000Y-76327000D01*
X164592000Y-76327000D01*
X164592000Y-78613000D01*
X165785814Y-78613000D01*
X165906481Y-78383109D01*
X165809157Y-78108748D01*
X165660178Y-77858645D01*
X165465269Y-77642412D01*
X165234120Y-77470000D01*
X165465269Y-77297588D01*
X165660178Y-77081355D01*
X165809157Y-76831252D01*
X165906481Y-76556891D01*
X165785814Y-76327000D01*
X164592000Y-76327000D01*
X164338000Y-76327000D01*
X164318000Y-76327000D01*
X164318000Y-76073000D01*
X164338000Y-76073000D01*
X164338000Y-74879845D01*
X164592000Y-74879845D01*
X164592000Y-76073000D01*
X165785814Y-76073000D01*
X165906481Y-75843109D01*
X165809157Y-75568748D01*
X165660178Y-75318645D01*
X165465269Y-75102412D01*
X165231920Y-74928359D01*
X164969099Y-74803175D01*
X164821890Y-74758524D01*
X164592000Y-74879845D01*
X164338000Y-74879845D01*
X164108110Y-74758524D01*
X163960901Y-74803175D01*
X163698080Y-74928359D01*
X163464731Y-75102412D01*
X163269822Y-75318645D01*
X163200195Y-75435534D01*
X163078475Y-75253368D01*
X162871632Y-75046525D01*
X162628411Y-74884010D01*
X162358158Y-74772068D01*
X162071260Y-74715000D01*
X161778740Y-74715000D01*
X161706040Y-74729461D01*
X160481534Y-73504956D01*
X160453817Y-73471183D01*
X160319059Y-73360589D01*
X160165313Y-73278411D01*
X159998490Y-73227805D01*
X159868477Y-73215000D01*
X159868469Y-73215000D01*
X159825000Y-73210719D01*
X159781531Y-73215000D01*
X158104545Y-73215000D01*
X158061079Y-73210719D01*
X158017613Y-73215000D01*
X158017603Y-73215000D01*
X157887590Y-73227805D01*
X157720767Y-73278411D01*
X157567021Y-73360589D01*
X157567019Y-73360590D01*
X157567020Y-73360590D01*
X157466033Y-73443468D01*
X157466031Y-73443470D01*
X157432263Y-73471183D01*
X157404550Y-73504951D01*
X155566723Y-75342779D01*
X155560192Y-75341480D01*
X155285008Y-75341480D01*
X155015110Y-75395166D01*
X154760873Y-75500475D01*
X154532065Y-75653360D01*
X154337480Y-75847945D01*
X154184595Y-76076753D01*
X154079286Y-76330990D01*
X154025600Y-76600888D01*
X154025600Y-76876072D01*
X154079286Y-77145970D01*
X154184595Y-77400207D01*
X154337480Y-77629015D01*
X154532065Y-77823600D01*
X154760873Y-77976485D01*
X154832543Y-78006172D01*
X154819577Y-78010844D01*
X154703620Y-78072824D01*
X154636640Y-78312915D01*
X155422600Y-79098875D01*
X156208560Y-78312915D01*
X156141580Y-78072824D01*
X156005840Y-78008995D01*
X156084327Y-77976485D01*
X156313135Y-77823600D01*
X156507720Y-77629015D01*
X156660605Y-77400207D01*
X156765914Y-77145970D01*
X156785003Y-77050000D01*
X157896928Y-77050000D01*
X157909188Y-77174482D01*
X157945498Y-77294180D01*
X158004463Y-77404494D01*
X158058222Y-77470000D01*
X158004463Y-77535506D01*
X157945498Y-77645820D01*
X157909188Y-77765518D01*
X157896928Y-77890000D01*
X157900000Y-78454250D01*
X158058750Y-78613000D01*
X159258000Y-78613000D01*
X159258000Y-76327000D01*
X158058750Y-76327000D01*
X157900000Y-76485750D01*
X157896928Y-77050000D01*
X156785003Y-77050000D01*
X156819600Y-76876072D01*
X156819600Y-76600888D01*
X156818301Y-76594357D01*
X157897825Y-75514833D01*
X157900000Y-75914250D01*
X158058750Y-76073000D01*
X159258000Y-76073000D01*
X159258000Y-76053000D01*
X159512000Y-76053000D01*
X159512000Y-76073000D01*
X159532000Y-76073000D01*
X159532000Y-76327000D01*
X159512000Y-76327000D01*
X159512000Y-78613000D01*
X159532000Y-78613000D01*
X159532000Y-78867000D01*
X159512000Y-78867000D01*
X159512000Y-81153000D01*
X159532000Y-81153000D01*
X159532000Y-81407000D01*
X159512000Y-81407000D01*
X159512000Y-83693000D01*
X159532000Y-83693000D01*
X159532000Y-83947000D01*
X159512000Y-83947000D01*
X159512000Y-83967000D01*
X159258000Y-83967000D01*
X159258000Y-83947000D01*
X158058750Y-83947000D01*
X157900000Y-84105750D01*
X157896928Y-84670000D01*
X157909188Y-84794482D01*
X157945498Y-84914180D01*
X158004463Y-85024494D01*
X158083815Y-85121185D01*
X158180506Y-85200537D01*
X158290820Y-85259502D01*
X158410518Y-85295812D01*
X158535000Y-85308072D01*
X159099250Y-85305000D01*
X159257998Y-85146252D01*
X159257998Y-85235423D01*
X156678422Y-87815000D01*
X156481735Y-87815000D01*
X156507720Y-87789015D01*
X156660605Y-87560207D01*
X156765914Y-87305970D01*
X156819600Y-87036072D01*
X156819600Y-86760888D01*
X156765914Y-86490990D01*
X156660605Y-86236753D01*
X156507720Y-86007945D01*
X156313135Y-85813360D01*
X156084327Y-85660475D01*
X156007085Y-85628480D01*
X156084327Y-85596485D01*
X156313135Y-85443600D01*
X156507720Y-85249015D01*
X156660605Y-85020207D01*
X156765914Y-84765970D01*
X156819600Y-84496072D01*
X156819600Y-84220888D01*
X156788972Y-84066910D01*
X157611004Y-83244878D01*
X157640001Y-83221081D01*
X157734974Y-83105356D01*
X157805546Y-82973327D01*
X157849003Y-82830066D01*
X157860000Y-82718413D01*
X157860000Y-82718403D01*
X157863676Y-82681080D01*
X157860000Y-82643757D01*
X157860000Y-82130000D01*
X157896928Y-82130000D01*
X157909188Y-82254482D01*
X157945498Y-82374180D01*
X158004463Y-82484494D01*
X158058222Y-82550000D01*
X158004463Y-82615506D01*
X157945498Y-82725820D01*
X157909188Y-82845518D01*
X157896928Y-82970000D01*
X157900000Y-83534250D01*
X158058750Y-83693000D01*
X159258000Y-83693000D01*
X159258000Y-81407000D01*
X158058750Y-81407000D01*
X157900000Y-81565750D01*
X157896928Y-82130000D01*
X157860000Y-82130000D01*
X157860000Y-81337322D01*
X157863676Y-81299999D01*
X157860000Y-81262676D01*
X157860000Y-81262667D01*
X157849003Y-81151014D01*
X157805546Y-81007753D01*
X157798328Y-80994250D01*
X157734974Y-80875723D01*
X157663799Y-80788997D01*
X157640001Y-80759999D01*
X157611002Y-80736200D01*
X157095282Y-80220481D01*
X157071480Y-80191478D01*
X156955755Y-80096505D01*
X156823726Y-80025933D01*
X156680465Y-79982476D01*
X156637301Y-79978225D01*
X156745356Y-79748432D01*
X156784664Y-79590000D01*
X157896928Y-79590000D01*
X157909188Y-79714482D01*
X157945498Y-79834180D01*
X158004463Y-79944494D01*
X158058222Y-80010000D01*
X158004463Y-80075506D01*
X157945498Y-80185820D01*
X157909188Y-80305518D01*
X157896928Y-80430000D01*
X157900000Y-80994250D01*
X158058750Y-81153000D01*
X159258000Y-81153000D01*
X159258000Y-78867000D01*
X158058750Y-78867000D01*
X157900000Y-79025750D01*
X157896928Y-79590000D01*
X156784664Y-79590000D01*
X156811623Y-79481345D01*
X156824510Y-79206463D01*
X156783522Y-78934347D01*
X156690236Y-78675457D01*
X156628256Y-78559500D01*
X156388165Y-78492520D01*
X155602205Y-79278480D01*
X155616348Y-79292623D01*
X155436743Y-79472228D01*
X155422600Y-79458085D01*
X155408458Y-79472228D01*
X155228853Y-79292623D01*
X155242995Y-79278480D01*
X154457035Y-78492520D01*
X154216944Y-78559500D01*
X154099844Y-78808528D01*
X154033577Y-79075615D01*
X154020690Y-79350497D01*
X154061678Y-79622613D01*
X154154964Y-79881503D01*
X154203057Y-79971479D01*
X152246281Y-79971479D01*
X145042249Y-72767447D01*
X152517600Y-72767447D01*
X152517600Y-73089513D01*
X152580432Y-73405392D01*
X152703682Y-73702943D01*
X152882613Y-73970732D01*
X153110348Y-74198467D01*
X153378137Y-74377398D01*
X153675688Y-74500648D01*
X153991567Y-74563480D01*
X154313633Y-74563480D01*
X154629512Y-74500648D01*
X154927063Y-74377398D01*
X155194852Y-74198467D01*
X155422587Y-73970732D01*
X155601518Y-73702943D01*
X155724768Y-73405392D01*
X155787600Y-73089513D01*
X155787600Y-72767447D01*
X155724768Y-72451568D01*
X155601518Y-72154017D01*
X155422587Y-71886228D01*
X155194852Y-71658493D01*
X154927063Y-71479562D01*
X154629512Y-71356312D01*
X154313633Y-71293480D01*
X153991567Y-71293480D01*
X153675688Y-71356312D01*
X153378137Y-71479562D01*
X153110348Y-71658493D01*
X152882613Y-71886228D01*
X152703682Y-72154017D01*
X152580432Y-72451568D01*
X152517600Y-72767447D01*
X145042249Y-72767447D01*
X142103919Y-69829117D01*
X168265000Y-69829117D01*
X168265000Y-70170883D01*
X168331675Y-70506081D01*
X168462463Y-70821831D01*
X168652337Y-71105998D01*
X168894002Y-71347663D01*
X169178169Y-71537537D01*
X169493919Y-71668325D01*
X169829117Y-71735000D01*
X170170883Y-71735000D01*
X170506081Y-71668325D01*
X170821831Y-71537537D01*
X171105998Y-71347663D01*
X171347663Y-71105998D01*
X171537537Y-70821831D01*
X171668325Y-70506081D01*
X171735000Y-70170883D01*
X171735000Y-69829117D01*
X171668325Y-69493919D01*
X171537537Y-69178169D01*
X171347663Y-68894002D01*
X171105998Y-68652337D01*
X170821831Y-68462463D01*
X170506081Y-68331675D01*
X170170883Y-68265000D01*
X169829117Y-68265000D01*
X169493919Y-68331675D01*
X169178169Y-68462463D01*
X168894002Y-68652337D01*
X168652337Y-68894002D01*
X168462463Y-69178169D01*
X168331675Y-69493919D01*
X168265000Y-69829117D01*
X142103919Y-69829117D01*
X139969801Y-67695000D01*
X169966008Y-67695000D01*
X170447063Y-67742168D01*
G37*
X170447063Y-67742168D02*
X170877097Y-67872003D01*
X171273724Y-68082892D01*
X171621831Y-68366801D01*
X171908169Y-68712923D01*
X172121822Y-69108068D01*
X172254656Y-69537184D01*
X172305001Y-70016186D01*
X172305000Y-89966009D01*
X172257832Y-90447063D01*
X172127997Y-90877097D01*
X171917108Y-91273723D01*
X171633197Y-91621832D01*
X171287074Y-91908170D01*
X170891931Y-92121823D01*
X170462817Y-92254656D01*
X169983824Y-92305000D01*
X149057991Y-92305000D01*
X149790804Y-91572187D01*
X149951745Y-91621008D01*
X150124999Y-91638072D01*
X150775001Y-91638072D01*
X150948255Y-91621008D01*
X151114851Y-91570472D01*
X151268387Y-91488405D01*
X151402962Y-91377962D01*
X151513405Y-91243387D01*
X151595472Y-91089851D01*
X151646008Y-90923255D01*
X151663072Y-90750001D01*
X151663072Y-89849999D01*
X151661016Y-89829117D01*
X168265000Y-89829117D01*
X168265000Y-90170883D01*
X168331675Y-90506081D01*
X168462463Y-90821831D01*
X168652337Y-91105998D01*
X168894002Y-91347663D01*
X169178169Y-91537537D01*
X169493919Y-91668325D01*
X169829117Y-91735000D01*
X170170883Y-91735000D01*
X170506081Y-91668325D01*
X170821831Y-91537537D01*
X171105998Y-91347663D01*
X171347663Y-91105998D01*
X171537537Y-90821831D01*
X171668325Y-90506081D01*
X171735000Y-90170883D01*
X171735000Y-89829117D01*
X171668325Y-89493919D01*
X171537537Y-89178169D01*
X171347663Y-88894002D01*
X171105998Y-88652337D01*
X170821831Y-88462463D01*
X170506081Y-88331675D01*
X170170883Y-88265000D01*
X169829117Y-88265000D01*
X169493919Y-88331675D01*
X169178169Y-88462463D01*
X168894002Y-88652337D01*
X168652337Y-88894002D01*
X168462463Y-89178169D01*
X168331675Y-89493919D01*
X168265000Y-89829117D01*
X151661016Y-89829117D01*
X151646008Y-89676745D01*
X151618178Y-89585000D01*
X157001531Y-89585000D01*
X157045000Y-89589281D01*
X157088469Y-89585000D01*
X157088477Y-89585000D01*
X157218490Y-89572195D01*
X157385313Y-89521589D01*
X157539059Y-89439411D01*
X157673817Y-89328817D01*
X157701534Y-89295044D01*
X161706040Y-85290539D01*
X161778740Y-85305000D01*
X162071260Y-85305000D01*
X162358158Y-85247932D01*
X162628411Y-85135990D01*
X162871632Y-84973475D01*
X163078475Y-84766632D01*
X163200195Y-84584466D01*
X163269822Y-84701355D01*
X163464731Y-84917588D01*
X163698080Y-85091641D01*
X163960901Y-85216825D01*
X164108110Y-85261476D01*
X164338000Y-85140155D01*
X164338000Y-83947000D01*
X164592000Y-83947000D01*
X164592000Y-85140155D01*
X164821890Y-85261476D01*
X164969099Y-85216825D01*
X165231920Y-85091641D01*
X165465269Y-84917588D01*
X165660178Y-84701355D01*
X165809157Y-84451252D01*
X165906481Y-84176891D01*
X165785814Y-83947000D01*
X164592000Y-83947000D01*
X164338000Y-83947000D01*
X164318000Y-83947000D01*
X164318000Y-83693000D01*
X164338000Y-83693000D01*
X164338000Y-81407000D01*
X164592000Y-81407000D01*
X164592000Y-83693000D01*
X165785814Y-83693000D01*
X165906481Y-83463109D01*
X165809157Y-83188748D01*
X165660178Y-82938645D01*
X165465269Y-82722412D01*
X165234120Y-82550000D01*
X165465269Y-82377588D01*
X165660178Y-82161355D01*
X165809157Y-81911252D01*
X165906481Y-81636891D01*
X165785814Y-81407000D01*
X164592000Y-81407000D01*
X164338000Y-81407000D01*
X164318000Y-81407000D01*
X164318000Y-81153000D01*
X164338000Y-81153000D01*
X164338000Y-78867000D01*
X164592000Y-78867000D01*
X164592000Y-81153000D01*
X165785814Y-81153000D01*
X165906481Y-80923109D01*
X165809157Y-80648748D01*
X165660178Y-80398645D01*
X165465269Y-80182412D01*
X165234120Y-80010000D01*
X165465269Y-79837588D01*
X165660178Y-79621355D01*
X165809157Y-79371252D01*
X165906481Y-79096891D01*
X165785814Y-78867000D01*
X164592000Y-78867000D01*
X164338000Y-78867000D01*
X164318000Y-78867000D01*
X164318000Y-78613000D01*
X164338000Y-78613000D01*
X164338000Y-76327000D01*
X164592000Y-76327000D01*
X164592000Y-78613000D01*
X165785814Y-78613000D01*
X165906481Y-78383109D01*
X165809157Y-78108748D01*
X165660178Y-77858645D01*
X165465269Y-77642412D01*
X165234120Y-77470000D01*
X165465269Y-77297588D01*
X165660178Y-77081355D01*
X165809157Y-76831252D01*
X165906481Y-76556891D01*
X165785814Y-76327000D01*
X164592000Y-76327000D01*
X164338000Y-76327000D01*
X164318000Y-76327000D01*
X164318000Y-76073000D01*
X164338000Y-76073000D01*
X164338000Y-74879845D01*
X164592000Y-74879845D01*
X164592000Y-76073000D01*
X165785814Y-76073000D01*
X165906481Y-75843109D01*
X165809157Y-75568748D01*
X165660178Y-75318645D01*
X165465269Y-75102412D01*
X165231920Y-74928359D01*
X164969099Y-74803175D01*
X164821890Y-74758524D01*
X164592000Y-74879845D01*
X164338000Y-74879845D01*
X164108110Y-74758524D01*
X163960901Y-74803175D01*
X163698080Y-74928359D01*
X163464731Y-75102412D01*
X163269822Y-75318645D01*
X163200195Y-75435534D01*
X163078475Y-75253368D01*
X162871632Y-75046525D01*
X162628411Y-74884010D01*
X162358158Y-74772068D01*
X162071260Y-74715000D01*
X161778740Y-74715000D01*
X161706040Y-74729461D01*
X160481534Y-73504956D01*
X160453817Y-73471183D01*
X160319059Y-73360589D01*
X160165313Y-73278411D01*
X159998490Y-73227805D01*
X159868477Y-73215000D01*
X159868469Y-73215000D01*
X159825000Y-73210719D01*
X159781531Y-73215000D01*
X158104545Y-73215000D01*
X158061079Y-73210719D01*
X158017613Y-73215000D01*
X158017603Y-73215000D01*
X157887590Y-73227805D01*
X157720767Y-73278411D01*
X157567021Y-73360589D01*
X157567019Y-73360590D01*
X157567020Y-73360590D01*
X157466033Y-73443468D01*
X157466031Y-73443470D01*
X157432263Y-73471183D01*
X157404550Y-73504951D01*
X155566723Y-75342779D01*
X155560192Y-75341480D01*
X155285008Y-75341480D01*
X155015110Y-75395166D01*
X154760873Y-75500475D01*
X154532065Y-75653360D01*
X154337480Y-75847945D01*
X154184595Y-76076753D01*
X154079286Y-76330990D01*
X154025600Y-76600888D01*
X154025600Y-76876072D01*
X154079286Y-77145970D01*
X154184595Y-77400207D01*
X154337480Y-77629015D01*
X154532065Y-77823600D01*
X154760873Y-77976485D01*
X154832543Y-78006172D01*
X154819577Y-78010844D01*
X154703620Y-78072824D01*
X154636640Y-78312915D01*
X155422600Y-79098875D01*
X156208560Y-78312915D01*
X156141580Y-78072824D01*
X156005840Y-78008995D01*
X156084327Y-77976485D01*
X156313135Y-77823600D01*
X156507720Y-77629015D01*
X156660605Y-77400207D01*
X156765914Y-77145970D01*
X156785003Y-77050000D01*
X157896928Y-77050000D01*
X157909188Y-77174482D01*
X157945498Y-77294180D01*
X158004463Y-77404494D01*
X158058222Y-77470000D01*
X158004463Y-77535506D01*
X157945498Y-77645820D01*
X157909188Y-77765518D01*
X157896928Y-77890000D01*
X157900000Y-78454250D01*
X158058750Y-78613000D01*
X159258000Y-78613000D01*
X159258000Y-76327000D01*
X158058750Y-76327000D01*
X157900000Y-76485750D01*
X157896928Y-77050000D01*
X156785003Y-77050000D01*
X156819600Y-76876072D01*
X156819600Y-76600888D01*
X156818301Y-76594357D01*
X157897825Y-75514833D01*
X157900000Y-75914250D01*
X158058750Y-76073000D01*
X159258000Y-76073000D01*
X159258000Y-76053000D01*
X159512000Y-76053000D01*
X159512000Y-76073000D01*
X159532000Y-76073000D01*
X159532000Y-76327000D01*
X159512000Y-76327000D01*
X159512000Y-78613000D01*
X159532000Y-78613000D01*
X159532000Y-78867000D01*
X159512000Y-78867000D01*
X159512000Y-81153000D01*
X159532000Y-81153000D01*
X159532000Y-81407000D01*
X159512000Y-81407000D01*
X159512000Y-83693000D01*
X159532000Y-83693000D01*
X159532000Y-83947000D01*
X159512000Y-83947000D01*
X159512000Y-83967000D01*
X159258000Y-83967000D01*
X159258000Y-83947000D01*
X158058750Y-83947000D01*
X157900000Y-84105750D01*
X157896928Y-84670000D01*
X157909188Y-84794482D01*
X157945498Y-84914180D01*
X158004463Y-85024494D01*
X158083815Y-85121185D01*
X158180506Y-85200537D01*
X158290820Y-85259502D01*
X158410518Y-85295812D01*
X158535000Y-85308072D01*
X159099250Y-85305000D01*
X159257998Y-85146252D01*
X159257998Y-85235423D01*
X156678422Y-87815000D01*
X156481735Y-87815000D01*
X156507720Y-87789015D01*
X156660605Y-87560207D01*
X156765914Y-87305970D01*
X156819600Y-87036072D01*
X156819600Y-86760888D01*
X156765914Y-86490990D01*
X156660605Y-86236753D01*
X156507720Y-86007945D01*
X156313135Y-85813360D01*
X156084327Y-85660475D01*
X156007085Y-85628480D01*
X156084327Y-85596485D01*
X156313135Y-85443600D01*
X156507720Y-85249015D01*
X156660605Y-85020207D01*
X156765914Y-84765970D01*
X156819600Y-84496072D01*
X156819600Y-84220888D01*
X156788972Y-84066910D01*
X157611004Y-83244878D01*
X157640001Y-83221081D01*
X157734974Y-83105356D01*
X157805546Y-82973327D01*
X157849003Y-82830066D01*
X157860000Y-82718413D01*
X157860000Y-82718403D01*
X157863676Y-82681080D01*
X157860000Y-82643757D01*
X157860000Y-82130000D01*
X157896928Y-82130000D01*
X157909188Y-82254482D01*
X157945498Y-82374180D01*
X158004463Y-82484494D01*
X158058222Y-82550000D01*
X158004463Y-82615506D01*
X157945498Y-82725820D01*
X157909188Y-82845518D01*
X157896928Y-82970000D01*
X157900000Y-83534250D01*
X158058750Y-83693000D01*
X159258000Y-83693000D01*
X159258000Y-81407000D01*
X158058750Y-81407000D01*
X157900000Y-81565750D01*
X157896928Y-82130000D01*
X157860000Y-82130000D01*
X157860000Y-81337322D01*
X157863676Y-81299999D01*
X157860000Y-81262676D01*
X157860000Y-81262667D01*
X157849003Y-81151014D01*
X157805546Y-81007753D01*
X157798328Y-80994250D01*
X157734974Y-80875723D01*
X157663799Y-80788997D01*
X157640001Y-80759999D01*
X157611002Y-80736200D01*
X157095282Y-80220481D01*
X157071480Y-80191478D01*
X156955755Y-80096505D01*
X156823726Y-80025933D01*
X156680465Y-79982476D01*
X156637301Y-79978225D01*
X156745356Y-79748432D01*
X156784664Y-79590000D01*
X157896928Y-79590000D01*
X157909188Y-79714482D01*
X157945498Y-79834180D01*
X158004463Y-79944494D01*
X158058222Y-80010000D01*
X158004463Y-80075506D01*
X157945498Y-80185820D01*
X157909188Y-80305518D01*
X157896928Y-80430000D01*
X157900000Y-80994250D01*
X158058750Y-81153000D01*
X159258000Y-81153000D01*
X159258000Y-78867000D01*
X158058750Y-78867000D01*
X157900000Y-79025750D01*
X157896928Y-79590000D01*
X156784664Y-79590000D01*
X156811623Y-79481345D01*
X156824510Y-79206463D01*
X156783522Y-78934347D01*
X156690236Y-78675457D01*
X156628256Y-78559500D01*
X156388165Y-78492520D01*
X155602205Y-79278480D01*
X155616348Y-79292623D01*
X155436743Y-79472228D01*
X155422600Y-79458085D01*
X155408458Y-79472228D01*
X155228853Y-79292623D01*
X155242995Y-79278480D01*
X154457035Y-78492520D01*
X154216944Y-78559500D01*
X154099844Y-78808528D01*
X154033577Y-79075615D01*
X154020690Y-79350497D01*
X154061678Y-79622613D01*
X154154964Y-79881503D01*
X154203057Y-79971479D01*
X152246281Y-79971479D01*
X145042249Y-72767447D01*
X152517600Y-72767447D01*
X152517600Y-73089513D01*
X152580432Y-73405392D01*
X152703682Y-73702943D01*
X152882613Y-73970732D01*
X153110348Y-74198467D01*
X153378137Y-74377398D01*
X153675688Y-74500648D01*
X153991567Y-74563480D01*
X154313633Y-74563480D01*
X154629512Y-74500648D01*
X154927063Y-74377398D01*
X155194852Y-74198467D01*
X155422587Y-73970732D01*
X155601518Y-73702943D01*
X155724768Y-73405392D01*
X155787600Y-73089513D01*
X155787600Y-72767447D01*
X155724768Y-72451568D01*
X155601518Y-72154017D01*
X155422587Y-71886228D01*
X155194852Y-71658493D01*
X154927063Y-71479562D01*
X154629512Y-71356312D01*
X154313633Y-71293480D01*
X153991567Y-71293480D01*
X153675688Y-71356312D01*
X153378137Y-71479562D01*
X153110348Y-71658493D01*
X152882613Y-71886228D01*
X152703682Y-72154017D01*
X152580432Y-72451568D01*
X152517600Y-72767447D01*
X145042249Y-72767447D01*
X142103919Y-69829117D01*
X168265000Y-69829117D01*
X168265000Y-70170883D01*
X168331675Y-70506081D01*
X168462463Y-70821831D01*
X168652337Y-71105998D01*
X168894002Y-71347663D01*
X169178169Y-71537537D01*
X169493919Y-71668325D01*
X169829117Y-71735000D01*
X170170883Y-71735000D01*
X170506081Y-71668325D01*
X170821831Y-71537537D01*
X171105998Y-71347663D01*
X171347663Y-71105998D01*
X171537537Y-70821831D01*
X171668325Y-70506081D01*
X171735000Y-70170883D01*
X171735000Y-69829117D01*
X171668325Y-69493919D01*
X171537537Y-69178169D01*
X171347663Y-68894002D01*
X171105998Y-68652337D01*
X170821831Y-68462463D01*
X170506081Y-68331675D01*
X170170883Y-68265000D01*
X169829117Y-68265000D01*
X169493919Y-68331675D01*
X169178169Y-68462463D01*
X168894002Y-68652337D01*
X168652337Y-68894002D01*
X168462463Y-69178169D01*
X168331675Y-69493919D01*
X168265000Y-69829117D01*
X142103919Y-69829117D01*
X139969801Y-67695000D01*
X169966008Y-67695000D01*
X170447063Y-67742168D01*
G36*
X127329528Y-89639851D02*
G01*
X127411595Y-89793387D01*
X127522038Y-89927962D01*
X127609816Y-90000000D01*
X127522038Y-90072038D01*
X127411595Y-90206613D01*
X127329528Y-90360149D01*
X127327439Y-90367036D01*
X127325812Y-90350518D01*
X127289502Y-90230820D01*
X127230537Y-90120506D01*
X127151185Y-90023815D01*
X127071406Y-89958342D01*
X127077962Y-89952962D01*
X127188405Y-89818387D01*
X127270472Y-89664851D01*
X127303792Y-89555010D01*
X127329528Y-89639851D01*
G37*
X127329528Y-89639851D02*
X127411595Y-89793387D01*
X127522038Y-89927962D01*
X127609816Y-90000000D01*
X127522038Y-90072038D01*
X127411595Y-90206613D01*
X127329528Y-90360149D01*
X127327439Y-90367036D01*
X127325812Y-90350518D01*
X127289502Y-90230820D01*
X127230537Y-90120506D01*
X127151185Y-90023815D01*
X127071406Y-89958342D01*
X127077962Y-89952962D01*
X127188405Y-89818387D01*
X127270472Y-89664851D01*
X127303792Y-89555010D01*
X127329528Y-89639851D01*
G36*
X139130000Y-83359282D02*
G01*
X139173476Y-83355000D01*
X154450425Y-83355000D01*
X154337480Y-83467945D01*
X154184595Y-83696753D01*
X154079286Y-83950990D01*
X154025600Y-84220888D01*
X154025600Y-84496072D01*
X154079286Y-84765970D01*
X154184595Y-85020207D01*
X154337480Y-85249015D01*
X154532065Y-85443600D01*
X154760873Y-85596485D01*
X154838115Y-85628480D01*
X154760873Y-85660475D01*
X154532065Y-85813360D01*
X154337480Y-86007945D01*
X154250259Y-86138480D01*
X151310690Y-86138480D01*
X151273367Y-86134804D01*
X151236044Y-86138480D01*
X151236035Y-86138480D01*
X151124382Y-86149477D01*
X150981121Y-86192934D01*
X150849092Y-86263506D01*
X150849090Y-86263507D01*
X150849091Y-86263507D01*
X150762364Y-86334681D01*
X150762360Y-86334685D01*
X150733367Y-86358479D01*
X150709573Y-86387472D01*
X149057047Y-88040000D01*
X145469473Y-88040000D01*
X145518560Y-87864045D01*
X144732600Y-87078085D01*
X143946640Y-87864045D01*
X143995727Y-88040000D01*
X143412323Y-88040000D01*
X143375000Y-88036324D01*
X143337677Y-88040000D01*
X143337667Y-88040000D01*
X143226014Y-88050997D01*
X143082753Y-88094454D01*
X142950724Y-88165026D01*
X142834999Y-88259999D01*
X142811201Y-88288998D01*
X142126064Y-88974134D01*
X142076745Y-88978992D01*
X141910149Y-89029528D01*
X141756613Y-89111595D01*
X141622038Y-89222038D01*
X141511595Y-89356613D01*
X141429528Y-89510149D01*
X141420473Y-89540000D01*
X139737322Y-89540000D01*
X139699999Y-89536324D01*
X139662676Y-89540000D01*
X139662667Y-89540000D01*
X139551014Y-89550997D01*
X139407753Y-89594454D01*
X139275724Y-89665026D01*
X139275722Y-89665027D01*
X139275723Y-89665027D01*
X139188996Y-89736201D01*
X139188992Y-89736205D01*
X139159999Y-89759999D01*
X139136205Y-89788993D01*
X138835198Y-90090000D01*
X138176018Y-90090000D01*
X138101185Y-89998815D01*
X138004494Y-89919463D01*
X137968082Y-89900000D01*
X138004494Y-89880537D01*
X138101185Y-89801185D01*
X138180537Y-89704494D01*
X138239502Y-89594180D01*
X138275812Y-89474482D01*
X138288072Y-89350000D01*
X138285000Y-89235750D01*
X138126250Y-89077000D01*
X136827000Y-89077000D01*
X136827000Y-89097000D01*
X136573000Y-89097000D01*
X136573000Y-89077000D01*
X135273750Y-89077000D01*
X135189143Y-89161607D01*
X135180537Y-89145506D01*
X135101185Y-89048815D01*
X135004494Y-88969463D01*
X134894180Y-88910498D01*
X134774482Y-88874188D01*
X134650000Y-88861928D01*
X132750000Y-88861928D01*
X132625518Y-88874188D01*
X132505820Y-88910498D01*
X132395506Y-88969463D01*
X132298815Y-89048815D01*
X132223982Y-89140000D01*
X131614802Y-89140000D01*
X130938803Y-88464002D01*
X130915001Y-88434999D01*
X130799276Y-88340026D01*
X130667247Y-88269454D01*
X130523986Y-88225997D01*
X130412333Y-88215000D01*
X130412322Y-88215000D01*
X130375000Y-88211324D01*
X130337678Y-88215000D01*
X129819614Y-88215000D01*
X129788405Y-88156613D01*
X129770651Y-88134980D01*
X135087698Y-88134980D01*
X135125020Y-88138656D01*
X135162342Y-88134980D01*
X135162353Y-88134980D01*
X135274006Y-88123983D01*
X135279537Y-88122305D01*
X135219463Y-88195506D01*
X135160498Y-88305820D01*
X135124188Y-88425518D01*
X135111928Y-88550000D01*
X135115000Y-88664250D01*
X135273750Y-88823000D01*
X136573000Y-88823000D01*
X136573000Y-88073750D01*
X136827000Y-88073750D01*
X136827000Y-88823000D01*
X138126250Y-88823000D01*
X138285000Y-88664250D01*
X138288072Y-88550000D01*
X138275812Y-88425518D01*
X138239502Y-88305820D01*
X138180537Y-88195506D01*
X138101185Y-88098815D01*
X138004494Y-88019463D01*
X137894180Y-87960498D01*
X137774482Y-87924188D01*
X137650000Y-87911928D01*
X136985750Y-87915000D01*
X136827000Y-88073750D01*
X136573000Y-88073750D01*
X136414250Y-87915000D01*
X135750000Y-87911928D01*
X135657659Y-87921022D01*
X135665021Y-87914981D01*
X135688824Y-87885978D01*
X136711004Y-86863798D01*
X136740001Y-86840001D01*
X136771959Y-86801060D01*
X136823255Y-86796008D01*
X136989851Y-86745472D01*
X137143387Y-86663405D01*
X137277962Y-86552962D01*
X137388405Y-86418387D01*
X137470472Y-86264851D01*
X137521008Y-86098255D01*
X137538072Y-85925001D01*
X137538072Y-85707447D01*
X139557600Y-85707447D01*
X139557600Y-86029513D01*
X139620432Y-86345392D01*
X139743682Y-86642943D01*
X139922613Y-86910732D01*
X140150348Y-87138467D01*
X140418137Y-87317398D01*
X140715688Y-87440648D01*
X141031567Y-87503480D01*
X141353633Y-87503480D01*
X141669512Y-87440648D01*
X141967063Y-87317398D01*
X142234852Y-87138467D01*
X142402822Y-86970497D01*
X143330690Y-86970497D01*
X143371678Y-87242613D01*
X143464964Y-87501503D01*
X143526944Y-87617460D01*
X143767035Y-87684440D01*
X144552995Y-86898480D01*
X144912205Y-86898480D01*
X145698165Y-87684440D01*
X145938256Y-87617460D01*
X146055356Y-87368432D01*
X146121623Y-87101345D01*
X146134510Y-86826463D01*
X146093522Y-86554347D01*
X146000236Y-86295457D01*
X145938256Y-86179500D01*
X145698165Y-86112520D01*
X144912205Y-86898480D01*
X144552995Y-86898480D01*
X143767035Y-86112520D01*
X143526944Y-86179500D01*
X143409844Y-86428528D01*
X143343577Y-86695615D01*
X143330690Y-86970497D01*
X142402822Y-86970497D01*
X142462587Y-86910732D01*
X142641518Y-86642943D01*
X142764768Y-86345392D01*
X142827600Y-86029513D01*
X142827600Y-85932915D01*
X143946640Y-85932915D01*
X144732600Y-86718875D01*
X145518560Y-85932915D01*
X145451580Y-85692824D01*
X145202552Y-85575724D01*
X144935465Y-85509457D01*
X144660583Y-85496570D01*
X144388467Y-85537558D01*
X144129577Y-85630844D01*
X144013620Y-85692824D01*
X143946640Y-85932915D01*
X142827600Y-85932915D01*
X142827600Y-85707447D01*
X142764768Y-85391568D01*
X142641518Y-85094017D01*
X142462587Y-84826228D01*
X142234852Y-84598493D01*
X141967063Y-84419562D01*
X141669512Y-84296312D01*
X141353633Y-84233480D01*
X141031567Y-84233480D01*
X140715688Y-84296312D01*
X140418137Y-84419562D01*
X140150348Y-84598493D01*
X139922613Y-84826228D01*
X139743682Y-85094017D01*
X139620432Y-85391568D01*
X139557600Y-85707447D01*
X137538072Y-85707447D01*
X137538072Y-85274999D01*
X137521008Y-85101745D01*
X137470472Y-84935149D01*
X137388405Y-84781613D01*
X137277962Y-84647038D01*
X137190184Y-84575000D01*
X137277962Y-84502962D01*
X137388405Y-84368387D01*
X137470472Y-84214851D01*
X137521008Y-84048255D01*
X137538072Y-83875001D01*
X137538072Y-83355000D01*
X139086523Y-83355000D01*
X139130000Y-83359282D01*
G37*
X139130000Y-83359282D02*
X139173476Y-83355000D01*
X154450425Y-83355000D01*
X154337480Y-83467945D01*
X154184595Y-83696753D01*
X154079286Y-83950990D01*
X154025600Y-84220888D01*
X154025600Y-84496072D01*
X154079286Y-84765970D01*
X154184595Y-85020207D01*
X154337480Y-85249015D01*
X154532065Y-85443600D01*
X154760873Y-85596485D01*
X154838115Y-85628480D01*
X154760873Y-85660475D01*
X154532065Y-85813360D01*
X154337480Y-86007945D01*
X154250259Y-86138480D01*
X151310690Y-86138480D01*
X151273367Y-86134804D01*
X151236044Y-86138480D01*
X151236035Y-86138480D01*
X151124382Y-86149477D01*
X150981121Y-86192934D01*
X150849092Y-86263506D01*
X150849090Y-86263507D01*
X150849091Y-86263507D01*
X150762364Y-86334681D01*
X150762360Y-86334685D01*
X150733367Y-86358479D01*
X150709573Y-86387472D01*
X149057047Y-88040000D01*
X145469473Y-88040000D01*
X145518560Y-87864045D01*
X144732600Y-87078085D01*
X143946640Y-87864045D01*
X143995727Y-88040000D01*
X143412323Y-88040000D01*
X143375000Y-88036324D01*
X143337677Y-88040000D01*
X143337667Y-88040000D01*
X143226014Y-88050997D01*
X143082753Y-88094454D01*
X142950724Y-88165026D01*
X142834999Y-88259999D01*
X142811201Y-88288998D01*
X142126064Y-88974134D01*
X142076745Y-88978992D01*
X141910149Y-89029528D01*
X141756613Y-89111595D01*
X141622038Y-89222038D01*
X141511595Y-89356613D01*
X141429528Y-89510149D01*
X141420473Y-89540000D01*
X139737322Y-89540000D01*
X139699999Y-89536324D01*
X139662676Y-89540000D01*
X139662667Y-89540000D01*
X139551014Y-89550997D01*
X139407753Y-89594454D01*
X139275724Y-89665026D01*
X139275722Y-89665027D01*
X139275723Y-89665027D01*
X139188996Y-89736201D01*
X139188992Y-89736205D01*
X139159999Y-89759999D01*
X139136205Y-89788993D01*
X138835198Y-90090000D01*
X138176018Y-90090000D01*
X138101185Y-89998815D01*
X138004494Y-89919463D01*
X137968082Y-89900000D01*
X138004494Y-89880537D01*
X138101185Y-89801185D01*
X138180537Y-89704494D01*
X138239502Y-89594180D01*
X138275812Y-89474482D01*
X138288072Y-89350000D01*
X138285000Y-89235750D01*
X138126250Y-89077000D01*
X136827000Y-89077000D01*
X136827000Y-89097000D01*
X136573000Y-89097000D01*
X136573000Y-89077000D01*
X135273750Y-89077000D01*
X135189143Y-89161607D01*
X135180537Y-89145506D01*
X135101185Y-89048815D01*
X135004494Y-88969463D01*
X134894180Y-88910498D01*
X134774482Y-88874188D01*
X134650000Y-88861928D01*
X132750000Y-88861928D01*
X132625518Y-88874188D01*
X132505820Y-88910498D01*
X132395506Y-88969463D01*
X132298815Y-89048815D01*
X132223982Y-89140000D01*
X131614802Y-89140000D01*
X130938803Y-88464002D01*
X130915001Y-88434999D01*
X130799276Y-88340026D01*
X130667247Y-88269454D01*
X130523986Y-88225997D01*
X130412333Y-88215000D01*
X130412322Y-88215000D01*
X130375000Y-88211324D01*
X130337678Y-88215000D01*
X129819614Y-88215000D01*
X129788405Y-88156613D01*
X129770651Y-88134980D01*
X135087698Y-88134980D01*
X135125020Y-88138656D01*
X135162342Y-88134980D01*
X135162353Y-88134980D01*
X135274006Y-88123983D01*
X135279537Y-88122305D01*
X135219463Y-88195506D01*
X135160498Y-88305820D01*
X135124188Y-88425518D01*
X135111928Y-88550000D01*
X135115000Y-88664250D01*
X135273750Y-88823000D01*
X136573000Y-88823000D01*
X136573000Y-88073750D01*
X136827000Y-88073750D01*
X136827000Y-88823000D01*
X138126250Y-88823000D01*
X138285000Y-88664250D01*
X138288072Y-88550000D01*
X138275812Y-88425518D01*
X138239502Y-88305820D01*
X138180537Y-88195506D01*
X138101185Y-88098815D01*
X138004494Y-88019463D01*
X137894180Y-87960498D01*
X137774482Y-87924188D01*
X137650000Y-87911928D01*
X136985750Y-87915000D01*
X136827000Y-88073750D01*
X136573000Y-88073750D01*
X136414250Y-87915000D01*
X135750000Y-87911928D01*
X135657659Y-87921022D01*
X135665021Y-87914981D01*
X135688824Y-87885978D01*
X136711004Y-86863798D01*
X136740001Y-86840001D01*
X136771959Y-86801060D01*
X136823255Y-86796008D01*
X136989851Y-86745472D01*
X137143387Y-86663405D01*
X137277962Y-86552962D01*
X137388405Y-86418387D01*
X137470472Y-86264851D01*
X137521008Y-86098255D01*
X137538072Y-85925001D01*
X137538072Y-85707447D01*
X139557600Y-85707447D01*
X139557600Y-86029513D01*
X139620432Y-86345392D01*
X139743682Y-86642943D01*
X139922613Y-86910732D01*
X140150348Y-87138467D01*
X140418137Y-87317398D01*
X140715688Y-87440648D01*
X141031567Y-87503480D01*
X141353633Y-87503480D01*
X141669512Y-87440648D01*
X141967063Y-87317398D01*
X142234852Y-87138467D01*
X142402822Y-86970497D01*
X143330690Y-86970497D01*
X143371678Y-87242613D01*
X143464964Y-87501503D01*
X143526944Y-87617460D01*
X143767035Y-87684440D01*
X144552995Y-86898480D01*
X144912205Y-86898480D01*
X145698165Y-87684440D01*
X145938256Y-87617460D01*
X146055356Y-87368432D01*
X146121623Y-87101345D01*
X146134510Y-86826463D01*
X146093522Y-86554347D01*
X146000236Y-86295457D01*
X145938256Y-86179500D01*
X145698165Y-86112520D01*
X144912205Y-86898480D01*
X144552995Y-86898480D01*
X143767035Y-86112520D01*
X143526944Y-86179500D01*
X143409844Y-86428528D01*
X143343577Y-86695615D01*
X143330690Y-86970497D01*
X142402822Y-86970497D01*
X142462587Y-86910732D01*
X142641518Y-86642943D01*
X142764768Y-86345392D01*
X142827600Y-86029513D01*
X142827600Y-85932915D01*
X143946640Y-85932915D01*
X144732600Y-86718875D01*
X145518560Y-85932915D01*
X145451580Y-85692824D01*
X145202552Y-85575724D01*
X144935465Y-85509457D01*
X144660583Y-85496570D01*
X144388467Y-85537558D01*
X144129577Y-85630844D01*
X144013620Y-85692824D01*
X143946640Y-85932915D01*
X142827600Y-85932915D01*
X142827600Y-85707447D01*
X142764768Y-85391568D01*
X142641518Y-85094017D01*
X142462587Y-84826228D01*
X142234852Y-84598493D01*
X141967063Y-84419562D01*
X141669512Y-84296312D01*
X141353633Y-84233480D01*
X141031567Y-84233480D01*
X140715688Y-84296312D01*
X140418137Y-84419562D01*
X140150348Y-84598493D01*
X139922613Y-84826228D01*
X139743682Y-85094017D01*
X139620432Y-85391568D01*
X139557600Y-85707447D01*
X137538072Y-85707447D01*
X137538072Y-85274999D01*
X137521008Y-85101745D01*
X137470472Y-84935149D01*
X137388405Y-84781613D01*
X137277962Y-84647038D01*
X137190184Y-84575000D01*
X137277962Y-84502962D01*
X137388405Y-84368387D01*
X137470472Y-84214851D01*
X137521008Y-84048255D01*
X137538072Y-83875001D01*
X137538072Y-83355000D01*
X139086523Y-83355000D01*
X139130000Y-83359282D01*
G36*
X151367679Y-81242481D02*
G01*
X151391478Y-81271480D01*
X151420476Y-81295278D01*
X151507202Y-81366453D01*
X151619092Y-81426260D01*
X151639232Y-81437025D01*
X151782493Y-81480482D01*
X151894146Y-81491479D01*
X151894155Y-81491479D01*
X151931478Y-81495155D01*
X151968801Y-81491479D01*
X154063276Y-81491479D01*
X154044673Y-81585000D01*
X140015000Y-81585000D01*
X140015000Y-79433469D01*
X140019281Y-79390000D01*
X140015000Y-79346531D01*
X140015000Y-79346523D01*
X140002195Y-79216510D01*
X139951589Y-79049687D01*
X139869411Y-78895941D01*
X139845660Y-78867000D01*
X139786532Y-78794953D01*
X139786530Y-78794951D01*
X139758817Y-78761183D01*
X139725049Y-78733470D01*
X137670539Y-76678961D01*
X137685000Y-76606260D01*
X137685000Y-76313740D01*
X137670539Y-76241040D01*
X137706531Y-76205048D01*
X137706535Y-76205043D01*
X138349113Y-75562466D01*
X138382881Y-75534753D01*
X138411013Y-75500475D01*
X138493474Y-75399996D01*
X138496056Y-75395166D01*
X138575653Y-75246249D01*
X138626259Y-75079426D01*
X138639064Y-74949413D01*
X138639064Y-74949403D01*
X138643345Y-74905937D01*
X138639064Y-74862471D01*
X138639064Y-70097529D01*
X138643345Y-70054063D01*
X138639064Y-70010597D01*
X138639064Y-70010587D01*
X138626259Y-69880574D01*
X138575653Y-69713751D01*
X138493475Y-69560005D01*
X138438072Y-69492497D01*
X138438072Y-69350000D01*
X138435664Y-69325550D01*
X138435664Y-69300991D01*
X138423404Y-69176510D01*
X138404282Y-69080377D01*
X138367973Y-68960681D01*
X138330464Y-68870125D01*
X138271498Y-68759808D01*
X138238211Y-68709990D01*
X138835189Y-68709990D01*
X151367679Y-81242481D01*
G37*
X151367679Y-81242481D02*
X151391478Y-81271480D01*
X151420476Y-81295278D01*
X151507202Y-81366453D01*
X151619092Y-81426260D01*
X151639232Y-81437025D01*
X151782493Y-81480482D01*
X151894146Y-81491479D01*
X151894155Y-81491479D01*
X151931478Y-81495155D01*
X151968801Y-81491479D01*
X154063276Y-81491479D01*
X154044673Y-81585000D01*
X140015000Y-81585000D01*
X140015000Y-79433469D01*
X140019281Y-79390000D01*
X140015000Y-79346531D01*
X140015000Y-79346523D01*
X140002195Y-79216510D01*
X139951589Y-79049687D01*
X139869411Y-78895941D01*
X139845660Y-78867000D01*
X139786532Y-78794953D01*
X139786530Y-78794951D01*
X139758817Y-78761183D01*
X139725049Y-78733470D01*
X137670539Y-76678961D01*
X137685000Y-76606260D01*
X137685000Y-76313740D01*
X137670539Y-76241040D01*
X137706531Y-76205048D01*
X137706535Y-76205043D01*
X138349113Y-75562466D01*
X138382881Y-75534753D01*
X138411013Y-75500475D01*
X138493474Y-75399996D01*
X138496056Y-75395166D01*
X138575653Y-75246249D01*
X138626259Y-75079426D01*
X138639064Y-74949413D01*
X138639064Y-74949403D01*
X138643345Y-74905937D01*
X138639064Y-74862471D01*
X138639064Y-70097529D01*
X138643345Y-70054063D01*
X138639064Y-70010597D01*
X138639064Y-70010587D01*
X138626259Y-69880574D01*
X138575653Y-69713751D01*
X138493475Y-69560005D01*
X138438072Y-69492497D01*
X138438072Y-69350000D01*
X138435664Y-69325550D01*
X138435664Y-69300991D01*
X138423404Y-69176510D01*
X138404282Y-69080377D01*
X138367973Y-68960681D01*
X138330464Y-68870125D01*
X138271498Y-68759808D01*
X138238211Y-68709990D01*
X138835189Y-68709990D01*
X151367679Y-81242481D01*
M02*
