G04 #@! TF.GenerationSoftware,KiCad,Pcbnew,(5.1.5)-3*
G04 #@! TF.CreationDate,2021-10-17T14:13:30-07:00*
G04 #@! TF.ProjectId,pololu_regulator_breakout,706f6c6f-6c75-45f7-9265-67756c61746f,rev?*
G04 #@! TF.SameCoordinates,Original*
G04 #@! TF.FileFunction,Soldermask,Top*
G04 #@! TF.FilePolarity,Negative*
%FSLAX46Y46*%
G04 Gerber Fmt 4.6, Leading zero omitted, Abs format (unit mm)*
G04 Created by KiCad (PCBNEW (5.1.5)-3) date 2021-10-17 14:13:30*
%MOMM*%
%LPD*%
G04 APERTURE LIST*
%ADD10C,0.100000*%
G04 APERTURE END LIST*
D10*
G36*
X126588674Y-90428465D02*
G01*
X126626367Y-90439899D01*
X126661103Y-90458466D01*
X126691548Y-90483452D01*
X126716534Y-90513897D01*
X126735101Y-90548633D01*
X126746535Y-90586326D01*
X126751000Y-90631661D01*
X126751000Y-91468339D01*
X126746535Y-91513674D01*
X126735101Y-91551367D01*
X126716534Y-91586103D01*
X126691548Y-91616548D01*
X126661103Y-91641534D01*
X126626367Y-91660101D01*
X126588674Y-91671535D01*
X126543339Y-91676000D01*
X125456661Y-91676000D01*
X125411326Y-91671535D01*
X125373633Y-91660101D01*
X125338897Y-91641534D01*
X125308452Y-91616548D01*
X125283466Y-91586103D01*
X125264899Y-91551367D01*
X125253465Y-91513674D01*
X125249000Y-91468339D01*
X125249000Y-90631661D01*
X125253465Y-90586326D01*
X125264899Y-90548633D01*
X125283466Y-90513897D01*
X125308452Y-90483452D01*
X125338897Y-90458466D01*
X125373633Y-90439899D01*
X125411326Y-90428465D01*
X125456661Y-90424000D01*
X126543339Y-90424000D01*
X126588674Y-90428465D01*
G37*
G36*
X129188674Y-90403465D02*
G01*
X129226367Y-90414899D01*
X129261103Y-90433466D01*
X129291548Y-90458452D01*
X129316534Y-90488897D01*
X129335101Y-90523633D01*
X129346535Y-90561326D01*
X129351000Y-90606661D01*
X129351000Y-91443339D01*
X129346535Y-91488674D01*
X129335101Y-91526367D01*
X129316534Y-91561103D01*
X129291548Y-91591548D01*
X129261103Y-91616534D01*
X129226367Y-91635101D01*
X129188674Y-91646535D01*
X129143339Y-91651000D01*
X128056661Y-91651000D01*
X128011326Y-91646535D01*
X127973633Y-91635101D01*
X127938897Y-91616534D01*
X127908452Y-91591548D01*
X127883466Y-91561103D01*
X127864899Y-91526367D01*
X127853465Y-91488674D01*
X127849000Y-91443339D01*
X127849000Y-90606661D01*
X127853465Y-90561326D01*
X127864899Y-90523633D01*
X127883466Y-90488897D01*
X127908452Y-90458452D01*
X127938897Y-90433466D01*
X127973633Y-90414899D01*
X128011326Y-90403465D01*
X128056661Y-90399000D01*
X129143339Y-90399000D01*
X129188674Y-90403465D01*
G37*
G36*
X137701000Y-91301000D02*
G01*
X135699000Y-91301000D01*
X135699000Y-90399000D01*
X137701000Y-90399000D01*
X137701000Y-91301000D01*
G37*
G36*
X170224549Y-88871116D02*
G01*
X170335734Y-88893232D01*
X170545203Y-88979997D01*
X170733720Y-89105960D01*
X170894040Y-89266280D01*
X171020003Y-89454797D01*
X171106768Y-89664266D01*
X171151000Y-89886636D01*
X171151000Y-90113364D01*
X171106768Y-90335734D01*
X171020003Y-90545203D01*
X170894040Y-90733720D01*
X170733720Y-90894040D01*
X170545203Y-91020003D01*
X170545202Y-91020004D01*
X170545201Y-91020004D01*
X170508753Y-91035101D01*
X170335734Y-91106768D01*
X170224549Y-91128884D01*
X170113365Y-91151000D01*
X169886635Y-91151000D01*
X169775451Y-91128884D01*
X169664266Y-91106768D01*
X169491247Y-91035101D01*
X169454799Y-91020004D01*
X169454798Y-91020004D01*
X169454797Y-91020003D01*
X169266280Y-90894040D01*
X169105960Y-90733720D01*
X168979997Y-90545203D01*
X168893232Y-90335734D01*
X168849000Y-90113364D01*
X168849000Y-89886636D01*
X168893232Y-89664266D01*
X168979997Y-89454797D01*
X169105960Y-89266280D01*
X169266280Y-89105960D01*
X169454797Y-88979997D01*
X169664266Y-88893232D01*
X169775451Y-88871116D01*
X169886635Y-88849000D01*
X170113365Y-88849000D01*
X170224549Y-88871116D01*
G37*
G36*
X120224549Y-88871116D02*
G01*
X120335734Y-88893232D01*
X120545203Y-88979997D01*
X120733720Y-89105960D01*
X120894040Y-89266280D01*
X121020003Y-89454797D01*
X121106768Y-89664266D01*
X121151000Y-89886636D01*
X121151000Y-90113364D01*
X121106768Y-90335734D01*
X121020003Y-90545203D01*
X120894040Y-90733720D01*
X120733720Y-90894040D01*
X120545203Y-91020003D01*
X120545202Y-91020004D01*
X120545201Y-91020004D01*
X120508753Y-91035101D01*
X120335734Y-91106768D01*
X120224549Y-91128884D01*
X120113365Y-91151000D01*
X119886635Y-91151000D01*
X119775451Y-91128884D01*
X119664266Y-91106768D01*
X119491247Y-91035101D01*
X119454799Y-91020004D01*
X119454798Y-91020004D01*
X119454797Y-91020003D01*
X119266280Y-90894040D01*
X119105960Y-90733720D01*
X118979997Y-90545203D01*
X118893232Y-90335734D01*
X118849000Y-90113364D01*
X118849000Y-89886636D01*
X118893232Y-89664266D01*
X118979997Y-89454797D01*
X119105960Y-89266280D01*
X119266280Y-89105960D01*
X119454797Y-88979997D01*
X119664266Y-88893232D01*
X119775451Y-88871116D01*
X119886635Y-88849000D01*
X120113365Y-88849000D01*
X120224549Y-88871116D01*
G37*
G36*
X150913674Y-89553465D02*
G01*
X150951367Y-89564899D01*
X150986103Y-89583466D01*
X151016548Y-89608452D01*
X151041534Y-89638897D01*
X151060101Y-89673633D01*
X151071535Y-89711326D01*
X151076000Y-89756661D01*
X151076000Y-90843339D01*
X151071535Y-90888674D01*
X151060101Y-90926367D01*
X151041534Y-90961103D01*
X151016548Y-90991548D01*
X150986103Y-91016534D01*
X150951367Y-91035101D01*
X150913674Y-91046535D01*
X150868339Y-91051000D01*
X150031661Y-91051000D01*
X149986326Y-91046535D01*
X149948633Y-91035101D01*
X149913897Y-91016534D01*
X149883452Y-90991548D01*
X149858466Y-90961103D01*
X149839899Y-90926367D01*
X149828465Y-90888674D01*
X149824000Y-90843339D01*
X149824000Y-89756661D01*
X149828465Y-89711326D01*
X149839899Y-89673633D01*
X149858466Y-89638897D01*
X149883452Y-89608452D01*
X149913897Y-89583466D01*
X149948633Y-89564899D01*
X149986326Y-89553465D01*
X150031661Y-89549000D01*
X150868339Y-89549000D01*
X150913674Y-89553465D01*
G37*
G36*
X148863674Y-89553465D02*
G01*
X148901367Y-89564899D01*
X148936103Y-89583466D01*
X148966548Y-89608452D01*
X148991534Y-89638897D01*
X149010101Y-89673633D01*
X149021535Y-89711326D01*
X149026000Y-89756661D01*
X149026000Y-90843339D01*
X149021535Y-90888674D01*
X149010101Y-90926367D01*
X148991534Y-90961103D01*
X148966548Y-90991548D01*
X148936103Y-91016534D01*
X148901367Y-91035101D01*
X148863674Y-91046535D01*
X148818339Y-91051000D01*
X147981661Y-91051000D01*
X147936326Y-91046535D01*
X147898633Y-91035101D01*
X147863897Y-91016534D01*
X147833452Y-90991548D01*
X147808466Y-90961103D01*
X147789899Y-90926367D01*
X147778465Y-90888674D01*
X147774000Y-90843339D01*
X147774000Y-89756661D01*
X147778465Y-89711326D01*
X147789899Y-89673633D01*
X147808466Y-89638897D01*
X147833452Y-89608452D01*
X147863897Y-89583466D01*
X147898633Y-89564899D01*
X147936326Y-89553465D01*
X147981661Y-89549000D01*
X148818339Y-89549000D01*
X148863674Y-89553465D01*
G37*
G36*
X145088674Y-89553465D02*
G01*
X145126367Y-89564899D01*
X145161103Y-89583466D01*
X145191548Y-89608452D01*
X145216534Y-89638897D01*
X145235101Y-89673633D01*
X145246535Y-89711326D01*
X145251000Y-89756661D01*
X145251000Y-90843339D01*
X145246535Y-90888674D01*
X145235101Y-90926367D01*
X145216534Y-90961103D01*
X145191548Y-90991548D01*
X145161103Y-91016534D01*
X145126367Y-91035101D01*
X145088674Y-91046535D01*
X145043339Y-91051000D01*
X144206661Y-91051000D01*
X144161326Y-91046535D01*
X144123633Y-91035101D01*
X144088897Y-91016534D01*
X144058452Y-90991548D01*
X144033466Y-90961103D01*
X144014899Y-90926367D01*
X144003465Y-90888674D01*
X143999000Y-90843339D01*
X143999000Y-89756661D01*
X144003465Y-89711326D01*
X144014899Y-89673633D01*
X144033466Y-89638897D01*
X144058452Y-89608452D01*
X144088897Y-89583466D01*
X144123633Y-89564899D01*
X144161326Y-89553465D01*
X144206661Y-89549000D01*
X145043339Y-89549000D01*
X145088674Y-89553465D01*
G37*
G36*
X143038674Y-89553465D02*
G01*
X143076367Y-89564899D01*
X143111103Y-89583466D01*
X143141548Y-89608452D01*
X143166534Y-89638897D01*
X143185101Y-89673633D01*
X143196535Y-89711326D01*
X143201000Y-89756661D01*
X143201000Y-90843339D01*
X143196535Y-90888674D01*
X143185101Y-90926367D01*
X143166534Y-90961103D01*
X143141548Y-90991548D01*
X143111103Y-91016534D01*
X143076367Y-91035101D01*
X143038674Y-91046535D01*
X142993339Y-91051000D01*
X142156661Y-91051000D01*
X142111326Y-91046535D01*
X142073633Y-91035101D01*
X142038897Y-91016534D01*
X142008452Y-90991548D01*
X141983466Y-90961103D01*
X141964899Y-90926367D01*
X141953465Y-90888674D01*
X141949000Y-90843339D01*
X141949000Y-89756661D01*
X141953465Y-89711326D01*
X141964899Y-89673633D01*
X141983466Y-89638897D01*
X142008452Y-89608452D01*
X142038897Y-89583466D01*
X142073633Y-89564899D01*
X142111326Y-89553465D01*
X142156661Y-89549000D01*
X142993339Y-89549000D01*
X143038674Y-89553465D01*
G37*
G36*
X134701000Y-90351000D02*
G01*
X132699000Y-90351000D01*
X132699000Y-89449000D01*
X134701000Y-89449000D01*
X134701000Y-90351000D01*
G37*
G36*
X126588674Y-88378465D02*
G01*
X126626367Y-88389899D01*
X126661103Y-88408466D01*
X126691548Y-88433452D01*
X126716534Y-88463897D01*
X126735101Y-88498633D01*
X126746535Y-88536326D01*
X126751000Y-88581661D01*
X126751000Y-89418339D01*
X126746535Y-89463674D01*
X126735101Y-89501367D01*
X126716534Y-89536103D01*
X126691548Y-89566548D01*
X126661103Y-89591534D01*
X126626367Y-89610101D01*
X126588674Y-89621535D01*
X126543339Y-89626000D01*
X125456661Y-89626000D01*
X125411326Y-89621535D01*
X125373633Y-89610101D01*
X125338897Y-89591534D01*
X125308452Y-89566548D01*
X125283466Y-89536103D01*
X125264899Y-89501367D01*
X125253465Y-89463674D01*
X125249000Y-89418339D01*
X125249000Y-88581661D01*
X125253465Y-88536326D01*
X125264899Y-88498633D01*
X125283466Y-88463897D01*
X125308452Y-88433452D01*
X125338897Y-88408466D01*
X125373633Y-88389899D01*
X125411326Y-88378465D01*
X125456661Y-88374000D01*
X126543339Y-88374000D01*
X126588674Y-88378465D01*
G37*
G36*
X129188674Y-88353465D02*
G01*
X129226367Y-88364899D01*
X129261103Y-88383466D01*
X129291548Y-88408452D01*
X129316534Y-88438897D01*
X129335101Y-88473633D01*
X129346535Y-88511326D01*
X129351000Y-88556661D01*
X129351000Y-89393339D01*
X129346535Y-89438674D01*
X129335101Y-89476367D01*
X129316534Y-89511103D01*
X129291548Y-89541548D01*
X129261103Y-89566534D01*
X129226367Y-89585101D01*
X129188674Y-89596535D01*
X129143339Y-89601000D01*
X128056661Y-89601000D01*
X128011326Y-89596535D01*
X127973633Y-89585101D01*
X127938897Y-89566534D01*
X127908452Y-89541548D01*
X127883466Y-89511103D01*
X127864899Y-89476367D01*
X127853465Y-89438674D01*
X127849000Y-89393339D01*
X127849000Y-88556661D01*
X127853465Y-88511326D01*
X127864899Y-88473633D01*
X127883466Y-88438897D01*
X127908452Y-88408452D01*
X127938897Y-88383466D01*
X127973633Y-88364899D01*
X128011326Y-88353465D01*
X128056661Y-88349000D01*
X129143339Y-88349000D01*
X129188674Y-88353465D01*
G37*
G36*
X137701000Y-89401000D02*
G01*
X135699000Y-89401000D01*
X135699000Y-88499000D01*
X137701000Y-88499000D01*
X137701000Y-89401000D01*
G37*
G36*
X155659742Y-86116722D02*
G01*
X155807701Y-86178009D01*
X155940855Y-86266979D01*
X156054101Y-86380225D01*
X156143071Y-86513379D01*
X156204358Y-86661338D01*
X156235600Y-86818405D01*
X156235600Y-86978555D01*
X156204358Y-87135622D01*
X156143071Y-87283581D01*
X156054101Y-87416735D01*
X155940855Y-87529981D01*
X155807701Y-87618951D01*
X155659742Y-87680238D01*
X155502675Y-87711480D01*
X155342525Y-87711480D01*
X155185458Y-87680238D01*
X155037499Y-87618951D01*
X154904345Y-87529981D01*
X154791099Y-87416735D01*
X154702129Y-87283581D01*
X154640842Y-87135622D01*
X154609600Y-86978555D01*
X154609600Y-86818405D01*
X154640842Y-86661338D01*
X154702129Y-86513379D01*
X154791099Y-86380225D01*
X154904345Y-86266979D01*
X155037499Y-86178009D01*
X155185458Y-86116722D01*
X155342525Y-86085480D01*
X155502675Y-86085480D01*
X155659742Y-86116722D01*
G37*
G36*
X144969742Y-86116722D02*
G01*
X145117701Y-86178009D01*
X145250855Y-86266979D01*
X145364101Y-86380225D01*
X145453071Y-86513379D01*
X145514358Y-86661338D01*
X145545600Y-86818405D01*
X145545600Y-86978555D01*
X145514358Y-87135622D01*
X145453071Y-87283581D01*
X145364101Y-87416735D01*
X145250855Y-87529981D01*
X145117701Y-87618951D01*
X144969742Y-87680238D01*
X144812675Y-87711480D01*
X144652525Y-87711480D01*
X144495458Y-87680238D01*
X144347499Y-87618951D01*
X144214345Y-87529981D01*
X144101099Y-87416735D01*
X144012129Y-87283581D01*
X143950842Y-87135622D01*
X143919600Y-86978555D01*
X143919600Y-86818405D01*
X143950842Y-86661338D01*
X144012129Y-86513379D01*
X144101099Y-86380225D01*
X144214345Y-86266979D01*
X144347499Y-86178009D01*
X144495458Y-86116722D01*
X144652525Y-86085480D01*
X144812675Y-86085480D01*
X144969742Y-86116722D01*
G37*
G36*
X141499164Y-84857869D02*
G01*
X141690433Y-84937095D01*
X141690435Y-84937096D01*
X141776672Y-84994718D01*
X141862573Y-85052115D01*
X142008965Y-85198507D01*
X142123985Y-85370647D01*
X142203211Y-85561916D01*
X142243600Y-85764964D01*
X142243600Y-85971996D01*
X142203211Y-86175044D01*
X142123985Y-86366313D01*
X142123984Y-86366315D01*
X142008965Y-86538453D01*
X141862573Y-86684845D01*
X141690435Y-86799864D01*
X141690434Y-86799865D01*
X141690433Y-86799865D01*
X141499164Y-86879091D01*
X141296116Y-86919480D01*
X141089084Y-86919480D01*
X140886036Y-86879091D01*
X140694767Y-86799865D01*
X140694766Y-86799865D01*
X140694765Y-86799864D01*
X140522627Y-86684845D01*
X140376235Y-86538453D01*
X140261216Y-86366315D01*
X140261215Y-86366313D01*
X140181989Y-86175044D01*
X140141600Y-85971996D01*
X140141600Y-85764964D01*
X140181989Y-85561916D01*
X140261215Y-85370647D01*
X140376235Y-85198507D01*
X140522627Y-85052115D01*
X140608528Y-84994718D01*
X140694765Y-84937096D01*
X140694767Y-84937095D01*
X140886036Y-84857869D01*
X141089084Y-84817480D01*
X141296116Y-84817480D01*
X141499164Y-84857869D01*
G37*
G36*
X136788674Y-84978465D02*
G01*
X136826367Y-84989899D01*
X136861103Y-85008466D01*
X136891548Y-85033452D01*
X136916534Y-85063897D01*
X136935101Y-85098633D01*
X136946535Y-85136326D01*
X136951000Y-85181661D01*
X136951000Y-86018339D01*
X136946535Y-86063674D01*
X136935101Y-86101367D01*
X136916534Y-86136103D01*
X136891548Y-86166548D01*
X136861103Y-86191534D01*
X136826367Y-86210101D01*
X136788674Y-86221535D01*
X136743339Y-86226000D01*
X135656661Y-86226000D01*
X135611326Y-86221535D01*
X135573633Y-86210101D01*
X135538897Y-86191534D01*
X135508452Y-86166548D01*
X135483466Y-86136103D01*
X135464899Y-86101367D01*
X135453465Y-86063674D01*
X135449000Y-86018339D01*
X135449000Y-85181661D01*
X135453465Y-85136326D01*
X135464899Y-85098633D01*
X135483466Y-85063897D01*
X135508452Y-85033452D01*
X135538897Y-85008466D01*
X135573633Y-84989899D01*
X135611326Y-84978465D01*
X135656661Y-84974000D01*
X136743339Y-84974000D01*
X136788674Y-84978465D01*
G37*
G36*
X121134542Y-84743580D02*
G01*
X121156059Y-84747860D01*
X121292732Y-84804472D01*
X121415735Y-84886660D01*
X121520340Y-84991265D01*
X121602528Y-85114268D01*
X121659140Y-85250941D01*
X121688000Y-85396033D01*
X121688000Y-85543967D01*
X121659140Y-85689059D01*
X121602528Y-85825732D01*
X121520340Y-85948735D01*
X121415735Y-86053340D01*
X121292732Y-86135528D01*
X121292731Y-86135529D01*
X121292730Y-86135529D01*
X121156059Y-86192140D01*
X121010968Y-86221000D01*
X120863032Y-86221000D01*
X120717941Y-86192140D01*
X120581270Y-86135529D01*
X120581269Y-86135529D01*
X120581268Y-86135528D01*
X120458265Y-86053340D01*
X120353660Y-85948735D01*
X120271472Y-85825732D01*
X120214860Y-85689059D01*
X120186000Y-85543967D01*
X120186000Y-85396033D01*
X120214860Y-85250941D01*
X120271472Y-85114268D01*
X120353660Y-84991265D01*
X120458265Y-84886660D01*
X120581268Y-84804472D01*
X120717941Y-84747860D01*
X120739458Y-84743580D01*
X120863032Y-84719000D01*
X121010968Y-84719000D01*
X121134542Y-84743580D01*
G37*
G36*
X155659742Y-83576722D02*
G01*
X155807701Y-83638009D01*
X155940855Y-83726979D01*
X156054101Y-83840225D01*
X156143071Y-83973379D01*
X156204358Y-84121338D01*
X156235600Y-84278405D01*
X156235600Y-84438555D01*
X156204358Y-84595622D01*
X156143071Y-84743581D01*
X156054101Y-84876735D01*
X155940855Y-84989981D01*
X155807701Y-85078951D01*
X155659742Y-85140238D01*
X155502675Y-85171480D01*
X155342525Y-85171480D01*
X155185458Y-85140238D01*
X155037499Y-85078951D01*
X154904345Y-84989981D01*
X154791099Y-84876735D01*
X154702129Y-84743581D01*
X154640842Y-84595622D01*
X154609600Y-84438555D01*
X154609600Y-84278405D01*
X154640842Y-84121338D01*
X154702129Y-83973379D01*
X154791099Y-83840225D01*
X154904345Y-83726979D01*
X155037499Y-83638009D01*
X155185458Y-83576722D01*
X155342525Y-83545480D01*
X155502675Y-83545480D01*
X155659742Y-83576722D01*
G37*
G36*
X164578512Y-82923927D02*
G01*
X164727812Y-82953624D01*
X164891784Y-83021544D01*
X165039354Y-83120147D01*
X165164853Y-83245646D01*
X165263456Y-83393216D01*
X165331376Y-83557188D01*
X165366000Y-83731259D01*
X165366000Y-83908741D01*
X165331376Y-84082812D01*
X165263456Y-84246784D01*
X165164853Y-84394354D01*
X165039354Y-84519853D01*
X164891784Y-84618456D01*
X164727812Y-84686376D01*
X164578512Y-84716073D01*
X164553742Y-84721000D01*
X164376258Y-84721000D01*
X164351488Y-84716073D01*
X164202188Y-84686376D01*
X164038216Y-84618456D01*
X163890646Y-84519853D01*
X163765147Y-84394354D01*
X163666544Y-84246784D01*
X163598624Y-84082812D01*
X163564000Y-83908741D01*
X163564000Y-83731259D01*
X163598624Y-83557188D01*
X163666544Y-83393216D01*
X163765147Y-83245646D01*
X163890646Y-83120147D01*
X164038216Y-83021544D01*
X164202188Y-82953624D01*
X164351488Y-82923927D01*
X164376258Y-82919000D01*
X164553742Y-82919000D01*
X164578512Y-82923927D01*
G37*
G36*
X162038512Y-82923927D02*
G01*
X162187812Y-82953624D01*
X162351784Y-83021544D01*
X162499354Y-83120147D01*
X162624853Y-83245646D01*
X162723456Y-83393216D01*
X162791376Y-83557188D01*
X162826000Y-83731259D01*
X162826000Y-83908741D01*
X162791376Y-84082812D01*
X162723456Y-84246784D01*
X162624853Y-84394354D01*
X162499354Y-84519853D01*
X162351784Y-84618456D01*
X162187812Y-84686376D01*
X162038512Y-84716073D01*
X162013742Y-84721000D01*
X161836258Y-84721000D01*
X161811488Y-84716073D01*
X161662188Y-84686376D01*
X161498216Y-84618456D01*
X161350646Y-84519853D01*
X161225147Y-84394354D01*
X161126544Y-84246784D01*
X161058624Y-84082812D01*
X161024000Y-83908741D01*
X161024000Y-83731259D01*
X161058624Y-83557188D01*
X161126544Y-83393216D01*
X161225147Y-83245646D01*
X161350646Y-83120147D01*
X161498216Y-83021544D01*
X161662188Y-82953624D01*
X161811488Y-82923927D01*
X161836258Y-82919000D01*
X162013742Y-82919000D01*
X162038512Y-82923927D01*
G37*
G36*
X160286000Y-84721000D02*
G01*
X158484000Y-84721000D01*
X158484000Y-82919000D01*
X160286000Y-82919000D01*
X160286000Y-84721000D01*
G37*
G36*
X131462331Y-80738211D02*
G01*
X131790092Y-80873974D01*
X132085070Y-81071072D01*
X132335928Y-81321930D01*
X132533026Y-81616908D01*
X132668789Y-81944669D01*
X132738000Y-82292616D01*
X132738000Y-82647384D01*
X132668789Y-82995331D01*
X132533026Y-83323092D01*
X132335928Y-83618070D01*
X132085070Y-83868928D01*
X131790092Y-84066026D01*
X131462331Y-84201789D01*
X131114384Y-84271000D01*
X130759616Y-84271000D01*
X130411669Y-84201789D01*
X130083908Y-84066026D01*
X129788930Y-83868928D01*
X129538072Y-83618070D01*
X129340974Y-83323092D01*
X129205211Y-82995331D01*
X129136000Y-82647384D01*
X129136000Y-82292616D01*
X129205211Y-81944669D01*
X129340974Y-81616908D01*
X129538072Y-81321930D01*
X129788930Y-81071072D01*
X130083908Y-80873974D01*
X130411669Y-80738211D01*
X130759616Y-80669000D01*
X131114384Y-80669000D01*
X131462331Y-80738211D01*
G37*
G36*
X136788674Y-82928465D02*
G01*
X136826367Y-82939899D01*
X136861103Y-82958466D01*
X136891548Y-82983452D01*
X136916534Y-83013897D01*
X136935101Y-83048633D01*
X136946535Y-83086326D01*
X136951000Y-83131661D01*
X136951000Y-83968339D01*
X136946535Y-84013674D01*
X136935101Y-84051367D01*
X136916534Y-84086103D01*
X136891548Y-84116548D01*
X136861103Y-84141534D01*
X136826367Y-84160101D01*
X136788674Y-84171535D01*
X136743339Y-84176000D01*
X135656661Y-84176000D01*
X135611326Y-84171535D01*
X135573633Y-84160101D01*
X135538897Y-84141534D01*
X135508452Y-84116548D01*
X135483466Y-84086103D01*
X135464899Y-84051367D01*
X135453465Y-84013674D01*
X135449000Y-83968339D01*
X135449000Y-83131661D01*
X135453465Y-83086326D01*
X135464899Y-83048633D01*
X135483466Y-83013897D01*
X135508452Y-82983452D01*
X135538897Y-82958466D01*
X135573633Y-82939899D01*
X135611326Y-82928465D01*
X135656661Y-82924000D01*
X136743339Y-82924000D01*
X136788674Y-82928465D01*
G37*
G36*
X155659742Y-81036722D02*
G01*
X155807701Y-81098009D01*
X155940855Y-81186979D01*
X156054101Y-81300225D01*
X156143071Y-81433379D01*
X156204358Y-81581338D01*
X156235600Y-81738405D01*
X156235600Y-81898555D01*
X156204358Y-82055622D01*
X156143071Y-82203581D01*
X156054101Y-82336735D01*
X155940855Y-82449981D01*
X155807701Y-82538951D01*
X155659742Y-82600238D01*
X155502675Y-82631480D01*
X155342525Y-82631480D01*
X155185458Y-82600238D01*
X155037499Y-82538951D01*
X154904345Y-82449981D01*
X154791099Y-82336735D01*
X154702129Y-82203581D01*
X154640842Y-82055622D01*
X154609600Y-81898555D01*
X154609600Y-81738405D01*
X154640842Y-81581338D01*
X154702129Y-81433379D01*
X154791099Y-81300225D01*
X154904345Y-81186979D01*
X155037499Y-81098009D01*
X155185458Y-81036722D01*
X155342525Y-81005480D01*
X155502675Y-81005480D01*
X155659742Y-81036722D01*
G37*
G36*
X164578512Y-80383927D02*
G01*
X164727812Y-80413624D01*
X164891784Y-80481544D01*
X165039354Y-80580147D01*
X165164853Y-80705646D01*
X165263456Y-80853216D01*
X165331376Y-81017188D01*
X165366000Y-81191259D01*
X165366000Y-81368741D01*
X165331376Y-81542812D01*
X165263456Y-81706784D01*
X165164853Y-81854354D01*
X165039354Y-81979853D01*
X164891784Y-82078456D01*
X164727812Y-82146376D01*
X164578512Y-82176073D01*
X164553742Y-82181000D01*
X164376258Y-82181000D01*
X164351488Y-82176073D01*
X164202188Y-82146376D01*
X164038216Y-82078456D01*
X163890646Y-81979853D01*
X163765147Y-81854354D01*
X163666544Y-81706784D01*
X163598624Y-81542812D01*
X163564000Y-81368741D01*
X163564000Y-81191259D01*
X163598624Y-81017188D01*
X163666544Y-80853216D01*
X163765147Y-80705646D01*
X163890646Y-80580147D01*
X164038216Y-80481544D01*
X164202188Y-80413624D01*
X164351488Y-80383927D01*
X164376258Y-80379000D01*
X164553742Y-80379000D01*
X164578512Y-80383927D01*
G37*
G36*
X160286000Y-82181000D02*
G01*
X158484000Y-82181000D01*
X158484000Y-80379000D01*
X160286000Y-80379000D01*
X160286000Y-82181000D01*
G37*
G36*
X162038512Y-80383927D02*
G01*
X162187812Y-80413624D01*
X162351784Y-80481544D01*
X162499354Y-80580147D01*
X162624853Y-80705646D01*
X162723456Y-80853216D01*
X162791376Y-81017188D01*
X162826000Y-81191259D01*
X162826000Y-81368741D01*
X162791376Y-81542812D01*
X162723456Y-81706784D01*
X162624853Y-81854354D01*
X162499354Y-81979853D01*
X162351784Y-82078456D01*
X162187812Y-82146376D01*
X162038512Y-82176073D01*
X162013742Y-82181000D01*
X161836258Y-82181000D01*
X161811488Y-82176073D01*
X161662188Y-82146376D01*
X161498216Y-82078456D01*
X161350646Y-81979853D01*
X161225147Y-81854354D01*
X161126544Y-81706784D01*
X161058624Y-81542812D01*
X161024000Y-81368741D01*
X161024000Y-81191259D01*
X161058624Y-81017188D01*
X161126544Y-80853216D01*
X161225147Y-80705646D01*
X161350646Y-80580147D01*
X161498216Y-80481544D01*
X161662188Y-80413624D01*
X161811488Y-80383927D01*
X161836258Y-80379000D01*
X162013742Y-80379000D01*
X162038512Y-80383927D01*
G37*
G36*
X155659742Y-78496722D02*
G01*
X155807701Y-78558009D01*
X155940855Y-78646979D01*
X156054101Y-78760225D01*
X156143071Y-78893379D01*
X156204358Y-79041338D01*
X156235600Y-79198405D01*
X156235600Y-79358555D01*
X156204358Y-79515622D01*
X156143071Y-79663581D01*
X156054101Y-79796735D01*
X155940855Y-79909981D01*
X155807701Y-79998951D01*
X155659742Y-80060238D01*
X155502675Y-80091480D01*
X155342525Y-80091480D01*
X155185458Y-80060238D01*
X155037499Y-79998951D01*
X154904345Y-79909981D01*
X154791099Y-79796735D01*
X154702129Y-79663581D01*
X154640842Y-79515622D01*
X154609600Y-79358555D01*
X154609600Y-79198405D01*
X154640842Y-79041338D01*
X154702129Y-78893379D01*
X154791099Y-78760225D01*
X154904345Y-78646979D01*
X155037499Y-78558009D01*
X155185458Y-78496722D01*
X155342525Y-78465480D01*
X155502675Y-78465480D01*
X155659742Y-78496722D01*
G37*
G36*
X137101000Y-79901000D02*
G01*
X135299000Y-79901000D01*
X135299000Y-78099000D01*
X137101000Y-78099000D01*
X137101000Y-79901000D01*
G37*
G36*
X164578512Y-77843927D02*
G01*
X164727812Y-77873624D01*
X164891784Y-77941544D01*
X165039354Y-78040147D01*
X165164853Y-78165646D01*
X165263456Y-78313216D01*
X165331376Y-78477188D01*
X165366000Y-78651259D01*
X165366000Y-78828741D01*
X165331376Y-79002812D01*
X165263456Y-79166784D01*
X165164853Y-79314354D01*
X165039354Y-79439853D01*
X164891784Y-79538456D01*
X164727812Y-79606376D01*
X164578512Y-79636073D01*
X164553742Y-79641000D01*
X164376258Y-79641000D01*
X164351488Y-79636073D01*
X164202188Y-79606376D01*
X164038216Y-79538456D01*
X163890646Y-79439853D01*
X163765147Y-79314354D01*
X163666544Y-79166784D01*
X163598624Y-79002812D01*
X163564000Y-78828741D01*
X163564000Y-78651259D01*
X163598624Y-78477188D01*
X163666544Y-78313216D01*
X163765147Y-78165646D01*
X163890646Y-78040147D01*
X164038216Y-77941544D01*
X164202188Y-77873624D01*
X164351488Y-77843927D01*
X164376258Y-77839000D01*
X164553742Y-77839000D01*
X164578512Y-77843927D01*
G37*
G36*
X162038512Y-77843927D02*
G01*
X162187812Y-77873624D01*
X162351784Y-77941544D01*
X162499354Y-78040147D01*
X162624853Y-78165646D01*
X162723456Y-78313216D01*
X162791376Y-78477188D01*
X162826000Y-78651259D01*
X162826000Y-78828741D01*
X162791376Y-79002812D01*
X162723456Y-79166784D01*
X162624853Y-79314354D01*
X162499354Y-79439853D01*
X162351784Y-79538456D01*
X162187812Y-79606376D01*
X162038512Y-79636073D01*
X162013742Y-79641000D01*
X161836258Y-79641000D01*
X161811488Y-79636073D01*
X161662188Y-79606376D01*
X161498216Y-79538456D01*
X161350646Y-79439853D01*
X161225147Y-79314354D01*
X161126544Y-79166784D01*
X161058624Y-79002812D01*
X161024000Y-78828741D01*
X161024000Y-78651259D01*
X161058624Y-78477188D01*
X161126544Y-78313216D01*
X161225147Y-78165646D01*
X161350646Y-78040147D01*
X161498216Y-77941544D01*
X161662188Y-77873624D01*
X161811488Y-77843927D01*
X161836258Y-77839000D01*
X162013742Y-77839000D01*
X162038512Y-77843927D01*
G37*
G36*
X160286000Y-79641000D02*
G01*
X158484000Y-79641000D01*
X158484000Y-77839000D01*
X160286000Y-77839000D01*
X160286000Y-79641000D01*
G37*
G36*
X132738000Y-79271000D02*
G01*
X129136000Y-79271000D01*
X129136000Y-75669000D01*
X132738000Y-75669000D01*
X132738000Y-79271000D01*
G37*
G36*
X155659742Y-75956722D02*
G01*
X155807701Y-76018009D01*
X155940855Y-76106979D01*
X156054101Y-76220225D01*
X156143071Y-76353379D01*
X156204358Y-76501338D01*
X156235600Y-76658405D01*
X156235600Y-76818555D01*
X156204358Y-76975622D01*
X156143071Y-77123581D01*
X156054101Y-77256735D01*
X155940855Y-77369981D01*
X155807701Y-77458951D01*
X155659742Y-77520238D01*
X155502675Y-77551480D01*
X155342525Y-77551480D01*
X155185458Y-77520238D01*
X155037499Y-77458951D01*
X154904345Y-77369981D01*
X154791099Y-77256735D01*
X154702129Y-77123581D01*
X154640842Y-76975622D01*
X154609600Y-76818555D01*
X154609600Y-76658405D01*
X154640842Y-76501338D01*
X154702129Y-76353379D01*
X154791099Y-76220225D01*
X154904345Y-76106979D01*
X155037499Y-76018009D01*
X155185458Y-75956722D01*
X155342525Y-75925480D01*
X155502675Y-75925480D01*
X155659742Y-75956722D01*
G37*
G36*
X136313512Y-75563927D02*
G01*
X136462812Y-75593624D01*
X136626784Y-75661544D01*
X136774354Y-75760147D01*
X136899853Y-75885646D01*
X136998456Y-76033216D01*
X137066376Y-76197188D01*
X137101000Y-76371259D01*
X137101000Y-76548741D01*
X137066376Y-76722812D01*
X136998456Y-76886784D01*
X136899853Y-77034354D01*
X136774354Y-77159853D01*
X136626784Y-77258456D01*
X136462812Y-77326376D01*
X136313512Y-77356073D01*
X136288742Y-77361000D01*
X136111258Y-77361000D01*
X136086488Y-77356073D01*
X135937188Y-77326376D01*
X135773216Y-77258456D01*
X135625646Y-77159853D01*
X135500147Y-77034354D01*
X135401544Y-76886784D01*
X135333624Y-76722812D01*
X135299000Y-76548741D01*
X135299000Y-76371259D01*
X135333624Y-76197188D01*
X135401544Y-76033216D01*
X135500147Y-75885646D01*
X135625646Y-75760147D01*
X135773216Y-75661544D01*
X135937188Y-75593624D01*
X136086488Y-75563927D01*
X136111258Y-75559000D01*
X136288742Y-75559000D01*
X136313512Y-75563927D01*
G37*
G36*
X164578512Y-75303927D02*
G01*
X164727812Y-75333624D01*
X164891784Y-75401544D01*
X165039354Y-75500147D01*
X165164853Y-75625646D01*
X165263456Y-75773216D01*
X165331376Y-75937188D01*
X165366000Y-76111259D01*
X165366000Y-76288741D01*
X165331376Y-76462812D01*
X165263456Y-76626784D01*
X165164853Y-76774354D01*
X165039354Y-76899853D01*
X164891784Y-76998456D01*
X164727812Y-77066376D01*
X164578512Y-77096073D01*
X164553742Y-77101000D01*
X164376258Y-77101000D01*
X164351488Y-77096073D01*
X164202188Y-77066376D01*
X164038216Y-76998456D01*
X163890646Y-76899853D01*
X163765147Y-76774354D01*
X163666544Y-76626784D01*
X163598624Y-76462812D01*
X163564000Y-76288741D01*
X163564000Y-76111259D01*
X163598624Y-75937188D01*
X163666544Y-75773216D01*
X163765147Y-75625646D01*
X163890646Y-75500147D01*
X164038216Y-75401544D01*
X164202188Y-75333624D01*
X164351488Y-75303927D01*
X164376258Y-75299000D01*
X164553742Y-75299000D01*
X164578512Y-75303927D01*
G37*
G36*
X162038512Y-75303927D02*
G01*
X162187812Y-75333624D01*
X162351784Y-75401544D01*
X162499354Y-75500147D01*
X162624853Y-75625646D01*
X162723456Y-75773216D01*
X162791376Y-75937188D01*
X162826000Y-76111259D01*
X162826000Y-76288741D01*
X162791376Y-76462812D01*
X162723456Y-76626784D01*
X162624853Y-76774354D01*
X162499354Y-76899853D01*
X162351784Y-76998456D01*
X162187812Y-77066376D01*
X162038512Y-77096073D01*
X162013742Y-77101000D01*
X161836258Y-77101000D01*
X161811488Y-77096073D01*
X161662188Y-77066376D01*
X161498216Y-76998456D01*
X161350646Y-76899853D01*
X161225147Y-76774354D01*
X161126544Y-76626784D01*
X161058624Y-76462812D01*
X161024000Y-76288741D01*
X161024000Y-76111259D01*
X161058624Y-75937188D01*
X161126544Y-75773216D01*
X161225147Y-75625646D01*
X161350646Y-75500147D01*
X161498216Y-75401544D01*
X161662188Y-75333624D01*
X161811488Y-75303927D01*
X161836258Y-75299000D01*
X162013742Y-75299000D01*
X162038512Y-75303927D01*
G37*
G36*
X160286000Y-77101000D02*
G01*
X158484000Y-77101000D01*
X158484000Y-75299000D01*
X160286000Y-75299000D01*
X160286000Y-77101000D01*
G37*
G36*
X121140901Y-73744845D02*
G01*
X121156059Y-73747860D01*
X121292732Y-73804472D01*
X121415735Y-73886660D01*
X121520340Y-73991265D01*
X121602528Y-74114268D01*
X121659140Y-74250941D01*
X121688000Y-74396033D01*
X121688000Y-74543967D01*
X121659140Y-74689059D01*
X121602528Y-74825732D01*
X121520340Y-74948735D01*
X121415735Y-75053340D01*
X121292732Y-75135528D01*
X121292731Y-75135529D01*
X121292730Y-75135529D01*
X121156059Y-75192140D01*
X121010968Y-75221000D01*
X120863032Y-75221000D01*
X120717941Y-75192140D01*
X120581270Y-75135529D01*
X120581269Y-75135529D01*
X120581268Y-75135528D01*
X120458265Y-75053340D01*
X120353660Y-74948735D01*
X120271472Y-74825732D01*
X120214860Y-74689059D01*
X120186000Y-74543967D01*
X120186000Y-74396033D01*
X120214860Y-74250941D01*
X120271472Y-74114268D01*
X120353660Y-73991265D01*
X120458265Y-73886660D01*
X120581268Y-73804472D01*
X120717941Y-73747860D01*
X120733099Y-73744845D01*
X120863032Y-73719000D01*
X121010968Y-73719000D01*
X121140901Y-73744845D01*
G37*
G36*
X136313512Y-73023927D02*
G01*
X136462812Y-73053624D01*
X136626784Y-73121544D01*
X136774354Y-73220147D01*
X136899853Y-73345646D01*
X136998456Y-73493216D01*
X137066376Y-73657188D01*
X137101000Y-73831259D01*
X137101000Y-74008741D01*
X137066376Y-74182812D01*
X136998456Y-74346784D01*
X136899853Y-74494354D01*
X136774354Y-74619853D01*
X136626784Y-74718456D01*
X136462812Y-74786376D01*
X136313512Y-74816073D01*
X136288742Y-74821000D01*
X136111258Y-74821000D01*
X136086488Y-74816073D01*
X135937188Y-74786376D01*
X135773216Y-74718456D01*
X135625646Y-74619853D01*
X135500147Y-74494354D01*
X135401544Y-74346784D01*
X135333624Y-74182812D01*
X135299000Y-74008741D01*
X135299000Y-73831259D01*
X135333624Y-73657188D01*
X135401544Y-73493216D01*
X135500147Y-73345646D01*
X135625646Y-73220147D01*
X135773216Y-73121544D01*
X135937188Y-73053624D01*
X136086488Y-73023927D01*
X136111258Y-73019000D01*
X136288742Y-73019000D01*
X136313512Y-73023927D01*
G37*
G36*
X154459164Y-71917869D02*
G01*
X154650433Y-71997095D01*
X154650435Y-71997096D01*
X154822573Y-72112115D01*
X154968965Y-72258507D01*
X155083985Y-72430647D01*
X155163211Y-72621916D01*
X155203600Y-72824964D01*
X155203600Y-73031996D01*
X155163211Y-73235044D01*
X155117398Y-73345646D01*
X155083984Y-73426315D01*
X154968965Y-73598453D01*
X154822573Y-73744845D01*
X154650435Y-73859864D01*
X154650434Y-73859865D01*
X154650433Y-73859865D01*
X154459164Y-73939091D01*
X154256116Y-73979480D01*
X154049084Y-73979480D01*
X153846036Y-73939091D01*
X153654767Y-73859865D01*
X153654766Y-73859865D01*
X153654765Y-73859864D01*
X153482627Y-73744845D01*
X153336235Y-73598453D01*
X153221216Y-73426315D01*
X153187802Y-73345646D01*
X153141989Y-73235044D01*
X153101600Y-73031996D01*
X153101600Y-72824964D01*
X153141989Y-72621916D01*
X153221215Y-72430647D01*
X153336235Y-72258507D01*
X153482627Y-72112115D01*
X153654765Y-71997096D01*
X153654767Y-71997095D01*
X153846036Y-71917869D01*
X154049084Y-71877480D01*
X154256116Y-71877480D01*
X154459164Y-71917869D01*
G37*
G36*
X132488674Y-70278465D02*
G01*
X132526367Y-70289899D01*
X132561103Y-70308466D01*
X132591548Y-70333452D01*
X132616534Y-70363897D01*
X132635101Y-70398633D01*
X132646535Y-70436326D01*
X132651000Y-70481661D01*
X132651000Y-71318339D01*
X132646535Y-71363674D01*
X132635101Y-71401367D01*
X132616534Y-71436103D01*
X132591548Y-71466548D01*
X132561103Y-71491534D01*
X132526367Y-71510101D01*
X132488674Y-71521535D01*
X132443339Y-71526000D01*
X131356661Y-71526000D01*
X131311326Y-71521535D01*
X131273633Y-71510101D01*
X131238897Y-71491534D01*
X131208452Y-71466548D01*
X131183466Y-71436103D01*
X131164899Y-71401367D01*
X131153465Y-71363674D01*
X131149000Y-71318339D01*
X131149000Y-70481661D01*
X131153465Y-70436326D01*
X131164899Y-70398633D01*
X131183466Y-70363897D01*
X131208452Y-70333452D01*
X131238897Y-70308466D01*
X131273633Y-70289899D01*
X131311326Y-70278465D01*
X131356661Y-70274000D01*
X132443339Y-70274000D01*
X132488674Y-70278465D01*
G37*
G36*
X128413512Y-69403927D02*
G01*
X128562812Y-69433624D01*
X128726784Y-69501544D01*
X128874354Y-69600147D01*
X128999853Y-69725646D01*
X129098456Y-69873216D01*
X129166376Y-70037188D01*
X129181528Y-70113365D01*
X129201000Y-70211258D01*
X129201000Y-70388742D01*
X129198392Y-70401852D01*
X129166376Y-70562812D01*
X129098456Y-70726784D01*
X128999853Y-70874354D01*
X128874354Y-70999853D01*
X128726784Y-71098456D01*
X128562812Y-71166376D01*
X128413512Y-71196073D01*
X128388742Y-71201000D01*
X128211258Y-71201000D01*
X128186488Y-71196073D01*
X128037188Y-71166376D01*
X127873216Y-71098456D01*
X127725646Y-70999853D01*
X127600147Y-70874354D01*
X127501544Y-70726784D01*
X127433624Y-70562812D01*
X127401608Y-70401852D01*
X127399000Y-70388742D01*
X127399000Y-70211258D01*
X127418472Y-70113365D01*
X127433624Y-70037188D01*
X127501544Y-69873216D01*
X127600147Y-69725646D01*
X127725646Y-69600147D01*
X127873216Y-69501544D01*
X128037188Y-69433624D01*
X128186488Y-69403927D01*
X128211258Y-69399000D01*
X128388742Y-69399000D01*
X128413512Y-69403927D01*
G37*
G36*
X126661000Y-71201000D02*
G01*
X124859000Y-71201000D01*
X124859000Y-69399000D01*
X126661000Y-69399000D01*
X126661000Y-71201000D01*
G37*
G36*
X170200986Y-68866429D02*
G01*
X170335734Y-68893232D01*
X170545203Y-68979997D01*
X170733720Y-69105960D01*
X170894040Y-69266280D01*
X171005856Y-69433625D01*
X171020004Y-69454799D01*
X171106768Y-69664267D01*
X171146635Y-69864689D01*
X171151000Y-69886636D01*
X171151000Y-70113364D01*
X171106768Y-70335734D01*
X171020003Y-70545203D01*
X170894040Y-70733720D01*
X170733720Y-70894040D01*
X170545203Y-71020003D01*
X170335734Y-71106768D01*
X170224549Y-71128884D01*
X170113365Y-71151000D01*
X169886635Y-71151000D01*
X169775451Y-71128884D01*
X169664266Y-71106768D01*
X169454797Y-71020003D01*
X169266280Y-70894040D01*
X169105960Y-70733720D01*
X168979997Y-70545203D01*
X168893232Y-70335734D01*
X168849000Y-70113364D01*
X168849000Y-69886636D01*
X168853366Y-69864689D01*
X168893232Y-69664267D01*
X168979996Y-69454799D01*
X168994144Y-69433625D01*
X169105960Y-69266280D01*
X169266280Y-69105960D01*
X169454797Y-68979997D01*
X169664266Y-68893232D01*
X169799014Y-68866429D01*
X169886635Y-68849000D01*
X170113365Y-68849000D01*
X170200986Y-68866429D01*
G37*
G36*
X120200986Y-68866429D02*
G01*
X120335734Y-68893232D01*
X120545203Y-68979997D01*
X120733720Y-69105960D01*
X120894040Y-69266280D01*
X121005856Y-69433625D01*
X121020004Y-69454799D01*
X121106768Y-69664267D01*
X121146635Y-69864689D01*
X121151000Y-69886636D01*
X121151000Y-70113364D01*
X121106768Y-70335734D01*
X121020003Y-70545203D01*
X120894040Y-70733720D01*
X120733720Y-70894040D01*
X120545203Y-71020003D01*
X120335734Y-71106768D01*
X120224549Y-71128884D01*
X120113365Y-71151000D01*
X119886635Y-71151000D01*
X119775451Y-71128884D01*
X119664266Y-71106768D01*
X119454797Y-71020003D01*
X119266280Y-70894040D01*
X119105960Y-70733720D01*
X118979997Y-70545203D01*
X118893232Y-70335734D01*
X118849000Y-70113364D01*
X118849000Y-69886636D01*
X118853366Y-69864689D01*
X118893232Y-69664267D01*
X118979996Y-69454799D01*
X118994144Y-69433625D01*
X119105960Y-69266280D01*
X119266280Y-69105960D01*
X119454797Y-68979997D01*
X119664266Y-68893232D01*
X119799014Y-68866429D01*
X119886635Y-68849000D01*
X120113365Y-68849000D01*
X120200986Y-68866429D01*
G37*
G36*
X135259999Y-68799737D02*
G01*
X135274528Y-68804145D01*
X135287711Y-68809606D01*
X135311745Y-68814388D01*
X135336249Y-68814389D01*
X135360282Y-68809609D01*
X135382921Y-68800232D01*
X135384765Y-68799000D01*
X136616050Y-68799000D01*
X136628164Y-68805475D01*
X136651613Y-68812588D01*
X136675999Y-68814990D01*
X136700385Y-68812588D01*
X136723834Y-68805475D01*
X136728746Y-68803152D01*
X136740001Y-68799737D01*
X136756140Y-68798148D01*
X137293861Y-68798148D01*
X137312199Y-68799954D01*
X137324450Y-68800556D01*
X137342869Y-68800556D01*
X137365149Y-68802750D01*
X137449233Y-68819476D01*
X137470660Y-68825976D01*
X137549858Y-68858780D01*
X137555303Y-68861691D01*
X137555309Y-68861693D01*
X137564169Y-68866429D01*
X137564173Y-68866432D01*
X137569614Y-68869340D01*
X137640899Y-68916971D01*
X137658204Y-68931172D01*
X137718828Y-68991796D01*
X137733029Y-69009101D01*
X137780660Y-69080386D01*
X137783568Y-69085827D01*
X137783571Y-69085831D01*
X137788307Y-69094691D01*
X137788309Y-69094697D01*
X137791220Y-69100142D01*
X137824024Y-69179340D01*
X137830524Y-69200767D01*
X137847250Y-69284851D01*
X137849444Y-69307131D01*
X137849444Y-69325550D01*
X137850046Y-69337801D01*
X137851852Y-69356139D01*
X137851852Y-69843862D01*
X137850046Y-69862199D01*
X137849444Y-69874450D01*
X137849444Y-69892869D01*
X137847250Y-69915149D01*
X137830524Y-69999233D01*
X137824024Y-70020660D01*
X137791220Y-70099858D01*
X137788309Y-70105303D01*
X137788307Y-70105309D01*
X137783571Y-70114169D01*
X137783568Y-70114173D01*
X137780660Y-70119614D01*
X137733029Y-70190899D01*
X137718828Y-70208204D01*
X137658204Y-70268828D01*
X137640899Y-70283029D01*
X137569614Y-70330660D01*
X137564173Y-70333568D01*
X137564169Y-70333571D01*
X137555309Y-70338307D01*
X137555303Y-70338309D01*
X137549858Y-70341220D01*
X137470660Y-70374024D01*
X137449233Y-70380524D01*
X137365149Y-70397250D01*
X137342869Y-70399444D01*
X137324450Y-70399444D01*
X137312199Y-70400046D01*
X137293862Y-70401852D01*
X136756140Y-70401852D01*
X136740001Y-70400263D01*
X136725472Y-70395855D01*
X136712289Y-70390394D01*
X136688255Y-70385612D01*
X136663751Y-70385611D01*
X136639718Y-70390391D01*
X136617079Y-70399768D01*
X136615235Y-70401000D01*
X135383950Y-70401000D01*
X135371836Y-70394525D01*
X135348387Y-70387412D01*
X135324001Y-70385010D01*
X135299615Y-70387412D01*
X135276166Y-70394525D01*
X135271254Y-70396848D01*
X135259999Y-70400263D01*
X135243860Y-70401852D01*
X134706138Y-70401852D01*
X134687801Y-70400046D01*
X134675550Y-70399444D01*
X134657131Y-70399444D01*
X134634851Y-70397250D01*
X134550767Y-70380524D01*
X134529340Y-70374024D01*
X134450142Y-70341220D01*
X134444697Y-70338309D01*
X134444691Y-70338307D01*
X134435831Y-70333571D01*
X134435827Y-70333568D01*
X134430386Y-70330660D01*
X134359101Y-70283029D01*
X134341796Y-70268828D01*
X134281172Y-70208204D01*
X134266971Y-70190899D01*
X134219340Y-70119614D01*
X134216432Y-70114173D01*
X134216429Y-70114169D01*
X134211693Y-70105309D01*
X134211691Y-70105303D01*
X134208780Y-70099858D01*
X134175976Y-70020660D01*
X134169476Y-69999233D01*
X134152750Y-69915149D01*
X134150556Y-69892869D01*
X134150556Y-69874450D01*
X134149954Y-69862199D01*
X134148148Y-69843862D01*
X134148148Y-69356139D01*
X134149954Y-69337801D01*
X134150556Y-69325550D01*
X134150556Y-69307131D01*
X134152750Y-69284851D01*
X134169476Y-69200767D01*
X134175976Y-69179340D01*
X134208780Y-69100142D01*
X134211691Y-69094697D01*
X134211693Y-69094691D01*
X134216429Y-69085831D01*
X134216432Y-69085827D01*
X134219340Y-69080386D01*
X134266971Y-69009101D01*
X134281172Y-68991796D01*
X134341796Y-68931172D01*
X134359101Y-68916971D01*
X134430386Y-68869340D01*
X134435827Y-68866432D01*
X134435831Y-68866429D01*
X134444691Y-68861693D01*
X134444697Y-68861691D01*
X134450142Y-68858780D01*
X134529340Y-68825976D01*
X134550767Y-68819476D01*
X134634851Y-68802750D01*
X134657131Y-68800556D01*
X134675550Y-68800556D01*
X134687801Y-68799954D01*
X134706139Y-68798148D01*
X135243860Y-68798148D01*
X135259999Y-68799737D01*
G37*
G36*
X132488674Y-68228465D02*
G01*
X132526367Y-68239899D01*
X132561103Y-68258466D01*
X132591548Y-68283452D01*
X132616534Y-68313897D01*
X132635101Y-68348633D01*
X132646535Y-68386326D01*
X132651000Y-68431661D01*
X132651000Y-69268339D01*
X132646535Y-69313674D01*
X132635101Y-69351367D01*
X132616534Y-69386103D01*
X132591548Y-69416548D01*
X132561103Y-69441534D01*
X132526367Y-69460101D01*
X132488674Y-69471535D01*
X132443339Y-69476000D01*
X131356661Y-69476000D01*
X131311326Y-69471535D01*
X131273633Y-69460101D01*
X131238897Y-69441534D01*
X131208452Y-69416548D01*
X131183466Y-69386103D01*
X131164899Y-69351367D01*
X131153465Y-69313674D01*
X131149000Y-69268339D01*
X131149000Y-68431661D01*
X131153465Y-68386326D01*
X131164899Y-68348633D01*
X131183466Y-68313897D01*
X131208452Y-68283452D01*
X131238897Y-68258466D01*
X131273633Y-68239899D01*
X131311326Y-68228465D01*
X131356661Y-68224000D01*
X132443339Y-68224000D01*
X132488674Y-68228465D01*
G37*
M02*
