G04 #@! TF.GenerationSoftware,KiCad,Pcbnew,(5.1.5)-3*
G04 #@! TF.CreationDate,2021-10-17T14:13:30-07:00*
G04 #@! TF.ProjectId,pololu_regulator_breakout,706f6c6f-6c75-45f7-9265-67756c61746f,rev?*
G04 #@! TF.SameCoordinates,Original*
G04 #@! TF.FileFunction,Legend,Top*
G04 #@! TF.FilePolarity,Positive*
%FSLAX46Y46*%
G04 Gerber Fmt 4.6, Leading zero omitted, Abs format (unit mm)*
G04 Created by KiCad (PCBNEW (5.1.5)-3) date 2021-10-17 14:13:30*
%MOMM*%
%LPD*%
G04 APERTURE LIST*
%ADD10C,0.100000*%
%ADD11C,0.120000*%
%ADD12C,0.150000*%
%ADD13O,1.802000X1.802000*%
%ADD14R,1.802000X1.802000*%
%ADD15R,1.102000X1.602000*%
%ADD16R,2.002000X0.902000*%
%ADD17C,1.626000*%
%ADD18C,2.102000*%
%ADD19C,2.302000*%
%ADD20C,3.602000*%
%ADD21R,3.602000X3.602000*%
%ADD22C,1.502000*%
G04 APERTURE END LIST*
D10*
X134238095Y-71026190D02*
X134333333Y-71026190D01*
X134380952Y-71050000D01*
X134428571Y-71097619D01*
X134452380Y-71192857D01*
X134452380Y-71359523D01*
X134428571Y-71454761D01*
X134380952Y-71502380D01*
X134333333Y-71526190D01*
X134238095Y-71526190D01*
X134190476Y-71502380D01*
X134142857Y-71454761D01*
X134119047Y-71359523D01*
X134119047Y-71192857D01*
X134142857Y-71097619D01*
X134190476Y-71050000D01*
X134238095Y-71026190D01*
X134833333Y-71264285D02*
X134666666Y-71264285D01*
X134666666Y-71526190D02*
X134666666Y-71026190D01*
X134904761Y-71026190D01*
X135261904Y-71264285D02*
X135095238Y-71264285D01*
X135095238Y-71526190D02*
X135095238Y-71026190D01*
X135333333Y-71026190D01*
X137142857Y-71026190D02*
X137238095Y-71026190D01*
X137285714Y-71050000D01*
X137333333Y-71097619D01*
X137357142Y-71192857D01*
X137357142Y-71359523D01*
X137333333Y-71454761D01*
X137285714Y-71502380D01*
X137238095Y-71526190D01*
X137142857Y-71526190D01*
X137095238Y-71502380D01*
X137047619Y-71454761D01*
X137023809Y-71359523D01*
X137023809Y-71192857D01*
X137047619Y-71097619D01*
X137095238Y-71050000D01*
X137142857Y-71026190D01*
X137571428Y-71526190D02*
X137571428Y-71026190D01*
X137857142Y-71526190D01*
X137857142Y-71026190D01*
X125050000Y-67750000D02*
X125002380Y-67726190D01*
X124930952Y-67726190D01*
X124859523Y-67750000D01*
X124811904Y-67797619D01*
X124788095Y-67845238D01*
X124764285Y-67940476D01*
X124764285Y-68011904D01*
X124788095Y-68107142D01*
X124811904Y-68154761D01*
X124859523Y-68202380D01*
X124930952Y-68226190D01*
X124978571Y-68226190D01*
X125050000Y-68202380D01*
X125073809Y-68178571D01*
X125073809Y-68011904D01*
X124978571Y-68011904D01*
X125288095Y-68226190D02*
X125288095Y-67726190D01*
X125573809Y-68226190D01*
X125573809Y-67726190D01*
X125811904Y-68226190D02*
X125811904Y-67726190D01*
X125930952Y-67726190D01*
X126002380Y-67750000D01*
X126050000Y-67797619D01*
X126073809Y-67845238D01*
X126097619Y-67940476D01*
X126097619Y-68011904D01*
X126073809Y-68107142D01*
X126050000Y-68154761D01*
X126002380Y-68202380D01*
X125930952Y-68226190D01*
X125811904Y-68226190D01*
X127811904Y-68202380D02*
X127883333Y-68226190D01*
X128002380Y-68226190D01*
X128050000Y-68202380D01*
X128073809Y-68178571D01*
X128097619Y-68130952D01*
X128097619Y-68083333D01*
X128073809Y-68035714D01*
X128050000Y-68011904D01*
X128002380Y-67988095D01*
X127907142Y-67964285D01*
X127859523Y-67940476D01*
X127835714Y-67916666D01*
X127811904Y-67869047D01*
X127811904Y-67821428D01*
X127835714Y-67773809D01*
X127859523Y-67750000D01*
X127907142Y-67726190D01*
X128026190Y-67726190D01*
X128097619Y-67750000D01*
X128311904Y-68226190D02*
X128311904Y-67726190D01*
X128811904Y-67750000D02*
X128764285Y-67726190D01*
X128692857Y-67726190D01*
X128621428Y-67750000D01*
X128573809Y-67797619D01*
X128550000Y-67845238D01*
X128526190Y-67940476D01*
X128526190Y-68011904D01*
X128550000Y-68107142D01*
X128573809Y-68154761D01*
X128621428Y-68202380D01*
X128692857Y-68226190D01*
X128740476Y-68226190D01*
X128811904Y-68202380D01*
X128835714Y-68178571D01*
X128835714Y-68011904D01*
X128740476Y-68011904D01*
D11*
X156057142Y-90216785D02*
X156057142Y-89466785D01*
X156342857Y-89466785D01*
X156414285Y-89502500D01*
X156450000Y-89538214D01*
X156485714Y-89609642D01*
X156485714Y-89716785D01*
X156450000Y-89788214D01*
X156414285Y-89823928D01*
X156342857Y-89859642D01*
X156057142Y-89859642D01*
X156914285Y-90216785D02*
X156842857Y-90181071D01*
X156807142Y-90145357D01*
X156771428Y-90073928D01*
X156771428Y-89859642D01*
X156807142Y-89788214D01*
X156842857Y-89752500D01*
X156914285Y-89716785D01*
X157021428Y-89716785D01*
X157092857Y-89752500D01*
X157128571Y-89788214D01*
X157164285Y-89859642D01*
X157164285Y-90073928D01*
X157128571Y-90145357D01*
X157092857Y-90181071D01*
X157021428Y-90216785D01*
X156914285Y-90216785D01*
X157592857Y-90216785D02*
X157521428Y-90181071D01*
X157485714Y-90109642D01*
X157485714Y-89466785D01*
X157985714Y-90216785D02*
X157914285Y-90181071D01*
X157878571Y-90145357D01*
X157842857Y-90073928D01*
X157842857Y-89859642D01*
X157878571Y-89788214D01*
X157914285Y-89752500D01*
X157985714Y-89716785D01*
X158092857Y-89716785D01*
X158164285Y-89752500D01*
X158200000Y-89788214D01*
X158235714Y-89859642D01*
X158235714Y-90073928D01*
X158200000Y-90145357D01*
X158164285Y-90181071D01*
X158092857Y-90216785D01*
X157985714Y-90216785D01*
X158664285Y-90216785D02*
X158592857Y-90181071D01*
X158557142Y-90109642D01*
X158557142Y-89466785D01*
X159271428Y-89716785D02*
X159271428Y-90216785D01*
X158950000Y-89716785D02*
X158950000Y-90109642D01*
X158985714Y-90181071D01*
X159057142Y-90216785D01*
X159164285Y-90216785D01*
X159235714Y-90181071D01*
X159271428Y-90145357D01*
X160200000Y-90216785D02*
X160200000Y-89466785D01*
X160378571Y-89466785D01*
X160485714Y-89502500D01*
X160557142Y-89573928D01*
X160592857Y-89645357D01*
X160628571Y-89788214D01*
X160628571Y-89895357D01*
X160592857Y-90038214D01*
X160557142Y-90109642D01*
X160485714Y-90181071D01*
X160378571Y-90216785D01*
X160200000Y-90216785D01*
X160914285Y-89538214D02*
X160950000Y-89502500D01*
X161021428Y-89466785D01*
X161200000Y-89466785D01*
X161271428Y-89502500D01*
X161307142Y-89538214D01*
X161342857Y-89609642D01*
X161342857Y-89681071D01*
X161307142Y-89788214D01*
X160878571Y-90216785D01*
X161342857Y-90216785D01*
X161985714Y-89716785D02*
X161985714Y-90216785D01*
X161807142Y-89431071D02*
X161628571Y-89966785D01*
X162092857Y-89966785D01*
X162271428Y-89466785D02*
X162521428Y-90216785D01*
X162771428Y-89466785D01*
X162985714Y-89538214D02*
X163021428Y-89502500D01*
X163092857Y-89466785D01*
X163271428Y-89466785D01*
X163342857Y-89502500D01*
X163378571Y-89538214D01*
X163414285Y-89609642D01*
X163414285Y-89681071D01*
X163378571Y-89788214D01*
X162950000Y-90216785D01*
X163414285Y-90216785D01*
X163700000Y-89538214D02*
X163735714Y-89502500D01*
X163807142Y-89466785D01*
X163985714Y-89466785D01*
X164057142Y-89502500D01*
X164092857Y-89538214D01*
X164128571Y-89609642D01*
X164128571Y-89681071D01*
X164092857Y-89788214D01*
X163664285Y-90216785D01*
X164128571Y-90216785D01*
X164700000Y-89823928D02*
X164450000Y-89823928D01*
X164450000Y-90216785D02*
X164450000Y-89466785D01*
X164807142Y-89466785D01*
X165021428Y-90216785D02*
X165414285Y-89716785D01*
X165021428Y-89716785D02*
X165414285Y-90216785D01*
X155950000Y-91068928D02*
X156057142Y-91104642D01*
X156092857Y-91140357D01*
X156128571Y-91211785D01*
X156128571Y-91318928D01*
X156092857Y-91390357D01*
X156057142Y-91426071D01*
X155985714Y-91461785D01*
X155700000Y-91461785D01*
X155700000Y-90711785D01*
X155950000Y-90711785D01*
X156021428Y-90747500D01*
X156057142Y-90783214D01*
X156092857Y-90854642D01*
X156092857Y-90926071D01*
X156057142Y-90997500D01*
X156021428Y-91033214D01*
X155950000Y-91068928D01*
X155700000Y-91068928D01*
X156450000Y-91461785D02*
X156450000Y-90961785D01*
X156450000Y-91104642D02*
X156485714Y-91033214D01*
X156521428Y-90997500D01*
X156592857Y-90961785D01*
X156664285Y-90961785D01*
X157200000Y-91426071D02*
X157128571Y-91461785D01*
X156985714Y-91461785D01*
X156914285Y-91426071D01*
X156878571Y-91354642D01*
X156878571Y-91068928D01*
X156914285Y-90997500D01*
X156985714Y-90961785D01*
X157128571Y-90961785D01*
X157200000Y-90997500D01*
X157235714Y-91068928D01*
X157235714Y-91140357D01*
X156878571Y-91211785D01*
X157878571Y-91461785D02*
X157878571Y-91068928D01*
X157842857Y-90997500D01*
X157771428Y-90961785D01*
X157628571Y-90961785D01*
X157557142Y-90997500D01*
X157878571Y-91426071D02*
X157807142Y-91461785D01*
X157628571Y-91461785D01*
X157557142Y-91426071D01*
X157521428Y-91354642D01*
X157521428Y-91283214D01*
X157557142Y-91211785D01*
X157628571Y-91176071D01*
X157807142Y-91176071D01*
X157878571Y-91140357D01*
X158235714Y-91461785D02*
X158235714Y-90711785D01*
X158307142Y-91176071D02*
X158521428Y-91461785D01*
X158521428Y-90961785D02*
X158235714Y-91247500D01*
X158950000Y-91461785D02*
X158878571Y-91426071D01*
X158842857Y-91390357D01*
X158807142Y-91318928D01*
X158807142Y-91104642D01*
X158842857Y-91033214D01*
X158878571Y-90997500D01*
X158950000Y-90961785D01*
X159057142Y-90961785D01*
X159128571Y-90997500D01*
X159164285Y-91033214D01*
X159200000Y-91104642D01*
X159200000Y-91318928D01*
X159164285Y-91390357D01*
X159128571Y-91426071D01*
X159057142Y-91461785D01*
X158950000Y-91461785D01*
X159842857Y-90961785D02*
X159842857Y-91461785D01*
X159521428Y-90961785D02*
X159521428Y-91354642D01*
X159557142Y-91426071D01*
X159628571Y-91461785D01*
X159735714Y-91461785D01*
X159807142Y-91426071D01*
X159842857Y-91390357D01*
X160092857Y-90961785D02*
X160378571Y-90961785D01*
X160200000Y-90711785D02*
X160200000Y-91354642D01*
X160235714Y-91426071D01*
X160307142Y-91461785D01*
X160378571Y-91461785D01*
X161128571Y-90961785D02*
X161307142Y-91461785D01*
X161485714Y-90961785D01*
X162164285Y-91461785D02*
X161735714Y-91461785D01*
X161950000Y-91461785D02*
X161950000Y-90711785D01*
X161878571Y-90818928D01*
X161807142Y-90890357D01*
X161735714Y-90926071D01*
X163057142Y-91176071D02*
X163628571Y-91176071D01*
X164557142Y-91461785D02*
X164557142Y-90711785D01*
X164807142Y-91247500D01*
X165057142Y-90711785D01*
X165057142Y-91461785D01*
X165378571Y-91247500D02*
X165735714Y-91247500D01*
X165307142Y-91461785D02*
X165557142Y-90711785D01*
X165807142Y-91461785D01*
D12*
X158076190Y-72750000D02*
X157971428Y-72697619D01*
X157814285Y-72697619D01*
X157657142Y-72750000D01*
X157552380Y-72854761D01*
X157500000Y-72959523D01*
X157447619Y-73169047D01*
X157447619Y-73326190D01*
X157500000Y-73535714D01*
X157552380Y-73640476D01*
X157657142Y-73745238D01*
X157814285Y-73797619D01*
X157919047Y-73797619D01*
X158076190Y-73745238D01*
X158128571Y-73692857D01*
X158128571Y-73326190D01*
X157919047Y-73326190D01*
X158600000Y-73797619D02*
X158600000Y-72697619D01*
X159228571Y-73797619D01*
X159228571Y-72697619D01*
X159752380Y-73797619D02*
X159752380Y-72697619D01*
X160014285Y-72697619D01*
X160171428Y-72750000D01*
X160276190Y-72854761D01*
X160328571Y-72959523D01*
X160380952Y-73169047D01*
X160380952Y-73326190D01*
X160328571Y-73535714D01*
X160276190Y-73640476D01*
X160171428Y-73745238D01*
X160014285Y-73797619D01*
X159752380Y-73797619D01*
X161533333Y-72697619D02*
X161900000Y-73797619D01*
X162266666Y-72697619D01*
X164047619Y-72750000D02*
X163942857Y-72697619D01*
X163785714Y-72697619D01*
X163628571Y-72750000D01*
X163523809Y-72854761D01*
X163471428Y-72959523D01*
X163419047Y-73169047D01*
X163419047Y-73326190D01*
X163471428Y-73535714D01*
X163523809Y-73640476D01*
X163628571Y-73745238D01*
X163785714Y-73797619D01*
X163890476Y-73797619D01*
X164047619Y-73745238D01*
X164100000Y-73692857D01*
X164100000Y-73326190D01*
X163890476Y-73326190D01*
X164571428Y-73797619D02*
X164571428Y-72697619D01*
X165200000Y-73797619D01*
X165200000Y-72697619D01*
X165723809Y-73797619D02*
X165723809Y-72697619D01*
X165985714Y-72697619D01*
X166142857Y-72750000D01*
X166247619Y-72854761D01*
X166300000Y-72959523D01*
X166352380Y-73169047D01*
X166352380Y-73326190D01*
X166300000Y-73535714D01*
X166247619Y-73640476D01*
X166142857Y-73745238D01*
X165985714Y-73797619D01*
X165723809Y-73797619D01*
D11*
X124430000Y-71630000D02*
X124430000Y-70300000D01*
X125760000Y-71630000D02*
X124430000Y-71630000D01*
X127030000Y-71630000D02*
X127030000Y-68970000D01*
X127030000Y-68970000D02*
X129630000Y-68970000D01*
X127030000Y-71630000D02*
X129630000Y-71630000D01*
X129630000Y-71630000D02*
X129630000Y-68970000D01*
X132610000Y-70136252D02*
X132610000Y-69613748D01*
X131190000Y-70136252D02*
X131190000Y-69613748D01*
X138050000Y-69900000D02*
G75*
G02X137350000Y-70600000I-700000J0D01*
G01*
X137350000Y-68600000D02*
G75*
G02X138050000Y-69300000I0J-700000D01*
G01*
X133950000Y-69300000D02*
G75*
G02X134650000Y-68600000I700000J0D01*
G01*
X134650000Y-70600000D02*
G75*
G02X133950000Y-69900000I0J700000D01*
G01*
X137400000Y-70600000D02*
X134600000Y-70600000D01*
X133950000Y-69900000D02*
X133950000Y-69300000D01*
X134600000Y-68600000D02*
X137400000Y-68600000D01*
X138050000Y-69300000D02*
X138050000Y-69900000D01*
X137200000Y-68400000D02*
X137500000Y-68100000D01*
X137500000Y-68100000D02*
X136900000Y-68100000D01*
X137200000Y-68400000D02*
X136900000Y-68100000D01*
X135490000Y-84313748D02*
X135490000Y-84836252D01*
X136910000Y-84313748D02*
X136910000Y-84836252D01*
X126960000Y-91885000D02*
X126960000Y-89025000D01*
X125040000Y-91885000D02*
X126960000Y-91885000D01*
X125040000Y-89025000D02*
X125040000Y-91885000D01*
X134440000Y-88320000D02*
X135900000Y-88320000D01*
X134440000Y-91480000D02*
X137600000Y-91480000D01*
X134440000Y-91480000D02*
X134440000Y-90550000D01*
X134440000Y-88320000D02*
X134440000Y-89250000D01*
X156692600Y-88168480D02*
X138912600Y-88168480D01*
X138892600Y-88168480D02*
X138892600Y-70368480D01*
X138892600Y-70368480D02*
X156692600Y-70368480D01*
X156692600Y-70368480D02*
X156692600Y-88168480D01*
X143861252Y-89590000D02*
X143338748Y-89590000D01*
X143861252Y-91010000D02*
X143338748Y-91010000D01*
X149163748Y-91010000D02*
X149686252Y-91010000D01*
X149163748Y-89590000D02*
X149686252Y-89590000D01*
X127640000Y-88140000D02*
X127640000Y-91000000D01*
X129560000Y-88140000D02*
X127640000Y-88140000D01*
X129560000Y-91000000D02*
X129560000Y-88140000D01*
X158055000Y-77530000D02*
X158055000Y-76200000D01*
X159385000Y-77530000D02*
X158055000Y-77530000D01*
X160655000Y-77530000D02*
X160655000Y-74870000D01*
X160655000Y-74870000D02*
X165795000Y-74870000D01*
X160655000Y-77530000D02*
X165795000Y-77530000D01*
X165795000Y-77530000D02*
X165795000Y-74870000D01*
X158055000Y-80070000D02*
X158055000Y-78740000D01*
X159385000Y-80070000D02*
X158055000Y-80070000D01*
X160655000Y-80070000D02*
X160655000Y-77410000D01*
X160655000Y-77410000D02*
X165795000Y-77410000D01*
X160655000Y-80070000D02*
X165795000Y-80070000D01*
X165795000Y-80070000D02*
X165795000Y-77410000D01*
X158055000Y-82610000D02*
X158055000Y-81280000D01*
X159385000Y-82610000D02*
X158055000Y-82610000D01*
X160655000Y-82610000D02*
X160655000Y-79950000D01*
X160655000Y-79950000D02*
X165795000Y-79950000D01*
X160655000Y-82610000D02*
X165795000Y-82610000D01*
X165795000Y-82610000D02*
X165795000Y-79950000D01*
X158055000Y-85150000D02*
X158055000Y-83820000D01*
X159385000Y-85150000D02*
X158055000Y-85150000D01*
X160655000Y-85150000D02*
X160655000Y-82490000D01*
X160655000Y-82490000D02*
X165795000Y-82490000D01*
X160655000Y-85150000D02*
X165795000Y-85150000D01*
X165795000Y-85150000D02*
X165795000Y-82490000D01*
X119827000Y-74320000D02*
G75*
G02X122047000Y-74320000I1110000J0D01*
G01*
X122047000Y-85620000D02*
G75*
G02X119827000Y-85620000I-1110000J0D01*
G01*
X117727000Y-74910000D02*
X119827000Y-74910000D01*
X122047000Y-85620000D02*
X122047000Y-85030000D01*
X119827000Y-85620000D02*
X119827000Y-85030000D01*
X119827000Y-74910000D02*
X119827000Y-74320000D01*
X122047000Y-74910000D02*
X122047000Y-74320000D01*
X122047000Y-74910000D02*
X126947000Y-74910000D01*
X117727000Y-85030000D02*
X119827000Y-85030000D01*
X122047000Y-85030000D02*
X126947000Y-85030000D01*
X126947000Y-85030000D02*
X126947000Y-74910000D01*
X117727000Y-85030000D02*
X117727000Y-74910000D01*
X137530000Y-80330000D02*
X136200000Y-80330000D01*
X137530000Y-79000000D02*
X137530000Y-80330000D01*
X137530000Y-77730000D02*
X134870000Y-77730000D01*
X134870000Y-77730000D02*
X134870000Y-72590000D01*
X137530000Y-77730000D02*
X137530000Y-72590000D01*
X137530000Y-72590000D02*
X134870000Y-72590000D01*
D10*
X133785714Y-68326190D02*
X133785714Y-67826190D01*
X133904761Y-67826190D01*
X133976190Y-67850000D01*
X134023809Y-67897619D01*
X134047619Y-67945238D01*
X134071428Y-68040476D01*
X134071428Y-68111904D01*
X134047619Y-68207142D01*
X134023809Y-68254761D01*
X133976190Y-68302380D01*
X133904761Y-68326190D01*
X133785714Y-68326190D01*
X134476190Y-68302380D02*
X134428571Y-68326190D01*
X134333333Y-68326190D01*
X134285714Y-68302380D01*
X134261904Y-68254761D01*
X134261904Y-68064285D01*
X134285714Y-68016666D01*
X134333333Y-67992857D01*
X134428571Y-67992857D01*
X134476190Y-68016666D01*
X134500000Y-68064285D01*
X134500000Y-68111904D01*
X134261904Y-68159523D01*
X134642857Y-67992857D02*
X134833333Y-67992857D01*
X134714285Y-68326190D02*
X134714285Y-67897619D01*
X134738095Y-67850000D01*
X134785714Y-67826190D01*
X134833333Y-67826190D01*
X135214285Y-68326190D02*
X135214285Y-68064285D01*
X135190476Y-68016666D01*
X135142857Y-67992857D01*
X135047619Y-67992857D01*
X135000000Y-68016666D01*
X135214285Y-68302380D02*
X135166666Y-68326190D01*
X135047619Y-68326190D01*
X135000000Y-68302380D01*
X134976190Y-68254761D01*
X134976190Y-68207142D01*
X135000000Y-68159523D01*
X135047619Y-68135714D01*
X135166666Y-68135714D01*
X135214285Y-68111904D01*
X135666666Y-67992857D02*
X135666666Y-68326190D01*
X135452380Y-67992857D02*
X135452380Y-68254761D01*
X135476190Y-68302380D01*
X135523809Y-68326190D01*
X135595238Y-68326190D01*
X135642857Y-68302380D01*
X135666666Y-68278571D01*
X135976190Y-68326190D02*
X135928571Y-68302380D01*
X135904761Y-68254761D01*
X135904761Y-67826190D01*
X136095238Y-67992857D02*
X136285714Y-67992857D01*
X136166666Y-67826190D02*
X136166666Y-68254761D01*
X136190476Y-68302380D01*
X136238095Y-68326190D01*
X136285714Y-68326190D01*
X134776190Y-85289285D02*
X134538095Y-85455952D01*
X134776190Y-85575000D02*
X134276190Y-85575000D01*
X134276190Y-85384523D01*
X134300000Y-85336904D01*
X134323809Y-85313095D01*
X134371428Y-85289285D01*
X134442857Y-85289285D01*
X134490476Y-85313095D01*
X134514285Y-85336904D01*
X134538095Y-85384523D01*
X134538095Y-85575000D01*
X134823809Y-85194047D02*
X134823809Y-84813095D01*
X134776190Y-84455952D02*
X134776190Y-84694047D01*
X134276190Y-84694047D01*
X134514285Y-84289285D02*
X134514285Y-84122619D01*
X134776190Y-84051190D02*
X134776190Y-84289285D01*
X134276190Y-84289285D01*
X134276190Y-84051190D01*
X134776190Y-83836904D02*
X134276190Y-83836904D01*
X134276190Y-83717857D01*
X134300000Y-83646428D01*
X134347619Y-83598809D01*
X134395238Y-83575000D01*
X134490476Y-83551190D01*
X134561904Y-83551190D01*
X134657142Y-83575000D01*
X134704761Y-83598809D01*
X134752380Y-83646428D01*
X134776190Y-83717857D01*
X134776190Y-83836904D01*
D12*
X123452380Y-91476190D02*
X124452380Y-91142857D01*
X123452380Y-90809523D01*
X124547619Y-90714285D02*
X124547619Y-89952380D01*
X124452380Y-89714285D02*
X123452380Y-89714285D01*
X124452380Y-89238095D02*
X123452380Y-89238095D01*
X124452380Y-88666666D01*
X123452380Y-88666666D01*
X151064980Y-80040384D02*
X151874504Y-80040384D01*
X151969742Y-79992765D01*
X152017361Y-79945146D01*
X152064980Y-79849908D01*
X152064980Y-79659432D01*
X152017361Y-79564194D01*
X151969742Y-79516575D01*
X151874504Y-79468956D01*
X151064980Y-79468956D01*
X152064980Y-78468956D02*
X152064980Y-79040384D01*
X152064980Y-78754670D02*
X151064980Y-78754670D01*
X151207838Y-78849908D01*
X151303076Y-78945146D01*
X151350695Y-79040384D01*
D10*
X142826190Y-92026190D02*
X142659523Y-91788095D01*
X142540476Y-92026190D02*
X142540476Y-91526190D01*
X142730952Y-91526190D01*
X142778571Y-91550000D01*
X142802380Y-91573809D01*
X142826190Y-91621428D01*
X142826190Y-91692857D01*
X142802380Y-91740476D01*
X142778571Y-91764285D01*
X142730952Y-91788095D01*
X142540476Y-91788095D01*
X142921428Y-92073809D02*
X143302380Y-92073809D01*
X143421428Y-92026190D02*
X143421428Y-91526190D01*
X143611904Y-91526190D01*
X143659523Y-91550000D01*
X143683333Y-91573809D01*
X143707142Y-91621428D01*
X143707142Y-91692857D01*
X143683333Y-91740476D01*
X143659523Y-91764285D01*
X143611904Y-91788095D01*
X143421428Y-91788095D01*
X144135714Y-91692857D02*
X144135714Y-92026190D01*
X143921428Y-91692857D02*
X143921428Y-91954761D01*
X143945238Y-92002380D01*
X143992857Y-92026190D01*
X144064285Y-92026190D01*
X144111904Y-92002380D01*
X144135714Y-91978571D01*
X144445238Y-92026190D02*
X144397619Y-92002380D01*
X144373809Y-91954761D01*
X144373809Y-91526190D01*
X144707142Y-92026190D02*
X144659523Y-92002380D01*
X144635714Y-91954761D01*
X144635714Y-91526190D01*
X148710714Y-92026190D02*
X148544047Y-91788095D01*
X148425000Y-92026190D02*
X148425000Y-91526190D01*
X148615476Y-91526190D01*
X148663095Y-91550000D01*
X148686904Y-91573809D01*
X148710714Y-91621428D01*
X148710714Y-91692857D01*
X148686904Y-91740476D01*
X148663095Y-91764285D01*
X148615476Y-91788095D01*
X148425000Y-91788095D01*
X148805952Y-92073809D02*
X149186904Y-92073809D01*
X149544047Y-92026190D02*
X149305952Y-92026190D01*
X149305952Y-91526190D01*
X149710714Y-91764285D02*
X149877380Y-91764285D01*
X149948809Y-92026190D02*
X149710714Y-92026190D01*
X149710714Y-91526190D01*
X149948809Y-91526190D01*
X150163095Y-92026190D02*
X150163095Y-91526190D01*
X150282142Y-91526190D01*
X150353571Y-91550000D01*
X150401190Y-91597619D01*
X150425000Y-91645238D01*
X150448809Y-91740476D01*
X150448809Y-91811904D01*
X150425000Y-91907142D01*
X150401190Y-91954761D01*
X150353571Y-92002380D01*
X150282142Y-92026190D01*
X150163095Y-92026190D01*
D12*
X130052380Y-92142857D02*
X131052380Y-91809523D01*
X130052380Y-91476190D01*
X131147619Y-91380952D02*
X131147619Y-90619047D01*
X130052380Y-90190476D02*
X130052380Y-90000000D01*
X130100000Y-89904761D01*
X130195238Y-89809523D01*
X130385714Y-89761904D01*
X130719047Y-89761904D01*
X130909523Y-89809523D01*
X131004761Y-89904761D01*
X131052380Y-90000000D01*
X131052380Y-90190476D01*
X131004761Y-90285714D01*
X130909523Y-90380952D01*
X130719047Y-90428571D01*
X130385714Y-90428571D01*
X130195238Y-90380952D01*
X130100000Y-90285714D01*
X130052380Y-90190476D01*
X130052380Y-89333333D02*
X130861904Y-89333333D01*
X130957142Y-89285714D01*
X131004761Y-89238095D01*
X131052380Y-89142857D01*
X131052380Y-88952380D01*
X131004761Y-88857142D01*
X130957142Y-88809523D01*
X130861904Y-88761904D01*
X130052380Y-88761904D01*
X130052380Y-88428571D02*
X130052380Y-87857142D01*
X131052380Y-88142857D02*
X130052380Y-88142857D01*
X131044142Y-86041428D02*
X131044142Y-84898571D01*
X131615571Y-85470000D02*
X130472714Y-85470000D01*
X131044142Y-75041428D02*
X131044142Y-73898571D01*
%LPC*%
D13*
X128300000Y-70300000D03*
D14*
X125760000Y-70300000D03*
D10*
G36*
X132405505Y-68225311D02*
G01*
X132431925Y-68229230D01*
X132457835Y-68235720D01*
X132482983Y-68244718D01*
X132507128Y-68256138D01*
X132530038Y-68269869D01*
X132551492Y-68285780D01*
X132571282Y-68303718D01*
X132589220Y-68323508D01*
X132605131Y-68344962D01*
X132618862Y-68367872D01*
X132630282Y-68392017D01*
X132639280Y-68417165D01*
X132645770Y-68443075D01*
X132649689Y-68469495D01*
X132651000Y-68496173D01*
X132651000Y-69203827D01*
X132649689Y-69230505D01*
X132645770Y-69256925D01*
X132639280Y-69282835D01*
X132630282Y-69307983D01*
X132618862Y-69332128D01*
X132605131Y-69355038D01*
X132589220Y-69376492D01*
X132571282Y-69396282D01*
X132551492Y-69414220D01*
X132530038Y-69430131D01*
X132507128Y-69443862D01*
X132482983Y-69455282D01*
X132457835Y-69464280D01*
X132431925Y-69470770D01*
X132405505Y-69474689D01*
X132378827Y-69476000D01*
X131421173Y-69476000D01*
X131394495Y-69474689D01*
X131368075Y-69470770D01*
X131342165Y-69464280D01*
X131317017Y-69455282D01*
X131292872Y-69443862D01*
X131269962Y-69430131D01*
X131248508Y-69414220D01*
X131228718Y-69396282D01*
X131210780Y-69376492D01*
X131194869Y-69355038D01*
X131181138Y-69332128D01*
X131169718Y-69307983D01*
X131160720Y-69282835D01*
X131154230Y-69256925D01*
X131150311Y-69230505D01*
X131149000Y-69203827D01*
X131149000Y-68496173D01*
X131150311Y-68469495D01*
X131154230Y-68443075D01*
X131160720Y-68417165D01*
X131169718Y-68392017D01*
X131181138Y-68367872D01*
X131194869Y-68344962D01*
X131210780Y-68323508D01*
X131228718Y-68303718D01*
X131248508Y-68285780D01*
X131269962Y-68269869D01*
X131292872Y-68256138D01*
X131317017Y-68244718D01*
X131342165Y-68235720D01*
X131368075Y-68229230D01*
X131394495Y-68225311D01*
X131421173Y-68224000D01*
X132378827Y-68224000D01*
X132405505Y-68225311D01*
G37*
G36*
X132405505Y-70275311D02*
G01*
X132431925Y-70279230D01*
X132457835Y-70285720D01*
X132482983Y-70294718D01*
X132507128Y-70306138D01*
X132530038Y-70319869D01*
X132551492Y-70335780D01*
X132571282Y-70353718D01*
X132589220Y-70373508D01*
X132605131Y-70394962D01*
X132618862Y-70417872D01*
X132630282Y-70442017D01*
X132639280Y-70467165D01*
X132645770Y-70493075D01*
X132649689Y-70519495D01*
X132651000Y-70546173D01*
X132651000Y-71253827D01*
X132649689Y-71280505D01*
X132645770Y-71306925D01*
X132639280Y-71332835D01*
X132630282Y-71357983D01*
X132618862Y-71382128D01*
X132605131Y-71405038D01*
X132589220Y-71426492D01*
X132571282Y-71446282D01*
X132551492Y-71464220D01*
X132530038Y-71480131D01*
X132507128Y-71493862D01*
X132482983Y-71505282D01*
X132457835Y-71514280D01*
X132431925Y-71520770D01*
X132405505Y-71524689D01*
X132378827Y-71526000D01*
X131421173Y-71526000D01*
X131394495Y-71524689D01*
X131368075Y-71520770D01*
X131342165Y-71514280D01*
X131317017Y-71505282D01*
X131292872Y-71493862D01*
X131269962Y-71480131D01*
X131248508Y-71464220D01*
X131228718Y-71446282D01*
X131210780Y-71426492D01*
X131194869Y-71405038D01*
X131181138Y-71382128D01*
X131169718Y-71357983D01*
X131160720Y-71332835D01*
X131154230Y-71306925D01*
X131150311Y-71280505D01*
X131149000Y-71253827D01*
X131149000Y-70546173D01*
X131150311Y-70519495D01*
X131154230Y-70493075D01*
X131160720Y-70467165D01*
X131169718Y-70442017D01*
X131181138Y-70417872D01*
X131194869Y-70394962D01*
X131210780Y-70373508D01*
X131228718Y-70353718D01*
X131248508Y-70335780D01*
X131269962Y-70319869D01*
X131292872Y-70306138D01*
X131317017Y-70294718D01*
X131342165Y-70285720D01*
X131368075Y-70279230D01*
X131394495Y-70275311D01*
X131421173Y-70274000D01*
X132378827Y-70274000D01*
X132405505Y-70275311D01*
G37*
D15*
X136000000Y-69600000D03*
D10*
G36*
X134693888Y-70400398D02*
G01*
X134675466Y-70400398D01*
X134670467Y-70400152D01*
X134621636Y-70395342D01*
X134616686Y-70394608D01*
X134568561Y-70385036D01*
X134563705Y-70383820D01*
X134516750Y-70369576D01*
X134512039Y-70367890D01*
X134466706Y-70349113D01*
X134462180Y-70346973D01*
X134418907Y-70323842D01*
X134414616Y-70321269D01*
X134373817Y-70294009D01*
X134369796Y-70291027D01*
X134331867Y-70259899D01*
X134328159Y-70256538D01*
X134293462Y-70221841D01*
X134290101Y-70218133D01*
X134258973Y-70180204D01*
X134255991Y-70176183D01*
X134228731Y-70135384D01*
X134226158Y-70131093D01*
X134203027Y-70087820D01*
X134200887Y-70083294D01*
X134182110Y-70037961D01*
X134180424Y-70033250D01*
X134166180Y-69986295D01*
X134164964Y-69981439D01*
X134155392Y-69933314D01*
X134154658Y-69928364D01*
X134149848Y-69879533D01*
X134149602Y-69874534D01*
X134149602Y-69856112D01*
X134149000Y-69850000D01*
X134149000Y-69350000D01*
X134149602Y-69343888D01*
X134149602Y-69325466D01*
X134149848Y-69320467D01*
X134154658Y-69271636D01*
X134155392Y-69266686D01*
X134164964Y-69218561D01*
X134166180Y-69213705D01*
X134180424Y-69166750D01*
X134182110Y-69162039D01*
X134200887Y-69116706D01*
X134203027Y-69112180D01*
X134226158Y-69068907D01*
X134228731Y-69064616D01*
X134255991Y-69023817D01*
X134258973Y-69019796D01*
X134290101Y-68981867D01*
X134293462Y-68978159D01*
X134328159Y-68943462D01*
X134331867Y-68940101D01*
X134369796Y-68908973D01*
X134373817Y-68905991D01*
X134414616Y-68878731D01*
X134418907Y-68876158D01*
X134462180Y-68853027D01*
X134466706Y-68850887D01*
X134512039Y-68832110D01*
X134516750Y-68830424D01*
X134563705Y-68816180D01*
X134568561Y-68814964D01*
X134616686Y-68805392D01*
X134621636Y-68804658D01*
X134670467Y-68799848D01*
X134675466Y-68799602D01*
X134693888Y-68799602D01*
X134700000Y-68799000D01*
X135250000Y-68799000D01*
X135259950Y-68799980D01*
X135269517Y-68802882D01*
X135278334Y-68807595D01*
X135286062Y-68813938D01*
X135292405Y-68821666D01*
X135297118Y-68830483D01*
X135300020Y-68840050D01*
X135301000Y-68850000D01*
X135301000Y-70350000D01*
X135300020Y-70359950D01*
X135297118Y-70369517D01*
X135292405Y-70378334D01*
X135286062Y-70386062D01*
X135278334Y-70392405D01*
X135269517Y-70397118D01*
X135259950Y-70400020D01*
X135250000Y-70401000D01*
X134700000Y-70401000D01*
X134693888Y-70400398D01*
G37*
G36*
X136740050Y-70400020D02*
G01*
X136730483Y-70397118D01*
X136721666Y-70392405D01*
X136713938Y-70386062D01*
X136707595Y-70378334D01*
X136702882Y-70369517D01*
X136699980Y-70359950D01*
X136699000Y-70350000D01*
X136699000Y-68850000D01*
X136699980Y-68840050D01*
X136702882Y-68830483D01*
X136707595Y-68821666D01*
X136713938Y-68813938D01*
X136721666Y-68807595D01*
X136730483Y-68802882D01*
X136740050Y-68799980D01*
X136750000Y-68799000D01*
X137300000Y-68799000D01*
X137306112Y-68799602D01*
X137324534Y-68799602D01*
X137329533Y-68799848D01*
X137378364Y-68804658D01*
X137383314Y-68805392D01*
X137431439Y-68814964D01*
X137436295Y-68816180D01*
X137483250Y-68830424D01*
X137487961Y-68832110D01*
X137533294Y-68850887D01*
X137537820Y-68853027D01*
X137581093Y-68876158D01*
X137585384Y-68878731D01*
X137626183Y-68905991D01*
X137630204Y-68908973D01*
X137668133Y-68940101D01*
X137671841Y-68943462D01*
X137706538Y-68978159D01*
X137709899Y-68981867D01*
X137741027Y-69019796D01*
X137744009Y-69023817D01*
X137771269Y-69064616D01*
X137773842Y-69068907D01*
X137796973Y-69112180D01*
X137799113Y-69116706D01*
X137817890Y-69162039D01*
X137819576Y-69166750D01*
X137833820Y-69213705D01*
X137835036Y-69218561D01*
X137844608Y-69266686D01*
X137845342Y-69271636D01*
X137850152Y-69320467D01*
X137850398Y-69325466D01*
X137850398Y-69343888D01*
X137851000Y-69350000D01*
X137851000Y-69850000D01*
X137850398Y-69856112D01*
X137850398Y-69874534D01*
X137850152Y-69879533D01*
X137845342Y-69928364D01*
X137844608Y-69933314D01*
X137835036Y-69981439D01*
X137833820Y-69986295D01*
X137819576Y-70033250D01*
X137817890Y-70037961D01*
X137799113Y-70083294D01*
X137796973Y-70087820D01*
X137773842Y-70131093D01*
X137771269Y-70135384D01*
X137744009Y-70176183D01*
X137741027Y-70180204D01*
X137709899Y-70218133D01*
X137706538Y-70221841D01*
X137671841Y-70256538D01*
X137668133Y-70259899D01*
X137630204Y-70291027D01*
X137626183Y-70294009D01*
X137585384Y-70321269D01*
X137581093Y-70323842D01*
X137537820Y-70346973D01*
X137533294Y-70349113D01*
X137487961Y-70367890D01*
X137483250Y-70369576D01*
X137436295Y-70383820D01*
X137431439Y-70385036D01*
X137383314Y-70394608D01*
X137378364Y-70395342D01*
X137329533Y-70400152D01*
X137324534Y-70400398D01*
X137306112Y-70400398D01*
X137300000Y-70401000D01*
X136750000Y-70401000D01*
X136740050Y-70400020D01*
G37*
G36*
X136705505Y-84975311D02*
G01*
X136731925Y-84979230D01*
X136757835Y-84985720D01*
X136782983Y-84994718D01*
X136807128Y-85006138D01*
X136830038Y-85019869D01*
X136851492Y-85035780D01*
X136871282Y-85053718D01*
X136889220Y-85073508D01*
X136905131Y-85094962D01*
X136918862Y-85117872D01*
X136930282Y-85142017D01*
X136939280Y-85167165D01*
X136945770Y-85193075D01*
X136949689Y-85219495D01*
X136951000Y-85246173D01*
X136951000Y-85953827D01*
X136949689Y-85980505D01*
X136945770Y-86006925D01*
X136939280Y-86032835D01*
X136930282Y-86057983D01*
X136918862Y-86082128D01*
X136905131Y-86105038D01*
X136889220Y-86126492D01*
X136871282Y-86146282D01*
X136851492Y-86164220D01*
X136830038Y-86180131D01*
X136807128Y-86193862D01*
X136782983Y-86205282D01*
X136757835Y-86214280D01*
X136731925Y-86220770D01*
X136705505Y-86224689D01*
X136678827Y-86226000D01*
X135721173Y-86226000D01*
X135694495Y-86224689D01*
X135668075Y-86220770D01*
X135642165Y-86214280D01*
X135617017Y-86205282D01*
X135592872Y-86193862D01*
X135569962Y-86180131D01*
X135548508Y-86164220D01*
X135528718Y-86146282D01*
X135510780Y-86126492D01*
X135494869Y-86105038D01*
X135481138Y-86082128D01*
X135469718Y-86057983D01*
X135460720Y-86032835D01*
X135454230Y-86006925D01*
X135450311Y-85980505D01*
X135449000Y-85953827D01*
X135449000Y-85246173D01*
X135450311Y-85219495D01*
X135454230Y-85193075D01*
X135460720Y-85167165D01*
X135469718Y-85142017D01*
X135481138Y-85117872D01*
X135494869Y-85094962D01*
X135510780Y-85073508D01*
X135528718Y-85053718D01*
X135548508Y-85035780D01*
X135569962Y-85019869D01*
X135592872Y-85006138D01*
X135617017Y-84994718D01*
X135642165Y-84985720D01*
X135668075Y-84979230D01*
X135694495Y-84975311D01*
X135721173Y-84974000D01*
X136678827Y-84974000D01*
X136705505Y-84975311D01*
G37*
G36*
X136705505Y-82925311D02*
G01*
X136731925Y-82929230D01*
X136757835Y-82935720D01*
X136782983Y-82944718D01*
X136807128Y-82956138D01*
X136830038Y-82969869D01*
X136851492Y-82985780D01*
X136871282Y-83003718D01*
X136889220Y-83023508D01*
X136905131Y-83044962D01*
X136918862Y-83067872D01*
X136930282Y-83092017D01*
X136939280Y-83117165D01*
X136945770Y-83143075D01*
X136949689Y-83169495D01*
X136951000Y-83196173D01*
X136951000Y-83903827D01*
X136949689Y-83930505D01*
X136945770Y-83956925D01*
X136939280Y-83982835D01*
X136930282Y-84007983D01*
X136918862Y-84032128D01*
X136905131Y-84055038D01*
X136889220Y-84076492D01*
X136871282Y-84096282D01*
X136851492Y-84114220D01*
X136830038Y-84130131D01*
X136807128Y-84143862D01*
X136782983Y-84155282D01*
X136757835Y-84164280D01*
X136731925Y-84170770D01*
X136705505Y-84174689D01*
X136678827Y-84176000D01*
X135721173Y-84176000D01*
X135694495Y-84174689D01*
X135668075Y-84170770D01*
X135642165Y-84164280D01*
X135617017Y-84155282D01*
X135592872Y-84143862D01*
X135569962Y-84130131D01*
X135548508Y-84114220D01*
X135528718Y-84096282D01*
X135510780Y-84076492D01*
X135494869Y-84055038D01*
X135481138Y-84032128D01*
X135469718Y-84007983D01*
X135460720Y-83982835D01*
X135454230Y-83956925D01*
X135450311Y-83930505D01*
X135449000Y-83903827D01*
X135449000Y-83196173D01*
X135450311Y-83169495D01*
X135454230Y-83143075D01*
X135460720Y-83117165D01*
X135469718Y-83092017D01*
X135481138Y-83067872D01*
X135494869Y-83044962D01*
X135510780Y-83023508D01*
X135528718Y-83003718D01*
X135548508Y-82985780D01*
X135569962Y-82969869D01*
X135592872Y-82956138D01*
X135617017Y-82944718D01*
X135642165Y-82935720D01*
X135668075Y-82929230D01*
X135694495Y-82925311D01*
X135721173Y-82924000D01*
X136678827Y-82924000D01*
X136705505Y-82925311D01*
G37*
G36*
X126505505Y-88375311D02*
G01*
X126531925Y-88379230D01*
X126557835Y-88385720D01*
X126582983Y-88394718D01*
X126607128Y-88406138D01*
X126630038Y-88419869D01*
X126651492Y-88435780D01*
X126671282Y-88453718D01*
X126689220Y-88473508D01*
X126705131Y-88494962D01*
X126718862Y-88517872D01*
X126730282Y-88542017D01*
X126739280Y-88567165D01*
X126745770Y-88593075D01*
X126749689Y-88619495D01*
X126751000Y-88646173D01*
X126751000Y-89353827D01*
X126749689Y-89380505D01*
X126745770Y-89406925D01*
X126739280Y-89432835D01*
X126730282Y-89457983D01*
X126718862Y-89482128D01*
X126705131Y-89505038D01*
X126689220Y-89526492D01*
X126671282Y-89546282D01*
X126651492Y-89564220D01*
X126630038Y-89580131D01*
X126607128Y-89593862D01*
X126582983Y-89605282D01*
X126557835Y-89614280D01*
X126531925Y-89620770D01*
X126505505Y-89624689D01*
X126478827Y-89626000D01*
X125521173Y-89626000D01*
X125494495Y-89624689D01*
X125468075Y-89620770D01*
X125442165Y-89614280D01*
X125417017Y-89605282D01*
X125392872Y-89593862D01*
X125369962Y-89580131D01*
X125348508Y-89564220D01*
X125328718Y-89546282D01*
X125310780Y-89526492D01*
X125294869Y-89505038D01*
X125281138Y-89482128D01*
X125269718Y-89457983D01*
X125260720Y-89432835D01*
X125254230Y-89406925D01*
X125250311Y-89380505D01*
X125249000Y-89353827D01*
X125249000Y-88646173D01*
X125250311Y-88619495D01*
X125254230Y-88593075D01*
X125260720Y-88567165D01*
X125269718Y-88542017D01*
X125281138Y-88517872D01*
X125294869Y-88494962D01*
X125310780Y-88473508D01*
X125328718Y-88453718D01*
X125348508Y-88435780D01*
X125369962Y-88419869D01*
X125392872Y-88406138D01*
X125417017Y-88394718D01*
X125442165Y-88385720D01*
X125468075Y-88379230D01*
X125494495Y-88375311D01*
X125521173Y-88374000D01*
X126478827Y-88374000D01*
X126505505Y-88375311D01*
G37*
G36*
X126505505Y-90425311D02*
G01*
X126531925Y-90429230D01*
X126557835Y-90435720D01*
X126582983Y-90444718D01*
X126607128Y-90456138D01*
X126630038Y-90469869D01*
X126651492Y-90485780D01*
X126671282Y-90503718D01*
X126689220Y-90523508D01*
X126705131Y-90544962D01*
X126718862Y-90567872D01*
X126730282Y-90592017D01*
X126739280Y-90617165D01*
X126745770Y-90643075D01*
X126749689Y-90669495D01*
X126751000Y-90696173D01*
X126751000Y-91403827D01*
X126749689Y-91430505D01*
X126745770Y-91456925D01*
X126739280Y-91482835D01*
X126730282Y-91507983D01*
X126718862Y-91532128D01*
X126705131Y-91555038D01*
X126689220Y-91576492D01*
X126671282Y-91596282D01*
X126651492Y-91614220D01*
X126630038Y-91630131D01*
X126607128Y-91643862D01*
X126582983Y-91655282D01*
X126557835Y-91664280D01*
X126531925Y-91670770D01*
X126505505Y-91674689D01*
X126478827Y-91676000D01*
X125521173Y-91676000D01*
X125494495Y-91674689D01*
X125468075Y-91670770D01*
X125442165Y-91664280D01*
X125417017Y-91655282D01*
X125392872Y-91643862D01*
X125369962Y-91630131D01*
X125348508Y-91614220D01*
X125328718Y-91596282D01*
X125310780Y-91576492D01*
X125294869Y-91555038D01*
X125281138Y-91532128D01*
X125269718Y-91507983D01*
X125260720Y-91482835D01*
X125254230Y-91456925D01*
X125250311Y-91430505D01*
X125249000Y-91403827D01*
X125249000Y-90696173D01*
X125250311Y-90669495D01*
X125254230Y-90643075D01*
X125260720Y-90617165D01*
X125269718Y-90592017D01*
X125281138Y-90567872D01*
X125294869Y-90544962D01*
X125310780Y-90523508D01*
X125328718Y-90503718D01*
X125348508Y-90485780D01*
X125369962Y-90469869D01*
X125392872Y-90456138D01*
X125417017Y-90444718D01*
X125442165Y-90435720D01*
X125468075Y-90429230D01*
X125494495Y-90425311D01*
X125521173Y-90424000D01*
X126478827Y-90424000D01*
X126505505Y-90425311D01*
G37*
D16*
X133700000Y-89900000D03*
X136700000Y-88950000D03*
X136700000Y-90850000D03*
D17*
X155422600Y-86898480D03*
X155422600Y-84358480D03*
X155422600Y-81818480D03*
X155422600Y-79278480D03*
X155422600Y-76738480D03*
X144732600Y-86898480D03*
D18*
X154152600Y-72928480D03*
X141192600Y-85868480D03*
D10*
G36*
X142955505Y-89550311D02*
G01*
X142981925Y-89554230D01*
X143007835Y-89560720D01*
X143032983Y-89569718D01*
X143057128Y-89581138D01*
X143080038Y-89594869D01*
X143101492Y-89610780D01*
X143121282Y-89628718D01*
X143139220Y-89648508D01*
X143155131Y-89669962D01*
X143168862Y-89692872D01*
X143180282Y-89717017D01*
X143189280Y-89742165D01*
X143195770Y-89768075D01*
X143199689Y-89794495D01*
X143201000Y-89821173D01*
X143201000Y-90778827D01*
X143199689Y-90805505D01*
X143195770Y-90831925D01*
X143189280Y-90857835D01*
X143180282Y-90882983D01*
X143168862Y-90907128D01*
X143155131Y-90930038D01*
X143139220Y-90951492D01*
X143121282Y-90971282D01*
X143101492Y-90989220D01*
X143080038Y-91005131D01*
X143057128Y-91018862D01*
X143032983Y-91030282D01*
X143007835Y-91039280D01*
X142981925Y-91045770D01*
X142955505Y-91049689D01*
X142928827Y-91051000D01*
X142221173Y-91051000D01*
X142194495Y-91049689D01*
X142168075Y-91045770D01*
X142142165Y-91039280D01*
X142117017Y-91030282D01*
X142092872Y-91018862D01*
X142069962Y-91005131D01*
X142048508Y-90989220D01*
X142028718Y-90971282D01*
X142010780Y-90951492D01*
X141994869Y-90930038D01*
X141981138Y-90907128D01*
X141969718Y-90882983D01*
X141960720Y-90857835D01*
X141954230Y-90831925D01*
X141950311Y-90805505D01*
X141949000Y-90778827D01*
X141949000Y-89821173D01*
X141950311Y-89794495D01*
X141954230Y-89768075D01*
X141960720Y-89742165D01*
X141969718Y-89717017D01*
X141981138Y-89692872D01*
X141994869Y-89669962D01*
X142010780Y-89648508D01*
X142028718Y-89628718D01*
X142048508Y-89610780D01*
X142069962Y-89594869D01*
X142092872Y-89581138D01*
X142117017Y-89569718D01*
X142142165Y-89560720D01*
X142168075Y-89554230D01*
X142194495Y-89550311D01*
X142221173Y-89549000D01*
X142928827Y-89549000D01*
X142955505Y-89550311D01*
G37*
G36*
X145005505Y-89550311D02*
G01*
X145031925Y-89554230D01*
X145057835Y-89560720D01*
X145082983Y-89569718D01*
X145107128Y-89581138D01*
X145130038Y-89594869D01*
X145151492Y-89610780D01*
X145171282Y-89628718D01*
X145189220Y-89648508D01*
X145205131Y-89669962D01*
X145218862Y-89692872D01*
X145230282Y-89717017D01*
X145239280Y-89742165D01*
X145245770Y-89768075D01*
X145249689Y-89794495D01*
X145251000Y-89821173D01*
X145251000Y-90778827D01*
X145249689Y-90805505D01*
X145245770Y-90831925D01*
X145239280Y-90857835D01*
X145230282Y-90882983D01*
X145218862Y-90907128D01*
X145205131Y-90930038D01*
X145189220Y-90951492D01*
X145171282Y-90971282D01*
X145151492Y-90989220D01*
X145130038Y-91005131D01*
X145107128Y-91018862D01*
X145082983Y-91030282D01*
X145057835Y-91039280D01*
X145031925Y-91045770D01*
X145005505Y-91049689D01*
X144978827Y-91051000D01*
X144271173Y-91051000D01*
X144244495Y-91049689D01*
X144218075Y-91045770D01*
X144192165Y-91039280D01*
X144167017Y-91030282D01*
X144142872Y-91018862D01*
X144119962Y-91005131D01*
X144098508Y-90989220D01*
X144078718Y-90971282D01*
X144060780Y-90951492D01*
X144044869Y-90930038D01*
X144031138Y-90907128D01*
X144019718Y-90882983D01*
X144010720Y-90857835D01*
X144004230Y-90831925D01*
X144000311Y-90805505D01*
X143999000Y-90778827D01*
X143999000Y-89821173D01*
X144000311Y-89794495D01*
X144004230Y-89768075D01*
X144010720Y-89742165D01*
X144019718Y-89717017D01*
X144031138Y-89692872D01*
X144044869Y-89669962D01*
X144060780Y-89648508D01*
X144078718Y-89628718D01*
X144098508Y-89610780D01*
X144119962Y-89594869D01*
X144142872Y-89581138D01*
X144167017Y-89569718D01*
X144192165Y-89560720D01*
X144218075Y-89554230D01*
X144244495Y-89550311D01*
X144271173Y-89549000D01*
X144978827Y-89549000D01*
X145005505Y-89550311D01*
G37*
G36*
X150830505Y-89550311D02*
G01*
X150856925Y-89554230D01*
X150882835Y-89560720D01*
X150907983Y-89569718D01*
X150932128Y-89581138D01*
X150955038Y-89594869D01*
X150976492Y-89610780D01*
X150996282Y-89628718D01*
X151014220Y-89648508D01*
X151030131Y-89669962D01*
X151043862Y-89692872D01*
X151055282Y-89717017D01*
X151064280Y-89742165D01*
X151070770Y-89768075D01*
X151074689Y-89794495D01*
X151076000Y-89821173D01*
X151076000Y-90778827D01*
X151074689Y-90805505D01*
X151070770Y-90831925D01*
X151064280Y-90857835D01*
X151055282Y-90882983D01*
X151043862Y-90907128D01*
X151030131Y-90930038D01*
X151014220Y-90951492D01*
X150996282Y-90971282D01*
X150976492Y-90989220D01*
X150955038Y-91005131D01*
X150932128Y-91018862D01*
X150907983Y-91030282D01*
X150882835Y-91039280D01*
X150856925Y-91045770D01*
X150830505Y-91049689D01*
X150803827Y-91051000D01*
X150096173Y-91051000D01*
X150069495Y-91049689D01*
X150043075Y-91045770D01*
X150017165Y-91039280D01*
X149992017Y-91030282D01*
X149967872Y-91018862D01*
X149944962Y-91005131D01*
X149923508Y-90989220D01*
X149903718Y-90971282D01*
X149885780Y-90951492D01*
X149869869Y-90930038D01*
X149856138Y-90907128D01*
X149844718Y-90882983D01*
X149835720Y-90857835D01*
X149829230Y-90831925D01*
X149825311Y-90805505D01*
X149824000Y-90778827D01*
X149824000Y-89821173D01*
X149825311Y-89794495D01*
X149829230Y-89768075D01*
X149835720Y-89742165D01*
X149844718Y-89717017D01*
X149856138Y-89692872D01*
X149869869Y-89669962D01*
X149885780Y-89648508D01*
X149903718Y-89628718D01*
X149923508Y-89610780D01*
X149944962Y-89594869D01*
X149967872Y-89581138D01*
X149992017Y-89569718D01*
X150017165Y-89560720D01*
X150043075Y-89554230D01*
X150069495Y-89550311D01*
X150096173Y-89549000D01*
X150803827Y-89549000D01*
X150830505Y-89550311D01*
G37*
G36*
X148780505Y-89550311D02*
G01*
X148806925Y-89554230D01*
X148832835Y-89560720D01*
X148857983Y-89569718D01*
X148882128Y-89581138D01*
X148905038Y-89594869D01*
X148926492Y-89610780D01*
X148946282Y-89628718D01*
X148964220Y-89648508D01*
X148980131Y-89669962D01*
X148993862Y-89692872D01*
X149005282Y-89717017D01*
X149014280Y-89742165D01*
X149020770Y-89768075D01*
X149024689Y-89794495D01*
X149026000Y-89821173D01*
X149026000Y-90778827D01*
X149024689Y-90805505D01*
X149020770Y-90831925D01*
X149014280Y-90857835D01*
X149005282Y-90882983D01*
X148993862Y-90907128D01*
X148980131Y-90930038D01*
X148964220Y-90951492D01*
X148946282Y-90971282D01*
X148926492Y-90989220D01*
X148905038Y-91005131D01*
X148882128Y-91018862D01*
X148857983Y-91030282D01*
X148832835Y-91039280D01*
X148806925Y-91045770D01*
X148780505Y-91049689D01*
X148753827Y-91051000D01*
X148046173Y-91051000D01*
X148019495Y-91049689D01*
X147993075Y-91045770D01*
X147967165Y-91039280D01*
X147942017Y-91030282D01*
X147917872Y-91018862D01*
X147894962Y-91005131D01*
X147873508Y-90989220D01*
X147853718Y-90971282D01*
X147835780Y-90951492D01*
X147819869Y-90930038D01*
X147806138Y-90907128D01*
X147794718Y-90882983D01*
X147785720Y-90857835D01*
X147779230Y-90831925D01*
X147775311Y-90805505D01*
X147774000Y-90778827D01*
X147774000Y-89821173D01*
X147775311Y-89794495D01*
X147779230Y-89768075D01*
X147785720Y-89742165D01*
X147794718Y-89717017D01*
X147806138Y-89692872D01*
X147819869Y-89669962D01*
X147835780Y-89648508D01*
X147853718Y-89628718D01*
X147873508Y-89610780D01*
X147894962Y-89594869D01*
X147917872Y-89581138D01*
X147942017Y-89569718D01*
X147967165Y-89560720D01*
X147993075Y-89554230D01*
X148019495Y-89550311D01*
X148046173Y-89549000D01*
X148753827Y-89549000D01*
X148780505Y-89550311D01*
G37*
G36*
X129105505Y-90400311D02*
G01*
X129131925Y-90404230D01*
X129157835Y-90410720D01*
X129182983Y-90419718D01*
X129207128Y-90431138D01*
X129230038Y-90444869D01*
X129251492Y-90460780D01*
X129271282Y-90478718D01*
X129289220Y-90498508D01*
X129305131Y-90519962D01*
X129318862Y-90542872D01*
X129330282Y-90567017D01*
X129339280Y-90592165D01*
X129345770Y-90618075D01*
X129349689Y-90644495D01*
X129351000Y-90671173D01*
X129351000Y-91378827D01*
X129349689Y-91405505D01*
X129345770Y-91431925D01*
X129339280Y-91457835D01*
X129330282Y-91482983D01*
X129318862Y-91507128D01*
X129305131Y-91530038D01*
X129289220Y-91551492D01*
X129271282Y-91571282D01*
X129251492Y-91589220D01*
X129230038Y-91605131D01*
X129207128Y-91618862D01*
X129182983Y-91630282D01*
X129157835Y-91639280D01*
X129131925Y-91645770D01*
X129105505Y-91649689D01*
X129078827Y-91651000D01*
X128121173Y-91651000D01*
X128094495Y-91649689D01*
X128068075Y-91645770D01*
X128042165Y-91639280D01*
X128017017Y-91630282D01*
X127992872Y-91618862D01*
X127969962Y-91605131D01*
X127948508Y-91589220D01*
X127928718Y-91571282D01*
X127910780Y-91551492D01*
X127894869Y-91530038D01*
X127881138Y-91507128D01*
X127869718Y-91482983D01*
X127860720Y-91457835D01*
X127854230Y-91431925D01*
X127850311Y-91405505D01*
X127849000Y-91378827D01*
X127849000Y-90671173D01*
X127850311Y-90644495D01*
X127854230Y-90618075D01*
X127860720Y-90592165D01*
X127869718Y-90567017D01*
X127881138Y-90542872D01*
X127894869Y-90519962D01*
X127910780Y-90498508D01*
X127928718Y-90478718D01*
X127948508Y-90460780D01*
X127969962Y-90444869D01*
X127992872Y-90431138D01*
X128017017Y-90419718D01*
X128042165Y-90410720D01*
X128068075Y-90404230D01*
X128094495Y-90400311D01*
X128121173Y-90399000D01*
X129078827Y-90399000D01*
X129105505Y-90400311D01*
G37*
G36*
X129105505Y-88350311D02*
G01*
X129131925Y-88354230D01*
X129157835Y-88360720D01*
X129182983Y-88369718D01*
X129207128Y-88381138D01*
X129230038Y-88394869D01*
X129251492Y-88410780D01*
X129271282Y-88428718D01*
X129289220Y-88448508D01*
X129305131Y-88469962D01*
X129318862Y-88492872D01*
X129330282Y-88517017D01*
X129339280Y-88542165D01*
X129345770Y-88568075D01*
X129349689Y-88594495D01*
X129351000Y-88621173D01*
X129351000Y-89328827D01*
X129349689Y-89355505D01*
X129345770Y-89381925D01*
X129339280Y-89407835D01*
X129330282Y-89432983D01*
X129318862Y-89457128D01*
X129305131Y-89480038D01*
X129289220Y-89501492D01*
X129271282Y-89521282D01*
X129251492Y-89539220D01*
X129230038Y-89555131D01*
X129207128Y-89568862D01*
X129182983Y-89580282D01*
X129157835Y-89589280D01*
X129131925Y-89595770D01*
X129105505Y-89599689D01*
X129078827Y-89601000D01*
X128121173Y-89601000D01*
X128094495Y-89599689D01*
X128068075Y-89595770D01*
X128042165Y-89589280D01*
X128017017Y-89580282D01*
X127992872Y-89568862D01*
X127969962Y-89555131D01*
X127948508Y-89539220D01*
X127928718Y-89521282D01*
X127910780Y-89501492D01*
X127894869Y-89480038D01*
X127881138Y-89457128D01*
X127869718Y-89432983D01*
X127860720Y-89407835D01*
X127854230Y-89381925D01*
X127850311Y-89355505D01*
X127849000Y-89328827D01*
X127849000Y-88621173D01*
X127850311Y-88594495D01*
X127854230Y-88568075D01*
X127860720Y-88542165D01*
X127869718Y-88517017D01*
X127881138Y-88492872D01*
X127894869Y-88469962D01*
X127910780Y-88448508D01*
X127928718Y-88428718D01*
X127948508Y-88410780D01*
X127969962Y-88394869D01*
X127992872Y-88381138D01*
X128017017Y-88369718D01*
X128042165Y-88360720D01*
X128068075Y-88354230D01*
X128094495Y-88350311D01*
X128121173Y-88349000D01*
X129078827Y-88349000D01*
X129105505Y-88350311D01*
G37*
D19*
X120000000Y-90000000D03*
X170000000Y-90000000D03*
X120000000Y-70000000D03*
X170000000Y-70000000D03*
D13*
X164465000Y-76200000D03*
X161925000Y-76200000D03*
D14*
X159385000Y-76200000D03*
D13*
X164465000Y-78740000D03*
X161925000Y-78740000D03*
D14*
X159385000Y-78740000D03*
D13*
X164465000Y-81280000D03*
X161925000Y-81280000D03*
D14*
X159385000Y-81280000D03*
D13*
X164465000Y-83820000D03*
X161925000Y-83820000D03*
D14*
X159385000Y-83820000D03*
D20*
X130937000Y-82470000D03*
D21*
X130937000Y-77470000D03*
D22*
X120937000Y-85470000D03*
X120937000Y-74470000D03*
D13*
X136200000Y-73920000D03*
X136200000Y-76460000D03*
D14*
X136200000Y-79000000D03*
M02*
