G04 #@! TF.GenerationSoftware,KiCad,Pcbnew,(5.1.5)-3*
G04 #@! TF.CreationDate,2021-10-17T14:13:30-07:00*
G04 #@! TF.ProjectId,pololu_regulator_breakout,706f6c6f-6c75-45f7-9265-67756c61746f,rev?*
G04 #@! TF.SameCoordinates,Original*
G04 #@! TF.FileFunction,Paste,Top*
G04 #@! TF.FilePolarity,Positive*
%FSLAX46Y46*%
G04 Gerber Fmt 4.6, Leading zero omitted, Abs format (unit mm)*
G04 Created by KiCad (PCBNEW (5.1.5)-3) date 2021-10-17 14:13:30*
%MOMM*%
%LPD*%
G04 APERTURE LIST*
%ADD10C,0.100000*%
%ADD11R,1.900000X0.800000*%
G04 APERTURE END LIST*
D10*
G36*
X132374505Y-68276204D02*
G01*
X132398773Y-68279804D01*
X132422572Y-68285765D01*
X132445671Y-68294030D01*
X132467850Y-68304520D01*
X132488893Y-68317132D01*
X132508599Y-68331747D01*
X132526777Y-68348223D01*
X132543253Y-68366401D01*
X132557868Y-68386107D01*
X132570480Y-68407150D01*
X132580970Y-68429329D01*
X132589235Y-68452428D01*
X132595196Y-68476227D01*
X132598796Y-68500495D01*
X132600000Y-68524999D01*
X132600000Y-69175001D01*
X132598796Y-69199505D01*
X132595196Y-69223773D01*
X132589235Y-69247572D01*
X132580970Y-69270671D01*
X132570480Y-69292850D01*
X132557868Y-69313893D01*
X132543253Y-69333599D01*
X132526777Y-69351777D01*
X132508599Y-69368253D01*
X132488893Y-69382868D01*
X132467850Y-69395480D01*
X132445671Y-69405970D01*
X132422572Y-69414235D01*
X132398773Y-69420196D01*
X132374505Y-69423796D01*
X132350001Y-69425000D01*
X131449999Y-69425000D01*
X131425495Y-69423796D01*
X131401227Y-69420196D01*
X131377428Y-69414235D01*
X131354329Y-69405970D01*
X131332150Y-69395480D01*
X131311107Y-69382868D01*
X131291401Y-69368253D01*
X131273223Y-69351777D01*
X131256747Y-69333599D01*
X131242132Y-69313893D01*
X131229520Y-69292850D01*
X131219030Y-69270671D01*
X131210765Y-69247572D01*
X131204804Y-69223773D01*
X131201204Y-69199505D01*
X131200000Y-69175001D01*
X131200000Y-68524999D01*
X131201204Y-68500495D01*
X131204804Y-68476227D01*
X131210765Y-68452428D01*
X131219030Y-68429329D01*
X131229520Y-68407150D01*
X131242132Y-68386107D01*
X131256747Y-68366401D01*
X131273223Y-68348223D01*
X131291401Y-68331747D01*
X131311107Y-68317132D01*
X131332150Y-68304520D01*
X131354329Y-68294030D01*
X131377428Y-68285765D01*
X131401227Y-68279804D01*
X131425495Y-68276204D01*
X131449999Y-68275000D01*
X132350001Y-68275000D01*
X132374505Y-68276204D01*
G37*
G36*
X132374505Y-70326204D02*
G01*
X132398773Y-70329804D01*
X132422572Y-70335765D01*
X132445671Y-70344030D01*
X132467850Y-70354520D01*
X132488893Y-70367132D01*
X132508599Y-70381747D01*
X132526777Y-70398223D01*
X132543253Y-70416401D01*
X132557868Y-70436107D01*
X132570480Y-70457150D01*
X132580970Y-70479329D01*
X132589235Y-70502428D01*
X132595196Y-70526227D01*
X132598796Y-70550495D01*
X132600000Y-70574999D01*
X132600000Y-71225001D01*
X132598796Y-71249505D01*
X132595196Y-71273773D01*
X132589235Y-71297572D01*
X132580970Y-71320671D01*
X132570480Y-71342850D01*
X132557868Y-71363893D01*
X132543253Y-71383599D01*
X132526777Y-71401777D01*
X132508599Y-71418253D01*
X132488893Y-71432868D01*
X132467850Y-71445480D01*
X132445671Y-71455970D01*
X132422572Y-71464235D01*
X132398773Y-71470196D01*
X132374505Y-71473796D01*
X132350001Y-71475000D01*
X131449999Y-71475000D01*
X131425495Y-71473796D01*
X131401227Y-71470196D01*
X131377428Y-71464235D01*
X131354329Y-71455970D01*
X131332150Y-71445480D01*
X131311107Y-71432868D01*
X131291401Y-71418253D01*
X131273223Y-71401777D01*
X131256747Y-71383599D01*
X131242132Y-71363893D01*
X131229520Y-71342850D01*
X131219030Y-71320671D01*
X131210765Y-71297572D01*
X131204804Y-71273773D01*
X131201204Y-71249505D01*
X131200000Y-71225001D01*
X131200000Y-70574999D01*
X131201204Y-70550495D01*
X131204804Y-70526227D01*
X131210765Y-70502428D01*
X131219030Y-70479329D01*
X131229520Y-70457150D01*
X131242132Y-70436107D01*
X131256747Y-70416401D01*
X131273223Y-70398223D01*
X131291401Y-70381747D01*
X131311107Y-70367132D01*
X131332150Y-70354520D01*
X131354329Y-70344030D01*
X131377428Y-70335765D01*
X131401227Y-70329804D01*
X131425495Y-70326204D01*
X131449999Y-70325000D01*
X132350001Y-70325000D01*
X132374505Y-70326204D01*
G37*
G36*
X136674505Y-85026204D02*
G01*
X136698773Y-85029804D01*
X136722572Y-85035765D01*
X136745671Y-85044030D01*
X136767850Y-85054520D01*
X136788893Y-85067132D01*
X136808599Y-85081747D01*
X136826777Y-85098223D01*
X136843253Y-85116401D01*
X136857868Y-85136107D01*
X136870480Y-85157150D01*
X136880970Y-85179329D01*
X136889235Y-85202428D01*
X136895196Y-85226227D01*
X136898796Y-85250495D01*
X136900000Y-85274999D01*
X136900000Y-85925001D01*
X136898796Y-85949505D01*
X136895196Y-85973773D01*
X136889235Y-85997572D01*
X136880970Y-86020671D01*
X136870480Y-86042850D01*
X136857868Y-86063893D01*
X136843253Y-86083599D01*
X136826777Y-86101777D01*
X136808599Y-86118253D01*
X136788893Y-86132868D01*
X136767850Y-86145480D01*
X136745671Y-86155970D01*
X136722572Y-86164235D01*
X136698773Y-86170196D01*
X136674505Y-86173796D01*
X136650001Y-86175000D01*
X135749999Y-86175000D01*
X135725495Y-86173796D01*
X135701227Y-86170196D01*
X135677428Y-86164235D01*
X135654329Y-86155970D01*
X135632150Y-86145480D01*
X135611107Y-86132868D01*
X135591401Y-86118253D01*
X135573223Y-86101777D01*
X135556747Y-86083599D01*
X135542132Y-86063893D01*
X135529520Y-86042850D01*
X135519030Y-86020671D01*
X135510765Y-85997572D01*
X135504804Y-85973773D01*
X135501204Y-85949505D01*
X135500000Y-85925001D01*
X135500000Y-85274999D01*
X135501204Y-85250495D01*
X135504804Y-85226227D01*
X135510765Y-85202428D01*
X135519030Y-85179329D01*
X135529520Y-85157150D01*
X135542132Y-85136107D01*
X135556747Y-85116401D01*
X135573223Y-85098223D01*
X135591401Y-85081747D01*
X135611107Y-85067132D01*
X135632150Y-85054520D01*
X135654329Y-85044030D01*
X135677428Y-85035765D01*
X135701227Y-85029804D01*
X135725495Y-85026204D01*
X135749999Y-85025000D01*
X136650001Y-85025000D01*
X136674505Y-85026204D01*
G37*
G36*
X136674505Y-82976204D02*
G01*
X136698773Y-82979804D01*
X136722572Y-82985765D01*
X136745671Y-82994030D01*
X136767850Y-83004520D01*
X136788893Y-83017132D01*
X136808599Y-83031747D01*
X136826777Y-83048223D01*
X136843253Y-83066401D01*
X136857868Y-83086107D01*
X136870480Y-83107150D01*
X136880970Y-83129329D01*
X136889235Y-83152428D01*
X136895196Y-83176227D01*
X136898796Y-83200495D01*
X136900000Y-83224999D01*
X136900000Y-83875001D01*
X136898796Y-83899505D01*
X136895196Y-83923773D01*
X136889235Y-83947572D01*
X136880970Y-83970671D01*
X136870480Y-83992850D01*
X136857868Y-84013893D01*
X136843253Y-84033599D01*
X136826777Y-84051777D01*
X136808599Y-84068253D01*
X136788893Y-84082868D01*
X136767850Y-84095480D01*
X136745671Y-84105970D01*
X136722572Y-84114235D01*
X136698773Y-84120196D01*
X136674505Y-84123796D01*
X136650001Y-84125000D01*
X135749999Y-84125000D01*
X135725495Y-84123796D01*
X135701227Y-84120196D01*
X135677428Y-84114235D01*
X135654329Y-84105970D01*
X135632150Y-84095480D01*
X135611107Y-84082868D01*
X135591401Y-84068253D01*
X135573223Y-84051777D01*
X135556747Y-84033599D01*
X135542132Y-84013893D01*
X135529520Y-83992850D01*
X135519030Y-83970671D01*
X135510765Y-83947572D01*
X135504804Y-83923773D01*
X135501204Y-83899505D01*
X135500000Y-83875001D01*
X135500000Y-83224999D01*
X135501204Y-83200495D01*
X135504804Y-83176227D01*
X135510765Y-83152428D01*
X135519030Y-83129329D01*
X135529520Y-83107150D01*
X135542132Y-83086107D01*
X135556747Y-83066401D01*
X135573223Y-83048223D01*
X135591401Y-83031747D01*
X135611107Y-83017132D01*
X135632150Y-83004520D01*
X135654329Y-82994030D01*
X135677428Y-82985765D01*
X135701227Y-82979804D01*
X135725495Y-82976204D01*
X135749999Y-82975000D01*
X136650001Y-82975000D01*
X136674505Y-82976204D01*
G37*
G36*
X126474505Y-88426204D02*
G01*
X126498773Y-88429804D01*
X126522572Y-88435765D01*
X126545671Y-88444030D01*
X126567850Y-88454520D01*
X126588893Y-88467132D01*
X126608599Y-88481747D01*
X126626777Y-88498223D01*
X126643253Y-88516401D01*
X126657868Y-88536107D01*
X126670480Y-88557150D01*
X126680970Y-88579329D01*
X126689235Y-88602428D01*
X126695196Y-88626227D01*
X126698796Y-88650495D01*
X126700000Y-88674999D01*
X126700000Y-89325001D01*
X126698796Y-89349505D01*
X126695196Y-89373773D01*
X126689235Y-89397572D01*
X126680970Y-89420671D01*
X126670480Y-89442850D01*
X126657868Y-89463893D01*
X126643253Y-89483599D01*
X126626777Y-89501777D01*
X126608599Y-89518253D01*
X126588893Y-89532868D01*
X126567850Y-89545480D01*
X126545671Y-89555970D01*
X126522572Y-89564235D01*
X126498773Y-89570196D01*
X126474505Y-89573796D01*
X126450001Y-89575000D01*
X125549999Y-89575000D01*
X125525495Y-89573796D01*
X125501227Y-89570196D01*
X125477428Y-89564235D01*
X125454329Y-89555970D01*
X125432150Y-89545480D01*
X125411107Y-89532868D01*
X125391401Y-89518253D01*
X125373223Y-89501777D01*
X125356747Y-89483599D01*
X125342132Y-89463893D01*
X125329520Y-89442850D01*
X125319030Y-89420671D01*
X125310765Y-89397572D01*
X125304804Y-89373773D01*
X125301204Y-89349505D01*
X125300000Y-89325001D01*
X125300000Y-88674999D01*
X125301204Y-88650495D01*
X125304804Y-88626227D01*
X125310765Y-88602428D01*
X125319030Y-88579329D01*
X125329520Y-88557150D01*
X125342132Y-88536107D01*
X125356747Y-88516401D01*
X125373223Y-88498223D01*
X125391401Y-88481747D01*
X125411107Y-88467132D01*
X125432150Y-88454520D01*
X125454329Y-88444030D01*
X125477428Y-88435765D01*
X125501227Y-88429804D01*
X125525495Y-88426204D01*
X125549999Y-88425000D01*
X126450001Y-88425000D01*
X126474505Y-88426204D01*
G37*
G36*
X126474505Y-90476204D02*
G01*
X126498773Y-90479804D01*
X126522572Y-90485765D01*
X126545671Y-90494030D01*
X126567850Y-90504520D01*
X126588893Y-90517132D01*
X126608599Y-90531747D01*
X126626777Y-90548223D01*
X126643253Y-90566401D01*
X126657868Y-90586107D01*
X126670480Y-90607150D01*
X126680970Y-90629329D01*
X126689235Y-90652428D01*
X126695196Y-90676227D01*
X126698796Y-90700495D01*
X126700000Y-90724999D01*
X126700000Y-91375001D01*
X126698796Y-91399505D01*
X126695196Y-91423773D01*
X126689235Y-91447572D01*
X126680970Y-91470671D01*
X126670480Y-91492850D01*
X126657868Y-91513893D01*
X126643253Y-91533599D01*
X126626777Y-91551777D01*
X126608599Y-91568253D01*
X126588893Y-91582868D01*
X126567850Y-91595480D01*
X126545671Y-91605970D01*
X126522572Y-91614235D01*
X126498773Y-91620196D01*
X126474505Y-91623796D01*
X126450001Y-91625000D01*
X125549999Y-91625000D01*
X125525495Y-91623796D01*
X125501227Y-91620196D01*
X125477428Y-91614235D01*
X125454329Y-91605970D01*
X125432150Y-91595480D01*
X125411107Y-91582868D01*
X125391401Y-91568253D01*
X125373223Y-91551777D01*
X125356747Y-91533599D01*
X125342132Y-91513893D01*
X125329520Y-91492850D01*
X125319030Y-91470671D01*
X125310765Y-91447572D01*
X125304804Y-91423773D01*
X125301204Y-91399505D01*
X125300000Y-91375001D01*
X125300000Y-90724999D01*
X125301204Y-90700495D01*
X125304804Y-90676227D01*
X125310765Y-90652428D01*
X125319030Y-90629329D01*
X125329520Y-90607150D01*
X125342132Y-90586107D01*
X125356747Y-90566401D01*
X125373223Y-90548223D01*
X125391401Y-90531747D01*
X125411107Y-90517132D01*
X125432150Y-90504520D01*
X125454329Y-90494030D01*
X125477428Y-90485765D01*
X125501227Y-90479804D01*
X125525495Y-90476204D01*
X125549999Y-90475000D01*
X126450001Y-90475000D01*
X126474505Y-90476204D01*
G37*
D11*
X133700000Y-89900000D03*
X136700000Y-88950000D03*
X136700000Y-90850000D03*
D10*
G36*
X142924505Y-89601204D02*
G01*
X142948773Y-89604804D01*
X142972572Y-89610765D01*
X142995671Y-89619030D01*
X143017850Y-89629520D01*
X143038893Y-89642132D01*
X143058599Y-89656747D01*
X143076777Y-89673223D01*
X143093253Y-89691401D01*
X143107868Y-89711107D01*
X143120480Y-89732150D01*
X143130970Y-89754329D01*
X143139235Y-89777428D01*
X143145196Y-89801227D01*
X143148796Y-89825495D01*
X143150000Y-89849999D01*
X143150000Y-90750001D01*
X143148796Y-90774505D01*
X143145196Y-90798773D01*
X143139235Y-90822572D01*
X143130970Y-90845671D01*
X143120480Y-90867850D01*
X143107868Y-90888893D01*
X143093253Y-90908599D01*
X143076777Y-90926777D01*
X143058599Y-90943253D01*
X143038893Y-90957868D01*
X143017850Y-90970480D01*
X142995671Y-90980970D01*
X142972572Y-90989235D01*
X142948773Y-90995196D01*
X142924505Y-90998796D01*
X142900001Y-91000000D01*
X142249999Y-91000000D01*
X142225495Y-90998796D01*
X142201227Y-90995196D01*
X142177428Y-90989235D01*
X142154329Y-90980970D01*
X142132150Y-90970480D01*
X142111107Y-90957868D01*
X142091401Y-90943253D01*
X142073223Y-90926777D01*
X142056747Y-90908599D01*
X142042132Y-90888893D01*
X142029520Y-90867850D01*
X142019030Y-90845671D01*
X142010765Y-90822572D01*
X142004804Y-90798773D01*
X142001204Y-90774505D01*
X142000000Y-90750001D01*
X142000000Y-89849999D01*
X142001204Y-89825495D01*
X142004804Y-89801227D01*
X142010765Y-89777428D01*
X142019030Y-89754329D01*
X142029520Y-89732150D01*
X142042132Y-89711107D01*
X142056747Y-89691401D01*
X142073223Y-89673223D01*
X142091401Y-89656747D01*
X142111107Y-89642132D01*
X142132150Y-89629520D01*
X142154329Y-89619030D01*
X142177428Y-89610765D01*
X142201227Y-89604804D01*
X142225495Y-89601204D01*
X142249999Y-89600000D01*
X142900001Y-89600000D01*
X142924505Y-89601204D01*
G37*
G36*
X144974505Y-89601204D02*
G01*
X144998773Y-89604804D01*
X145022572Y-89610765D01*
X145045671Y-89619030D01*
X145067850Y-89629520D01*
X145088893Y-89642132D01*
X145108599Y-89656747D01*
X145126777Y-89673223D01*
X145143253Y-89691401D01*
X145157868Y-89711107D01*
X145170480Y-89732150D01*
X145180970Y-89754329D01*
X145189235Y-89777428D01*
X145195196Y-89801227D01*
X145198796Y-89825495D01*
X145200000Y-89849999D01*
X145200000Y-90750001D01*
X145198796Y-90774505D01*
X145195196Y-90798773D01*
X145189235Y-90822572D01*
X145180970Y-90845671D01*
X145170480Y-90867850D01*
X145157868Y-90888893D01*
X145143253Y-90908599D01*
X145126777Y-90926777D01*
X145108599Y-90943253D01*
X145088893Y-90957868D01*
X145067850Y-90970480D01*
X145045671Y-90980970D01*
X145022572Y-90989235D01*
X144998773Y-90995196D01*
X144974505Y-90998796D01*
X144950001Y-91000000D01*
X144299999Y-91000000D01*
X144275495Y-90998796D01*
X144251227Y-90995196D01*
X144227428Y-90989235D01*
X144204329Y-90980970D01*
X144182150Y-90970480D01*
X144161107Y-90957868D01*
X144141401Y-90943253D01*
X144123223Y-90926777D01*
X144106747Y-90908599D01*
X144092132Y-90888893D01*
X144079520Y-90867850D01*
X144069030Y-90845671D01*
X144060765Y-90822572D01*
X144054804Y-90798773D01*
X144051204Y-90774505D01*
X144050000Y-90750001D01*
X144050000Y-89849999D01*
X144051204Y-89825495D01*
X144054804Y-89801227D01*
X144060765Y-89777428D01*
X144069030Y-89754329D01*
X144079520Y-89732150D01*
X144092132Y-89711107D01*
X144106747Y-89691401D01*
X144123223Y-89673223D01*
X144141401Y-89656747D01*
X144161107Y-89642132D01*
X144182150Y-89629520D01*
X144204329Y-89619030D01*
X144227428Y-89610765D01*
X144251227Y-89604804D01*
X144275495Y-89601204D01*
X144299999Y-89600000D01*
X144950001Y-89600000D01*
X144974505Y-89601204D01*
G37*
G36*
X150799505Y-89601204D02*
G01*
X150823773Y-89604804D01*
X150847572Y-89610765D01*
X150870671Y-89619030D01*
X150892850Y-89629520D01*
X150913893Y-89642132D01*
X150933599Y-89656747D01*
X150951777Y-89673223D01*
X150968253Y-89691401D01*
X150982868Y-89711107D01*
X150995480Y-89732150D01*
X151005970Y-89754329D01*
X151014235Y-89777428D01*
X151020196Y-89801227D01*
X151023796Y-89825495D01*
X151025000Y-89849999D01*
X151025000Y-90750001D01*
X151023796Y-90774505D01*
X151020196Y-90798773D01*
X151014235Y-90822572D01*
X151005970Y-90845671D01*
X150995480Y-90867850D01*
X150982868Y-90888893D01*
X150968253Y-90908599D01*
X150951777Y-90926777D01*
X150933599Y-90943253D01*
X150913893Y-90957868D01*
X150892850Y-90970480D01*
X150870671Y-90980970D01*
X150847572Y-90989235D01*
X150823773Y-90995196D01*
X150799505Y-90998796D01*
X150775001Y-91000000D01*
X150124999Y-91000000D01*
X150100495Y-90998796D01*
X150076227Y-90995196D01*
X150052428Y-90989235D01*
X150029329Y-90980970D01*
X150007150Y-90970480D01*
X149986107Y-90957868D01*
X149966401Y-90943253D01*
X149948223Y-90926777D01*
X149931747Y-90908599D01*
X149917132Y-90888893D01*
X149904520Y-90867850D01*
X149894030Y-90845671D01*
X149885765Y-90822572D01*
X149879804Y-90798773D01*
X149876204Y-90774505D01*
X149875000Y-90750001D01*
X149875000Y-89849999D01*
X149876204Y-89825495D01*
X149879804Y-89801227D01*
X149885765Y-89777428D01*
X149894030Y-89754329D01*
X149904520Y-89732150D01*
X149917132Y-89711107D01*
X149931747Y-89691401D01*
X149948223Y-89673223D01*
X149966401Y-89656747D01*
X149986107Y-89642132D01*
X150007150Y-89629520D01*
X150029329Y-89619030D01*
X150052428Y-89610765D01*
X150076227Y-89604804D01*
X150100495Y-89601204D01*
X150124999Y-89600000D01*
X150775001Y-89600000D01*
X150799505Y-89601204D01*
G37*
G36*
X148749505Y-89601204D02*
G01*
X148773773Y-89604804D01*
X148797572Y-89610765D01*
X148820671Y-89619030D01*
X148842850Y-89629520D01*
X148863893Y-89642132D01*
X148883599Y-89656747D01*
X148901777Y-89673223D01*
X148918253Y-89691401D01*
X148932868Y-89711107D01*
X148945480Y-89732150D01*
X148955970Y-89754329D01*
X148964235Y-89777428D01*
X148970196Y-89801227D01*
X148973796Y-89825495D01*
X148975000Y-89849999D01*
X148975000Y-90750001D01*
X148973796Y-90774505D01*
X148970196Y-90798773D01*
X148964235Y-90822572D01*
X148955970Y-90845671D01*
X148945480Y-90867850D01*
X148932868Y-90888893D01*
X148918253Y-90908599D01*
X148901777Y-90926777D01*
X148883599Y-90943253D01*
X148863893Y-90957868D01*
X148842850Y-90970480D01*
X148820671Y-90980970D01*
X148797572Y-90989235D01*
X148773773Y-90995196D01*
X148749505Y-90998796D01*
X148725001Y-91000000D01*
X148074999Y-91000000D01*
X148050495Y-90998796D01*
X148026227Y-90995196D01*
X148002428Y-90989235D01*
X147979329Y-90980970D01*
X147957150Y-90970480D01*
X147936107Y-90957868D01*
X147916401Y-90943253D01*
X147898223Y-90926777D01*
X147881747Y-90908599D01*
X147867132Y-90888893D01*
X147854520Y-90867850D01*
X147844030Y-90845671D01*
X147835765Y-90822572D01*
X147829804Y-90798773D01*
X147826204Y-90774505D01*
X147825000Y-90750001D01*
X147825000Y-89849999D01*
X147826204Y-89825495D01*
X147829804Y-89801227D01*
X147835765Y-89777428D01*
X147844030Y-89754329D01*
X147854520Y-89732150D01*
X147867132Y-89711107D01*
X147881747Y-89691401D01*
X147898223Y-89673223D01*
X147916401Y-89656747D01*
X147936107Y-89642132D01*
X147957150Y-89629520D01*
X147979329Y-89619030D01*
X148002428Y-89610765D01*
X148026227Y-89604804D01*
X148050495Y-89601204D01*
X148074999Y-89600000D01*
X148725001Y-89600000D01*
X148749505Y-89601204D01*
G37*
G36*
X129074505Y-90451204D02*
G01*
X129098773Y-90454804D01*
X129122572Y-90460765D01*
X129145671Y-90469030D01*
X129167850Y-90479520D01*
X129188893Y-90492132D01*
X129208599Y-90506747D01*
X129226777Y-90523223D01*
X129243253Y-90541401D01*
X129257868Y-90561107D01*
X129270480Y-90582150D01*
X129280970Y-90604329D01*
X129289235Y-90627428D01*
X129295196Y-90651227D01*
X129298796Y-90675495D01*
X129300000Y-90699999D01*
X129300000Y-91350001D01*
X129298796Y-91374505D01*
X129295196Y-91398773D01*
X129289235Y-91422572D01*
X129280970Y-91445671D01*
X129270480Y-91467850D01*
X129257868Y-91488893D01*
X129243253Y-91508599D01*
X129226777Y-91526777D01*
X129208599Y-91543253D01*
X129188893Y-91557868D01*
X129167850Y-91570480D01*
X129145671Y-91580970D01*
X129122572Y-91589235D01*
X129098773Y-91595196D01*
X129074505Y-91598796D01*
X129050001Y-91600000D01*
X128149999Y-91600000D01*
X128125495Y-91598796D01*
X128101227Y-91595196D01*
X128077428Y-91589235D01*
X128054329Y-91580970D01*
X128032150Y-91570480D01*
X128011107Y-91557868D01*
X127991401Y-91543253D01*
X127973223Y-91526777D01*
X127956747Y-91508599D01*
X127942132Y-91488893D01*
X127929520Y-91467850D01*
X127919030Y-91445671D01*
X127910765Y-91422572D01*
X127904804Y-91398773D01*
X127901204Y-91374505D01*
X127900000Y-91350001D01*
X127900000Y-90699999D01*
X127901204Y-90675495D01*
X127904804Y-90651227D01*
X127910765Y-90627428D01*
X127919030Y-90604329D01*
X127929520Y-90582150D01*
X127942132Y-90561107D01*
X127956747Y-90541401D01*
X127973223Y-90523223D01*
X127991401Y-90506747D01*
X128011107Y-90492132D01*
X128032150Y-90479520D01*
X128054329Y-90469030D01*
X128077428Y-90460765D01*
X128101227Y-90454804D01*
X128125495Y-90451204D01*
X128149999Y-90450000D01*
X129050001Y-90450000D01*
X129074505Y-90451204D01*
G37*
G36*
X129074505Y-88401204D02*
G01*
X129098773Y-88404804D01*
X129122572Y-88410765D01*
X129145671Y-88419030D01*
X129167850Y-88429520D01*
X129188893Y-88442132D01*
X129208599Y-88456747D01*
X129226777Y-88473223D01*
X129243253Y-88491401D01*
X129257868Y-88511107D01*
X129270480Y-88532150D01*
X129280970Y-88554329D01*
X129289235Y-88577428D01*
X129295196Y-88601227D01*
X129298796Y-88625495D01*
X129300000Y-88649999D01*
X129300000Y-89300001D01*
X129298796Y-89324505D01*
X129295196Y-89348773D01*
X129289235Y-89372572D01*
X129280970Y-89395671D01*
X129270480Y-89417850D01*
X129257868Y-89438893D01*
X129243253Y-89458599D01*
X129226777Y-89476777D01*
X129208599Y-89493253D01*
X129188893Y-89507868D01*
X129167850Y-89520480D01*
X129145671Y-89530970D01*
X129122572Y-89539235D01*
X129098773Y-89545196D01*
X129074505Y-89548796D01*
X129050001Y-89550000D01*
X128149999Y-89550000D01*
X128125495Y-89548796D01*
X128101227Y-89545196D01*
X128077428Y-89539235D01*
X128054329Y-89530970D01*
X128032150Y-89520480D01*
X128011107Y-89507868D01*
X127991401Y-89493253D01*
X127973223Y-89476777D01*
X127956747Y-89458599D01*
X127942132Y-89438893D01*
X127929520Y-89417850D01*
X127919030Y-89395671D01*
X127910765Y-89372572D01*
X127904804Y-89348773D01*
X127901204Y-89324505D01*
X127900000Y-89300001D01*
X127900000Y-88649999D01*
X127901204Y-88625495D01*
X127904804Y-88601227D01*
X127910765Y-88577428D01*
X127919030Y-88554329D01*
X127929520Y-88532150D01*
X127942132Y-88511107D01*
X127956747Y-88491401D01*
X127973223Y-88473223D01*
X127991401Y-88456747D01*
X128011107Y-88442132D01*
X128032150Y-88429520D01*
X128054329Y-88419030D01*
X128077428Y-88410765D01*
X128101227Y-88404804D01*
X128125495Y-88401204D01*
X128149999Y-88400000D01*
X129050001Y-88400000D01*
X129074505Y-88401204D01*
G37*
M02*
